<?xml version="1.0" encoding="UTF-8"?>
<svg id="_圖層_2" data-name="圖層 2" xmlns="http://www.w3.org/2000/svg" viewBox="0 0 2005.5 68.92">
  <defs>
    <style>
      .cls-1 {
        fill: #f8f3eb;
        stroke-width: 0px;
      }
    </style>
  </defs>
  <g id="_圖層_1-2" data-name=" 圖層 1">
    <path class="cls-1" d="M1943,23.92c-30-14-112.6-33.6-203,0-24.5,6.5-84.4,15.5-128,0-54.5-19.4-124-35.1-205,0-21,6.5-74.7,15.5-121.5,0-58.5-19.4-104-39.4-208,0-18.3,6.1-67.9,14.5-119.5,0-34.3-15.4-124.2-37.1-209,0-21.3,5.4-74.2,13-115,0-51-16.3-110.5-44.5-218.5,0-17.8,6.1-66.1,14.5-116.5,0-63-18.2-103.5-37.6-204,0-14.8,6.1-54.6,14.5-95,0v45h2005.5V23.92c-11.3,3.3-39.7,7.9-62.5,0Z"/>
  </g>
</svg>