<?xml version="1.0" encoding="utf-8"?>
<!-- Generator: Adobe Illustrator 28.0.0, SVG Export Plug-In . SVG Version: 6.00 Build 0)  -->
<svg version="1.1" id="圖層_1" xmlns="http://www.w3.org/2000/svg" xmlns:xlink="http://www.w3.org/1999/xlink" x="0px" y="0px"
	 viewBox="0 0 2891.3 142.5" style="enable-background:new 0 0 2891.3 142.5;" xml:space="preserve">
<style type="text/css">
	.st0{fill:#FFFFFF;}
	.st1{fill:#F8D4A0;}
</style>
<path class="st0" d="M1939.5,92.6c0.2-9.6-0.7-19.9-3.2-29.2c-1.2-4.7-3-9.1-6.4-13c-3.1-3.5-7.4-7.1-12.1-8.5
	c-0.4-0.1-0.9-0.2-1.2-0.2c-0.4-0.1-0.7-0.2-1.2-0.4c-10.2-2.4-19.9,2.6-26.6,9.1c-6,5.7-10.9,13-15.1,20c-8.9,14.6-12,33.1-2,48.3
	c9,13.6,27.9,20,43.5,12.9C1931.1,124.2,1939,108.8,1939.5,92.6z"/>
<path class="st0" d="M1101.4,94c0.2-9.6-0.7-19.9-3.2-29.2c-1.2-4.7-3-9.1-6.4-13c-3.1-3.5-7.4-7.1-12.1-8.5
	c-0.4-0.1-0.9-0.2-1.2-0.2c-0.4-0.1-0.7-0.2-1.2-0.4c-10.2-2.4-19.9,2.6-26.6,9.1c-6,5.7-10.9,13-15.1,20
	c-8.9,14.6-12.1,33.1-2,48.3c9,13.6,28,20,43.5,12.9C1093,125.6,1100.9,110.2,1101.4,94z"/>
<path class="st1" d="M1662.1,67.5c-5.6-7.7-12.6-15.2-20.4-21.2c-3.9-3-8-5.4-13-6.4c-4.6-0.9-10.2-1.2-14.9,0.6
	c-0.4,0.1-0.7,0.4-1.1,0.5c-0.4,0.1-0.7,0.2-1.1,0.5c-9.6,4.2-14.2,14.2-15.6,23.4c-1.2,8.2-0.7,16.9,0.1,25
	c1.9,17.1,10.5,33.6,27.7,39.6c15.4,5.4,34.3-1.1,42.3-16.1C1674.6,97.7,1671.6,80.7,1662.1,67.5z"/>
<path class="st1" d="M2624.7,67.5c-5.6-7.7-12.6-15.2-20.4-21.2c-3.9-3-8-5.4-13-6.4c-4.6-0.9-10.2-1.2-14.9,0.6
	c-0.4,0.1-0.7,0.4-1.1,0.5c-0.4,0.1-0.7,0.2-1.1,0.5c-9.6,4.2-14.2,14.2-15.6,23.4c-1.2,8.2-0.7,16.9,0.1,25
	c1.9,17.1,10.5,33.6,27.7,39.6c15.4,5.4,34.3-1.1,42.3-16.1C2637.3,97.6,2634.2,80.6,2624.7,67.5z"/>
<path class="st1" d="M346.9,67.5c-5.6-7.7-12.6-15.2-20.4-21.2c-3.9-3-8-5.4-13-6.4c-4.6-0.9-10.2-1.2-14.9,0.6
	c-0.4,0.1-0.7,0.4-1.1,0.5c-0.4,0.1-0.7,0.2-1.1,0.5c-9.6,4.2-14.2,14.2-15.6,23.4c-1.2,8.2-0.7,16.9,0.1,25
	c1.9,17.1,10.5,33.6,27.7,39.6c15.4,5.4,34.3-1.1,42.3-16.1C359.4,97.7,356.4,80.7,346.9,67.5z"/>
<path class="st1" d="M810,94.7c1.5-9.5,1.7-19.7,0.5-29.4c-0.6-4.9-1.9-9.4-4.7-13.6c-2.6-3.9-6.4-8-11-10c-0.4-0.1-0.7-0.4-1.2-0.5
	c-0.4-0.1-0.7-0.4-1.1-0.5c-9.9-3.6-20.1,0.1-27.5,5.7c-6.7,5-12.4,11.5-17.5,17.9c-10.6,13.5-16.1,31.2-8,47.7
	c7.2,14.6,25.2,23.2,41.5,18.2C797.7,125.1,807.6,110.8,810,94.7z"/>
</svg>
