<?xml version="1.0" encoding="UTF-8"?>
<svg id="_圖層_1" data-name="圖層 1" xmlns="http://www.w3.org/2000/svg" version="1.1" viewBox="0 0 2675.7 4179.9">
  <defs>
    <style>
      .cls-1 {
        fill: #fefae3;
      }

      .cls-1, .cls-2, .cls-3, .cls-4 {
        opacity: .9;
        stroke-width: 0px;
      }

      .cls-2 {
        fill: #f7e9d6;
      }

      .cls-3 {
        fill: #fff8ed;
      }

      .cls-4 {
        fill: #fdf2e6;
      }
    </style>
  </defs>
  <path class="cls-4" d="M608,271.4c-9-41.5-24.4-84.1-45.5-122.1-10.5-18.9-23.4-36.1-42.9-49-17.9-11.9-41.1-23.3-64.3-24.5-2,0-4,0-5.9,0-1.9-.2-3.8-.2-5.8-.2-49-.2-87.7,31.2-111.3,65.5-21.3,30.8-35.5,66.4-47.5,100.5-25.1,71.7-19.9,153.7,41.9,209.3,55.1,49.6,148.1,57.8,211.2,11.9,65.3-47.7,85.3-121.6,70.1-191.4Z"/>
  <path class="cls-3" d="M2371.6,271.4c-9-41.5-24.4-84.1-45.5-122.1-10.5-18.9-23.4-36.1-42.9-49-17.9-11.9-41.1-23.3-64.3-24.5-2,0-4,0-6,0-1.9-.2-3.9-.2-5.8-.2-49-.2-87.7,31.2-111.3,65.5-21.3,30.8-35.5,66.4-47.5,100.5-25.1,71.7-19.9,153.7,41.9,209.3,55.1,49.6,148.1,57.8,211.2,11.9,65.4-47.7,85.4-121.6,70.2-191.4Z"/>
  <path class="cls-1" d="M2393.2,1296.3c-9-41.5-24.4-84.1-45.5-122.1-10.5-18.9-23.4-36.1-42.9-49-17.9-11.9-41.1-23.2-64.3-24.5-2,0-4,0-6,0-1.9-.2-3.9-.2-5.8-.2-49-.2-87.7,31.2-111.3,65.5-21.3,30.8-35.5,66.4-47.5,100.5-25.1,71.7-19.9,153.7,41.9,209.3,55.1,49.6,148.1,57.7,211.2,11.9,65.5-47.6,85.4-121.5,70.2-191.4Z"/>
  <path class="cls-1" d="M1482.6,271.4c-9-41.5-24.4-84.1-45.5-122.1-10.5-18.9-23.4-36.1-42.9-49-17.9-11.9-41.1-23.3-64.3-24.5-2,0-4,0-6,0-1.9-.2-3.9-.2-5.8-.2-49-.2-87.7,31.2-111.3,65.5-21.3,30.8-35.5,66.4-47.5,100.5-25.1,71.7-19.9,153.7,41.9,209.3,55.1,49.6,148.1,57.8,211.2,11.9,65.5-47.7,85.4-121.6,70.2-191.4Z"/>
  <path class="cls-1" d="M166.3,771.7c-9-41.5-24.4-84.1-45.5-122.1-10.5-18.9-23.4-36.1-42.9-49-17.9-11.9-41.1-23.2-64.3-24.5-2,0-4,0-5.9,0-1.9-.2-3.8-.2-5.8-.2-49-.2-87.7,31.2-111.3,65.5-21.3,30.8-35.5,66.4-47.5,100.5-25.1,71.7-19.9,153.7,41.9,209.3,55.1,49.6,148.1,57.8,211.2,11.9,65.3-47.7,85.2-121.5,70.1-191.4Z"/>
  <path class="cls-3" d="M1004.3,771.7c-9-41.5-24.4-84.1-45.5-122.1-10.5-18.9-23.4-36.1-42.9-49-17.9-11.9-41.1-23.2-64.3-24.5-2,0-4,0-5.9,0-1.9-.2-3.8-.2-5.8-.2-49-.2-87.7,31.2-111.3,65.5-21.3,30.8-35.5,66.4-47.5,100.5-25.1,71.7-19.9,153.7,41.9,209.3,55.1,49.6,148.1,57.8,211.2,11.9,65.3-47.7,85.2-121.5,70.1-191.4Z"/>
  <path class="cls-2" d="M1886.1,771.7c-9-41.5-24.4-84.1-45.5-122.1-10.5-18.9-23.4-36.1-42.9-49-17.9-11.9-41.1-23.2-64.3-24.5-2,0-4,0-6,0-1.9-.2-3.9-.2-5.8-.2-49-.2-87.7,31.2-111.3,65.5-21.3,30.8-35.5,66.4-47.5,100.5-25.1,71.7-19.9,153.7,41.9,209.3,55.1,49.6,148.1,57.8,211.2,11.9,65.4-47.7,85.3-121.5,70.2-191.4Z"/>
  <path class="cls-1" d="M166.3,1801.7c-9-41.5-24.4-84.1-45.5-122.1-10.5-18.9-23.4-36.1-42.9-49-17.9-11.9-41.1-23.2-64.3-24.5-2,0-4,0-5.9,0-1.9-.2-3.8-.2-5.8-.2-49-.2-87.7,31.2-111.3,65.5-21.3,30.8-35.5,66.4-47.5,100.5-25.1,71.7-19.9,153.7,41.9,209.3,55.1,49.6,148.1,57.8,211.2,11.9,65.3-47.6,85.2-121.5,70.1-191.4Z"/>
  <path class="cls-1" d="M2842,771.7c-9-41.5-24.4-84.1-45.5-122.1-10.5-18.9-23.4-36.1-42.9-49-17.9-11.9-41.1-23.2-64.3-24.5-2,0-4,0-5.9,0-1.9-.2-3.8-.2-5.8-.2-49-.2-87.7,31.2-111.3,65.5-21.3,30.8-35.5,66.4-47.5,100.5-25.1,71.7-19.9,153.7,41.9,209.3,55.1,49.6,148.1,57.8,211.2,11.9,65.3-47.7,85.3-121.5,70.1-191.4Z"/>
  <path class="cls-1" d="M2842,1801.7c-9-41.5-24.4-84.1-45.5-122.1-10.5-18.9-23.4-36.1-42.9-49-17.9-11.9-41.1-23.2-64.3-24.5-2,0-4,0-5.9,0-1.9-.2-3.8-.2-5.8-.2-49-.2-87.7,31.2-111.3,65.5-21.3,30.8-35.5,66.4-47.5,100.5-25.1,71.7-19.9,153.7,41.9,209.3,55.1,49.6,148.1,57.8,211.2,11.9,65.3-47.6,85.3-121.5,70.1-191.4Z"/>
  <path class="cls-3" d="M1004.3,1801.7c-9-41.5-24.4-84.1-45.5-122.1-10.5-18.9-23.4-36.1-42.9-49-17.9-11.9-41.1-23.2-64.3-24.5-2,0-4,0-5.9,0-1.9-.2-3.8-.2-5.8-.2-49-.2-87.7,31.2-111.3,65.5-21.3,30.8-35.5,66.4-47.5,100.5-25.1,71.7-19.9,153.7,41.9,209.3,55.1,49.6,148.1,57.8,211.2,11.9,65.3-47.6,85.2-121.5,70.1-191.4Z"/>
  <path class="cls-2" d="M1886.1,1801.7c-9-41.5-24.4-84.1-45.5-122.1-10.5-18.9-23.4-36.1-42.9-49-17.9-11.9-41.1-23.2-64.3-24.5-2,0-4,0-6,0-1.9-.2-3.9-.2-5.8-.2-49-.2-87.7,31.2-111.3,65.5-21.3,30.8-35.5,66.4-47.5,100.5-25.1,71.7-19.9,153.7,41.9,209.3,55.1,49.6,148.1,57.8,211.2,11.9,65.4-47.6,85.3-121.5,70.2-191.4Z"/>
  <path class="cls-3" d="M1488,1296.3c-9-41.5-24.4-84.1-45.5-122.1-10.5-18.9-23.4-36.1-42.9-49-17.9-11.9-41.1-23.2-64.3-24.5-2,0-4,0-6,0-1.9-.2-3.9-.2-5.8-.2-49-.2-87.7,31.2-111.3,65.5-21.3,30.8-35.5,66.4-47.5,100.5-25.1,71.7-19.9,153.7,41.9,209.3,55.1,49.6,148.1,57.7,211.2,11.9,65.5-47.6,85.4-121.5,70.2-191.4Z"/>
  <path class="cls-2" d="M597.2,1296.3c-9-41.5-24.4-84.1-45.5-122.1-10.5-18.9-23.4-36.1-42.9-49-17.9-11.9-41.1-23.2-64.3-24.5-2,0-4,0-5.9,0-1.9-.2-3.8-.2-5.8-.2-49-.2-87.7,31.2-111.3,65.5-21.3,30.8-35.5,66.4-47.5,100.5-25.1,71.7-19.9,153.7,41.9,209.3,55.1,49.6,148.1,57.7,211.2,11.9,65.3-47.6,85.2-121.5,70.1-191.4Z"/>
  <path class="cls-4" d="M599.1,2339.4c-9-41.5-24.4-84.1-45.5-122.1-10.5-18.9-23.4-36.1-42.9-49-17.9-11.9-41.1-23.3-64.3-24.5-2-.1-4-.1-5.9,0-1.9-.2-3.8-.2-5.8-.2-49-.2-87.7,31.2-111.3,65.5-21.3,30.8-35.5,66.4-47.5,100.5-25.1,71.7-19.9,153.7,41.9,209.3,55.1,49.6,148.1,57.8,211.2,11.9,65.3-47.7,85.2-121.6,70.1-191.4Z"/>
  <path class="cls-3" d="M2362.7,2339.4c-9-41.5-24.4-84.1-45.5-122.1-10.5-18.9-23.4-36.1-42.9-49-17.9-11.9-41.1-23.3-64.3-24.5-2-.1-4-.1-6,0-1.9-.2-3.9-.2-5.8-.2-49-.2-87.7,31.2-111.3,65.5-21.3,30.8-35.5,66.4-47.5,100.5-25.1,71.7-19.9,153.7,41.9,209.3,55.1,49.6,148.1,57.8,211.2,11.9,65.4-47.7,85.3-121.6,70.2-191.4Z"/>
  <path class="cls-1" d="M2384.3,3364.3c-9-41.5-24.4-84.1-45.5-122.1-10.5-18.9-23.4-36.1-42.9-49-17.9-11.9-41.1-23.2-64.3-24.5-2-.1-4-.1-6,0-1.9-.2-3.9-.2-5.8-.2-49-.2-87.7,31.2-111.3,65.5-21.3,30.8-35.5,66.4-47.5,100.5-25.1,71.7-19.9,153.7,41.9,209.3,55.1,49.6,148.1,57.7,211.2,11.9,65.5-47.7,85.4-121.5,70.2-191.4Z"/>
  <path class="cls-1" d="M1473.7,2339.4c-9-41.5-24.4-84.1-45.5-122.1-10.5-18.9-23.4-36.1-42.9-49-17.9-11.9-41.1-23.3-64.3-24.5-2-.1-4-.1-6,0-1.9-.2-3.9-.2-5.8-.2-49-.2-87.7,31.2-111.3,65.5-21.3,30.8-35.5,66.4-47.5,100.5-25.1,71.7-19.9,153.7,41.9,209.3,55.1,49.6,148.1,57.8,211.2,11.9,65.4-47.7,85.4-121.6,70.2-191.4Z"/>
  <path class="cls-1" d="M157.3,2839.7c-9-41.5-24.4-84.1-45.5-122.1-10.5-18.9-23.4-36.1-42.9-49-17.9-11.9-41.1-23.2-64.3-24.5-2-.1-4-.1-5.9,0-1.9-.2-3.8-.2-5.8-.2-49-.2-87.7,31.2-111.3,65.5-21.3,30.8-35.5,66.4-47.5,100.5-25.1,71.7-19.9,153.7,41.9,209.3,55.1,49.6,148.1,57.8,211.2,11.9,65.4-47.7,85.3-121.5,70.1-191.4Z"/>
  <path class="cls-3" d="M995.3,2839.7c-9-41.5-24.4-84.1-45.5-122.1-10.5-18.9-23.4-36.1-42.9-49-17.9-11.9-41.1-23.2-64.3-24.5-2-.1-4-.1-5.9,0-1.9-.2-3.8-.2-5.8-.2-49-.2-87.7,31.2-111.3,65.5-21.3,30.8-35.5,66.4-47.5,100.5-25.1,71.7-19.9,153.7,41.9,209.3,55.1,49.6,148.1,57.8,211.2,11.9,65.4-47.7,85.3-121.5,70.1-191.4Z"/>
  <path class="cls-2" d="M1877.1,2839.7c-9-41.5-24.4-84.1-45.5-122.1-10.5-18.9-23.4-36.1-42.9-49-17.9-11.9-41.1-23.2-64.3-24.5-2-.1-4-.1-6,0-1.9-.2-3.9-.2-5.8-.2-49-.2-87.7,31.2-111.3,65.5-21.3,30.8-35.5,66.4-47.5,100.5-25.1,71.7-19.9,153.7,41.9,209.3,55.1,49.6,148.1,57.8,211.2,11.9,65.5-47.7,85.4-121.5,70.2-191.4Z"/>
  <path class="cls-1" d="M157.3,3869.7c-9-41.5-24.4-84.1-45.5-122.1-10.5-18.9-23.4-36.1-42.9-49-17.9-11.9-41.1-23.2-64.3-24.5-2-.1-4-.1-5.9,0-1.9-.2-3.8-.2-5.8-.2-49-.2-87.7,31.2-111.3,65.5-21.3,30.8-35.5,66.4-47.5,100.5-25.1,71.7-19.9,153.7,41.9,209.3,55.1,49.6,148.1,57.8,211.2,11.9,65.4-47.6,85.3-121.5,70.1-191.4Z"/>
  <path class="cls-1" d="M2833.1,2839.7c-9-41.5-24.4-84.1-45.5-122.1-10.5-18.9-23.4-36.1-42.9-49-17.9-11.9-41.1-23.2-64.3-24.5-2-.1-4-.1-5.9,0-1.9-.2-3.8-.2-5.8-.2-49-.2-87.7,31.2-111.3,65.5-21.3,30.8-35.5,66.4-47.5,100.5-25.1,71.7-19.9,153.7,41.9,209.3,55.1,49.6,148.1,57.8,211.2,11.9,65.3-47.7,85.2-121.5,70.1-191.4Z"/>
  <path class="cls-1" d="M2833.1,3869.7c-9-41.5-24.4-84.1-45.5-122.1-10.5-18.9-23.4-36.1-42.9-49-17.9-11.9-41.1-23.2-64.3-24.5-2-.1-4-.1-5.9,0-1.9-.2-3.8-.2-5.8-.2-49-.2-87.7,31.2-111.3,65.5-21.3,30.8-35.5,66.4-47.5,100.5-25.1,71.7-19.9,153.7,41.9,209.3,55.1,49.6,148.1,57.8,211.2,11.9,65.3-47.6,85.2-121.5,70.1-191.4Z"/>
  <path class="cls-3" d="M995.3,3869.7c-9-41.5-24.4-84.1-45.5-122.1-10.5-18.9-23.4-36.1-42.9-49-17.9-11.9-41.1-23.2-64.3-24.5-2-.1-4-.1-5.9,0-1.9-.2-3.8-.2-5.8-.2-49-.2-87.7,31.2-111.3,65.5-21.3,30.8-35.5,66.4-47.5,100.5-25.1,71.7-19.9,153.7,41.9,209.3,55.1,49.6,148.1,57.8,211.2,11.9,65.4-47.6,85.3-121.5,70.1-191.4Z"/>
  <path class="cls-2" d="M1877.1,3869.7c-9-41.5-24.4-84.1-45.5-122.1-10.5-18.9-23.4-36.1-42.9-49-17.9-11.9-41.1-23.2-64.3-24.5-2-.1-4-.1-6,0-1.9-.2-3.9-.2-5.8-.2-49-.2-87.7,31.2-111.3,65.5-21.3,30.8-35.5,66.4-47.5,100.5-25.1,71.7-19.9,153.7,41.9,209.3,55.1,49.6,148.1,57.8,211.2,11.9,65.5-47.6,85.4-121.5,70.2-191.4Z"/>
  <path class="cls-3" d="M1479.1,3364.3c-9-41.5-24.4-84.1-45.5-122.1-10.5-18.9-23.4-36.1-42.9-49-17.9-11.9-41.1-23.2-64.3-24.5-2-.1-4-.1-6,0-1.9-.2-3.9-.2-5.8-.2-49-.2-87.7,31.2-111.3,65.5-21.3,30.8-35.5,66.4-47.5,100.5-25.1,71.7-19.9,153.7,41.9,209.3,55.1,49.6,148.1,57.7,211.2,11.9,65.5-47.7,85.4-121.5,70.2-191.4Z"/>
  <path class="cls-2" d="M588.2,3364.3c-9-41.5-24.4-84.1-45.5-122.1-10.5-18.9-23.4-36.1-42.9-49-17.9-11.9-41.1-23.2-64.3-24.5-2-.1-4-.1-5.9,0-1.9-.2-3.8-.2-5.8-.2-49-.2-87.7,31.2-111.3,65.5-21.3,30.8-35.5,66.4-47.5,100.5-25.1,71.7-19.9,153.7,41.9,209.3,55.1,49.6,148.1,57.7,211.2,11.9,65.4-47.7,85.3-121.5,70.1-191.4Z"/>
</svg>