<?xml version="1.0" encoding="utf-8"?>
<!-- Generator: Adobe Illustrator 28.0.0, SVG Export Plug-In . SVG Version: 6.00 Build 0)  -->
<svg version="1.1" id="圖層_1" xmlns="http://www.w3.org/2000/svg" xmlns:xlink="http://www.w3.org/1999/xlink" x="0px" y="0px"
	 viewBox="0 0 215 176.5" style="enable-background:new 0 0 215 176.5;" xml:space="preserve">
<style type="text/css">
	.st0{clip-path:url(#SVGID_00000142868932405065416520000016484232782501464474_);}
	.st1{fill:#F4644D;}
	.st2{fill:#C64234;}
	.st3{fill:#FFC93D;}
	.st4{fill:#FFA21A;}
	.st5{fill:#D38318;}
	.st6{fill:#564336;}
	.st7{clip-path:url(#SVGID_00000120551687345926948850000013094490246415195782_);}
	.st8{fill:#EF5C3F;}
	.st9{fill:#FFC022;}
</style>
<g>
	<defs>
		<rect id="SVGID_1_" x="75.2" width="139.8" height="176.5"/>
	</defs>
	<clipPath id="SVGID_00000170970557127983748800000011605888971755282321_">
		<use xlink:href="#SVGID_1_"  style="overflow:visible;"/>
	</clipPath>
	<g style="clip-path:url(#SVGID_00000170970557127983748800000011605888971755282321_);">
		<path class="st1" d="M191.5,67c0,0,9.1-4.5,8.8-3.7c-0.4,0.8-3.9,8.9-3.9,8.9l11.1-3.9l-2.3,8.7l9.5-3.7l-4.5,9.7l-16.3-3.7
			L191.5,67L191.5,67z"/>
		<path class="st1" d="M174.4,167.4l-9.9,2.5l-0.1,1.3l8.8-2.1l-10.9,6.2l0.5,0.8c0,0,11.8-6.5,11.7-6.1c-0.1,0.4-3.5,6.5-3.5,6.5
			l1.6-0.1l3.5-7.4L174.4,167.4L174.4,167.4z"/>
		<path class="st1" d="M139.9,166.8l-14.9,1l-0.1,1.2l12.3-0.1l-14.8,3.1l0.1,1.3l14.8-2.6l-2.9,4.1l1.3,0.1l6-6.5L139.9,166.8z"/>
		<path class="st1" d="M167,149.6l7.6,19.8l1.6-0.5l-5.7-21.3L167,149.6z"/>
		<path class="st1" d="M136,145.3l3.9,23.2h1.8l-2.1-23.2H136z"/>
		<path class="st1" d="M101.6,74.8c-14,3.1-26.5,24-26.5,24l7-1.5l-5.4,7.5h10.6l-4.2,5.7c0,0,16.6,1.3,26.2-4.9
			C119,99.4,101.6,74.8,101.6,74.8z"/>
		<path class="st2" d="M116.6,6.3c2-0.8,4-1.7,6.2-1.3c1.9,0.4,3.6,1.5,4.9,3c1.1,1.3,1.7,2.8,2,4.4c0.3,1.4,0.7,3.4-0.2,4.6
			c-0.2,0.3,0.3,0.7,0.6,0.3c0.9-1.3,0.6-3.3,0.3-4.8c-0.3-1.8-1-3.4-2.1-4.9c-1.3-1.6-3.1-2.8-5.1-3.2c-2.4-0.6-4.6,0.3-6.8,1.2
			C116.1,5.8,116.2,6.4,116.6,6.3z"/>
		<path class="st3" d="M120.9,2.5c-1-2.1-3.7-0.4-4.1,1.3c0.2-1.2-0.5-4.4-2.3-3.7c-1.4,0.5-0.9,2-0.3,3.2c-1-1-2.8-1.6-3.7-0.6
			c-2,1.9,0.8,3.9,2.6,3.4c-1.6,0.9-3.4,3.2-0.9,4.2c0.9,0.4,2.1,0,2.9-0.7c0.7-0.6,0.8-1,0.8-1.7c0.2,1.7,1.4,3.6,3.4,2.4
			c2.5-1.6-0.4-3.2-1.6-4.3C119.1,5.5,121.9,4.6,120.9,2.5L120.9,2.5z"/>
		<path class="st4" d="M116.4,5.5c0,0.8-0.5,1.5-1.2,1.5c-0.6,0-1.2-0.7-1.2-1.5s0.5-1.5,1.2-1.5C115.9,4,116.4,4.7,116.4,5.5z"/>
		<path class="st5" d="M146.6,47c-0.5-2.4-1.3-5.1-2.3-7.5c-1.4-3.2-2.1-6.5-4.7-8.9c-2-2-4.4-3.8-6.9-5.3c-1-0.6-2.1-1-2.9-1.8
			c-0.7-0.7-1.1-1.5-1.9-2.1c-1.9-1.6-7-3.5-7-3.3l-3.6-1c-6.5-0.7,1.1,8.8,2.5,10.3c4,4.6,9.1,8.3,13.4,12.7c2.9,3,5.8,6.2,9.6,8.1
			C144.5,49,147.2,49.8,146.6,47L146.6,47z"/>
		<path class="st2" d="M128.6,19.1c-10.3-2.3-25,10.7-31.1,30.7c-7.3,23.8-8.3,58.4,15,72c20.3,11.9,56.8,18.3,76.5,0.5
			c14.1-12.8,25.9-45.4,25.9-45.4l-6,1.3l2.6-6.2l-12.5,3.9c0,0,4.9-8.3,4.2-8c-0.8,0.3-10.4,1.8-10.4,1.8l3.6-7.7
			c0,0-16.3,12.7-53.7,3.9c-5.9-1.4-7.7-11.3-4.7-17.3C145.7,33.3,140.4,21.7,128.6,19.1z"/>
		<path class="st1" d="M122.6,56.3c0,0,7-5.7,7.3-4.9c0.3,0.8,5.7,9.8,5.7,9.8l1.7-2.2c-0.9-3.5-0.7-7.6,0.9-10.7
			c7.5-15.2,2.2-26.8-9.6-29.4c-10.2-2.3-24.9,10.6-31,30.4l1.5,3.9l8-4.6l3.4,7l6.7-4.9L122.6,56.3L122.6,56.3z"/>
		<path class="st3" d="M109.2,29.8c0,0,1.7-0.8,3.5-2.5c1.8-1.7,2.3-3.8,2.3-3.8s-7.4-2.9-8.3-1.9C105.6,22.7,109.2,29.8,109.2,29.8
			L109.2,29.8z"/>
		<path class="st6" d="M122.8,26.9c0,0,1,2.9,2.7,4.1c1.7,1.3,3.9,0.7,3.9,0.7L122.8,26.9L122.8,26.9z"/>
		<path class="st1" d="M132.9,78.7c-6.8,5.6-7.4,21.7,3.4,30.8c10.8,9,35.7,8.7,35.7,8.7s-6.5-6.8-5.7-6.8s7.9-0.8,7.9-0.8l-7.7-4.5
			l9.9-5.6l-7.1-4.2l7.9-1.7c0,0-9.1-8.5-17.6-13.5C147.3,73.5,137.7,74.8,132.9,78.7z"/>
		<path class="st2" d="M142.5,121.8l-16.9-1c2.2,3.7,2.6,9.7,3.8,14c1.1,3.6,3.6,13.1,8.4,13.6C147.3,149.4,138.7,124.4,142.5,121.8
			z"/>
		<path class="st2" d="M170.3,126.1l-16.9,0.8c2.6,3.5,3.6,9.4,5.4,13.5c1.5,3.5,5.1,12.7,9.8,12.6
			C178.1,153.1,166.8,129.1,170.3,126.1z"/>
		<path class="st3" d="M116.1,17c0,0,11.9,3.6,18.6,10.3c9.5,9.4,12,21.1,12,21.1l-1.4-13.7c0,0,8.2-12.5,1.7-18.8
			c-10-9.7-20.6,1.1-20.6,1.1L116.1,17L116.1,17z"/>
		<path class="st2" d="M138.3,19.7c-5.1-4-9.7-4.6-9.7-4.6l-2.2,1.9c0,0,4.5,1.1,8.9,4.9c4.4,3.9,10.1,12.8,10.1,12.8l1.6-3
			C147,31.7,145.1,25,138.3,19.7L138.3,19.7z"/>
		<path class="st2" d="M132.4,94.8c1,1.2,2.5,2,3.5,3.3c0.2,0.3,0.8,0,0.6-0.3c-1-1.3-2.5-2.1-3.6-3.4
			C132.6,94,132.1,94.5,132.4,94.8z"/>
		<path class="st2" d="M131.8,87.5c1.1,1.6,2.8,2.5,4.3,3.6c0.3,0.2,0.7-0.3,0.3-0.6c-1.4-1-3-1.9-4-3.4
			C132.2,86.9,131.6,87.2,131.8,87.5z"/>
		<path class="st2" d="M135,82.7c0.4,0,0.4-0.6,0-0.6C134.5,82,134.5,82.7,135,82.7z"/>
		<path class="st2" d="M134.8,82.6c1.6,0.8,3.1,1.8,4.7,2.5c0.4,0.2,0.6-0.5,0.2-0.6c-1.6-0.6-3-1.6-4.6-2.4
			C134.8,81.9,134.4,82.4,134.8,82.6L134.8,82.6z"/>
		<path class="st2" d="M144.7,79c0.4,0,0.4-0.6,0-0.6C144.3,78.4,144.3,79,144.7,79z"/>
		<path class="st2" d="M144.5,79c1.9,0.8,3.8,1.7,5.8,2.1c0.4,0.1,0.6-0.5,0.2-0.6c-2-0.4-3.8-1.2-5.6-2
			C144.5,78.3,144.1,78.8,144.5,79z"/>
		<path class="st2" d="M147,86.1c1.6,1,3.6,1.4,5,2.7c0.3,0.3,0.8-0.2,0.5-0.5c-1.5-1.3-3.5-1.7-5.1-2.8
			C147,85.3,146.6,85.9,147,86.1L147,86.1z"/>
		<path class="st2" d="M145.6,94c1.5,0.9,3.2,1.5,4.5,2.7c0.3,0.3,0.8-0.2,0.5-0.5c-1.4-1.2-3.1-1.8-4.6-2.8
			C145.5,93.2,145.2,93.8,145.6,94L145.6,94z"/>
		<path class="st2" d="M142.6,102.9c1.8,1.1,3.9,1.9,5.3,3.6c0.3,0.3,0.7-0.1,0.5-0.5c-1.4-1.7-3.5-2.5-5.4-3.7
			C142.5,102.1,142.2,102.7,142.6,102.9L142.6,102.9z"/>
		<path class="st2" d="M138,106.7c1.3,1.2,2.8,2.2,4.2,3.4c0.3,0.3,0.8-0.2,0.5-0.5c-1.4-1.1-2.8-2.2-4.1-3.4
			C138.1,106,137.7,106.4,138,106.7z"/>
		<path class="st2" d="M153,112.2c0.4,0,0.4-0.6,0-0.6C152.6,111.6,152.6,112.2,153,112.2z"/>
		<path class="st2" d="M152.8,112.2c2.1,1.1,4.5,1.4,6.6,2.5c0.4,0.2,0.7-0.4,0.3-0.6c-2.1-1-4.5-1.3-6.6-2.5
			C152.8,111.4,152.5,112,152.8,112.2z"/>
		<path class="st2" d="M159.5,108.9c1.2,0.5,2.5,1,3.8,1.4c0.4,0.1,0.6-0.5,0.2-0.6c-1.3-0.4-2.5-0.9-3.8-1.4
			C159.3,108.1,159.1,108.7,159.5,108.9z"/>
		<path class="st2" d="M154.9,102.1c1.3,0.4,2.7,0.8,4.1,0.9c0.4,0,0.4-0.6,0-0.6c-1.3-0.1-2.6-0.5-3.9-0.9
			C154.6,101.4,154.5,102,154.9,102.1z"/>
		<path class="st2" d="M164.2,100.7c1.2,0.3,2.4,0.9,3.6,1.4c0.4,0.2,0.7-0.4,0.3-0.6c-1.2-0.5-2.4-1.1-3.7-1.5
			C164,100,163.8,100.6,164.2,100.7z"/>
		<path class="st2" d="M156.4,93.1c2.1,0.6,4,1.5,6.2,1.7c0.4,0,0.4-0.6,0-0.6c-2.1-0.2-4-1.1-6-1.7C156.2,92.4,156,93,156.4,93.1
			L156.4,93.1z"/>
		<path class="st2" d="M158.8,84.9c0.4,0,0.4-0.6,0-0.6C158.4,84.2,158.4,84.9,158.8,84.9z"/>
		<path class="st2" d="M158.7,84.8c2.8,1.5,5.7,2.6,8.2,4.6c0.3,0.3,0.8-0.2,0.5-0.5c-2.5-2-5.5-3.2-8.4-4.7
			C158.6,84.1,158.3,84.6,158.7,84.8L158.7,84.8z"/>
		<path class="st1" d="M99.7,58.3c-0.2,2.1-0.2,4.2-0.6,6.3c-0.1,0.4,0.6,0.6,0.6,0.2c0.4-2.1,0.4-4.3,0.6-6.5
			C100.4,57.9,99.7,57.9,99.7,58.3z"/>
		<path class="st1" d="M106.5,58.9c0.2,2.1,0.2,4.3,0.2,6.4c0,0.4,0.6,0.4,0.6,0c0-2.1,0-4.3-0.2-6.4
			C107.1,58.5,106.5,58.5,106.5,58.9z"/>
		<path class="st1" d="M118.4,64c0.8,1.9,1.7,3.6,2.1,5.6c0.1,0.4,0.7,0.2,0.6-0.2c-0.4-2-1.4-3.8-2.1-5.6
			C118.9,63.5,118.2,63.6,118.4,64z"/>
		<path class="st1" d="M125.3,61.8c0.4,0,0.4-0.6,0-0.6C124.9,61.1,124.9,61.8,125.3,61.8z"/>
		<path class="st1" d="M125.1,61.7c0.9,1.1,1.6,2.4,2.3,3.6c0.2,0.4,0.8,0,0.6-0.3c-0.7-1.3-1.5-2.6-2.4-3.7
			C125.3,60.9,124.8,61.3,125.1,61.7L125.1,61.7z"/>
		<path class="st1" d="M109.6,79.3c0.6,2.1,1.4,4.1,1.8,6.2c0.1,0.4,0.7,0.2,0.6-0.2c-0.4-2.1-1.1-4.1-1.8-6.2
			C110.1,78.8,109.5,78.9,109.6,79.3z"/>
		<path class="st1" d="M100.3,80.8c0,2.4,0.4,4.7,0.8,7.1c0.1,0.4,0.7,0.2,0.6-0.2c-0.4-2.3-0.8-4.6-0.8-6.9
			C100.9,80.4,100.3,80.4,100.3,80.8z"/>
		<path class="st1" d="M107.3,103.4c1.2,1.6,2.3,3.3,3.3,5c0.2,0.4,0.8,0,0.6-0.3c-1-1.8-2.1-3.4-3.3-5
			C107.6,102.8,107.1,103.1,107.3,103.4z"/>
		<path class="st1" d="M117.7,97.9c1.2,1.4,2.7,2.5,3.9,3.9c0.3,0.3,0.7-0.1,0.5-0.5c-1.2-1.4-2.7-2.5-3.9-3.9
			C117.9,97.1,117.4,97.6,117.7,97.9z"/>
		<path class="st1" d="M123.1,77.9c0.8,1,1.8,1.7,2.7,2.5c0.3,0.3,0.8-0.2,0.5-0.5c-1-0.8-1.9-1.6-2.7-2.5
			C123.3,77.1,122.9,77.6,123.1,77.9z"/>
		<path class="st1" d="M137.3,71.5c1,0.8,2,1.6,3.2,2.2c0.4,0.2,0.7-0.4,0.3-0.6c-1.1-0.6-2.1-1.3-3-2.1
			C137.5,70.8,137,71.3,137.3,71.5z"/>
		<path class="st1" d="M153.8,70.8c2,1.2,4.5,1.4,6.8,1.4c0.4,0,0.4-0.6,0-0.6c-2.2,0-4.5-0.2-6.5-1.3
			C153.7,70,153.4,70.6,153.8,70.8z"/>
		<path class="st1" d="M166.4,79.2c0.4,0,0.4-0.6,0-0.6C166,78.5,166,79.2,166.4,79.2z"/>
		<path class="st1" d="M166.4,79.2c2.5,0,4.9-0.4,7.3-1c0.4-0.1,0.2-0.7-0.2-0.6c-2.3,0.6-4.7,0.9-7.1,1
			C166,78.5,166,79.2,166.4,79.2z"/>
		<path class="st1" d="M180,72.6c1.9,0,3.7-0.4,5.5-0.8c0.4-0.1,0.2-0.7-0.2-0.6c-1.8,0.4-3.5,0.7-5.4,0.8
			C179.6,72,179.6,72.6,180,72.6L180,72.6z"/>
		<path class="st1" d="M176.3,88.1c1.8-0.2,3.5-0.9,5.3-1.2c0.4-0.1,0.4-0.7,0-0.6c-1.8,0.2-3.5,0.9-5.3,1.2
			C175.9,87.5,175.9,88.1,176.3,88.1z"/>
		<path class="st1" d="M129.6,110.5c1.4,1.2,2.5,2.5,3.7,3.9c0.3,0.3,0.7-0.1,0.5-0.5c-1.2-1.3-2.3-2.7-3.7-3.9
			C129.7,109.7,129.2,110.2,129.6,110.5z"/>
		<path class="st1" d="M120.2,114.5c1.4,1.2,3,2,4.3,3.3c0.3,0.3,0.8-0.2,0.5-0.5c-1.3-1.3-2.9-2.1-4.3-3.3
			C120.4,113.8,119.9,114.3,120.2,114.5z"/>
		<path class="st1" d="M114.2,118c1.3,1.2,2.8,2,4.4,2.6c0.4,0.1,0.6-0.5,0.2-0.6c-1.5-0.6-3-1.3-4.1-2.4
			C114.3,117.3,113.9,117.7,114.2,118z"/>
		<path class="st1" d="M147.2,128.4c2,0.6,4.2,0.8,6.3,0.8c0.4,0,0.4-0.6,0-0.6c-2.1,0-4.1-0.2-6.1-0.8
			C147,127.6,146.8,128.2,147.2,128.4z"/>
		<path class="st1" d="M135.3,125.5c1.2,0.2,2.5,0.4,3.7,0c0.4-0.1,0.2-0.7-0.2-0.6c-1.1,0.3-2.2,0.2-3.3,0
			C135.1,124.8,134.9,125.4,135.3,125.5z"/>
		<path class="st1" d="M145.9,119.8c1.9,0.4,3.8,0.6,5.7,0.6c0.4,0,0.4-0.6,0-0.6c-1.9,0-3.7-0.2-5.6-0.6
			C145.6,119.1,145.4,119.8,145.9,119.8z"/>
		<path class="st1" d="M169.1,128c2.9,0.2,5.6-0.8,8.3-1.8c0.4-0.1,0.2-0.8-0.2-0.6c-2.6,1-5.3,1.9-8.1,1.7
			C168.7,127.3,168.7,128,169.1,128z"/>
		<path class="st1" d="M184.1,120.3c1.4-1.8,3.6-2.8,5.3-4.3c0.3-0.3-0.1-0.7-0.5-0.5c-1.7,1.5-3.8,2.5-5.3,4.3
			C183.4,120.2,183.8,120.7,184.1,120.3z"/>
		<path class="st1" d="M175.3,116.6c0.4,0,0.4-0.6,0-0.6C174.9,115.9,174.9,116.6,175.3,116.6z"/>
		<path class="st1" d="M175.4,116.5c1.5-0.4,2.9-1.3,4.2-2.2c0.3-0.2,0-0.8-0.3-0.6c-1.3,0.8-2.5,1.7-4,2.1
			C174.8,116,175,116.7,175.4,116.5L175.4,116.5z"/>
		<path class="st1" d="M178.8,106.1c1.3-0.6,2.5-1.5,3.6-2.4c0.3-0.3-0.1-0.7-0.5-0.5c-1.1,0.9-2.2,1.6-3.4,2.3
			C178.1,105.7,178.4,106.2,178.8,106.1L178.8,106.1z"/>
		<path class="st1" d="M190.6,106.9c1.6-2.3,4-4,5.3-6.6c0.2-0.4-0.4-0.7-0.6-0.3c-1.2,2.6-3.7,4.3-5.3,6.6
			C189.8,106.9,190.3,107.2,190.6,106.9z"/>
		<path class="st1" d="M187.2,95.4c1.7-1.4,3.1-3.1,4.5-4.8c0.3-0.3-0.2-0.8-0.5-0.5c-1.4,1.7-2.7,3.5-4.5,4.8
			C186.4,95.2,186.9,95.6,187.2,95.4z"/>
		<path class="st1" d="M188.4,86.4c1-1.2,2.2-2.4,3.3-3.5c0.3-0.3-0.2-0.8-0.5-0.5c-1.1,1.1-2.3,2.3-3.3,3.5
			C187.7,86.3,188.1,86.8,188.4,86.4z"/>
		<path class="st1" d="M199.7,89.2c1.2-1,1.9-2.3,2.8-3.6c0.2-0.3-0.3-0.7-0.6-0.3c-0.8,1.2-1.6,2.5-2.7,3.4
			C198.9,89,199.4,89.4,199.7,89.2L199.7,89.2z"/>
		<path class="st1" d="M185.8,78.9c0.9-0.5,1.8-1.1,2.6-1.8c0.3-0.3-0.2-0.7-0.5-0.5c-0.7,0.7-1.6,1.2-2.5,1.7
			C185.1,78.6,185.4,79.1,185.8,78.9z"/>
		<path class="st1" d="M207.7,86.4c0.8-0.8,1.4-1.7,2.1-2.5c0.3-0.3-0.2-0.8-0.5-0.5c-0.8,0.8-1.4,1.7-2.1,2.5
			C206.9,86.3,207.4,86.7,207.7,86.4z"/>
		<path class="st2" d="M85.6,90.2c1.2-0.9,2-2.3,3.6-2.5c0.4-0.1,0.2-0.7-0.2-0.6c-1.7,0.2-2.5,1.6-3.8,2.6
			C84.9,89.9,85.2,90.4,85.6,90.2L85.6,90.2z"/>
		<path class="st2" d="M88.8,94.2c0.8-0.8,1.7-1.7,2.7-2.3c0.4-0.2,0-0.8-0.3-0.6c-1,0.6-1.9,1.5-2.8,2.4C88,94,88.5,94.5,88.8,94.2
			L88.8,94.2z"/>
		<path class="st2" d="M79.2,96.2c0.4,0,0.4-0.6,0-0.6C78.8,95.6,78.8,96.2,79.2,96.2z"/>
		<path class="st2" d="M79.6,95.9c0.6-0.6,1.3-1.1,2.1-1.5c0.4-0.2,0-0.7-0.3-0.6c-0.8,0.4-1.6,1-2.2,1.6
			C78.9,95.8,79.3,96.2,79.6,95.9L79.6,95.9z"/>
		<path class="st2" d="M82.5,101.8c0.4,0,0.4-0.6,0-0.6C82.1,101.2,82.1,101.8,82.5,101.8z"/>
		<path class="st2" d="M82.9,101.6c0.6-0.4,1.1-0.7,1.6-1.2c0.3-0.3-0.2-0.7-0.5-0.5c-0.4,0.4-1,0.8-1.5,1.1
			C82.2,101.3,82.5,101.8,82.9,101.6L82.9,101.6z"/>
		<path class="st2" d="M92.2,107.1c0.4,0,0.4-0.6,0-0.6C91.8,106.4,91.8,107.1,92.2,107.1z"/>
		<path class="st2" d="M92.3,107.1c1.6-0.4,3.1-1.4,4.6-2.2c0.4-0.2,0-0.7-0.3-0.6c-1.4,0.7-2.8,1.7-4.4,2.1
			C91.7,106.5,91.9,107.2,92.3,107.1z"/>
		<path class="st2" d="M93,101.4c1.5-0.6,2.7-1.6,4-2.6c0.3-0.3-0.1-0.7-0.5-0.5c-1.2,1-2.4,1.8-3.8,2.5
			C92.3,101,92.6,101.6,93,101.4L93,101.4z"/>
		<path class="st2" d="M91.4,86.1c1.4-0.8,2.7-1.7,4.2-2.3c0.4-0.1,0.2-0.8-0.2-0.6c-1.6,0.6-2.9,1.5-4.4,2.4
			C90.7,85.8,91.1,86.3,91.4,86.1z"/>
	</g>
</g>
<g>
	<defs>
		<rect id="SVGID_00000104678176521243540490000012000837946735214242_" x="5.6" y="111.3" width="69.6" height="65.2"/>
	</defs>
	<clipPath id="SVGID_00000009570462768152916920000018349993640054857370_">
		<use xlink:href="#SVGID_00000104678176521243540490000012000837946735214242_"  style="overflow:visible;"/>
	</clipPath>
	<g style="clip-path:url(#SVGID_00000009570462768152916920000018349993640054857370_);">
		<path class="st8" d="M56.2,158.9l-1.1,12.3l-0.7,0.1l0-12.6L56.2,158.9z"/>
		<path class="st8" d="M33.3,161.2l-1.1,12.3l-0.7,0.1l0-12.6L33.3,161.2z"/>
		<path class="st8" d="M55.1,170.2l3.6-0.7l0.2,0.5l-3,0.9l4.1,0.6l-0.1,0.9l-4.3-0.6l2.7,2.3l-1,0.3l-2.9-3.1L55.1,170.2z"/>
		<path class="st8" d="M32.2,172.3l3.6-0.7l0.2,0.5l-3,0.9l4.1,0.6l-0.1,0.9l-4.3-0.6l2.7,2.3l-1,0.3l-2.9-3.1L32.2,172.3z"/>
		<path class="st9" d="M71.3,127.2c-1.8-7.6-8.4-10.7-16.2-10.3c-3.3,0.2-5.4,1.4-7.7,3.8c-0.9,0.9-2.7,2.9-3.8,5
			c-11.6-4-31-2.4-31-2.4l0.8,4.6l-5.7,0.2l0.6,4.2l-2.8,0.6l7.1,15.1c5.7,7.9,14.1,14.3,21.7,15c9.4,0.9,22.3,0.1,29-7.5
			C69.7,148.3,73.5,136.6,71.3,127.2L71.3,127.2z"/>
		<path class="st8" d="M70.3,133c2.1,0.1,5-0.7,4.9-1.6c-0.1-0.9-3.5-3.7-4.2-3.3C69.5,128.8,68.3,132.9,70.3,133z"/>
		<path class="st6" d="M61.3,126.7c0,0.6-0.5,1.2-1.2,1.2c-0.6,0-1.2-0.5-1.2-1.2s0.5-1.2,1.2-1.2C60.8,125.5,61.3,126,61.3,126.7z"
			/>
		<path class="st6" d="M71.1,125.2c0,0.6-0.5,1.2-1.2,1.2c-0.6,0-1.2-0.5-1.2-1.2c0-0.6,0.5-1.2,1.2-1.2
			C70.6,124,71.1,124.5,71.1,125.2z"/>
		<path class="st9" d="M62.1,115.7v-4.4l-2.4,4l-3.4-0.8l1.6,3.2l4.5,1.6l1.4-3.8L62.1,115.7z"/>
		<path class="st4" d="M21.3,149.9c0.6-0.2,17.1,2.6,22.7-1.3c7.2-5,5.1-15.7-0.9-17.7c-6-2-20.8,5.7-20.8,5.7l1.5,3l-4,3
			c0.9,0.1,3.8,2.8,3.8,2.8L21.3,149.9L21.3,149.9z"/>
		<path class="st4" d="M53.2,139.4l1.4,5.6l4.1-4.6l-2-0.6l-1.6,2.2l-0.4-2.6H53.2z"/>
		<path class="st4" d="M63.8,147.4l4.1-5l-1.6-0.6L64,144l-0.2-3.2l-2.4-0.4L63.8,147.4z"/>
		<path class="st4" d="M56.7,147.6l0.4,7.3l4.9-5.7l-1.8-0.8l-2.2,2.6l0.6-3.4H56.7z"/>
	</g>
</g>
</svg>
