<?xml version="1.0" encoding="utf-8"?>
<!-- Generator: Adobe Illustrator 28.1.0, SVG Export Plug-In . SVG Version: 6.00 Build 0)  -->
<svg version="1.1" id="_圖層_1" xmlns="http://www.w3.org/2000/svg" xmlns:xlink="http://www.w3.org/1999/xlink" x="0px" y="0px"
	 viewBox="0 0 311.2 312.2" style="enable-background:new 0 0 311.2 312.2;" xml:space="preserve">
<style type="text/css">
	.st0{fill:#D8231B;}
	.st1{fill:#D81C19;}
	.st2{fill:#FFFFFE;}
</style>
<g>
	<path class="st0" d="M310.9,159c-0.4,0.4-0.2,0.8-0.2,1.2c-0.9,30.4-10.2,58.1-27.3,83.2c-9.3,13.7-20.5,25.5-33.7,35.4
		c-16.9,12.7-35.6,21.9-56.2,27c-7.8,2-15.8,3.4-23.8,4.1c-8.4,0.8-16.8,0.9-25.2,0.3c-16.7-1.2-32.9-4.9-48.4-11.4
		c-11.6-4.8-22.4-11-32.5-18.4c-20.4-14.9-36.1-33.7-47.4-56.3c-6.4-12.8-10.9-26.3-13.5-40.4c-1.2-6.7-2-13.4-2.4-20.1
		c-0.3-4.8-0.3-9.6-0.1-14.4c0.4-9.9,1.7-19.6,3.9-29.2C9,98.8,17.9,79.5,31,62.2c16.5-21.8,37.2-38.3,62.2-49.3
		c1.1-0.5,19.1-8.3,36.3-10.9c4.1-0.6,8.6-1,8.6-1c1.5-0.1,8.4-0.8,17.6-0.7c2.6,0,8.9,0.1,17.1,0.9c3.4,0.3,6.9,0.6,11.2,1.4
		c2.4,0.4,14,2.4,29,8.4c3.5,1.4,6.9,2.9,10.3,4.5c21.7,10.6,40,25.5,54.9,44.5c1,1.2,2,2.4,2.9,3.7c12.9,18.1,21.9,37.8,26.4,59.6
		c1.5,7.3,2.5,14.6,3,22c0.1,1.8,0.1,3.6,0.1,5.3c0,0.3-0.1,0.6,0.2,0.9C310.9,153.9,310.9,156.5,310.9,159z M2.6,155.1
		c0.1,85.1,68.7,152.2,151.4,152.8c84.6,0.6,153.5-66.6,154.1-151.6C308.8,70.6,239.7,2.8,156,2.5C72.2,2.1,2.6,70.2,2.6,155.1z"/>
	<path class="st1" d="M133.4,176.9c-0.7,0.8-1.3,1.5-1.9,2.2c-4.3,5.1-8.6,10.3-12.8,15.4c-0.5,0.6-1.1,0.9-1.9,0.9
		c-11.3,0-22.7,0-34,0c-0.5,0-0.9,0-1.4,0c0,0.6,0.3,0.9,0.5,1.3c3.3,5.9,7.3,11.4,11.9,16.4c11.2,12.1,24.8,20,40.7,24.1
		c8.4,2.1,16.9,2.9,25.6,2.4c7.5-0.5,14.9-1.9,22-4.4c13.2-4.6,24.5-12,34.1-22.3c0.5-0.5,1-1.1,1.5-1.6c2.2-2.3,5.9-2.4,8.2-0.3
		c2.4,2.2,2.6,5.9,0.5,8.2c-3.7,4.1-7.6,7.9-11.9,11.4c-8.9,7.2-18.8,12.6-29.7,16.3c-7.3,2.5-14.7,4-22.4,4.6
		c-6.6,0.6-13.3,0.5-19.9-0.4c-17.3-2.2-33-8.5-46.8-19.4c-17.8-14.1-29.5-32.3-34.6-54.5c-2.2-9.6-2.8-19.4-2-29.2
		c0.6-7.3,2-14.5,4.3-21.5c5.8-17.4,15.8-32,29.9-43.9c11.7-9.8,25-16.3,39.8-19.7c3.8-0.9,7.7-1.6,11.7-1.9
		c5.5-0.3,10.9-0.4,16.4-0.1c7.3,0.4,14.5,1.7,21.4,3.9c20.9,6.7,37.7,19,50.3,37c2,2.8,4,5.7,5.6,8.8c1.4,2.5,2.7,5.1,3.3,7.9
		c1.7,8-3.4,15.9-11.4,17.8c-1.4,0.3-2.7,0.5-4.1,0.5c-13.5,0-26.9,0-40.4,0c-1.2,0-2.2,0.2-3.2,0.8c-1.9,1.2-2.8,3.4-2.4,5.6
		c0.5,2.1,2.3,3.8,4.4,4c0.5,0.1,1,0.1,1.6,0.1c12.9,0,25.7,0,38.6,0c11.4,0,21.1,7.8,23.6,18.9c3,13.3-5.9,26.6-19.3,28.9
		c-1.4,0.2-2.8,0.4-4.3,0.4c-24.1,0-48.1,0-72.2,0c-7.8,0-14.8-4.8-17.5-12.1c-0.7-1.7-1.2-3.5-1.6-5.4
		C133.6,177.7,133.5,177.4,133.4,176.9z M152.4,108.4c0.1,0,0.2,0.1,0.3,0.1c0,0.5,0,0.9,0,1.4c0,21.6,0,43.1,0.1,64.7
		c0,1.7,0.1,1.7,1.8,1.8c0.2,0,0.4,0,0.7,0c22.7,0,45.4,0,68.1,0c0.7,0,1.5,0,2.2,0c3.4-0.1,5.8-3.4,4.9-6.6
		c-0.7-2.6-3.1-3.8-5.2-3.8c-5.1,0-10.2,0-15.4,0c-8.3,0-16.6,0-24.9,0c-3.8,0-7.4-0.9-10.8-2.6c-15.8-8.3-17-29-4.9-39.2
		c4.6-3.9,9.8-5.9,15.8-5.9c9.3,0,18.7,0,28,0c4.4,0,8.8,0,13.2,0c1.7,0,2.5-1.3,1.6-2.8c-1.8-3-3.6-6-5.7-8.9
		c-10.3-13.8-23.6-23.6-39.8-29.4c-7.6-2.7-15.4-4.1-23.4-4.5c-8.1-0.4-16,0.3-23.9,2.3c-16.2,4.1-30.1,12.1-41.5,24.5
		c-7.2,7.8-12.7,16.7-16.6,26.5c-3.4,8.5-5.1,17.4-5.5,26.5c-0.5,11,1.2,21.6,4.9,31.9c1.1,3,2.3,5.9,3.8,8.9
		c12.1-14.3,24.1-28.4,36.1-42.6C128.3,136.7,140.4,122.6,152.4,108.4z M118,176.7c5,0,9.7,0,14.4,0c1.1,0,1.6-0.6,1.7-1.6
		c0-0.2,0-0.4,0-0.7c0-4.9,0-9.8,0-14.7c0-0.3,0.1-0.7-0.2-1.1C128.6,164.6,123.4,170.6,118,176.7z"/>
	<path class="st1" d="M142,46.7c2-0.5,4-0.9,5.9-1.3c0.9-0.2,1.1-0.1,1.2,0.9c0,0.7,0.1,1.5,0.1,2.2c0,1.1,0,1.2-1.1,1.4
		c-2.9,0.7-5.7,1.4-8.6,2c-0.8,0.2-1.7,0.4-2.5,0.6c-1.3,0.2-2.4-0.5-2.7-1.6c-0.3-1.2,0.3-2.4,1.6-2.7c0.8-0.2,0.8-0.6,0.8-1.2
		c0-8.7,0.1-17.4,0.1-26c0-0.6,0-1.1,0-1.7c0.1-1.1,0.5-1.6,1.6-1.6c1.1,0,2.3,0,3.4,0c2.6,0,5.1,0,7.7,0.1c1.1,0,1.1,0,1.3-1.1
		c0.3-1.6,1.4-2.7,3-2.7c1.5,0,2.6,1.1,2.9,2.7c0.2,1.1,0.3,1.2,1.5,1.2c3.5,0,6.9,0,10.4,0.1c1.5,0,1.7,0.1,1.6,1.6
		c0,6-0.1,12-0.1,18c0,1,0,1-1.1,1c-3.4,0-6.9,0-10.3,0c-0.6,0-1.3,0-1.9,0c-0.3,0.4,0,0.7,0.1,1c0.9,1.7,2.2,3.1,3.6,4.5
		c0.5,0.5,0.8,0.3,1.2,0c1.5-1.3,3-2.5,4.4-3.8c0.6-0.5,1.2-0.8,2-0.7c1.7,0.3,2.5,2.2,1.4,3.6c-0.6,0.9-1.4,1.6-2.2,2.4
		c-0.5,0.5-1,0.9-1.6,1.4c0.5,0.6,1.1,0.6,1.6,0.8c1.4,0.4,2.9,0.6,4.3,0.8c1,0.1,1.1,0.2,1.1,1.2c0,0.6,0,1.1,0,1.7
		c0,1.1-0.2,1.3-1.3,1.3c-1.8,0-3.6-0.2-5.3-0.6c-3.4-0.8-6.4-2.4-8.9-4.9c-1.6-1.6-3.3-3.1-4.6-4.9c-0.7-0.9-1.3-1.9-1.8-3
		c-0.2-0.5-0.4-0.7-1-0.7c-2.4,0-4.8,0-7.2,0c-0.3,0-0.7,0-0.7,0.5C142,41.4,142,44,142,46.7z M153.4,33.9
		C153.4,33.9,153.4,33.9,153.4,33.9c3.2,0.1,6.4,0.1,9.6,0.1c0.3,0,0.5,0,0.8,0c0.7-0.1,0.9-0.3,0.8-1.2c-0.1-0.8,0.6-1.9-0.7-2.3
		c-0.3-0.1-0.6,0-0.9,0c-6.3,0-12.7,0-19-0.1c-2,0-2,0-2,2c0,1.4,0.1,1.5,1.4,1.5C146.8,33.9,150.1,33.9,153.4,33.9z M153.4,22.4
		c0,0,0-0.1,0-0.1c-3,0-6,0-9,0c-2.6,0-2.3,0.1-2.3,2.4c0,0.1,0,0.3,0,0.4c0.1,0.4,0.3,0.6,0.7,0.7c0.3,0,0.6,0,0.9,0
		c6.3,0,12.7,0,19,0.1c2.1,0,2.1,0,2-2.1c0-1.3-0.1-1.4-1.4-1.4C160,22.4,156.7,22.4,153.4,22.4z"/>
	<path class="st1" d="M186.1,32.6c1.4-3.4,2.7-6.7,4-10.1c0.7-1.7,2-2.3,3.8-1.7c1.8,0.6,3.6,1.4,5.3,2.1c0.3,0.1,0.6,0.2,0.8,0.3
		c0.4,0.2,0.7,0.2,0.9-0.3c0.1-0.4,0.4-0.5,0.8-0.3c1.2,0.5,2.3,1,3.5,1.4c0.4,0.2,0.7,0.4,0.4,0.8c-0.2,0.4,0,0.6,0.4,0.8
		c1.1,0.4,2.3,0.9,3.4,1.3c0.3,0.1,0.6,0.1,0.7-0.3c0.2-0.6,0.5-0.6,1-0.3c1.1,0.5,2.2,0.9,3.4,1.4c0.3,0.1,0.7,0.3,0.5,0.7
		c-0.3,0.7,0.1,0.8,0.6,1c2.5,1,5,2,7.5,3c0.2,0.1,0.5,0.2,0.7,0.3c0.3,0.1,0.4,0.3,0.3,0.6c-0.1,0.3-0.2,0.6-0.3,0.8
		c-1.4,3.6-2.9,7.2-4.3,10.7c-0.4,0.9-0.4,0.9-1.3,0.6c-10.5-4.2-21-8.4-31.5-12.6C186.5,32.8,186.4,32.7,186.1,32.6z M196.8,32.9
		c0.5-0.2,0.5-0.7,0.6-1.1c0.2-0.3-0.1-0.4-0.3-0.6c-1.2-0.5-2.4-1-3.6-1.5c-0.6-0.3-0.7,0.2-0.9,0.6c-0.2,0.4-0.3,0.8,0.3,1
		c1.2,0.4,2.3,0.9,3.5,1.4C196.5,32.9,196.7,32.9,196.8,32.9z M211.8,37.2c-0.5,0.1-0.4,0.6-0.6,1c-0.2,0.4,0.1,0.6,0.4,0.7
		c1.2,0.5,2.3,0.9,3.5,1.4c0.7,0.3,0.7-0.2,0.9-0.6c0.2-0.4,0.2-0.7-0.3-0.9c-1.1-0.4-2.2-0.9-3.3-1.3
		C212.2,37.4,212,37.3,211.8,37.2z M201.9,35c1.2,0.5,2.4,1,3.7,1.5c0.6,0.2,0.7,0,0.9-0.5c0.2-0.5,0.3-0.9-0.4-1.1
		c-0.9-0.3-1.7-0.7-2.5-1c-1.3-0.5-1.3-0.5-1.7,0.8C201.9,34.8,201.9,34.8,201.9,35z M199.3,27.1c0-0.2-0.1-0.3-0.3-0.4
		c-1.1-0.4-2.2-0.9-3.3-1.3c-0.2-0.1-0.4-0.1-0.6,0c-0.4,0.1-0.6,0.5-0.7,0.8c-0.1,0.4,0.3,0.4,0.6,0.5c1.1,0.4,2.1,0.9,3.2,1.3
		C198.7,28.3,199.4,27.8,199.3,27.1z M217.9,34.3c-1.3-0.5-2.6-1-3.9-1.6c-0.6-0.3-0.7,0.1-0.9,0.5c-0.2,0.5-0.2,0.8,0.4,1
		c1,0.4,2,0.8,3,1.2c0.9,0.4,0.9,0.4,1.3-0.6C217.9,34.7,217.9,34.6,217.9,34.3z M208.5,30.8c0-0.3-0.3-0.4-0.5-0.5
		c-1-0.4-2.1-0.8-3.1-1.3c-0.5-0.2-0.8,0-1,0.5c-0.2,0.5-0.2,0.8,0.4,1c1,0.4,2,0.8,3,1.2C208,32,208.6,31.5,208.5,30.8z"/>
	<path class="st1" d="M51,92c5,2.2,9.9,4.4,14.8,6.6c0.7,0.3,0.7,0.6,0.4,1.2c-3.9,8.6-7.8,17.3-11.7,25.9c-0.5,1.1-1.1,2.3-1.5,3.4
		c-0.2,0.6-0.5,0.7-1.1,0.4c-2.2-1-4.5-2-6.8-3c-1.4-0.6-2.9-1.2-4.3-1.8c-2.5-1.1-3.2-2.7-2.2-5.3c0.8-2.1,1.8-4.1,2.7-6.2
		c3.1-6.8,6.1-13.7,9.2-20.5C50.8,92.6,50.9,92.3,51,92z M53.1,99.9c-0.2,0.5-0.5,0.9-0.7,1.4c-1.6,3.5-3.2,7-4.7,10.6
		c-0.9,2-1.8,4-2.7,6.1c-0.5,1.2-0.4,1.7,0.9,2.2c1.3,0.6,2.5,1.1,3.8,1.7c0.9,0.4,0.9,0.4,1.3-0.5c1.4-3.2,2.9-6.4,4.3-9.6
		c1.2-2.7,2.4-5.5,3.7-8.2c0.2-0.4,0.5-0.8-0.2-1C56.9,101.6,55.1,100.7,53.1,99.9z"/>
	<path class="st1" d="M122.5,37.9c0.2-0.8-0.3-1.4-0.6-2.1c-0.1-0.3-0.4-0.1-0.6-0.1c-2.3,0.9-4.6,1.9-6.9,2.8
		c-0.2,0.1-0.4,0.2-0.3,0.5c0.1,0.2,0.3,0.2,0.4,0.2c0.2,0,0.3-0.1,0.5-0.1c0.4-0.1,0.9-0.7,1.3-0.2c0.4,0.6,0.6,1.4,0.9,2.2
		c0.1,0.2-0.2,0.3-0.3,0.3c-1.4,0.5-2.7,1.2-4.1,1.6c-1.2,0.3-1.7,0-2.2-1.1c-0.7-1.5-0.7-1.5-2.2-0.9c-2.4,1-4.8,1.9-7.2,2.9
		c-1.3,0.5-1.3,0.7-0.8,1.9c0.6,1.5,0.7,1.2-0.8,1.9c-0.9,0.4-1.9,0.7-2.8,1.1c-0.6,0.3-0.8,0.1-1-0.5c-0.2-0.7-0.6-1.4-0.8-2.1
		c-0.5-1.4,0-2.7,1.4-3.4c0.4-0.2,0.9-0.3,1.3-0.5c0.9-0.4,1-0.6,0.6-1.5c-0.7-1.7-1.4-3.5-2.1-5.2c-0.1-0.2-0.2-0.5-0.3-0.7
		c-0.7-1.7-0.2-2.9,1.5-3.6c1.7-0.7,3.5-1.4,5.2-2.1c0.7-0.3,0.7-0.6,0.3-1.2c-0.3-0.4-0.6-0.2-0.9-0.1c-1.8,0.7-3.5,1.4-5.3,2.2
		c-0.6,0.2-1.2,0.5-1.8,0.7c-0.9,0.3-1.7,0-2-0.8c-0.3-0.7,0-1.6,0.8-2c0.6-0.3,1.2-0.6,1.8-0.8c6.9-2.8,13.8-5.6,20.7-8.4
		c0.2-0.1,0.5-0.2,0.7-0.3c0.4-0.1,0.6,0,0.9,0.4c1.1,1.9,1,2.3-1,3.1c-2.3,0.9-4.6,1.9-7,2.8c-0.5,0.2-0.8,0.4-0.5,1
		c0.2,0.4,0.4,0.5,0.8,0.3c1.2-0.5,2.5-1,3.7-1.5c0.7-0.3,1.4-0.6,2.2-0.9c1.2-0.4,1-0.7,1.6,0.6c0.9,2.3,1.9,4.6,2.8,6.9
		c0.7,1.6,0.7,1.6,2.4,1c0.9-0.4,1.8-0.7,2.8-1.1c0.6,1.5,1.3,3,1.9,4.5c0.1,0.3,0.1,0.6-0.2,0.8c-1.2,0.5-2.5,1.1-3.7,1.5
		C123.1,38,122.8,37.6,122.5,37.9L122.5,37.9z M103,36.9c0.3,0,0.6-0.2,0.9-0.3c3.2-1.3,6.5-2.6,9.7-3.9c1-0.4,1.3-0.7,1-1.2
		c-0.4-0.7-1-0.3-1.5-0.1c-3.3,1.3-6.6,2.7-9.8,4c-0.2,0.1-0.5,0.2-0.7,0.3c-0.2,0.1-0.4,0.3-0.3,0.6
		C102.4,36.6,102.5,36.9,103,36.9z M104.2,39.8c0.2-0.1,0.6-0.2,0.9-0.3c3.3-1.3,6.5-2.6,9.8-4c0.2-0.1,0.5-0.2,0.7-0.3
		c0.3-0.2,0.4-0.4,0.2-0.8c-0.1-0.3-0.4-0.5-0.7-0.4c-0.2,0-0.4,0.1-0.6,0.2c-3.4,1.4-6.7,2.7-10.1,4.1c-0.2,0.1-0.4,0.2-0.6,0.3
		c-0.3,0.2-0.4,0.5-0.3,0.8C103.6,39.6,103.8,39.8,104.2,39.8z M101.9,34c0.2-0.1,0.4-0.1,0.6-0.2c3.3-1.3,6.6-2.7,10-4
		c0.2-0.1,0.5-0.2,0.7-0.3c0.3-0.2,0.3-0.5,0.2-0.8c-0.1-0.3-0.3-0.4-0.6-0.3c-0.3,0.1-0.7,0.2-1,0.3c-3.2,1.3-6.4,2.6-9.6,3.9
		c-0.3,0.1-0.6,0.2-0.8,0.4c-0.3,0.1-0.3,0.4-0.2,0.7C101.2,33.9,101.5,34,101.9,34z"/>
	<path class="st1" d="M188.5,39.2c-0.7,1.7-1.3,3.3-1.9,4.9c-0.1,0.3-0.1,0.5,0.2,0.6c0.3,0.1,0.6,0.2,0.8,0.3
		c8.6,3.5,17.3,6.9,25.9,10.4c2.2,0.9,2.3,1.2,1.4,3.3c-0.3,0.8-0.3,0.8-1.2,0.4c-3.6-1.4-7.2-2.9-10.9-4.3
		c-3.1-1.2-6.2-2.5-9.3-3.7c-1.3-0.5-1.2-0.8-1.8,0.8c-0.2,0.4-0.4,0.9-0.5,1.3c-0.4,1-0.3,1.1,0.6,1.5c1.6,0.7,3.3,1.3,4.9,2
		c0.3,0.1,0.6,0.2,0.8,0.3c0.7,0.4,1,0.9,0.7,1.6c-0.2,0.7-0.4,1.5-0.8,1.9c-0.5,0.5-1.2-0.2-1.8-0.4c-2.6-1-5.2-2-7.7-3.1
		c-0.5-0.2-1-0.4-1.5-0.7c-1.2-0.7-1.5-1.5-1-2.8c0.5-1.4,1.1-2.8,1.6-4.1c0.2-0.5,0.1-0.8-0.4-1c-2.1-0.8-1.6-0.9-2.3,0.9
		c-0.3,0.6-0.5,1.2-0.7,1.8c-0.6,1.6-2.1,2.5-3.8,2.4c-1.4-0.1-2.7-0.6-3.9-1.2c-1-0.5-1.3-1.6-0.9-2.6c0.4-1,1.3-1.5,2.4-1.3
		c1.8,0.3,1.8,0.3,2.4-1.3c1.1-2.7,2.2-5.4,3.3-8.1c0.3-0.8,0.5-1.6,0.9-2.4c0.7-1.9,1.7-2.3,3.6-1.6c5,2,10,4,15.1,6.1
		c5,2,10,4,15.1,6.1c0.3,0.1,0.6,0.3,0.9,0.4c0.5,0.3,0.7,0.8,0.6,1.3c-0.2,0.7-0.5,1.3-0.7,1.9c-0.1,0.2-0.3,0.3-0.5,0.2
		c-0.3-0.1-0.7-0.2-1-0.4c-9.1-3.6-18.2-7.3-27.3-10.9C189.3,39.5,188.9,39.4,188.5,39.2z"/>
	<path class="st1" d="M231.2,78.7c0.2-0.1,0.3-0.1,0.4-0.2c0.7-0.7,0.7-0.7,0-1.4c-1.7-1.6-3.5-3.3-5.2-4.9
		c-0.2-0.2-0.5-0.4-0.7-0.6c-0.8-0.9-0.7-2,0.1-2.8c0.7-0.7,1.8-0.8,2.7-0.1c0.5,0.4,0.9,0.8,1.3,1.2c1.7,1.6,3.4,3.2,5.1,4.8
		c0.4,0.1,0.5-0.2,0.7-0.4c0.6-0.4,0.4-0.8,0-1.2c-1.1-1-2.1-2-3.1-2.9c-0.3-0.2-0.5-0.5-0.9-0.6c-1.7-0.3-2.7-1.6-3.8-2.8
		c-0.6-0.7-0.6-1.7-0.1-2.4c0.6-0.8,1.5-1.1,2.4-0.6c0.7,0.4,1.4,0.4,2.1,0.1c0.7-0.3,1.3-0.1,1.9,0.4c1,1,2,1.9,3,2.9
		c-0.4,0.2-0.7,0.3-1.1,0.6c0.9,0.8,1.7,1.6,2.5,2.4c0.4,0.4,0.6,0.4,0.9,0c0.2-0.3,0.5-0.6,0.8-1c1.5,1.4,2.9,2.7,4.3,4
		c-0.4,0.5-0.8,0.9-1.2,1.3c0,0.5,0.4,0.6,0.7,0.9c1.7,1.6,3.3,3.2,5,4.7c0.9,0.8,0.9,0.9,0,1.7c-0.7,0.7-1.2,1.5-2,2
		c-0.8-0.5-1.4-1.2-2-1.8c-1.4-1.3-2.7-2.5-4.1-3.8c-0.5-0.4-0.7-0.4-1.2,0c-0.4,0.4-0.5,0.7,0,1.1c2,1.9,4,3.7,6,5.6
		c0.9,0.8,0.9,0.8,0,1.7c-0.6,0.7-1.2,1.3-1.9,2c-0.9-0.9-1.8-1.7-2.7-2.5c-1.3-1.2-2.6-2.4-3.9-3.7c-0.9-0.8-0.9-0.8-1.8,0.3
		c0.4,0.4,0.8,0.8,1.3,1.2c2.1,2,4.2,4,6.3,6c0.8,0.7,0.8,0.8,0,1.6c-0.4,0.4-0.8,0.9-1.2,1.3c-0.8,0.9-0.7,0.9-1.6,0.1
		c-2-1.9-4-3.8-6-5.6c-4.4-4.1-8.8-8.3-13.2-12.4c-0.3-0.2-0.5-0.5-0.7-0.7c-0.6-0.8-0.6-1.9,0.1-2.6c0.7-0.7,1.8-0.8,2.6-0.3
		c0.4,0.3,0.8,0.7,1.2,1C226.8,74.4,229,76.6,231.2,78.7z"/>
	<path class="st0" d="M65.9,81.3c-0.9-0.6-1.5-1.3-2.2-2c-0.3-0.2-0.2-0.5,0-0.7c0.1-0.2,0.3-0.3,0.5-0.5
		c5.3-5.5,10.5-10.9,15.8-16.4c1.1-1.2,2.3-2.3,3.5-3.5c0.4-0.5,0.7-0.4,1.2,0c0.8,0.8,1.7,1.6,2.5,2.5c0.9,1,1,2,0.4,3.2
		c-0.3,0.5-0.7,0.9-1.1,1.3c-4.2,4.3-8.3,8.6-12.5,12.9c-0.2,0.2-0.4,0.4-0.5,0.6c-0.1,0.2-0.4,0.3-0.1,0.6c0.3,0.2,0.5,0.1,0.7,0
		c0.3-0.3,0.6-0.5,0.8-0.8c4.6-4.8,9.2-9.6,13.8-14.3c0.2-0.2,0.4-0.4,0.5-0.6c0.3-0.3,0.5-0.3,0.8,0c0.9,0.9,1.9,1.8,2.8,2.7
		c0.8,0.9,0.8,2,0.4,3c-0.5,1.2-1.4,2.2-2.3,3.1c-4.8,5-9.6,10-14.5,15c-0.2,0.2-0.3,0.3-0.5,0.5c-0.5,0.5-1,1.5-1.6,1.4
		c-0.8-0.2-1.4-1.1-2-1.8c-0.3-0.3,0-0.5,0.2-0.7c1.2-1.2,2.3-2.4,3.5-3.7c3.8-3.9,7.5-7.8,11.3-11.7c0.4-0.4,1.3-0.9,0.7-1.5
		c-0.5-0.4-0.9,0.5-1.3,0.9c-3.9,4-7.7,8-11.6,12c-2.1,2.2-3.9,2.4-6,0.1c-0.5-0.5-1-1-1.6-1.5c-0.2-0.2-0.2-0.4,0-0.7
		c0.2-0.2,0.4-0.4,0.5-0.6c4.6-4.7,9.2-9.5,13.7-14.2c0.3-0.3,0.7-0.6,0.9-1.1c0.1-0.2,0.1-0.4-0.2-0.6c-0.2-0.1-0.3,0-0.5,0.1
		c-0.3,0.3-0.5,0.6-0.8,0.8c-4.8,5-9.6,10-14.5,15C66.5,80.6,66.2,80.9,65.9,81.3z"/>
	<path class="st1" d="M277.7,87.8c1.4,0,2.3,0.8,2.9,1.8c0.8,1.3,1.4,2.7,2,4.1c0.4,1,0.8,2,1.3,3c1.7,3.7,3.4,7.5,5.2,11.2
		c0.4,0.9,0.4,0.9-0.5,1.3c-4.8,2.2-9.6,4.5-14.4,6.7c-0.9,0.4-0.9,0.4-1.4-0.5c-3.1-6.7-6.2-13.5-9.3-20.2c-0.5-1-0.5-1,0.6-1.5
		c3.9-1.8,7.7-3.5,11.6-5.3C276.4,88,277,87.8,277.7,87.8z M275.6,109c2.2-1,4.3-2,6.5-3c0.4-0.2,0.5-0.4,0.3-0.8
		c-1.5-3.2-2.9-6.4-4.4-9.5c-0.4-1-0.9-1.1-1.9-0.6c-1.7,0.8-3.4,1.6-5.1,2.3c-0.4,0.2-0.6,0.4-0.4,0.9
		C272.3,101.8,273.9,105.3,275.6,109z"/>
	<path class="st1" d="M33,96.5c1-2.3,1.9-4.3,2.8-6.4c0.2-0.4,0.5-0.6,0.9-0.7c2.1-0.7,4.3-1.4,6.4-2.1c0.8-0.3,1.6-0.3,2.4,0.2
		c0.5,0.3,1,0.5,1.5,0.7c1,0.5,1.4,1.3,1.3,2.4c-0.1,0.7-0.3,1.4-0.6,2c-4.1,9.1-8.1,18.2-12.2,27.3c-0.6,1.4-1.7,2.1-3.1,2.1
		c-1.5,0-2.6-0.7-3.3-2.1c-1.6-3.2-3.2-6.4-4.8-9.7c-0.2-0.3-0.3-0.6-0.5-0.9c-1-2-0.6-4.4,1.1-5.9c1.2-1.1,1.9-1,2.6,0.4
		c1.5,2.8,2.9,5.6,4.3,8.4c0.2,0.3,0.3,0.7,0.6,1c0.4-0.1,0.4-0.5,0.5-0.8c2.6-5.8,5.2-11.5,7.7-17.3c0.2-0.4,0.6-0.8,0.3-1.2
		c-0.3-0.4-0.8,0-1.2,0.1C37.7,94.9,35.5,95.7,33,96.5z"/>
	<path class="st0" d="M63.6,229.3C63.6,229.3,63.5,229.4,63.6,229.3c0.8,1.3,1.9,2.4,3.1,3.2c0,0,0.1-0.1,0.1-0.1c0,0,0,0,0,0
		c0,0.1-0.2,0.2,0,0.3c0.1,0.1,0.2,0,0.3,0l0,0c-0.3,0.3,0.1,0.4,0.2,0.6c0.9,1,1.9,2,2.9,2.9c0.8,0.8,1.4,1.7,2.4,2.3l0,0
		c0,0.2,0.1,0.3,0.3,0.3l0,0c0.4,0.8,1.1,1.2,1.6,1.8c1,1.2,1.1,2.3,0,3.4c-0.6,0.6-1.2,1.2-1.8,1.7c-1.4,1.4-2.6,1.4-4,0
		c-1.7-1.7-3.4-3.4-5-5.1c-0.2-0.2-0.4-0.5-0.6-0.7c-0.6,0.6-1,1.1-1.5,1.6c0.2,0.3,0.5,0.6,0.9,1c1.7,1.7,3.4,3.4,5,5.1
		c0.4,0.4,0.8,0.9,1.1,1.4c0.5,1,0.5,1.8-0.4,2.6c-1.3,1.2-2.6,2.3-4.1,3.2c-1.1,0.7-2.3,0.7-3.4,0c-1.5-0.9-2.6-2.3-3.5-3.8
		c-0.4-0.7-0.1-1.4,0.5-1.8c0.6-0.4,1.2-0.3,1.7,0.3c0.5,0.6,0.9,1.3,1.4,1.9c1.1,1.3,1.6,1.4,2.9,0.4c0.5-0.3,1-0.7,1.4-1.1
		c0.8-0.7,0.8-0.8,0-1.6c-1.3-1.3-2.6-2.6-3.8-3.9c-0.6-0.6-1.2-1.2-1.9-1.9c-1.1,1.1-2.2,2.2-3.4,3.3c-0.7,0.7-1.4,1.3-2,2
		c-0.3,0.3-0.7,0.6-1.1,0.6c-0.6,0-1-0.2-1.3-0.7c-0.3-0.5-0.2-0.9,0.1-1.3c0.2-0.3,0.5-0.5,0.7-0.8c1.4-1.4,2.7-2.8,4.2-4.2
		c-1-0.4-2.1-0.4-3-0.5c-2.8-0.5-5.6-1.3-8.2-2.5c-0.7-0.3-1.4-0.7-2-1.2c-0.6-0.6-0.7-1.2-0.3-1.7c0.3-0.5,1-0.7,1.6-0.5
		c0.3,0.1,0.6,0.3,0.9,0.5c2.5,1.4,5.2,2.4,8,3c0.3,0.1,0.7,0.1,1,0.2c0.2,0,0.3,0,0.5,0c0-0.5-0.4-0.7-0.7-0.9
		c-1.3-1.3-2.6-2.6-3.9-4c-1.2-1.3-1.1-2.3,0.2-3.4c0.7-0.5,1.4-1,2.1-1.6c1-0.9,2.5-0.8,3.5,0.3c1.8,1.9,3.6,3.6,5.4,5.5
		c0.3,0.3,0.5,0.7,0.9,1c0.8-0.6,1.4-1.2,2-1.8c-1.2-1.2-2.4-2.4-3.6-3.6c-1-1.1-2.1-2.1-3.1-3.1c-0.2-0.2-0.4-0.4-0.6-0.7
		c-0.5-0.6-0.4-1.3,0.1-1.8c0.5-0.5,1.2-0.5,1.8,0c1.1,1,2.1,2.2,3.2,3.2c0.2,0.2,0.3,0.6,0.8,0.5l0,0c-0.1,0.3,0,0.4,0.3,0.3l0,0
		C63.3,229.3,63.3,229.4,63.6,229.3C63.7,229.3,63.6,229.3,63.6,229.3z M64.7,238.1c1.7,1.8,3.4,3.5,5.1,5.2
		c0.2,0.2,0.4,0.4,0.7,0.3c0.6-0.2,1.1-0.6,1.4-1.1c0.3-0.5-0.1-0.9-0.5-1.2c-1.4-1.4-2.8-2.9-4.3-4.3c-0.2-0.2-0.4-0.5-0.5-0.5
		C65.9,237,65.3,237.5,64.7,238.1z M61,237.8c-0.8-0.8-1.6-1.4-2.4-2.2c-1.2-1.2-2.3-2.3-3.5-3.5c-0.6-0.5-1-0.4-1.7,0.3
		c-0.5,0.5-0.1,0.9,0.2,1.2c0.6,0.7,1.3,1.4,2,2c1.2,1.3,2.5,2.5,3.7,3.8C59.9,239,60.3,238.5,61,237.8z"/>
	<path class="st1" d="M232.7,55.3c0.2-0.3,0-0.5,0-0.7c-0.1-0.8,0.1-1.4,0.8-1.8c0.7-0.3,1.3-0.3,1.9,0.3c0.8,0.7,1.6,1.5,2.4,2.2
		c0.8,0.8,1.6,1.6,2.5,2.3c0.5,0.5,1.1,1,1.9,1.1c0.3-0.3,0-0.6,0-0.8c-0.4-1.7-1-3.3-1.5-5c-0.2-0.5-0.4-0.9-0.8-1.3
		c-1-0.9-2-1.8-2.9-2.8c-0.3-0.2-0.5-0.5-0.7-0.8c-0.6-0.8-0.5-1.8,0.1-2.5c0.7-0.8,1.7-1,2.6-0.4c0.3,0.2,0.6,0.5,0.9,0.7
		c2.6,2.4,5.2,4.9,7.8,7.3c0.3,0.3,0.6,0.7,1,0.8c2.3-1.9,4-2,5.5-0.5c1.4,1.4,1.2,3.2-0.5,5.3c0.5,0.7,1.2,1.3,1.9,1.9
		c2.7,2.3,5.1,4.8,7.7,7.2c0.8,0.8,0.8,0.8,0,1.7c-0.5,0.5-1,1.1-1.5,1.6c-0.4,0.4-0.7,0.4-1.1,0c-1-1-2.1-2-3.1-3
		c-0.5-0.5-1-0.8-1.6-1c-2-0.6-4-1.3-5.9-1.9c-0.2-0.1-0.3-0.1-0.5,0c0.3,0.7,0.8,1.3,1.4,1.8c1.5,1.4,3,2.9,4.5,4.3
		c1,0.9,1,1.3,0.1,2.3c-1.3,1.4-1.2,1.3-2.6,0.1c-0.4-0.3-0.5-1-1.3-0.8l0,0c0-0.1,0.2-0.2,0-0.3c-0.1-0.1-0.2,0-0.3,0l0,0
		c0.1-0.1,0.2-0.2,0.1-0.3c-1.4-1.3-2.7-2.7-4.2-3.9l0,0c-0.1-0.2-0.2-0.5-0.6-0.3l0,0c0-0.1,0.2-0.2,0-0.3c-0.1-0.1-0.2,0-0.3,0
		l0,0c0.2-0.2,0.1-0.3,0-0.4c-1-0.8-1.5-1.8-1.8-3.1c-0.2-0.7-0.6-1.1-1.3-1.3c-1.4-0.4-2.7-1.1-3.8-2.1c-0.1-0.1-0.3-0.1-0.4-0.2
		c0,0,0,0,0,0c-2-1.9-4.1-3.9-6.1-5.8C232.9,55.2,232.8,55.3,232.7,55.3C232.7,55.3,232.7,55.3,232.7,55.3z M250.4,61.8L250.4,61.8
		L250.4,61.8c-0.1-0.7-0.8-0.8-1.2-1.2c-1-1-2-1.9-3.1-2.9c0,1.1,0.3,2,0.5,3c0.1,0.3,0.4,0.4,0.6,0.4
		C248.3,61.4,249.3,61.8,250.4,61.8z"/>
	<path class="st0" d="M242.8,239.8c0.2,0.7,0.1,1.2-0.4,1.8c-0.8,0.9-1.5,1.8-2.2,2.7c-0.4,0.5-0.5,0.8,0,1.3
		c0.5,0.4,0.9,0.9,1.2,1.3c0.4,0.5,0.7,0.4,1-0.1c0.3-0.5,0.7-0.9,1.1-1.3c1-1.1,1.8-1.1,2.9-0.2c1.8,1.5,3.4,3.1,4.8,4.9
		c0.4,0.6,0.8,1.2,0.9,2c0.2,1.2-0.1,2.2-1.1,3c-0.6,0.5-1.3,0.9-1.9,1.3c-0.8,0.5-1.5,0.4-1.9-0.3c-0.5-0.6-0.3-1.3,0.4-1.9
		c0.2-0.2,0.4-0.3,0.6-0.5c1.2-1,1.3-1.5,0.5-2.8c-0.8-1.3-1.9-2.3-3-3.2c-0.4-0.3-0.7-0.2-1,0.1c-0.4,0.5-0.8,1-1.2,1.5
		c-1.1,1.2-2,1.2-3.1,0.1c-0.6-0.7-1.2-1.3-1.9-2c-0.6-0.6-0.6-0.6-1.2,0c-0.2,0.2-0.3,0.4-0.5,0.6c-0.5,0.5-1.2,0.5-1.6,0
		c-0.5-0.4-0.6-1-0.2-1.6c0.1-0.2,0.3-0.3,0.4-0.5c1.6-2,3.3-4,4.9-6.1c0.5-0.7,1.1-1.1,2.2-0.8c-0.8-1-1.7-1.5-2.4-2.1
		c-0.3-0.3-0.7-0.5-1-0.8c-0.9-0.9-1-2-0.2-3c0.6-0.8,1.2-1.5,1.9-2.4c-1-0.8-1.9-1.6-2.8-2.3c-0.3-0.2-0.6-0.4-0.8-0.7
		c-0.4-0.5-0.5-1-0.2-1.5c0.4-0.6,0.9-0.7,1.6-0.5c0.3,0.1,0.6,0.3,1,0.5c1.3-1.5,2.5-3.1,3.8-4.6c0.2-0.3,0.4-0.6,0.7-0.8
		c0.5-0.5,1-0.5,1.5-0.1c0.5,0.4,0.6,0.9,0.2,1.5c-0.2,0.3-0.4,0.5-0.6,0.7c-1.3,1.6-2.6,3.1-3.9,4.8c0.2,0.2,0.4,0.3,0.6,0.4
		c0.5,0.5,0.8,0.4,1.2-0.1c1.3-1.6,2.6-3.1,3.9-4.8c1.2-1.6,2.5-1.5,4-0.2c0.6,0.6,1.1,1.2,1.4,2c0.3,0.8,0.2,1.3-0.4,1.7
		c-0.6,0.4-1.2,0.2-1.7-0.4c-0.3-0.3-0.4-0.8-0.6-1.1c-0.4-0.6-0.7-0.6-1.2-0.1c-1.2,1.5-2.4,2.9-3.6,4.4c-0.3,0.3-0.2,0.5,0.1,0.8
		c0.5,0.4,0.9,0.8,1.5,1.2c0.8-0.9,1.5-1.8,2.2-2.7c0.3-0.3,0.5-0.7,0.8-1c0.6-0.6,1.2-0.6,1.7-0.1c0.5,0.5,0.6,1.1,0.1,1.7
		c-0.7,1-1.5,1.9-2.3,2.8c-0.2,0.3-0.5,0.5-0.6,0.9c1.8,1.7,2.1,1.6,3.6-0.2c0.5-0.6,1-1.2,1.5-1.8c0.6-0.8,0.6-1.2,0.1-2.1
		c-0.1-0.2-0.3-0.4-0.3-0.7c-0.1-0.5,0-0.9,0.4-1.2c0.5-0.3,0.9-0.2,1.3,0.1c1.7,1.2,2,3,0.9,4.6c-1,1.5-2.1,2.9-3.4,4.1
		c-1.6,1.5-2.8,1.5-4.5,0.2c-1.3-1.1-1.3-1.1-2.4,0.3c-1,1.3-1.1,0.9,0.2,2c2.4,2,4.6,4.1,6.6,6.5c0.9,1,1.6,2.2,2.1,3.4
		c0.2,0.4,0.4,0.9,0.5,1.3c0.2,0.8-0.1,1.3-0.8,1.6c-0.7,0.2-1.4,0-1.8-0.7c-0.1-0.1-0.1-0.2-0.2-0.4c-1.3-3.2-3.4-5.7-6-7.9
		c-1.1-1-2.3-1.9-3.4-2.8c-0.1-0.1-0.2-0.3-0.4-0.1C242.6,239.5,242.7,239.7,242.8,239.8z M244.7,233.7c0-0.3-1.6-1.6-1.8-1.5
		c-0.1,0-0.2,0.1-0.2,0.1c-0.4,0.5-0.9,1.1-1.3,1.6c-0.2,0.3-0.2,0.6,0,0.8c0.4,0.4,0.8,1,1.4,1.1c0.5,0.1,0.7-0.6,1-0.9
		c0.3-0.3,0.5-0.6,0.7-0.9C244.6,233.9,244.7,233.8,244.7,233.7z"/>
	<path class="st1" d="M256.4,89.5c0.9,0.1,1.7,0.4,2.3,1.1c0.5,0.5,0.9,1.2,1.2,1.8c1.8,3.8,3.6,7.7,5.3,11.5
		c0.4,0.8,0.4,0.9-0.4,1.2c-4.9,2.3-9.8,4.5-14.7,6.8c-0.6,0.3-0.9,0.3-1.2-0.4c-2.3-5-4.6-10-6.9-15c-0.3-0.6-0.2-0.8,0.4-1.1
		c4.1-1.9,8.2-3.8,12.3-5.6C255.3,89.7,255.8,89.6,256.4,89.5z M258.5,101.6c-0.7-1.5-1.3-2.9-2-4.2c-0.4-0.8-0.8-1.1-1.5-0.7
		c-1.9,0.8-3.7,1.7-5.5,2.5c-0.3,0.2-0.4,0.4-0.3,0.7c0.7,1.4,1.4,2.9,2,4.4c0.2,0.5,0.5,0.5,0.9,0.3
		C254.2,103.5,256.3,102.6,258.5,101.6z"/>
	<path class="st1" d="M264.9,108c0.9,0.1,1.7,0.4,2.3,1.1c0.5,0.6,0.9,1.2,1.3,2c1.8,3.8,3.5,7.6,5.3,11.4c0.4,0.9,0.4,0.9-0.5,1.3
		c-4.9,2.1-9.8,4.4-14.7,6.6c-0.7,0.3-0.9,0.1-1.2-0.5c-2.3-4.9-4.5-9.8-6.9-14.7c-0.3-0.6-0.2-0.9,0.4-1.2
		c4.1-1.8,8.1-3.7,12.1-5.6C263.8,108.2,264.3,108.1,264.9,108z M257.6,117.9c0.8,1.7,1.5,3.3,2.3,4.9c0.2,0.4,0.4,0.4,0.7,0.2
		c2.1-1,4.3-2,6.5-3c-0.7-1.5-1.3-2.9-2-4.2c-0.4-0.8-0.8-1-1.6-0.6C261.5,116.1,259.6,117,257.6,117.9z"/>
	<path class="st1" d="M251.4,73c1.1,1.3,2.5,2.4,3.7,3.6c0.2,0.2,0.5,0.5,0.7,0.7c0.2,0.3,0.3,0.5,0,0.8c-0.8,0.8-1.5,1.8-2.5,2.5
		c-0.5-0.5-1-1-1.5-1.5c-6.2-5.9-12.4-11.7-18.7-17.6c-0.2-0.2-0.4-0.4-0.7-0.6c-0.6-0.4-1-1.4-1.7-1.2c-0.6,0.1-1.1,0.9-1.6,1.4
		c-2.3,2.4-4.7,4.9-7,7.4c-0.4,0.5-0.9,0.9-1.4,1.3c-1.5,1.2-3.2,1.3-4.9,0.4c-0.9-0.4-1.6-1-2.3-1.7c-0.8-0.8-0.9-1.9-0.3-2.9
		c0.6-0.9,1.7-1.4,2.7-0.9c0.9,0.5,1.5,0.2,2.1-0.5c3.1-3.3,6.2-6.5,9.3-9.8c0.2-0.3,0.5-0.5,0.7-0.7c0.8-0.7,1.7-0.7,2.6-0.1
		c0.6,0.5,1,1.3,1.9,1.5c0,0,0,0,0,0c-0.1,0.1,0,0.2,0.1,0.3c1.8,1.7,3.6,3.4,5.5,5.1c0.2,0.2,0.4,0.5,0.7,0.3c0,0,0,0,0,0
		c-0.2,0.6,0.4,0.7,0.7,0.9c1.8,1.7,3.6,3.5,5.5,5.2c0.4,0.3,0.7,0.8,1.2,1c0,0,0,0,0,0c0,0.2,0.1,0.3,0.3,0.3c0,0,0,0,0,0
		c0.1,0.2,0.2,0.5,0.6,0.3c0,0,0,0,0,0c-0.1,0.1-0.2,0.2-0.1,0.3c1.4,1.3,2.7,2.7,4.2,3.9c0,0,0,0,0,0C251.2,72.9,251.3,73,251.4,73
		L251.4,73z"/>
	<path class="st1" d="M104,50.1c0.8,0.1,1.4-0.4,2.2-0.7c0.6-0.2,1.1-0.4,1.5,0.4c0.2,0.6,0.6,0.2,1,0.1c3-1.2,5.9-2.4,8.9-3.6
		c2.1-0.9,4.2-1.7,6.4-2.6c1-0.4,1.2-0.2,1.1,0.8c0,2-0.5,3.9-1.4,5.7c-0.3,0.5-0.5,1.1-0.8,1.6c-0.1,0-0.2,0.1-0.1,0.2
		c0.1,0.1,0.2,0,0.3,0c2.3-0.5,4.5-1.4,6.7-2.5c0.8-0.4,1-0.4,1.3,0.4c1,2.6,1.4,2.1-1.2,3.4c-3.2,1.6-6.6,2.6-10.2,3
		c-0.8,0.1-1.6,0.4-2.3,0.8c-1.8,1.2-3.7,2.4-5.7,3.3c-1.6,0.8-3.3,1.5-5,2.1c-1,0.4-2-0.1-2.3-1.1c-0.4-0.9,0-1.8,1-2.2
		c1.7-0.7,3.5-1.4,5-2.4c0.4-0.3,0.9-0.5,1.3-1c-1.2-0.4-2.3-0.9-3.4-1.3c-0.4,0.3-0.4,0.8-0.6,1.1c-0.6,1.2-1.6,1.9-2.8,2.4
		c-0.5,0.2-0.9,0.1-1.1-0.5c-0.3-0.7-0.6-1.5-0.9-2.2c-0.2-0.5-0.1-0.8,0.3-1.1c1.3-0.9,1.6-1.6,1.2-3.1C104,51.1,104,50.6,104,50.1
		L104,50.1z M111.9,52c1.5,0.8,3,1,4.5,1c0.2,0,0.4,0,0.5-0.1c1-1,1.9-2.1,2.3-3.8C116.7,50.1,114.4,51,111.9,52z"/>
	<path class="st1" d="M87.5,44.3c-0.6,0.6-1.3,1.3-1.9,1.9c-0.9,0.8-1.2,0.7-1.7-0.4c-0.3-0.8-0.6-1.6-1-2.4
		c-0.4-0.8-0.3-1.4,0.3-2.1c1.9-2.2,3.1-4.8,3.5-7.7c0.1-0.6,0.1-1.1,0-1.7c-0.2-1.6,0.9-3,2.4-3.1c1.6-0.1,2.8,1,2.9,2.8
		c0.1,2.2-0.2,4.2-0.9,6.2c-0.2,0.5-0.3,0.9,0.1,1.4c0.4,0.5,0.6,1.2,0.8,1.8c2.5,6.3,5,12.6,7.6,18.9c0.5,1.3,1.1,2.6,1.6,3.8
		c0.5,1.2,0.4,1.4-0.8,1.9c-0.8,0.4-1.7,0.7-2.5,1c-0.9,0.3-1.2,0.2-1.5-0.6c-0.5-1.2-1-2.4-1.5-3.6c-1.1-3.1-2.5-6.2-3.7-9.3
		c-1.1-2.7-2.2-5.4-3.3-8.1C87.8,44.8,87.7,44.5,87.5,44.3z"/>
	<path class="st0" d="M63.7,52c0.2-1.1,0.2-2.3,0.1-3.5c0-0.6,0.1-1.1,0.6-1.5c1.2-1.1,2.5-2.3,3.8-3.5c0,1,0,2.2,0,3.6
		c0.9-0.9,1.6-1.6,2.3-2.3c0.7,0.7,1.4,1.3,2,1.9c0.3,0.3,0.3,0.7,0.3,1.1c-0.1,1.1-0.1,2.1-0.2,3.2c0.5-0.1,0.7-0.5,0.9-0.8
		c0.2-0.4-0.1-0.6-0.3-0.9c-0.2-0.2,0-0.4,0.2-0.5c0.3-0.4,0.7-0.8,1.2-1.4c0.5,0.6,0.8,1.1,1.1,1.5c1,1.2,1.2,2.1,0.3,3.4
		c-0.4,0.6-0.3,0.8,0.1,1.3c1.5,1.4,2.9,2.8,4.3,4.1c0.5,0.4,0.5,0.7,0,1.1c-0.6,0.6-1.1,1.2-1.7,1.8c-0.7,0.7-0.8,0.7-1.6,0
		c-0.7-0.6-1.3-1.3-2-1.9c-0.1-0.1-0.3-0.3-0.6-0.3c0.1,0.6,0.5,1,0.7,1.5c0.1,0.3,0.3,0.6,0.5,0.9c0.4,0.6,0.3,1.2-0.2,1.7
		c-0.5,0.6-0.8-0.3-1.3-0.2c-0.1-0.4-0.4-0.2-0.6-0.2c0-0.1,0.3-0.2,0-0.3c0,0.1,0,0.2,0,0.2c0.2,0,0.4,0.4,0.6,0.2
		c-0.2,0.3,0.2,0.4,0.3,0.6c0.3,0.4,0.8,0.6,1,1.1c-1.8,1.9-3.6,3.7-5.4,5.6c-0.1,0.1-0.3,0.2-0.5,0.4c-1.3-1.3-2.6-2.5-3.8-3.8
		c-1-1.1-1-1.7,0-2.9c1.3-1.6,3-2.9,4.4-4.5c0.7,0.6,1.2,1.2,1.8,1.8c0.2,0.2,0.4,0.5,0.6,0.2c0.3-0.2,0.1-0.5,0-0.7
		c-0.1-0.2-0.1-0.3-0.2-0.5c-0.8-1-0.8-1.8,0.3-2.6c0.2-0.1,0.4-0.4,0.1-0.6c-0.3-0.3-0.5-0.2-0.8,0.1c-1.8,1.5-1.8,1.5-3.5-0.1
		c-0.5-0.5-0.8-0.9-0.6-1.7c0.2-0.9,0.2-1.8,0.3-2.7c-0.4,0-0.6,0.3-0.8,0.5c-1.2,1.2-1.5,1.2-2.8,0.1c-0.2-0.1-0.3-0.5-0.6-0.2
		c0,0,0,0,0,0c0.2-0.3,0-0.4-0.3-0.3l0,0C64,51.9,63.9,51.8,63.7,52L63.7,52z M72.1,64.3c0-0.1,0-0.2-0.1-0.2
		c-0.5-0.5-0.9-1.2-1.6-1.4c-0.5-0.1-0.7,0.6-1.1,0.9c-0.1,0.1-0.2,0.2-0.3,0.3c-0.7,0.7-0.7,0.9,0.1,1.6c1,1,1,1,2,0
		c0.3-0.3,0.5-0.6,0.8-0.8C72,64.5,72,64.4,72.1,64.3z M74.4,58.1L74.4,58.1L74.4,58.1L74.4,58.1z"/>
	<path class="st0" d="M163.5,277.3c-0.1-0.1-0.1-0.2-0.2-0.3c-2.6-2.1-3.1-4.8-2.4-7.8c0.6-2.4,2.5-3.9,5-4.2
		c2.6-0.3,4.7,0.5,5.9,2.8c1.5,2.7,1.7,5.5-0.3,8.2c-0.1,0.1-0.1,0.2-0.2,0.4c1.3,0.7,2.3,1.8,2.9,3.1c0.9,2.1,1.1,4.2,0.4,6.3
		c-0.8,2.4-2.5,3.8-5,4.2c-2.6,0.5-4.7-0.3-6.3-2.4C161.1,284.6,161.2,280.4,163.5,277.3z M172.4,283.1c0-0.3-0.1-0.8-0.1-1.3
		c-0.2-1.4-1-2.4-2.1-3.1c-2.4-1.5-5.5,0.1-5.7,2.8c-0.1,1.3,0.1,2.6,0.6,3.8c0.7,1.5,2,2.3,3.7,2.2
		C171,287.3,172.4,285.8,172.4,283.1z M166.7,267.5c-1.7,0-3,0.9-3.4,2.6c-0.3,1.3-0.1,2.6,0.5,3.8c0.4,0.9,1.1,1.5,2.1,1.6
		c1.4,0.3,2.7,0,3.7-1.1c1.2-1.5,1-3.2,0.3-4.8C169.3,268.3,168.3,267.5,166.7,267.5z"/>
	<path class="st0" d="M222.2,258.4c0.5,0.2,1,0.3,1.5,0.4c3.4,1.2,5.8,6,4.9,9.5c-0.9,3.2-5.5,6.3-9.7,3.6c-2.8-1.8-4.9-6.3-3.7-9.3
		c0.2-0.5,0-0.6-0.4-0.7c-2.5-0.7-3.7-2.5-4.5-4.8c-1.2-3.6,0.5-6.9,4.4-8c1.5-0.4,2.9-0.2,4.3,0.6c2.8,1.6,4.2,4.9,3.4,8
		C222.3,257.9,222.3,258.1,222.2,258.4z M226.2,267c0-2.8-1.8-5.2-3.8-5.8c-2.4-0.7-5.5,1.3-4.8,4.3c0.4,1.5,1.1,2.8,2.3,3.9
		c1.2,1,2.6,1.2,4,0.5C225.3,269.2,226.2,268.1,226.2,267z M216.1,251.6c-1.9,0-3.5,1.4-3.5,3.2c0,1.7,0.7,3.2,2.1,4.3
		c1.2,0.9,2.4,0.8,3.6,0.1c1.2-0.7,2-1.7,1.8-3.2c-0.2-1.5-0.9-2.8-2.2-3.7C217.4,251.8,216.7,251.6,216.1,251.6z"/>
	<path class="st0" d="M144.2,278.4c0.5,0.7,1.2,1.2,1.6,1.9c1.4,2.6,0.9,7-1.1,9.2c-1.9,2-4.2,2.5-6.8,1.8c-2.5-0.7-3.9-2.6-4.3-5
		c-0.6-3.2,0-6.2,2.9-8.4c-0.8-1-1.5-2-1.7-3.3c-0.3-2,0-3.8,1-5.5c1.3-2.2,3.3-3,5.7-2.8c2.6,0.2,4.4,1.5,5.2,4
		c0.9,3,0.4,5.7-2.1,7.9C144.3,278.1,144.3,278.3,144.2,278.4z M143.9,284.1c0-3.2-1.8-4.9-4.8-4.6c-1.3,0.1-2.1,0.8-2.6,1.9
		c-0.6,1.5-0.8,3-0.4,4.6c0.4,1.7,1.8,2.8,3.6,2.8c1.7,0.1,3.2-0.9,3.8-2.6C143.8,285.5,143.9,284.8,143.9,284.1z M144.4,272.8
		c-0.1-0.4-0.1-0.8-0.2-1.2c-0.3-1.7-1.4-2.7-3.1-2.9c-1.7-0.1-3,0.7-3.6,2.4c-0.3,0.9-0.5,1.8-0.3,2.7c0.3,1.9,1.5,3,3.4,3.1
		c1.8,0.1,3.1-1,3.5-2.8C144.2,273.6,144.3,273.2,144.4,272.8z"/>
	<path class="st0" d="M86.6,257.4c-0.8-3,0.4-5.2,2.3-7.1c2.1-2,4.8-2.3,7.3-0.7c2.5,1.6,3.5,4.2,2.6,7c-0.9,2.6-2.4,4.5-5.2,5
		c-0.4,0.1-0.5,0.2-0.4,0.6c1,3.1-0.3,5.6-2.4,7.8c-2.9,3.1-7.7,2.7-10.2-0.7c-1-1.4-1.3-3-1-4.7c0.5-2.5,1.8-4.5,3.8-6
		C84.4,257.9,85.4,257.6,86.6,257.4z M90.8,264.7c0-2.3-0.9-3.6-2.6-4.3c-1.5-0.6-2.8-0.3-4.1,1.1c-0.9,0.9-1.5,2-1.9,3.2
		c-0.4,1.5,0,2.8,1.2,3.7c1.2,1,2.6,1.5,4.1,0.7C89.5,268.2,90.5,266.4,90.8,264.7z M96.4,254.8c-0.1-1.6-0.8-2.5-2-3.2
		c-1.1-0.6-2.3-0.4-3.3,0.3c-1,0.7-1.7,1.7-2.1,2.9c-0.5,1.4-0.1,2.7,1.1,3.6c1.2,1,2.8,1.3,3.9,0.5
		C95.5,257.9,96.3,256.4,96.4,254.8z"/>
	<path class="st0" d="M117.4,273.4c1.9,3.2,1.2,6.2-0.7,8.9c-2.6,3.8-7.4,3.4-10,0.8c-1.7-1.7-2.1-3.8-1.6-6c0.6-2.9,2-5.3,5.1-6.5
		c-1.2-2.4-0.9-4.7,0.4-6.9c2.6-4.4,7.1-3.7,9.6-1.6c1.9,1.6,2.2,3.7,1.8,5.9C121.4,270.5,120,272.4,117.4,273.4z M115.8,277.3
		c0-0.1,0-0.4-0.1-0.7c-0.2-1.8-1.3-3-3.2-3.4c-1.6-0.4-2.9,0.3-3.9,1.9c-0.6,1-1,2-1.1,3.2c-0.2,1.6,0.6,3,2,3.7
		c1.6,0.8,3.3,0.7,4.4-0.5C115.1,280.3,115.7,279,115.8,277.3z M119.4,266.7c0-1.7-0.8-2.9-2.3-3.4c-1.5-0.5-2.9-0.1-3.9,1.2
		c-0.7,0.9-1.1,1.9-1.2,3.1c-0.1,1.5,0.6,2.5,1.9,3.1c2,1,3.9,0.4,4.9-1.7C119.1,268.3,119.4,267.6,119.4,266.7z"/>
	<path class="st0" d="M190,271.9c-3.2-1.9-4.6-5.4-3.7-8.7c1.1-3.9,7-5.8,10.1-2.5c2.2,2.3,2.8,5.6,1.4,8.4
		c-0.1,0.1-0.1,0.3-0.2,0.4c0.1,0.1,0.1,0.2,0.2,0.2c3.3,1.5,5.2,5,4.7,8.6c-0.4,2.4-1.7,4.1-4,5c-2.3,0.9-4.5,0.7-6.5-1
		C189,280,188.1,275.6,190,271.9z M191.6,276.1c0.2,1.5,0.6,3.2,2,4.4c1.9,1.6,5.2,0.8,6.1-1.4c0.9-2.3-0.6-5.9-2.9-6.8
		C194.2,271.3,191.5,273.1,191.6,276.1z M196,266.3c0-1.2-0.7-2.8-1.5-3.6c-1-1-2.3-1.2-3.6-0.7c-1.3,0.5-2.1,1.5-2.2,2.9
		c-0.1,1.2,0.2,2.2,0.8,3.2c0.9,1.5,2.2,2,3.9,1.5C195.1,269.2,196,268.1,196,266.3z"/>
	<path class="st1" d="M62.8,63.4c-0.2,0.1-0.2,0.2-0.1,0.4c0.6,1.1,0.3,2-0.4,2.9c-0.1,0.1-0.2,0.3-0.3,0.5c1.6,1.5,3.2,3.1,4.8,4.6
		c0.7,0.6,0.7,0.7,0.1,1.3c-0.6,0.7-1.3,1.3-1.9,2c-0.4,0.4-0.7,0.4-1.1,0c-1-1-2.1-2.1-3.2-3.1c0,0,0,0,0,0l0,0
		c0.3,1.1,0.9,1.9,1.4,2.9c0.3,0.7,0.3,1.3-0.1,1.9c-0.3,0.4-0.6,0.5-1,0.2c-0.5-0.4-1-0.7-1.5-1c-0.5-0.3-0.8-0.6-0.3-1.1
		c0.2-0.2,0-0.5-0.1-0.7c-0.2-0.4-0.3-0.7-0.5-1c-0.5-0.6-0.3-1.1,0.2-1.5c0.3-0.3,1-0.5,0.4-1.1c-0.5-0.5-0.7,0.2-1,0.5
		c-1.1,1-1.6,1-2.7,0c-1.2-1.2-1.2-1.2-1-2.9c0.1-0.6,0.3-1.3,0.2-2c-0.5,0.2-0.8,0.7-1.1,1c-0.7,0.6-1.3,0.6-2,0.1
		c-0.9-0.7-1.4-1.5-1.4-2.8c0-1.7,0.2-3.2,1.7-4.3c0.8-0.6,1.5-1.5,2.2-2.2c0.1-0.1,0.1-0.1,0.3-0.2c0.3,1.1-0.1,2.3,0.3,3.5
		c1-0.4,1.3-1.5,2.2-1.8c0.3,0.2,0.3,0.7,0.7,0.7c0.6,0.2,0.9,0.8,1.4,1.1c0.3,0.2,0.2,0.5,0.2,0.8c0,1.1-0.1,2.1-0.2,3.2
		c1-0.6,1-0.6,0.7-1.6c-0.1-0.2-0.1-0.4,0.1-0.6c0.2-0.2,0.4-0.4,0.5-0.6c0.4-0.5,0.8-0.6,1.2-0.1c0.1,0.1,0.2,0,0.3,0l0,0
		c-0.1,0.3,0,0.4,0.3,0.3l0,0c-0.1,0.3,0,0.4,0.3,0.3l0,0c-0.1,0.3-0.1,0.5,0.3,0.3l0,0c0,0.1-0.2,0.2,0,0.3
		C62.7,63.6,62.8,63.4,62.8,63.4L62.8,63.4z"/>
	<path class="st0" d="M216.1,52.7c-0.1,0.5-0.4,1.1-0.6,1.7c-0.1,0.2-0.3,0.3-0.5,0.2c-0.3-0.1-0.6-0.2-0.8-0.3
		c-8.2-3.3-16.4-6.6-24.6-9.8c-0.2-0.1-0.3-0.2-0.5-0.2c-0.7-0.2-0.8-0.6-0.5-1.1c0.4-0.7,0.3-1.7,1-2c0.6-0.2,1.4,0.4,2,0.7
		c7.6,3,15.2,6.1,22.8,9.1c0.4,0.1,0.7,0.3,1.1,0.5C215.9,51.6,216.1,52,216.1,52.7z"/>
	<path class="st0" d="M104,50.1c-0.7,0.6-1.4,1.1-2.3,1.5c-0.2,0.1-0.5,0.3-0.7,0.2c-0.9-0.2-0.8-1.2-1.2-1.9
		c-0.2-0.4-0.2-0.7,0.3-1c1.2-0.5,1.8-1.4,1.5-2.7c-0.1-0.4,0.1-0.5,0.5-0.7c0.5-0.2,1-0.4,1.6-0.6c0.5-0.2,1.1-0.3,0.9-1.1
		c-0.1-0.3,0.2-0.4,0.5-0.5c1-0.4,2-0.8,3-1.2c0.4-0.2,0.8-0.1,0.9,0.4c0,0.1,0.1,0.2,0.2,0.4c0.8,1.9,0.8,1.9,2.7,1.2
		c2.2-0.9,4.4-1.8,6.6-2.7c0.9-0.4,1-0.3,1.4,0.6c0.2,0.4,0.3,0.8,0.5,1.2c0.3,0.9,0.3,1-0.6,1.3c-3.1,1.3-6.2,2.6-9.4,3.8
		c-1.5,0.6-2.7,0-3.8-1c-0.3-0.3-0.6-0.6-0.9-1.1C105.4,47.7,104.9,49,104,50.1C104,50.1,104,50.1,104,50.1z"/>
	<path class="st0" d="M198.1,53.5c1.7,0.7,3.2,1.3,4.7,1.9c0.2,0.1,0.5,0.2,0.5,0.3c0.3,1,1.2,1,1.9,1.4c0.8,0.3,1.5,0.6,2.3,0.9
		c0.3,0.1,0.6,0.3,0.9,0.3c1.8-0.3,3.1,0.9,4.7,1.3c-0.5,1.2-1.2,1.7-2.4,1.6c-0.9,0-1.7-0.1-2.5-0.5c-1-0.5-2.1-0.8-3.2-1.3
		c0.1,1.2,0.2,1.4,1.3,1.6c1.6,0.5,3.2,1.2,4.7,1.8c0.2,0.1,0.5,0.2,0.6,0.4c0.4,0.4,0.6,1,0.3,1.6c-0.3,0.6-0.7,1-1.4,1
		c-0.4,0-0.8-0.1-1.1-0.3c-2.5-1-5-2.1-7.6-3c-1-0.4-1.6-1-1.8-2C199.5,58.2,198.8,56,198.1,53.5z"/>
	<path class="st1" d="M65.9,81.6c1.6,2.4,3.2,4.9,4.7,7.4c1,1.6,0.8,3-0.4,4.4c-0.4,0.5-0.8,0.9-1.2,1.3c-0.8,0.7-1.9,0.7-2.8,0.1
		c-0.8-0.6-1.2-1.8-0.7-2.7c0.5-0.8,0.3-1.5-0.2-2.1c-0.9-1.4-1.8-2.8-2.7-4.1c-0.4-0.5-0.5-0.9,0.1-1.4
		C63.8,83.6,64.8,82.7,65.9,81.6z"/>
	<path class="st0" d="M238.7,238.5c0,0.5-0.2,0.9-0.5,1.3c-1.2,1.4-2.3,2.8-3.5,4.2c-0.8,1-1.6,1.1-2.6,0.3c-1.3-1-2.5-2-3.7-3
		c-0.7-0.6-0.8-1.5-0.2-2.2c1.3-1.6,2.6-3.3,4-4.8c0.7-0.8,1.6-0.8,2.4-0.2c1.2,0.9,2.3,1.8,3.4,2.8
		C238.5,237.3,238.8,237.9,238.7,238.5z M235.9,238.7c0-0.2-0.1-0.4-0.3-0.6c-1.5-1.8-2.1-1.8-3.6,0c-1.5,1.9-1.7,1.6,0.6,3.4
		c0.5,0.4,0.9,0.4,1.3-0.1c0.6-0.7,1.1-1.3,1.6-2C235.7,239.2,235.9,239,235.9,238.7z"/>
	<path class="st0" d="M66.8,232.4c0-0.2,0-0.4,0-0.6c0-1,0.4-1.5,1.4-1.5c1.9,0,3.7-0.3,5.5-1c0.8-0.3,1.4-0.1,1.7,0.4
		c0.4,0.6,0.3,1.1-0.3,1.7c-0.1,0.1-0.2,0.2-0.3,0.3c1.6,1.6,3.1,3.2,4.7,4.7c0.5,0.5,0.9,1,1.4,1.4c0.8,0.7,0.7,1.5,0.2,1.9
		c-0.6,0.6-1.3,0.5-2-0.2c-0.9-0.9-1.8-1.8-2.7-2.8c-0.2-0.2-0.3-0.4-0.7-0.5c-0.2,0.4-0.4,0.8-0.6,1.2c-0.4,0.7-0.9,1.3-1.9,0.9
		c-0.2-0.1-0.2,0.1-0.3,0.2c0,0,0,0,0,0c0-0.1,0.2-0.2,0-0.3c-0.1-0.1-0.2,0-0.3,0c0,0,0,0,0,0c-0.2-1,0.1-1.9,0.7-2.7
		c0.2-0.3,0.3-0.6,0.4-0.9c0.1-0.2,0.1-0.4,0-0.6c-0.6-1.1-1.7-1.6-3-1.4c-1.2,0.2-2.4,0.3-3.5-0.1c0,0,0,0,0,0
		C67,232.5,67,232.3,66.8,232.4L66.8,232.4z"/>
	<path class="st0" d="M63.1,228.8c-0.2-1,0.6-1.8,0.9-2.6c0.2-0.4,0.8-0.8,0.3-1.2c-0.5-0.5-0.9-1.4-2-1.1c-1,0.2-2,0.3-2.9,0.4
		c-0.5,0.1-1,0.1-1.5-0.1c-0.6-0.2-1-0.7-1-1.2c0-0.6,0.5-1.2,1.1-1.2c0.6-0.1,1.3,0,1.9-0.1c1.6-0.1,3.1-0.5,4.6-1.2
		c0.6-0.3,1.2-0.3,1.7,0.2c0.5,0.5,0.5,1.2,0,1.7c-0.5,0.5-0.3,0.7,0.1,1c1.2,1.2,2.4,2.5,3.6,3.7c0.2,0.2,0.4,0.4,0.5,0.6
		c0.5,0.6,0.5,1.2,0,1.7c-0.5,0.5-1.2,0.5-1.8,0c-0.6-0.6-1.2-1.2-1.8-1.8c-0.1-0.1-0.3-0.2-0.5-0.4c-0.3,0.4-0.5,0.8-0.8,1.2
		c-0.5,0.8-1.1,1.2-2,1c0,0,0,0,0,0c0-0.2-0.1-0.3-0.3-0.3c0,0,0,0,0,0C63.4,228.9,63.3,228.7,63.1,228.8L63.1,228.8z"/>
	<path class="st0" d="M62.5,81c-0.6,0.6-1.1,1.2-1.7,1.8c-0.8,0.8-1.8,1-2.9,0.5c-1.9-0.9-3.9-1.8-5.7-2.7c-1.2-0.6-1.6-1.9-1.1-3.1
		c0.6-1.2,1.9-1.7,3.2-1.2c1.2,0.5,2.3,1.1,3.5,1.7c0.3,0.2,0.8,0.5,1.1,0.3c0.9-0.5,1.3,0.2,1.7,0.6C61.2,79.6,61.9,80.2,62.5,81z"
		/>
	<path class="st0" d="M45.6,68.1c0.4,0,0.9,0.2,1.3,0.5c0.6,0.4,1.3,0.7,1.9,1.1c0.6,0.3,1.1,0.5,1.7,0c0.4-0.3,0.6-0.2,0.9,0.1
		c0.7,0.7,1.4,1.4,2.1,2.1c0.3,0.3,0.3,0.5,0,0.8c-0.6,0.6-1.2,1.3-1.9,1.9c-0.8,0.7-1.7,0.9-2.7,0.4c-1.6-0.8-3.2-1.6-4.8-2.5
		c-0.9-0.5-1.2-1.6-0.9-2.6C43.6,68.8,44.5,68.1,45.6,68.1z"/>
	<path class="st0" d="M261.1,240.8c-0.7,0-1.3-0.2-1.8-0.6c-1.4-1.1-2.8-2.3-4.2-3.5c-0.5-0.4-0.8-0.8-0.7-1.4
		c0.2-1,1.3-1.3,2.2-0.7c0.9,0.7,1.8,1.4,2.6,2.1c0.3,0.3,0.7,0.5,1,0.8c0.5,0.4,1,0.5,1.6,0.3c0.6-0.3,0.9-0.8,1-1.4
		c0.1-0.4-0.2-0.7-0.5-1c-0.3-0.3-0.7-0.6-1-1c-0.4-0.5-0.4-1,0.1-1.4c0.4-0.4,0.9-0.6,1.4-0.3c1.1,0.8,2.1,1.7,2.6,3
		c0.1,0.3,0.2,0.7,0.1,1c-0.1,1.4-2.1,3.7-3.5,4C261.7,240.8,261.4,240.8,261.1,240.8z"/>
	<path class="st0" d="M57.7,60c-0.4-0.1-0.5-0.5-0.7-0.7c0.2-0.3-0.1-0.4-0.2-0.6c-0.3-0.4-0.7-0.6-1-1.1c0.1-0.4,0.5-0.6,0.7-0.9
		c0.2-0.3,0.3-0.5,0.1-0.8c-0.4-0.4-0.2-0.9,0-1.3c0.6-1.3,1.5-2.2,2.7-2.8c0.4-0.2,0.8-0.5,1.2-0.1c0.4,0.4,0.7,0.2,1-0.1
		c0.6-0.7,0.7-0.8,1.6,0c0.2,0.2,0.3,0.4,0.6,0.4c0,0,0,0,0,0c0,0.2,0.1,0.3,0.3,0.3c0,0,0,0,0,0c0,0.2,0.1,0.3,0.3,0.3c0,0,0,0,0,0
		c0.1,0.4-0.1,0.6-0.3,0.9c-2.1,2.1-4,4.3-6.2,6.3C57.4,59.8,57.5,59.9,57.7,60z"/>
	<path class="st0" d="M257.8,245.7c0,0.9,0,1.6-0.3,2.2c-0.3,0.6-0.8,0.9-1.5,0.7c-0.6-0.1-1-0.6-1-1.3c0-0.3,0.1-0.5,0.1-0.8
		c0.2-2.1-0.4-3.8-2.1-5.2c-0.5-0.4-1-0.7-1.4-1.2c-0.5-0.5-0.5-1.1-0.1-1.6c0.4-0.6,1.1-0.8,1.7-0.3
		C255.9,240.1,257.8,242.5,257.8,245.7z"/>
	<path class="st0" d="M122.5,37.9c0.3,0.6,1,0.8,1.5,1.2c0.3,0.3,0.7,0.2,1.1,0c0.6-0.3,0.7,0,0.9,0.5c0.8,1.8,0.8,1.8-1,2.6
		c-0.3,0.1-0.6,0.3-1,0.4c-0.5,0.2-0.9,0.1-1.3-0.2c-1.2-0.9-2.4-1.8-3.6-2.7c-0.6-0.5-0.6-0.7,0.1-1c0.7-0.3,1.4-0.5,2-0.9
		C121.7,37.4,122.1,37.9,122.5,37.9C122.5,37.9,122.5,37.9,122.5,37.9z"/>
	<path class="st0" d="M61.8,62.4c0-0.4,0.4-0.7,0.6-0.9c1.4-1.3,2.7-2.7,4-4.1c0.9-0.9,0.9-0.9,1.7-0.1c1.3,1.2,1.1,0.9,0.1,1.9
		c-1.3,1.3-2.6,2.6-3.9,4c-0.7,0.7-0.7,0.7-1.6,0.2c0,0,0,0,0,0c0-0.2-0.1-0.3-0.3-0.3c0,0,0,0,0,0c0-0.2-0.1-0.3-0.3-0.3l0,0
		c0-0.2-0.1-0.3-0.3-0.3c0,0,0,0,0,0C62.1,62.4,62,62.3,61.8,62.4L61.8,62.4z"/>
	<path class="st0" d="M59.2,59.8c1.8-1.9,3.6-3.7,5.3-5.5c0.3-0.3,0.6-0.3,0.9,0c0.5,0.4,1,0.8,1.4,1.4c-1.6,1.7-3.2,3.3-4.8,4.9
		c-0.8,0.8-0.9,0.8-1.8,0.1C59.9,60.4,59.5,60.2,59.2,59.8z"/>
	<path class="st0" d="M68.1,69.8c-1,1.4-1,1.4-2.2,0.2c-0.7-0.7-1.5-1.4-2.2-2.2c-0.3-0.3-0.6-0.5-0.2-0.9c0.6-0.6,0.9-0.8,1.4-0.4
		c0.5,0.4,0.9,0.9,1.4,1.3C66.9,68.5,67.5,69.2,68.1,69.8z"/>
	<path class="st0" d="M80.4,56.9c-1.2-1.3-2.4-2.6-3.6-3.9c0.1-0.1,0.3-0.3,0.5-0.5c0.4-0.4,0.8-0.4,1.1,0c1,1.1,2.1,2.2,3.1,3.4
		C81.3,56.1,81,56.5,80.4,56.9z"/>
	<path class="st2" d="M66.8,232.4c0.3-0.1,0.3,0.1,0.3,0.3c-0.1,0-0.2,0.2-0.3,0C66.6,232.6,66.7,232.5,66.8,232.4z"/>
	<path class="st2" d="M63.4,229c0.2,0,0.3,0.1,0.3,0.3C63.3,229.4,63.3,229.3,63.4,229z"/>
	<path class="st2" d="M63.1,228.7c0.2,0,0.3,0.1,0.3,0.3C63.1,229.1,63,229,63.1,228.7z"/>
	<path class="st2" d="M72.5,238.4c0.1,0,0.2-0.2,0.3,0c0.1,0.1,0,0.2,0,0.3C72.6,238.7,72.5,238.6,72.5,238.4z"/>
	<path class="st2" d="M247.1,68.6c-0.4,0.3-0.4,0-0.6-0.3C246.9,68.1,247,68.4,247.1,68.6z"/>
	<polygon class="st2" points="250.4,61.9 250.5,61.9 250.4,61.8 	"/>
	<path class="st2" d="M251.5,73.1c-0.2,0-0.3-0.1-0.3-0.3c0.1,0,0.2-0.2,0.3,0C251.6,72.9,251.5,72.9,251.5,73.1z"/>
	<path class="st2" d="M122.9,52.1c-0.1,0.1-0.2,0.1-0.3,0c-0.1-0.1,0-0.2,0.1-0.2C122.8,52,122.8,52,122.9,52.1z"/>
	<path class="st2" d="M73.7,62.2c0.3-0.1,0.5-0.2,0.7,0.2c0,0,0,0,0,0C74,62.6,73.9,62.2,73.7,62.2L73.7,62.2z"/>
	<path class="st2" d="M64.2,52.5c-0.2,0-0.3-0.1-0.3-0.3C64.2,52.1,64.3,52.1,64.2,52.5z"/>
	<path class="st2" d="M63.9,52.2c-0.2,0-0.3-0.1-0.3-0.3C63.9,51.8,64,51.9,63.9,52.2z"/>
	<polygon class="st2" points="74.4,58.1 74.5,58.1 74.5,58.1 	"/>
	<path class="st2" d="M73.7,62.2c0-0.1,0-0.2,0-0.2C73.9,62,73.7,62.1,73.7,62.2C73.7,62.2,73.7,62.2,73.7,62.2z"/>
	<path class="st2" d="M61.8,62.3c0.2,0,0.3,0.1,0.3,0.3C61.8,62.8,61.7,62.7,61.8,62.3z"/>
	<polygon class="st2" points="60.8,72 60.7,72 60.8,72 	"/>
	<path class="st2" d="M62.6,63.1c0.2,0,0.3,0.1,0.3,0.3c-0.1,0-0.2,0.2-0.3,0C62.4,63.3,62.6,63.2,62.6,63.1z"/>
	<path class="st2" d="M62.3,62.9c0.2,0,0.3,0.1,0.3,0.3C62.2,63.3,62.2,63.1,62.3,62.9z"/>
	<path class="st2" d="M62.1,62.6c0.2,0,0.3,0.1,0.3,0.3C62.1,63,61.9,62.9,62.1,62.6z"/>
</g>
</svg>
