<?xml version="1.0" encoding="utf-8"?>
<!-- Generator: Adobe Illustrator 28.0.0, SVG Export Plug-In . SVG Version: 6.00 Build 0)  -->
<svg version="1.1" id="圖層_1" xmlns="http://www.w3.org/2000/svg" xmlns:xlink="http://www.w3.org/1999/xlink" x="0px" y="0px"
	 viewBox="0 0 58.6 31.1" style="enable-background:new 0 0 58.6 31.1;" xml:space="preserve">
<style type="text/css">
	.st0{clip-path:url(#SVGID_00000106854565067860945170000007910302576967364023_);}
	.st1{fill:#C2A16C;}
	.st2{fill:none;stroke:#C2A16C;}
</style>
<g>
	<defs>
		<rect id="SVGID_1_" x="-1" y="1.8" transform="matrix(0.2588 -0.9659 0.9659 0.2588 -5.4397 23.4116)" width="27" height="27"/>
	</defs>
	<clipPath id="SVGID_00000105403356553241718480000013510196866474467769_">
		<use xlink:href="#SVGID_1_"  style="overflow:visible;"/>
	</clipPath>
	<g style="clip-path:url(#SVGID_00000105403356553241718480000013510196866474467769_);">
		<path class="st1" d="M21.4,21.1c-0.7,2.6-2.4,4.8-4.7,6.1c-2.3,1.3-5.1,1.7-7.7,1s-4.8-2.4-6.1-4.7c-1.3-2.3-1.7-5.1-1-7.7
			c1.9-7,9.3-15,14.1-13.7S23.3,14.1,21.4,21.1z"/>
	</g>
</g>
<path class="st2" d="M55.1,16.6c0.7,2.7,0.3,5.5-1,7.9c-1.3,2.4-3.4,4.1-5.8,4.8c-2.5,0.7-5.1,0.3-7.3-1c-2.2-1.4-3.8-3.6-4.5-6.3
	c-0.9-3.7-0.8-8.3,0.2-12.2c0.5-1.9,1.2-3.7,2-5c0.8-1.3,1.8-2.2,2.9-2.5c1.1-0.3,2.3-0.1,3.7,0.6c1.3,0.7,2.7,1.8,4.1,3.2
	C51.9,9,54.2,12.9,55.1,16.6z"/>
</svg>
