<?xml version="1.0" encoding="utf-8"?>
<!-- Generator: Adobe Illustrator 28.1.0, SVG Export Plug-In . SVG Version: 6.00 Build 0)  -->
<svg version="1.1" id="_圖層_1" xmlns="http://www.w3.org/2000/svg" xmlns:xlink="http://www.w3.org/1999/xlink" x="0px" y="0px"
	 viewBox="0 0 1318 1608.3" style="enable-background:new 0 0 1318 1608.3;" xml:space="preserve">
<style type="text/css">
	.st0{opacity:0.75;fill:#FFFFFF;}
</style>
<path class="st0" d="M1299.5,754.4c-34.7-159.9-94-324-175.3-470.4c-40.5-72.8-90.2-139.1-165.3-188.8C890,49.3,800.6,5.8,711.2,0.8
	c-7.7-0.4-15.4-0.4-22.7,0C681.2,0,673.8,0,666.1,0C477.3-0.8,328.3,120.2,237.3,252.4C155.3,371,100.6,508.2,54.3,639.5
	c-96.7,276.2-76.7,592.2,161.4,806.4c212.3,191.1,570.6,222.7,813.7,45.8C1281,1308.4,1357.7,1023.7,1299.5,754.4L1299.5,754.4z"/>
</svg>
