<?xml version="1.0" encoding="UTF-8"?>
<svg id="_圖層_1" data-name=" 圖層 1" xmlns="http://www.w3.org/2000/svg" version="1.1" viewBox="0 0 224.2 250.2">
  <defs>
    <style>
      .cls-1 {
        fill: #fff;
        stroke: #d74c38;
        stroke-linecap: round;
        stroke-miterlimit: 10;
        stroke-width: 9px;
      }

      .cls-2 {
        fill: none;
      }

      .cls-2, .cls-3, .cls-4 {
        stroke-width: 0px;
      }

      .cls-3 {
        fill: #d74c38;
      }

      .cls-4 {
        fill: #ffc93d;
      }
    </style>
  </defs>
  <path class="cls-1" d="M211.2,111c0,15.8-3.7,30.8-10.2,44-3.2,6.5-7.1,12.7-11.7,18.3-.1.2-.2.3-.3.4-5,6.1-10.6,11.7-16.9,16.5-10.5,8.1-22.7,14.1-35.8,17.5-3.4.9-6.7,2.3-9.6,4.1-6.7,4.2-11.7,10.7-13.5,18.6-.2.7-.3,1.5-.4,2.2-.2,1.4-.3,2.9-.3,4.4s-.5,1.2-1.2,1.2-1.2-.5-1.2-1.2c0-1.5,0-3-.3-4.4,0-.8-.2-1.5-.4-2.2-1.7-7.8-6.8-14.3-13.5-18.6-2.9-1.8-6.1-3.2-9.5-4.1-12.4-3.2-23.9-8.7-33.9-16-6.3-4.6-12-9.8-17-15.7-.2-.2-.4-.5-.6-.7-5.1-6-9.5-12.7-13-19.9-6.7-13.4-10.4-28.5-10.4-44.5C11.4,55.8,56.1,11,111.3,11s99.9,44.8,99.9,99.9Z"/>
  <path class="cls-3" d="M211.2,111c0,15.8-3.7,30.8-10.2,44-.3-.9-.6-1.7-.8-2.5-.5-1.2-1.8-2-2.3-3.2-.5-1.1-.5-2.5-1-3.6-.3-1.1.5-2.8,0-4s-1.6-2-2.2-3.2c-.5-1.2-.3-2.7-.9-3.8-.5-1-.5-2.5-1-3.7-.5-1.2-3-1.5-3.5-2.7-.5-1.1.7-3.1.2-4.3-.7-1.2-2-1.8-2.5-3-.5-1-1.1-2.1-1.6-3.3-.7-1-2.3-1.5-3-2.7-.7-1-.2-2.6-.8-3.8-.5-1.2-1.7-1.8-2.3-3-.7-1.2-1-2.5-1.7-3.5-.7-1.2-1-2.5-1.7-3.5-.7-1-2.2-1.6-2.8-2.7-.7-1-.3-2.8-1.2-3.8-.8-1.2-3-.8-3.8-1.8-.8-1,0-3.3-.8-4.3-.8-1-1.8-1.8-2.7-2.8-.8-1-3.3-.2-4.3-1.2-1-1-.7-3-1.7-3.8-.8-.8-1.2-2.3-2.2-3.2-.8-.8-3.2,0-4.1-.8-1-.8-1.8-1.8-2.8-2.5-1-.8-1.2-2.8-2.2-3.5-1-.7-2-1.3-3.2-2-1.2-.7-3.1.3-4.3-.2-1.2-.5-2-1.7-3.1-2.2-1.2-.5-2.5-.5-3.7-1-1.2-.5-2.3-.8-3.5-1.3-1.3-.5-2.5-.7-3.7-1-1.1-.5-2.2-1.1-3.5-1.3-1.3-.2-2.5-.7-3.7-.8-1.3-.2-2.3-1.8-3.6-1.8s-2.5,1.7-3.8,1.7h0c-1.2,0-2.5-1.9-4-1.8-1.2.2-2.3,1-3.6,1.2-1.3.2-2.5.8-3.6,1.2-1.2.3-2.3,1-3.5,1.3-1.1.3-2.3.7-3.5,1-1.2.3-2.7,0-3.8.5-1.3.5-2.3,1.2-3.5,1.7-1.2.5-1.8,1.8-3,2.3-1,.7-3.2-.5-4.2.2-1,.5-1.7,2.2-2.7,2.8-1.2.8-2.8.7-3.8,1.3-1,.8-.7,3.5-1.7,4.2-1,.7-2.2,1.2-3.2,2-1,.8-2.2,1.3-3.2,2.2-1,.8-1.3,2-2.3,3-1,1-2,1.8-2.8,2.7-.8.8-1.2,2.3-2,3.3-.8,1-3.1.7-4,1.7-.7.8-1,2.3-1.8,3.3-.8,1-2,1.8-2.7,2.8-.7,1-1.5,2.2-2.1,3.2-.7,1-.2,3-.8,4s-1.2,2.2-1.8,3.3c-.7,1.2-2.2,1.7-2.8,2.8-.7,1.2-1.8,1.8-2.5,3-.7,1-1,2.3-1.5,3.5-.5,1.1-2,1.8-2.5,3-.5,1.2-1,2.3-1.5,3.5-.5,1.2-.7,2.5-1.2,3.6-.5,1,.7,3,.2,4.2-.5,1.2-1,2.3-1.5,3.5-.5,1.2-1,2.3-1.5,3.5-.5,1.1-2.3,1.8-2.8,3-.3,1.2-1,2.3-1.5,3.5-.3,1.2.8,3,.3,4.2-.5,1.2-2.2,2-2.7,3.2-.2.9-.3,1.9-.5,2.9-6.7-13.4-10.4-28.5-10.4-44.5C11.4,55.8,56.1,11,111.3,11s99.9,44.8,99.9,99.9Z"/>
  <path class="cls-3" d="M81.4,123.6c3.5,0,6.3-2.8,6.3-6.3s-3-6.3-6.3-6.3-6.3,2.8-6.3,6.3,2.8,6.3,6.3,6.3Z"/>
  <path class="cls-3" d="M142,123.6c3.5,0,6.3-2.8,6.3-6.3s-2.8-6.3-6.3-6.3-6.3,2.8-6.3,6.3,2.8,6.3,6.3,6.3Z"/>
  <path class="cls-3" d="M91.1,138.4h40.1l-12.6-13.1c-4.2-4.3-10.9-4.3-15.1,0,0,0-12.4,13.1-12.4,13.1Z"/>
  <path class="cls-4" d="M91.1,138.4l12.4,5.8c4.2,1.8,10.9,1.8,15.1,0l12.4-5.8h-40Z"/>
  <path class="cls-2" d="M79,205.5s0,0,0,0"/>
  <path class="cls-4" d="M140.3,29l-3.1,1.2-3.1,1.2-2.7,1.2-2.7,1.5-2.7,1.9-2.7,1.9-1.2-2.7-1.2-2.7-1.2-2.7-1.5-2.3-1.2-2.7-1.5-2.3-1.2-2.7h-3.1l-1.9,1.9-1.2,2.7-1.2,2.3-1.5,2.3-1.2,2.7-1.5,2.3-1.2,2.7-1.5,2.3-2.7-1.2-2.3-1.2-2.7-.8-2.7-.8-2.3-1.2-2.7-1.2-1.9,1.9,1.2,2.3,1.2,2.3,1.2,2.3.8,2.7.8,2.3,1.2,2.3,1.5,1.9,1.5,1.9h1.9l2.7-.8,2.7-.4,2.7-.8,3.1-.4,3.1-.4h3.1l2.7.4,2.7.4,2.7.4,2.7.4,2.7.4,2.7.8,2.7.8,1.9-1.2h.4l.8-2.3.8-2.3,1.2-2.7,1.2-2.7,1.5-3.1,1.2-3.1v-.4l1.2-2.7.8-2.7-.8-1.5h0Z"/>
</svg>