<?xml version="1.0" encoding="utf-8"?>
<!-- Generator: Adobe Illustrator 28.1.0, SVG Export Plug-In . SVG Version: 6.00 Build 0)  -->
<svg version="1.1" id="_圖層_2" xmlns="http://www.w3.org/2000/svg" xmlns:xlink="http://www.w3.org/1999/xlink" x="0px" y="0px"
	 viewBox="0 0 160 54.5" style="enable-background:new 0 0 160 54.5;" xml:space="preserve">
<style type="text/css">
	.st0{fill:none;}
	.st1{fill:#D74C38;}
	.st2{fill:#FFC93D;}
	.st3{fill:#C2A16C;}
</style>
<rect x="0.6" y="0" class="st0" width="52" height="54.4"/>
<path class="st1" d="M26.6,19.9c0.3,0,0.5-0.3,0.8-0.3s0.5,0.3,0.7,0.4c0.2,0,0.5,0.1,0.7,0.2s0.5,0.2,0.7,0.3
	c0.2,0.1,0.5,0.1,0.7,0.2c0.2,0.1,0.5,0.2,0.7,0.3s0.5,0.1,0.7,0.2s0.4,0.3,0.6,0.4s0.6-0.1,0.9,0c0.2,0.1,0.4,0.3,0.6,0.4
	s0.2,0.5,0.4,0.7c0.2,0.1,0.4,0.3,0.6,0.5s0.7,0,0.8,0.2c0.2,0.2,0.3,0.5,0.4,0.6c0.2,0.2,0.1,0.6,0.3,0.8c0.2,0.2,0.7,0,0.9,0.2
	s0.4,0.4,0.5,0.6s0,0.7,0.2,0.9s0.6,0.1,0.8,0.4c0.2,0.2,0.1,0.6,0.2,0.8c0.1,0.2,0.4,0.3,0.6,0.5c0.1,0.2,0.2,0.5,0.3,0.7
	c0.1,0.2,0.2,0.5,0.3,0.7s0.4,0.4,0.5,0.6c0.1,0.2,0,0.6,0.2,0.8c0.1,0.2,0.5,0.3,0.6,0.5c0.1,0.2,0.2,0.5,0.3,0.7
	c0.1,0.2,0.4,0.4,0.5,0.6c0.1,0.2-0.1,0.6,0,0.9s0.6,0.3,0.7,0.5s0.1,0.5,0.2,0.7c0.1,0.2,0.1,0.5,0.2,0.8c0.1,0.2,0.3,0.4,0.4,0.6
	c0.1,0.2-0.1,0.6,0,0.8c0.1,0.2,0.1,0.5,0.2,0.7s0.4,0.4,0.5,0.6c0.1,0.2,0.2,0.5,0.2,0.7c0.1,0.2,0.1,0.5,0.2,0.7s0.2,0.5,0.2,0.7
	c0.1,0.2,0.1,0.5,0.1,0.8s0.3,0.4,0.4,0.7c0.1,0.2,0.1,0.5,0.1,0.8c0.1,0.2-0.2,0.6-0.2,0.8s0.4,0.4,0.4,0.7
	c0.1,0.2,0.1,0.5,0.1,0.8s0.3,0.5,0.3,0.7s0.1,0.5,0.2,0.8s-0.4,0.6-0.3,0.8s0.1,0.5,0.1,0.8c0,0.3,0.4,0.5,0.5,0.7
	c0,0.3,0.1,0.5,0.2,0.7c0,0.3-0.3,0.5-0.3,0.8c0,0.3,0.2,0.5,0.2,0.7c0,0.3,0,0.5,0.1,0.8c0,0.3,0.2,0.5,0.3,0.8s-0.1,0.5,0,0.8
	c0,0.3,0,0.4,0,0.7c0.2-0.2,0.3-0.3,0.4-0.6c0.1-0.2,0.1-0.5,0.3-0.7c0.1-0.2,0.6-0.2,0.7-0.4c0.1-0.2,0.3-0.4,0.4-0.7
	s-0.2-0.7-0.1-0.9c0.1-0.2,0.3-0.4,0.4-0.6s0.4-0.4,0.5-0.6c0.1-0.2,0.1-0.5,0.2-0.7s0.2-0.5,0.3-0.7c0.1-0.2,0-0.5,0.1-0.8
	c0.1-0.2,0.3-0.4,0.4-0.7s-0.2-0.6-0.1-0.8c0.1-0.3,0.3-0.5,0.3-0.7c0.1-0.3,0-0.5,0.1-0.8c0.1-0.3,0.4-0.4,0.5-0.7
	c0-0.3-0.3-0.6-0.2-0.8c0-0.3,0.3-0.5,0.4-0.7s0.2-0.5,0.2-0.8c0-0.3,0-0.5,0.1-0.8c0-0.3,0-0.5,0-0.8s0.1-0.5,0.1-0.8
	s-0.1-0.5-0.1-0.8c0-0.3,0.2-0.5,0.2-0.8c0-0.3-0.3-0.5-0.3-0.8s0.2-0.5,0.2-0.8c0-0.3,0-0.5,0-0.8s-0.1-0.5-0.1-0.8
	c0-0.3-0.3-0.5-0.3-0.7c0-0.3,0-0.5,0-0.8c0-0.2-0.3-0.5-0.3-0.7c0-0.3,0.3-0.5,0.2-0.8c0-0.3,0-0.5,0-0.8c0-0.3-0.6-0.4-0.6-0.7
	s0.1-0.5,0-0.8c-0.1-0.2-0.2-0.5-0.3-0.7c-0.1-0.3-0.1-0.5-0.1-0.8c-0.1-0.2,0.2-0.6,0.1-0.8s-0.1-0.5-0.2-0.7s-0.1-0.5-0.1-0.8
	s-0.4-0.4-0.5-0.6c-0.1-0.2-0.2-0.5-0.3-0.7s0-0.5,0-0.8c-0.1-0.2-0.2-0.5-0.3-0.7c-0.1-0.2-0.3-0.4-0.4-0.7s-0.2-0.5-0.3-0.7
	c-0.1-0.2-0.3-0.4-0.4-0.7s-0.1-0.5-0.3-0.7c-0.1-0.2,0.1-0.6,0-0.8c-0.1-0.2-0.2-0.5-0.3-0.7s-0.3-0.4-0.4-0.6
	c-0.1-0.2-0.1-0.5-0.3-0.7c-0.1-0.2-0.2-0.5-0.4-0.7c-0.1-0.2-0.4-0.4-0.5-0.6s-0.3-0.4-0.5-0.6c-0.1-0.2-0.3-0.4-0.4-0.7
	s0-0.6-0.2-0.8s-0.4-0.4-0.5-0.6c-0.1-0.2-0.1-0.5-0.3-0.7c-0.1-0.2-0.5-0.3-0.6-0.5c-0.1-0.2-0.1-0.6-0.2-0.8
	c-0.1-0.2-0.6-0.2-0.8-0.4s-0.3-0.4-0.4-0.6s-0.2-0.5-0.3-0.7S42,8.7,41.8,8.5c-0.2-0.2-0.5-0.2-0.7-0.4c-0.2-0.2-0.2-0.5-0.4-0.7
	c-0.2-0.2-0.2-0.5-0.4-0.7c-0.2-0.2-0.5-0.2-0.7-0.3S39.3,6,39.1,5.8c-0.2-0.2-0.5-0.2-0.7-0.3S38.2,4.8,38,4.6
	c-0.2-0.2-0.4-0.3-0.6-0.5C37.2,4,37,3.9,36.8,3.8c-0.2-0.1-0.5-0.1-0.8-0.2c-0.2-0.1-0.4-0.4-0.6-0.5S35,2.7,34.8,2.5
	s-0.6,0-0.8-0.1c-0.2-0.1-0.4-0.3-0.6-0.4C33.1,2,33,1.6,32.8,1.5c-0.2-0.1-0.5-0.1-0.7-0.2C31.8,1,31.6,1,31.3,0.9
	c-0.2-0.1-0.5-0.1-0.7-0.1s-0.4-0.4-0.7-0.5c-0.3-0.1-0.6,0.2-0.8,0.2S28.6,0.1,28.4,0c-0.3,0-0.5-0.1-0.8-0.1s-0.5,0.2-0.8,0.2
	c-0.3,0-0.5-0.2-0.8-0.2h-1.5c-0.3,0-0.5,0-0.8,0S23.3,0.5,23,0.5c-0.3,0.1-0.6-0.3-0.8-0.3c-0.2,0.1-0.5,0.2-0.7,0.3
	S21,0.6,20.7,0.7c-0.2,0.1-0.4,0.4-0.6,0.5s-0.4,0.3-0.6,0.4c-0.2,0.1-0.6,0-0.8,0.1c-0.2,0.1-0.3,0.5-0.5,0.6s-0.4,0.3-0.6,0.4
	s-0.4,0.3-0.6,0.5c-0.2,0.1-0.6,0-0.8,0.1c-0.2,0.1-0.4,0.3-0.6,0.5C15.2,4,15.2,4.3,15,4.5s-0.3,0.4-0.5,0.6
	c-0.2,0.2-0.3,0.4-0.5,0.5c-0.2,0.2-0.6,0.1-0.8,0.2s-0.2,0.5-0.4,0.7s-0.4,0.3-0.6,0.5S12,7.6,11.9,7.9c-0.2,0.2-0.6,0.2-0.7,0.3
	c-0.2,0.2-0.2,0.5-0.4,0.7s-0.3,0.4-0.5,0.6S10,9.9,9.8,10.1c-0.1,0.2-0.3,0.4-0.4,0.6S8.9,11,8.7,11.2c-0.1,0.2-0.1,0.6-0.2,0.8
	c-0.1,0.2-0.5,0.3-0.6,0.5S7.7,13,7.6,13.3c-0.1,0.2,0,0.6-0.1,0.8S7.1,14.5,7,14.7c-0.1,0.2-0.3,0.4-0.4,0.6
	c-0.1,0.2-0.3,0.4-0.4,0.6s-0.3,0.4-0.4,0.7s-0.1,0.5-0.2,0.7S5.1,17.8,5,18c-0.1,0.2,0,0.5-0.1,0.8s-0.2,0.5-0.3,0.7
	s-0.3,0.4-0.4,0.7c-0.1,0.2,0.1,0.6,0,0.8S4,21.5,3.9,21.7c-0.1,0.2-0.4,0.4-0.5,0.6c-0.1,0.2,0.2,0.6,0.1,0.8
	c-0.1,0.2-0.5,0.4-0.6,0.6s0.3,0.6,0.2,0.9c-0.1,0.2-0.5,0.4-0.6,0.6c-0.1,0.2,0.2,0.6,0.2,0.8s-0.2,0.5-0.2,0.7
	c-0.1,0.2-0.5,0.4-0.6,0.6C1.8,27.8,2,28.1,2,28.3c-0.1,0.2-0.4,0.4-0.4,0.7c-0.1,0.3,0.2,0.6,0.2,0.8c0,0.3-0.4,0.4-0.5,0.7
	c0,0.2,0,0.5,0,0.8c0,0.3,0,0.5,0,0.8c0,0.2-0.1,0.5-0.2,0.8c0,0.3-0.2,0.5-0.2,0.8c0,0.3,0.1,0.5,0.1,0.8c0,0.3,0,0.5-0.1,0.8
	c0,0.3-0.2,0.5-0.2,0.7c0,0.3,0.1,0.5,0.1,0.8c0,0.3,0,0.5-0.1,0.8c0,0.3,0.1,0.5,0.1,0.8s-0.1,0.5-0.1,0.8c0,0.3,0.2,0.5,0.2,0.8
	s0.1,0.5,0.1,0.8c0,0.3,0.1,0.5,0.1,0.8c0,0.3-0.2,0.5-0.1,0.8s0.2,0.5,0.2,0.8c0,0.3-0.1,0.5,0,0.8c0,0.2,0.2,0.5,0.2,0.7
	c0.1,0.2,0.1,0.5,0.2,0.8c0.1,0.3,0.3,0.5,0.3,0.7c0.1,0.2,0.1,0.5,0.2,0.7c0.1,0.2,0.2,0.5,0.3,0.7c0.1,0.2,0.2,0.5,0.3,0.7
	c0.1,0.2,0,0.5,0.1,0.8s0.3,0.4,0.4,0.6c0.1,0.2,0.1,0.5,0.3,0.7c0.1,0.2,0.1,0.5,0.3,0.7c0.1,0.2,0.2,0.5,0.3,0.7
	c0.1,0.2,0.4,0.3,0.5,0.6s0,0.6,0.1,0.8c0.1,0.2,0.4,0.3,0.5,0.6c0.1,0.2,0.3,0.2,0.5,0.4c0-0.3,0-0.4,0-0.7c0-0.3-0.1-0.5-0.1-0.8
	s0.1-0.5,0.1-0.8c0-0.3,0.3-0.5,0.3-0.7s-0.1-0.5-0.1-0.8c0-0.3,0.3-0.5,0.3-0.7s0.1-0.5,0.1-0.8c0-0.3,0.2-0.5,0.2-0.7
	c0-0.3,0-0.5,0.1-0.8c0-0.3-0.1-0.5-0.1-0.8c0.1-0.3,0.3-0.5,0.4-0.7c0.1-0.3-0.3-0.6-0.2-0.8c0.1-0.2,0.4-0.4,0.5-0.7
	S6.9,43.9,7,43.6s0.5-0.4,0.6-0.6c0.1-0.2-0.2-0.6-0.2-0.8s0.2-0.5,0.2-0.7s0.1-0.5,0.2-0.7s0.2-0.5,0.3-0.7
	c0.1-0.2,0.2-0.5,0.3-0.7c0.1-0.2,0.1-0.5,0.1-0.8C8.7,38.2,9,38,9.1,37.8C9.2,37.6,9,37.2,9,37c0.1-0.2,0.2-0.5,0.3-0.7
	c0.1-0.2,0.5-0.4,0.6-0.6c0.1-0.2,0.2-0.5,0.3-0.7s0.2-0.5,0.3-0.7s-0.1-0.6,0-0.8c0.1-0.2,0.1-0.5,0.2-0.7c0.1-0.2,0.2-0.5,0.3-0.7
	c0.1-0.2,0.4-0.4,0.5-0.6s0.2-0.5,0.3-0.7c0.1-0.2,0.4-0.4,0.5-0.6s0.4-0.3,0.6-0.6s0.2-0.5,0.4-0.7c0.1-0.2,0-0.6,0.2-0.8
	s0.3-0.4,0.4-0.6c0.1-0.2,0.4-0.4,0.5-0.6s0.2-0.5,0.4-0.7c0.2-0.2,0.6-0.1,0.8-0.3s0.2-0.5,0.4-0.7c0.2-0.2,0.4-0.3,0.6-0.5
	s0.3-0.4,0.5-0.6c0.2-0.2,0.4-0.3,0.6-0.4c0.2-0.2,0.4-0.3,0.6-0.4c0.2-0.1,0.1-0.7,0.3-0.8c0.2-0.1,0.5-0.1,0.8-0.3
	c0.2-0.1,0.3-0.5,0.5-0.6c0.2-0.1,0.6,0.1,0.8,0c0.2-0.1,0.4-0.4,0.6-0.5c0.2-0.1,0.4-0.2,0.7-0.3c0.2-0.1,0.5,0,0.8-0.1
	s0.5-0.1,0.7-0.2c0.2-0.1,0.5-0.2,0.7-0.3s0.5-0.2,0.7-0.2c0.3,0,0.5-0.2,0.7-0.2C26.1,19.4,26.4,19.8,26.6,19.9L26.6,19.9
	L26.6,19.9z"/>
<path class="st2" d="M33.8,12L33,12.3l-0.8,0.3l-0.7,0.3l-0.7,0.4l-0.7,0.5l-0.7,0.5l-0.3-0.7l-0.3-0.7l-0.3-0.7l-0.4-0.6l-0.3-0.7
	l-0.4-0.6l-0.3-0.7l-0.8,0l-0.5,0.5l-0.3,0.7l-0.3,0.6L24.8,12l-0.3,0.7l-0.4,0.6L23.8,14l-0.4,0.6l-0.7-0.3L22.1,14l-0.7-0.2
	l-0.7-0.2l-0.6-0.3L19.4,13l-0.5,0.5l0.3,0.6l0.3,0.6l0.3,0.6L20,16l0.2,0.6l0.3,0.6l0.4,0.5l0.4,0.5l0.5,0l0.7-0.2l0.7-0.1l0.7-0.2
	l0.8-0.1l0.8-0.1l0.8,0l0.7,0.1l0.7,0.1l0.7,0.1l0.7,0.1l0.7,0.1l0.7,0.2l0.7,0.2l0.5-0.3l0.1,0l0.2-0.6l0.2-0.6l0.3-0.7l0.3-0.7
	l0.4-0.8l0.3-0.8l0-0.1l0.3-0.7l0.2-0.7L33.8,12L33.8,12z"/>
<path class="st1" d="M20.5,32.6c0.7,0,1.3-0.6,1.3-1.3c0-0.7-0.6-1.3-1.3-1.3s-1.3,0.6-1.3,1.3C19.2,32.1,19.8,32.6,20.5,32.6z"/>
<path class="st1" d="M32.9,32.6c0.7,0,1.3-0.6,1.3-1.3c0-0.7-0.6-1.3-1.3-1.3s-1.3,0.6-1.3,1.3C31.6,32.1,32.1,32.6,32.9,32.6z"/>
<path class="st1" d="M22.5,35.6h8.2L28.1,33c-0.8-0.9-2.2-0.9-3.1,0L22.5,35.6z"/>
<path class="st2" d="M22.5,35.6l2.5,1.2c0.8,0.4,2.2,0.4,3.1,0l2.5-1.2H22.5L22.5,35.6z"/>
<path class="st3" d="M75.2,46.7c0.1,0.1,0.1,0.1,0.2,0.2c0,0.2-0.1,0.9-0.1,1.1c-0.1,0.7,0,1.3-0.8,1.4c-0.5,0.1-1-0.1-1.5-0.1
	s-1.2-0.1-1.7-0.3c-1-0.3-2.1-1-2.7-2c-0.7-1-0.9-2.2-0.8-3.4c0-0.9,0.3-2,0.9-2.6c0.8-0.9,1.5-1.7,2.6-2.2c0.6-0.3,1.3-0.4,2-0.4
	c0.3,0,0.7,0,1,0.1c0.3,0.1,0.7,0.1,0.9,0.3c0.1,0.2,0,0.5,0,0.7v1.4c-0.1,0.6-0.8,0.3-1.2,0.5c-0.4,0.2-0.9,0.4-1.2,0.8
	c-0.6,0.6-0.9,1.5-0.8,2.5c0.1,0.4,0.2,0.9,0.5,1.1c0.2,0.2,0.4,0.3,0.7,0.3c0.4,0.2,0.9,0.3,1.4,0.4C74.5,46.6,75,46.6,75.2,46.7
	C75.2,46.7,75.2,46.7,75.2,46.7z"/>
<path class="st3" d="M104.9,46.7c0.1,0.1,0.1,0.1,0.2,0.2c0,0.2-0.1,0.9-0.1,1.1c-0.1,0.7-0.1,1.3-0.8,1.4c-0.5,0.1-1-0.1-1.5-0.1
	c-0.5,0-1.2-0.1-1.7-0.3c-1-0.3-2.1-1-2.7-2c-0.7-1-0.9-2.2-0.8-3.4c0-0.9,0.3-2,0.9-2.6c0.8-0.9,1.5-1.7,2.6-2.2
	c0.6-0.3,1.3-0.4,2-0.4c0.3,0,0.7,0,1,0.1c0.3,0.1,0.7,0.1,0.9,0.3c0.1,0.2,0,0.5,0,0.7v1.4c-0.1,0.6-0.8,0.3-1.2,0.5
	s-0.9,0.4-1.2,0.8c-0.6,0.6-0.9,1.5-0.8,2.5c0.1,0.4,0.2,0.9,0.5,1.1c0.2,0.2,0.4,0.3,0.7,0.3c0.4,0.2,0.9,0.3,1.4,0.4
	C104.2,46.6,104.8,46.6,104.9,46.7C104.9,46.7,104.9,46.7,104.9,46.7z"/>
<path class="st3" d="M114.3,48.2c-0.1-0.3-0.3-0.6-0.3-0.7c-0.3-0.6-0.6-1.2-0.9-1.7c-0.2-0.3-0.3-0.6-0.5-0.9s-0.2-0.3,0.1-0.6
	c1.2-0.9,2.3-1.8,3.5-2.7c0.1-0.1,0.2-0.2,0.2-0.3s-0.1-0.1-0.1-0.2c-0.5-0.4-1-0.9-1.5-1.3c-0.1-0.1-0.3-0.3-0.3-0.1
	c-1,0.8-2,1.6-3,2.5c-0.3,0.3-0.6,0.5-0.9,0.8s-0.4,0.3-0.5,0c-0.1-0.5,0-0.9,0-1.4c0-0.6,0.2-1.1,0.4-1.6v-0.2
	c0-0.2-0.2-0.2-0.3-0.2c-0.3,0-0.5-0.1-0.8-0.1c-0.5,0-0.9,0-1.4-0.1c-0.3,0-0.3,0.3-0.3,0.5c-0.1,1.4-0.3,3-0.3,4.4
	c-0.1,0.8-0.1,1.4-0.2,2.2c0,0.4-0.1,0.9-0.1,1.4c0,0.4,0.1,0.4,0.4,0.4c0.9,0.1,1.7,0.3,2.6,0.2c0.1,0,0.3-1.3,0.3-1.4
	c0-0.2,0-1.1,0.3-1c0.1,0,0.1,0.1,0.2,0.2c0.3,0.6,0.7,1.3,1,1.9c0.2,0.3,0.3,0.6,0.6,0.6c0.3,0.1,0.7,0,1,0h0.9
	C114.4,48.7,114.4,48.4,114.3,48.2L114.3,48.2z"/>
<path class="st3" d="M83.7,48.5v-0.2c0.1-0.7,0.1-1.5,0-2.2c0-0.1,0-0.2-0.1-0.3c-0.1-0.1-0.3-0.1-0.4-0.1c-0.6,0.1-1.3-0.1-1.9-0.1
	c-0.3,0-0.5,0.1-0.6-0.3c-0.1-0.3,0-0.5,0-0.8v-1.4c0-0.9,0-1.8,0.1-2.7v-1c-0.1-0.1-0.2-0.1-0.3-0.2h-2.3c-0.2,0-0.3,0-0.4,0.2
	c-0.1,0.2,0,0.4,0,0.6c0.2,1.3,0.2,2.6,0.1,3.8c0,0.7-0.1,1.3-0.1,2c0,0.3,0,0.7,0.1,0.9c0,0.4,0,1.4,0.5,1.6c0.4,0.2,1-0.1,1.4-0.1
	c0.5,0,1,0.1,1.5,0.1c0.4,0,0.9,0.1,1.4,0.1c0.2,0,0.4,0.1,0.6,0C83.6,48.7,83.7,48.6,83.7,48.5L83.7,48.5L83.7,48.5z"/>
<path class="st3" d="M153.6,48c0-0.4-0.3-0.9-0.3-1.3c-0.4-1.4-0.9-3-1.2-4.4c-0.3-0.9-0.5-1.8-1-2.6c-0.1-0.2-0.3-0.3-0.5-0.3
	c-0.1,0-0.2,0.1-0.3,0.2c-0.5,0.5-1,1-1.5,1.6c-0.6,0.7-1.2,1.3-1.8,2c-0.3,0.4-0.8,0.8-1.2,0.3c-1-1-1.8-2.5-2.9-3.4
	c-0.3-0.3-0.6-0.5-0.9-0.3c-0.2,0.1-0.3,0.3-0.3,0.6c-0.9,2.6-1.7,5.1-2.4,7.7c-0.1,0.2-0.1,0.3-0.1,0.5c1.3,0.2,2.6,0.2,3.8,0.1
	c-0.1-1,0.1-2,0.2-2.9c0.1-0.7,0.4-0.9,1-0.3c0.7,0.7,1,1.7,1.7,2.3c0.3,0.3,0.7,0.6,1,0.1c0.3-0.5,0.5-1.3,0.9-1.8
	c0.3-0.3,1.4-1.7,2-1.1c0.3,0.3,0.1,1.2,0.1,1.4v1c0,0.2-0.2,0.9-0.1,1c0.2,0.3,0.3,0.4,0.6,0.4c0.6,0,1.1-0.2,1.7-0.2
	c0.4,0,0.9,0.2,1.3-0.1C153.5,48.3,153.6,48.2,153.6,48L153.6,48L153.6,48z"/>
<path class="st3" d="M136.6,40.7c-0.9-2-3.2-2.6-5.1-2c-2,0.7-3,2.5-3.2,4.4c-0.2,1.2-0.2,2.6,0.4,3.7c0.3,0.5,0.5,0.9,0.9,1.3
	c0.9,1,2.3,1.5,3.7,1.4c0.3,0,0.7-0.1,0.9-0.3c1.7-0.6,3.1-2.4,3.3-4.1C137.6,43.7,137.2,41.9,136.6,40.7L136.6,40.7L136.6,40.7z
	 M134.6,45.2c-0.2,0.4-0.4,0.8-0.8,1c-0.6,0.4-1.5,0.3-2.1-0.2c-0.6-0.5-0.9-1.3-0.9-2c0-0.9,0.3-2.2,1.3-2.7
	c0.8-0.4,1.5-0.3,2.1,0.3c0.3,0.3,0.5,0.8,0.6,1.2C135,43.7,134.9,44.5,134.6,45.2L134.6,45.2L134.6,45.2z"/>
<path class="st3" d="M95.1,39.5c-0.2-0.1-0.5-0.2-0.9-0.2c-0.5,0-0.9,0.1-0.8,0.6c0.1,0.5,0.2,2.9,0.2,3.4c0,0.3-0.1,0.8-0.2,1.1
	c-0.2,0.5-0.3,0.8-0.7,1.1c-0.2,0.2-0.9,0.3-1,0.3c-0.4,0-0.9,0-1.3-0.3c-1.3-0.7-1.7-3.9-1.8-5.2c-0.1-0.6,0-1-0.7-1.1
	c-0.4-0.1-1.5,0.1-1.6,0.2c-0.1,0.1,0,0.3,0,0.5c0.2,1,0.6,4.3,0.9,5.2c0.6,1.5,1.5,3.2,3.4,3.3c0.9,0.1,1.6,0.2,2.3-0.1
	c1-0.3,1.5-0.6,2-1.4c0.6-1.2,0.6-2.5,0.8-3.7C95.8,42.9,95.8,39.8,95.1,39.5L95.1,39.5L95.1,39.5z"/>
<path class="st3" d="M124.5,40.3c-1.5-1.3-3.5-1.6-5.3-1.8l0,0c-0.3,0-0.3,0.1-0.3,0.3c-0.1,0.9-0.1,1.9-0.1,2.8v1.4
	c0,1.7-0.1,4-0.1,5.7c0,0.3,0,0.4,0.3,0.5c0.4,0.2,2.6,0.5,5.4-0.6c0.9-0.3,1.9-1.1,2-3.5C126.5,42.3,125.4,40.9,124.5,40.3
	L124.5,40.3z M123.8,44.8c-0.1,0.6-0.2,1.2-0.6,1.6c-0.5,0.5-1,0.6-1.7,0.8c-0.2,0-0.4,0-0.5-0.2c-0.1-0.1,0-0.2,0-0.3
	c0.1-1.4-0.3-4.9-0.3-5.3c0.1-0.5,1.4,0.3,1.7,0.5c0.4,0.3,0.9,0.9,1.2,1.4C123.9,43.8,123.9,44.4,123.8,44.8L123.8,44.8L123.8,44.8
	z"/>
<path class="st1" d="M61,13.9l1-0.6l1.8-0.7l0.7,1.3l0.6,1.2l-1.6,0.8l-1.2,0.3l-0.6-1.3L61,13.9L61,13.9L61,13.9z M74.9,8.4
	l2.2,0.8l1.3,1l-1.4,3l1.6,0.1l-0.4-0.5l1.4-1.9L80.3,9l2.2,1.1l0.9,0.9l-1.3,1.9l-0.4,0.5l2.5,0.1v1.8l-0.2,1.8l-2.4-0.2h-0.3
	l-0.1,0.9v0.8l2.4,0.1v1.9L83.5,22l-2.3-0.2v1.4l2.4,0.1v2.4l-0.1,0.9l-2.2-0.2v1.4l1.6,0.1l1.7,0.1v1.6l-0.2,1.7L81,31L78.3,31
	h-4.1l-1.6-0.3l0.2-6.6L72,24.4l-2,0.3l-0.1-0.9H69L67.2,24l1.7,0.3l-0.2,0.7h2.3l1.3,0.1l0.1,1.7l-0.2,1l-1.4-0.1l0.6,0.5l1.2,1.2
	l-1.4,1.2l-1.6,0.4l-0.9-1l-1-1.1l-0.6-0.4L65.9,30l-0.8,0.9l-1.9-0.5l-1.1-0.9l1.1-1.2l0.6-0.7L62,27.8l-0.2-1.4v-1.3L64,25h1
	l0.1-0.7l-0.8,0.1l-1.8,0.2l-0.5-1L61.6,22l1.2-0.9l1.2-0.7l-1.1-0.6l-0.5-0.8L62,18l0.8-0.5l2-1.3l1.3-0.7l-0.5-1l-0.7-1l1.3-0.8
	l1.4-0.5l-1.2,0.2l-3.8,0.6l-0.4-1l-0.2-2l2.4-0.3l3.5-0.7l2.8-1.4l0.8,1.4l0.5,1.6l-1.4,0.3l0.9,0.2l1.4,0.8L72.2,14l-0.5,1.1
	L71,16.1l-1.6-0.5L68.3,15l0.3-0.5l-1,0.5h-0.1l0.5,0.4l0.8,1.2l-1.8,0.9l-1.2,0.8l0.6,0.4l3.3-1.9l1.3,1.1l0.7,1.4l-3.8,1.7
	l-1.7,0.9l2.1-0.2l0.8-0.1l-0.2-0.5l1.1-0.5l1.7-0.3l0.9,1.7l0.3,0.9l-0.1-2.3v-3.2L72,16.7L71.3,16l1.4-2.1l1.4-3L74.9,8.4
	L74.9,8.4L74.9,8.4z M67.3,11.9l0.7,1l0.7,1.4l0,0l0.8-2l0.1-0.7l0,0L67.3,11.9L67.3,11.9z M76.2,18.1l1.4,0.1v-1.6h-1.4V17
	L76.2,18.1L76.2,18.1L76.2,18.1z M76.1,22.7l1.4,0.1l0.1-1.6h-1.4L76.1,22.7L76.1,22.7z M76.1,25.9v1.6h1.4l0.1-1.4L76.1,25.9
	L76.1,25.9z"/>
<path class="st1" d="M90.1,7.1L98.6,7l5.9-0.1h3.4l0.8,1.3l0.4,1L109,9.9l-0.4,0.7l-1.1,1.2l-1.6-0.8h-0.1V12l-0.1,1.4l-4.3,0.1
	h-0.8V14c0.3,0,0.6,0.1,0.9,0.1l4.6,0.3h4.1l-0.3,1.4l-0.6,1.6l-4.1-0.4l-6.5-0.6L93,15.5c-0.2,0-0.4-0.1-0.6-0.2L92,16.6l-0.4,0.8
	l-1.4-0.3l-2.1-0.6l0.4-0.9l0.5-1.2l0.6-2l0.3-1.6l1.9,0.2l1.6,0.3l-0.3,1.4l2,0.4l1.6,0.3l0.1-1.8c0-0.6,0-1.3-0.1-1.8l-6.4,0.2
	l-0.1-1.6L90.1,7.1L90.1,7.1L90.1,7.1z M89.1,25.4l5.3-0.1l2.7-0.1V24l-4.7,0.2h-1.7l-0.1-2l-0.1-1.7l-0.1-1.9l1.9-0.3l2-0.1l0,0
	c0.4,0,0.8-0.1,1.2-0.1l1.6-0.1v-1.2h4v0.9l3.7-0.1l2.2,0.1l1,0.6v5.1l0.6-0.2l0.8,1.2l0.8,1.4l0.5,1.2l-1.2,0.5l-2.2,0.6
	c-0.1-0.3-0.2-0.6-0.4-0.8l-7.8,0.4l-4.4,0.2l-5.4,0.4L89.1,25.4L89.1,25.4L89.1,25.4z M94.3,21.8h1.3c0.5,0,1.1,0,1.6-0.1l0,0v-1
	l-1.6,0.1c-0.4,0-0.9,0-1.3,0.1v0.7L94.3,21.8C94.3,21.8,94.3,21.8,94.3,21.8z M105.4,10.8l-1.2-0.4l0.3-0.4l0.1-0.3h-4
	c0,0.4,0,0.8-0.1,1.2h1.1L105.4,10.8L105.4,10.8z M103.8,21.5v-1h-3.1v1.1L103.8,21.5L103.8,21.5z M105.5,24.8
	c-0.1-0.2-0.2-0.4-0.2-0.5l1.8-0.5h-4.9l-1.2,0.1v0.2l0.1,1L105.5,24.8L105.5,24.8L105.5,24.8z"/>
<path class="st1" d="M116.9,18.1l2.1,0.1h2.5c0-0.8,0-1.6,0.1-2.2v-2.3h-5.9l-0.2-1.6V9.8h3.9l6,0.1l7.2,0.2v2.2l-0.3,1.6l-5.6-0.3
	h-1.1l-0.3,4.3v0.2l5,0.2v2.1l-0.1,1.6l-5-0.2l-0.1,2.3v1.9l3.4,0.1l4.9,0.2l-0.1,2l-0.3,1.7l-0.9-0.1l-4.9-0.2l-7.7-0.2l-6.1-0.1
	l-0.2-1.6l-0.1-1.7l2.4-0.2l5.5,0.1l0.2-2.5V22H117l-0.3-1.4L116.9,18.1L116.9,18.1L116.9,18.1z"/>
<path class="st1" d="M138,9.1l1.4-0.1l1.9-0.2V9c2.9,0,5.8,0.1,8.7,0.1l6.9,0.3l2,0.3l0.9,0.6l-0.4,10.9l-0.4,7.7l-0.1,2.2l-1.4-0.2
	l-2-0.2l-4.4-0.1l-11.5-0.4h-0.7l-1.4,0.1l0.1-6.8L138,9.1L138,9.1L138,9.1z M148.3,12.7l1.6-0.1l1.4-0.1V13c0,0.7,0.1,1.3,0.1,1.9
	h1.6l-0.6-0.5l-1-0.7l0.7-0.9l0.7-0.8c-1.1-0.1-2.1-0.1-3.2-0.2H141l-0.3,13.9v1.9l8.7,0.3l5.9,0.1c0-0.4,0.1-0.8,0.1-1.2l-0.8,0.7
	l-1,0.1l-1.3-0.1l-1.4-0.8c0-0.1-0.1-0.1-0.1-0.2l-1.3,1.3l-0.7-0.6l-0.8-0.9l-2.8,0.2l-1.6,0.1l-2.2,0.2l-0.1-1.2v-1.3l2.1-0.1h1.4
	l3.3-0.1l0.1,0.8l0.8-0.9c0.1-0.1,0.2-0.3,0.3-0.4c-0.1-0.4-0.2-0.8-0.3-1.2l-0.6-3.5c-0.1-0.5-0.1-1-0.1-1.4h-4.1l-2.7,0.1
	l-0.2-1.1v-1.7l5-0.1h1.7L148.3,12.7L148.3,12.7L148.3,12.7z M143.5,18.5l3.3,0.1l1.6,0.2l0.4,0.4l-0.1,1.7l-0.1,2l-0.1,1
	c-0.4,0-0.8-0.1-1.2-0.1h-1.4l-2.4-0.1h-0.5l-1.1-0.1l-0.2-1.3l0.1-1.7v-1.9l1-0.1L143.5,18.5L143.5,18.5L143.5,18.5z M145.8,21.9
	V21l-0.6-0.1h-0.8v1L145.8,21.9L145.8,21.9z M152.8,18.5l1.7,0.7l1.2,0.8l-1.4,2.5l-1.2,1.9l0.4,0.5l0.2-0.1l0.2-0.6l0.3-1.4l1,0.9
	l0.7,0.3c0-1.6,0.1-3.1,0.2-4.6l0.2-7c-0.8-0.1-1.6-0.1-2.4-0.2l1.2,0.9l1,0.8l-0.8,0.9l-0.3,0.3h0.8v1.2l-0.1,1.6
	c-1.2,0-2.4-0.1-3.7-0.1c0.1,0.5,0.1,0.9,0.1,1.4l0.1,1.3L152.8,18.5L152.8,18.5L152.8,18.5z"/>
</svg>
