<?xml version="1.0" encoding="utf-8"?>
<!-- Generator: Adobe Illustrator 28.3.0, SVG Export Plug-In . SVG Version: 6.00 Build 0)  -->
<svg version="1.1" id="圖層_1" xmlns="http://www.w3.org/2000/svg" xmlns:xlink="http://www.w3.org/1999/xlink" x="0px" y="0px"
	 viewBox="0 0 2675.7 4179.9" style="enable-background:new 0 0 2675.7 4179.9;" xml:space="preserve">
<style type="text/css">
	.st0{fill:#F8F3EB;}
	.st1{opacity:0.8;fill:#F9ECDE;}
	.st2{opacity:0.8;fill:#FFFBF5;}
	.st3{opacity:0.8;fill:#FFF6DE;}
</style>
<rect x="-336.3" y="-186.3" class="st0" width="3348.4" height="4716.4"/>
<path class="st1" d="M608,271.4c-9-41.5-24.4-84.1-45.5-122.1c-10.5-18.9-23.4-36.1-42.9-49c-17.9-11.9-41.1-23.3-64.3-24.5
	c-2-0.1-4-0.1-5.9,0c-1.9-0.2-3.8-0.2-5.8-0.2c-49-0.2-87.7,31.2-111.3,65.5c-21.3,30.8-35.5,66.4-47.5,100.5
	c-25.1,71.7-19.9,153.7,41.9,209.3c55.1,49.6,148.1,57.8,211.2,11.9C603.2,415.1,623.2,341.2,608,271.4z"/>
<path class="st2" d="M2371.6,271.4c-9-41.5-24.4-84.1-45.5-122.1c-10.5-18.9-23.4-36.1-42.9-49c-17.9-11.9-41.1-23.3-64.3-24.5
	c-2-0.1-4-0.1-6,0c-1.9-0.2-3.9-0.2-5.8-0.2c-49-0.2-87.7,31.2-111.3,65.5c-21.3,30.8-35.5,66.4-47.5,100.5
	c-25.1,71.7-19.9,153.7,41.9,209.3c55.1,49.6,148.1,57.8,211.2,11.9C2366.8,415.1,2386.8,341.2,2371.6,271.4z"/>
<path class="st3" d="M2393.2,1296.3c-9-41.5-24.4-84.1-45.5-122.1c-10.5-18.9-23.4-36.1-42.9-49c-17.9-11.9-41.1-23.2-64.3-24.5
	c-2-0.1-4-0.1-6,0c-1.9-0.2-3.9-0.2-5.8-0.2c-49-0.2-87.7,31.2-111.3,65.5c-21.3,30.8-35.5,66.4-47.5,100.5
	c-25.1,71.7-19.9,153.7,41.9,209.3c55.1,49.6,148.1,57.7,211.2,11.9C2388.5,1440.1,2408.4,1366.2,2393.2,1296.3z"/>
<path class="st3" d="M1482.6,271.4c-9-41.5-24.4-84.1-45.5-122.1c-10.5-18.9-23.4-36.1-42.9-49c-17.9-11.9-41.1-23.3-64.3-24.5
	c-2-0.1-4-0.1-6,0c-1.9-0.2-3.9-0.2-5.8-0.2c-49-0.2-87.7,31.2-111.3,65.5c-21.3,30.8-35.5,66.4-47.5,100.5
	c-25.1,71.7-19.9,153.7,41.9,209.3c55.1,49.6,148.1,57.8,211.2,11.9C1477.9,415.1,1497.8,341.2,1482.6,271.4z"/>
<path class="st3" d="M166.3,771.7c-9-41.5-24.4-84.1-45.5-122.1c-10.5-18.9-23.4-36.1-42.9-49c-17.9-11.9-41.1-23.2-64.3-24.5
	c-2-0.1-4-0.1-5.9,0c-1.9-0.2-3.8-0.2-5.8-0.2c-49-0.2-87.7,31.2-111.3,65.5c-21.3,30.8-35.5,66.4-47.5,100.5
	c-25.1,71.7-19.9,153.7,41.9,209.3c55.1,49.6,148.1,57.8,211.2,11.9C161.5,915.4,181.4,841.6,166.3,771.7z"/>
<path class="st2" d="M1004.3,771.7c-9-41.5-24.4-84.1-45.5-122.1c-10.5-18.9-23.4-36.1-42.9-49c-17.9-11.9-41.1-23.2-64.3-24.5
	c-2-0.1-4-0.1-5.9,0c-1.9-0.2-3.8-0.2-5.8-0.2c-49-0.2-87.7,31.2-111.3,65.5c-21.3,30.8-35.5,66.4-47.5,100.5
	C656,813.6,661.2,895.6,723,951.2c55.1,49.6,148.1,57.8,211.2,11.9C999.5,915.4,1019.4,841.6,1004.3,771.7z"/>
<path class="st1" d="M1886.1,771.7c-9-41.5-24.4-84.1-45.5-122.1c-10.5-18.9-23.4-36.1-42.9-49c-17.9-11.9-41.1-23.2-64.3-24.5
	c-2-0.1-4-0.1-6,0c-1.9-0.2-3.9-0.2-5.8-0.2c-49-0.2-87.7,31.2-111.3,65.5c-21.3,30.8-35.5,66.4-47.5,100.5
	c-25.1,71.7-19.9,153.7,41.9,209.3c55.1,49.6,148.1,57.8,211.2,11.9C1881.3,915.4,1901.2,841.6,1886.1,771.7z"/>
<path class="st3" d="M166.3,1801.7c-9-41.5-24.4-84.1-45.5-122.1c-10.5-18.9-23.4-36.1-42.9-49c-17.9-11.9-41.1-23.2-64.3-24.5
	c-2-0.1-4-0.1-5.9,0c-1.9-0.2-3.8-0.2-5.8-0.2c-49-0.2-87.7,31.2-111.3,65.5c-21.3,30.8-35.5,66.4-47.5,100.5
	c-25.1,71.7-19.9,153.7,41.9,209.3c55.1,49.6,148.1,57.8,211.2,11.9C161.5,1945.5,181.4,1871.6,166.3,1801.7z"/>
<path class="st3" d="M2842,771.7c-9-41.5-24.4-84.1-45.5-122.1c-10.5-18.9-23.4-36.1-42.9-49c-17.9-11.9-41.1-23.2-64.3-24.5
	c-2-0.1-4-0.1-5.9,0c-1.9-0.2-3.8-0.2-5.8-0.2c-49-0.2-87.7,31.2-111.3,65.5c-21.3,30.8-35.5,66.4-47.5,100.5
	c-25.1,71.7-19.9,153.7,41.9,209.3c55.1,49.6,148.1,57.8,211.2,11.9C2837.2,915.4,2857.2,841.6,2842,771.7z"/>
<path class="st3" d="M2842,1801.7c-9-41.5-24.4-84.1-45.5-122.1c-10.5-18.9-23.4-36.1-42.9-49c-17.9-11.9-41.1-23.2-64.3-24.5
	c-2-0.1-4-0.1-5.9,0c-1.9-0.2-3.8-0.2-5.8-0.2c-49-0.2-87.7,31.2-111.3,65.5c-21.3,30.8-35.5,66.4-47.5,100.5
	c-25.1,71.7-19.9,153.7,41.9,209.3c55.1,49.6,148.1,57.8,211.2,11.9C2837.2,1945.5,2857.2,1871.6,2842,1801.7z"/>
<path class="st2" d="M1004.3,1801.7c-9-41.5-24.4-84.1-45.5-122.1c-10.5-18.9-23.4-36.1-42.9-49c-17.9-11.9-41.1-23.2-64.3-24.5
	c-2-0.1-4-0.1-5.9,0c-1.9-0.2-3.8-0.2-5.8-0.2c-49-0.2-87.7,31.2-111.3,65.5c-21.3,30.8-35.5,66.4-47.5,100.5
	c-25.1,71.7-19.9,153.7,41.9,209.3c55.1,49.6,148.1,57.8,211.2,11.9C999.5,1945.5,1019.4,1871.6,1004.3,1801.7z"/>
<path class="st1" d="M1886.1,1801.7c-9-41.5-24.4-84.1-45.5-122.1c-10.5-18.9-23.4-36.1-42.9-49c-17.9-11.9-41.1-23.2-64.3-24.5
	c-2-0.1-4-0.1-6,0c-1.9-0.2-3.9-0.2-5.8-0.2c-49-0.2-87.7,31.2-111.3,65.5c-21.3,30.8-35.5,66.4-47.5,100.5
	c-25.1,71.7-19.9,153.7,41.9,209.3c55.1,49.6,148.1,57.8,211.2,11.9C1881.3,1945.5,1901.2,1871.6,1886.1,1801.7z"/>
<path class="st2" d="M1488,1296.3c-9-41.5-24.4-84.1-45.5-122.1c-10.5-18.9-23.4-36.1-42.9-49c-17.9-11.9-41.1-23.2-64.3-24.5
	c-2-0.1-4-0.1-6,0c-1.9-0.2-3.9-0.2-5.8-0.2c-49-0.2-87.7,31.2-111.3,65.5c-21.3,30.8-35.5,66.4-47.5,100.5
	c-25.1,71.7-19.9,153.7,41.9,209.3c55.1,49.6,148.1,57.7,211.2,11.9C1483.3,1440.1,1503.2,1366.2,1488,1296.3z"/>
<path class="st1" d="M597.2,1296.3c-9-41.5-24.4-84.1-45.5-122.1c-10.5-18.9-23.4-36.1-42.9-49c-17.9-11.9-41.1-23.2-64.3-24.5
	c-2-0.1-4-0.1-5.9,0c-1.9-0.2-3.8-0.2-5.8-0.2c-49-0.2-87.7,31.2-111.3,65.5c-21.3,30.8-35.5,66.4-47.5,100.5
	c-25.1,71.7-19.9,153.7,41.9,209.3c55.1,49.6,148.1,57.7,211.2,11.9C592.4,1440.1,612.3,1366.2,597.2,1296.3z"/>
<path class="st1" d="M599.1,2339.4c-9-41.5-24.4-84.1-45.5-122.1c-10.5-18.9-23.4-36.1-42.9-49c-17.9-11.9-41.1-23.3-64.3-24.5
	c-2-0.1-4-0.1-5.9,0c-1.9-0.2-3.8-0.2-5.8-0.2c-49-0.2-87.7,31.2-111.3,65.5c-21.3,30.8-35.5,66.4-47.5,100.5
	c-25.1,71.7-19.9,153.7,41.9,209.3c55.1,49.6,148.1,57.8,211.2,11.9C594.3,2483.1,614.2,2409.2,599.1,2339.4z"/>
<path class="st2" d="M2362.7,2339.4c-9-41.5-24.4-84.1-45.5-122.1c-10.5-18.9-23.4-36.1-42.9-49c-17.9-11.9-41.1-23.3-64.3-24.5
	c-2-0.1-4-0.1-6,0c-1.9-0.2-3.9-0.2-5.8-0.2c-49-0.2-87.7,31.2-111.3,65.5c-21.3,30.8-35.5,66.4-47.5,100.5
	c-25.1,71.7-19.9,153.7,41.9,209.3c55.1,49.6,148.1,57.8,211.2,11.9C2357.9,2483.1,2377.8,2409.2,2362.7,2339.4z"/>
<path class="st3" d="M2384.3,3364.3c-9-41.5-24.4-84.1-45.5-122.1c-10.5-18.9-23.4-36.1-42.9-49c-17.9-11.9-41.1-23.2-64.3-24.5
	c-2-0.1-4-0.1-6,0c-1.9-0.2-3.9-0.2-5.8-0.2c-49-0.2-87.7,31.2-111.3,65.5c-21.3,30.8-35.5,66.4-47.5,100.5
	c-25.1,71.7-19.9,153.7,41.9,209.3c55.1,49.6,148.1,57.7,211.2,11.9C2379.6,3508,2399.5,3434.2,2384.3,3364.3z"/>
<path class="st3" d="M1473.7,2339.4c-9-41.5-24.4-84.1-45.5-122.1c-10.5-18.9-23.4-36.1-42.9-49c-17.9-11.9-41.1-23.3-64.3-24.5
	c-2-0.1-4-0.1-6,0c-1.9-0.2-3.9-0.2-5.8-0.2c-49-0.2-87.7,31.2-111.3,65.5c-21.3,30.8-35.5,66.4-47.5,100.5
	c-25.1,71.7-19.9,153.7,41.9,209.3c55.1,49.6,148.1,57.8,211.2,11.9C1468.9,2483.1,1488.9,2409.2,1473.7,2339.4z"/>
<path class="st3" d="M157.3,2839.7c-9-41.5-24.4-84.1-45.5-122.1c-10.5-18.9-23.4-36.1-42.9-49c-17.9-11.9-41.1-23.2-64.3-24.5
	c-2-0.1-4-0.1-5.9,0c-1.9-0.2-3.8-0.2-5.8-0.2c-49-0.2-87.7,31.2-111.3,65.5c-21.3,30.8-35.5,66.4-47.5,100.5
	c-25.1,71.7-19.9,153.7,41.9,209.3c55.1,49.6,148.1,57.8,211.2,11.9C152.6,2983.4,172.5,2909.6,157.3,2839.7z"/>
<path class="st2" d="M995.3,2839.7c-9-41.5-24.4-84.1-45.5-122.1c-10.5-18.9-23.4-36.1-42.9-49c-17.9-11.9-41.1-23.2-64.3-24.5
	c-2-0.1-4-0.1-5.9,0c-1.9-0.2-3.8-0.2-5.8-0.2c-49-0.2-87.7,31.2-111.3,65.5c-21.3,30.8-35.5,66.4-47.5,100.5
	c-25.1,71.7-19.9,153.7,41.9,209.3c55.1,49.6,148.1,57.8,211.2,11.9C990.6,2983.4,1010.5,2909.6,995.3,2839.7z"/>
<path class="st1" d="M1877.1,2839.7c-9-41.5-24.4-84.1-45.5-122.1c-10.5-18.9-23.4-36.1-42.9-49c-17.9-11.9-41.1-23.2-64.3-24.5
	c-2-0.1-4-0.1-6,0c-1.9-0.2-3.9-0.2-5.8-0.2c-49-0.2-87.7,31.2-111.3,65.5c-21.3,30.8-35.5,66.4-47.5,100.5
	c-25.1,71.7-19.9,153.7,41.9,209.3c55.1,49.6,148.1,57.8,211.2,11.9C1872.4,2983.4,1892.3,2909.6,1877.1,2839.7z"/>
<path class="st3" d="M157.3,3869.7c-9-41.5-24.4-84.1-45.5-122.1c-10.5-18.9-23.4-36.1-42.9-49c-17.9-11.9-41.1-23.2-64.3-24.5
	c-2-0.1-4-0.1-5.9,0c-1.9-0.2-3.8-0.2-5.8-0.2c-49-0.2-87.7,31.2-111.3,65.5c-21.3,30.8-35.5,66.4-47.5,100.5
	c-25.1,71.7-19.9,153.7,41.9,209.3c55.1,49.6,148.1,57.8,211.2,11.9C152.6,4013.5,172.5,3939.6,157.3,3869.7z"/>
<path class="st3" d="M2833.1,2839.7c-9-41.5-24.4-84.1-45.5-122.1c-10.5-18.9-23.4-36.1-42.9-49c-17.9-11.9-41.1-23.2-64.3-24.5
	c-2-0.1-4-0.1-5.9,0c-1.9-0.2-3.8-0.2-5.8-0.2c-49-0.2-87.7,31.2-111.3,65.5c-21.3,30.8-35.5,66.4-47.5,100.5
	c-25.1,71.7-19.9,153.7,41.9,209.3c55.1,49.6,148.1,57.8,211.2,11.9C2828.3,2983.4,2848.2,2909.6,2833.1,2839.7z"/>
<path class="st3" d="M2833.1,3869.7c-9-41.5-24.4-84.1-45.5-122.1c-10.5-18.9-23.4-36.1-42.9-49c-17.9-11.9-41.1-23.2-64.3-24.5
	c-2-0.1-4-0.1-5.9,0c-1.9-0.2-3.8-0.2-5.8-0.2c-49-0.2-87.7,31.2-111.3,65.5c-21.3,30.8-35.5,66.4-47.5,100.5
	c-25.1,71.7-19.9,153.7,41.9,209.3c55.1,49.6,148.1,57.8,211.2,11.9C2828.3,4013.5,2848.2,3939.6,2833.1,3869.7z"/>
<path class="st2" d="M995.3,3869.7c-9-41.5-24.4-84.1-45.5-122.1c-10.5-18.9-23.4-36.1-42.9-49c-17.9-11.9-41.1-23.2-64.3-24.5
	c-2-0.1-4-0.1-5.9,0c-1.9-0.2-3.8-0.2-5.8-0.2c-49-0.2-87.7,31.2-111.3,65.5c-21.3,30.8-35.5,66.4-47.5,100.5
	c-25.1,71.7-19.9,153.7,41.9,209.3c55.1,49.6,148.1,57.8,211.2,11.9C990.6,4013.5,1010.5,3939.6,995.3,3869.7z"/>
<path class="st1" d="M1877.1,3869.7c-9-41.5-24.4-84.1-45.5-122.1c-10.5-18.9-23.4-36.1-42.9-49c-17.9-11.9-41.1-23.2-64.3-24.5
	c-2-0.1-4-0.1-6,0c-1.9-0.2-3.9-0.2-5.8-0.2c-49-0.2-87.7,31.2-111.3,65.5c-21.3,30.8-35.5,66.4-47.5,100.5
	c-25.1,71.7-19.9,153.7,41.9,209.3c55.1,49.6,148.1,57.8,211.2,11.9C1872.4,4013.5,1892.3,3939.6,1877.1,3869.7z"/>
<path class="st2" d="M1479.1,3364.3c-9-41.5-24.4-84.1-45.5-122.1c-10.5-18.9-23.4-36.1-42.9-49c-17.9-11.9-41.1-23.2-64.3-24.5
	c-2-0.1-4-0.1-6,0c-1.9-0.2-3.9-0.2-5.8-0.2c-49-0.2-87.7,31.2-111.3,65.5c-21.3,30.8-35.5,66.4-47.5,100.5
	c-25.1,71.7-19.9,153.7,41.9,209.3c55.1,49.6,148.1,57.7,211.2,11.9C1474.4,3508,1494.3,3434.2,1479.1,3364.3z"/>
<path class="st1" d="M588.2,3364.3c-9-41.5-24.4-84.1-45.5-122.1c-10.5-18.9-23.4-36.1-42.9-49c-17.9-11.9-41.1-23.2-64.3-24.5
	c-2-0.1-4-0.1-5.9,0c-1.9-0.2-3.8-0.2-5.8-0.2c-49-0.2-87.7,31.2-111.3,65.5c-21.3,30.8-35.5,66.4-47.5,100.5
	c-25.1,71.7-19.9,153.7,41.9,209.3c55.1,49.6,148.1,57.7,211.2,11.9C583.5,3508,603.4,3434.2,588.2,3364.3z"/>
</svg>
