<?xml version="1.0" encoding="utf-8"?>
<!-- Generator: Adobe Illustrator 28.3.0, SVG Export Plug-In . SVG Version: 6.00 Build 0)  -->
<svg version="1.1" id="_圖層_2" xmlns="http://www.w3.org/2000/svg" xmlns:xlink="http://www.w3.org/1999/xlink" x="0px" y="0px"
	 viewBox="0 0 271.7 271.7" style="enable-background:new 0 0 271.7 271.7;" xml:space="preserve">
<style type="text/css">
	.st0{fill:#C2A16C;}
	.st1{fill:#FFFFFF;stroke:#FFFFFF;stroke-width:12;stroke-miterlimit:10;}
</style>
<g id="Objects">
	<g>
		<path class="st0" d="M44.8,0h182c24.8,0,44.9,20.1,44.9,44.8v182c0,24.8-20.1,44.9-44.9,44.9h-182C20.1,271.7,0,251.6,0,226.8
			v-182C0,20.1,20.1,0,44.8,0z"/>
		<path class="st1" d="M118.6,200.9c-2.3,0-4.5-0.9-6.1-2.5l-45.8-44.2c-3.5-3.4-3.6-9-0.2-12.5c3.4-3.5,9-3.6,12.5-0.2l38.8,37.4
			l76.9-97c3-3.8,8.6-4.5,12.4-1.4c3.8,3,4.5,8.6,1.4,12.4l-83,104.6c-1.6,1.9-3.8,3.2-6.3,3.3C119,200.9,118.8,200.9,118.6,200.9
			L118.6,200.9z"/>
	</g>
</g>
</svg>
