<?xml version="1.0" encoding="UTF-8"?>
<svg id="_圖層_2" data-name="圖層 2" xmlns="http://www.w3.org/2000/svg" viewBox="0 0 765.71 594.78">
  <defs>
    <style>
      .cls-1 {
        fill: #ef5c3f;
      }

      .cls-1, .cls-2, .cls-3, .cls-4, .cls-5, .cls-6, .cls-7, .cls-8, .cls-9 {
        stroke-width: 0px;
      }

      .cls-2 {
        fill: #564336;
      }

      .cls-3 {
        fill: #ba9449;
      }

      .cls-4 {
        fill: #d6aa49;
      }

      .cls-5 {
        fill: #936b3b;
      }

      .cls-6 {
        fill: #ddd2bc;
      }

      .cls-10 {
        fill: none;
        stroke: #1e1e1e;
      }

      .cls-10, .cls-11 {
        stroke-miterlimit: 10;
      }

      .cls-7 {
        fill: #ede6d9;
      }

      .cls-8 {
        fill: #f9f5eb;
      }

      .cls-9 {
        fill: #e8b618;
      }

      .cls-11 {
        fill: #d6cfc1;
        stroke: #d6cfc1;
        stroke-width: 4px;
      }
    </style>
  </defs>
  <g id="Layer_1" data-name="Layer 1">
    <g>
      <path class="cls-5" d="M85.37,448.74c22.99,30.66,24.38,77.04,54.47,103.51,35.69,31.4,92.84,35.91,137.59,38.08,93.84,4.55,197.2,13.32,285.62-21.31,15.54-6.08,32.32-11.97,43.43-24.97,12.95-15.16,18.64-37.7,26.13-55.6,7.15-17.09,16.02-37.19,19.26-55.35,4.09-22.95-20.34-30.93-39.96-33.16l-526.53,48.8Z"/>
      <path class="cls-3" d="M112.37,379.92c-31.16,21.47-72.83,28.09-101.49,56.12,11.16-1.12,23.2-1.45,34.74-.1-17.64,11.57-34.27,24.11-45.61,41.94,44.4-10.16,95.21-13.12,140.78-7.7-16.94,15.28-33.62,39.28-41.66,60.91,8.75-3.28,17.58-6.63,26.58-9.57,14.07-4.6,59.58-16.73,59.58-16.73,0,0,7.5,25.05,8.62,34.75,9.46-9.5,20.89-17.98,31.3-26.7,21.44,16.04,39.44,33.98,56.06,54.85,1.32-11.12.94-22.63,2.07-33.77,13.79,5.29,18.45,20.8,29.04,29.85,11.39-9.65,20.28-23.15,33.06-31.27,6.58,10.55,7.76,24.2,14.72,34.49,13.34-6.44,26.1-17.93,38.87-26.08,8.98-5.73,46.7-17.32,35.78-19-3.31-.51,23.22,10.12,31.78,14.18,11.99,5.69,25.34,10.22,37.04,15.29,1.88-8.17-.82-17.5-1.8-25.03,13.09-3.61,64.14,2.9,74.11,5.04,11.68,2.51,23.45,9.23,35.01,10.44,1.77-17.54-17.48-26.99-27.48-37.25,27.48-8.63,56.91-5.2,85.08-5.35-9.72-13.39-33.36-17.96-48.02-24.87-20.34-9.58-40.06-16.93-61.44-22.4,27.19-1.53,55.15-.48,82.52,2.05,20.96,1.94,42.09,7.48,63.12,7.17-8.84-14.18-21.67-22.67-34.58-31.89,13.51-.27,28.7,6.39,40.98,10.96-24.53-30.33-64.21-60.81-103.89-66.33-33.15-4.61-71.69-6.47-104.88-2.93-47.76,5.09-90.03,23.4-135.48,36.32-46.44,13.21-92.79,1.78-137.41-11.07-13.62-3.92-27.24-4.84-41.13-6.92-7.45-1.11-27.09-.61-31.82-6.08l-44.15-3.31Z"/>
      <path class="cls-4" d="M590.34,427.18c23.72-6.01,26.65-5.69,51.21-4.07-12.86-11.26-29.28-15.2-43.57-21.55,35.16-4.49,68.72,1.87,102.37,9.48-1.37-19.16-51.32-37.51-66.11-43.76-39.62-16.75-85.36-26.82-128.01-30.68-72.56-6.56-143.5,10.34-209.42,38.6.98-.94,2.34-3.05,3.47-4.19l.22-4.53c-14.09-.53-28.66-5.69-42.79-7.82-22.26-3.37-45.68,1.94-67.85-1.93-34.58-6.03-76.19-11.33-120.07,12.13,13.97.51,47.62,12.02,58.25,24.97-2.52,5.18-22.7,12.86-42.15,35.23-11.1,12.76-24.46,25.72-31.2,41.07,36.15-16.84,83.92-26.77,123.72-26.49-11.22,18.09-20.47,38.95-29.6,58.38,11.31-2.87,24.31-7.76,35.72-11.99,7.69-2.85,47.66-23.75,56.3-18.65,7.34,4.34,5.09,41.57,9.06,51.56,12.41-7.6,20.61-21.53,31.69-30.87,10.81,10.83,10.94,30.02,22.14,39.99,6.91-6.97,10.3-17.47,17.07-24.3,6.97-7.03,3.2-6.44,12.64-4.24,17.06,3.97,35.92,20.63,50.95,29.63,10.95,6.56,21.56,15.12,32.79,20.74,7.13-15.56.38-38.36-1.52-54.29,23.68,0,51.23,7.98,72.7,16.88-6.13-7.82-16.2-12.92-22.29-21.21,29.32-2.18,59.52,15.26,88.37,17.65.47-13.09-27.83-25.95-35.54-34.3,19.85-3.25,41.96-5.7,62.78-6.47,22.56-.84,46.92,5.41,68.92,3.48-2.12-12.89-51.15-39.41-60.23-48.41Z"/>
      <path class="cls-3" d="M179.56,389.74c-33.36,39.73,35.51,56.04,62.35,61.28,43.41,8.47,89.36,8.18,133.93,10.22,40.36,1.84,82.06,2.04,121.45-2.33,25.22-2.8,99.54-5.96,72.37-51.01-15.59-25.85-53.38-33.42-80.37-37.75-40.62-6.53-86.1-14.44-127.03-7.64l-182.7,27.23Z"/>
      <path class="cls-1" d="M189.43,110.62c-11.72,5.64-21.36,15.46-26.79,27.27-1.13,2.47-2.1,5.09-2.04,7.81.06,2.71,1.34,5.54,3.75,6.79,4.05,2.1,8.78-.93,12.32-3.81-1.5,2.96-2.45,6.32-1.96,9.6.5,3.28,2.67,6.43,5.84,7.43,5.41,1.7,10.52-3.07,14.2-7.39.69,3.38,2.1,7.16,5.36,8.27,4.15,1.42,8.16-2.35,10.73-5.91,8.6-11.91,20.24-33.05,18.35-48.45-1.74-14.23-31.9-5.4-39.78-1.61Z"/>
      <path class="cls-10" d="M336.81,112.58c-.2-1.93-.45-3.85-.81-5.75.17,1.91.44,3.85.81,5.75Z"/>
      <path class="cls-8" d="M765.04,249.68c-15.33,35.76-47.31,60.61-78.08,84.05-50.65,38.53-101.95,77.46-160.3,102.9-64.23,27.96-135.08,38.57-205.16,38.13-38.42-.24-78.18-4.11-111.58-23.1-69.45-39.52-62.09-125.34-45.52-192.03,9.41-37.88,21.78-74.97,36.87-110.95.11,1.61.28,3.19.53,4.78.45,2.84,1.28,5.89,5.35,6.53,3.02.5,5.99-.97,7.96-3.31,6.12-7.36,10.77-15.96,13.58-25.14-1.81,7.48-2.18,15.28-1.13,22.88.49,3.48,1.42,7.2,6.09,8.1,3.43.67,6.95-.91,9.19-3.62,7.3-8.81,11.58-20.04,12.11-31.45-.36,8.69.8,17.47,3.44,25.79,1.16,3.75,2.84,7.68,7.91,8.28,2.83.35,5.73-.7,7.89-2.62,4.7-4.1,5.8-10.42,6.75-16.36,1.07-6.72,2.13-13.41,3.19-20.14.26,9.79,2.53,19.54,6.58,28.47,1.7,3.73,4.59,7.85,8.68,7.52,3.96-.34,6.19-4.68,7.4-8.5,3.21-10.21,4.57-20.97,4-31.65.09,8.9,2.91,17.74,8.05,24.98,1.96,2.76,5.17,4.61,8.56,4.35,4.63-.37,6.02-3.97,7.02-7.3,2.55-8.98,3.36-18.42,2.37-27.68.87,4.32,2.36,8.46,5.23,11.78,4.09,4.77,11.63,7.05,16.84,3.53,2-1.33,3.43-3.33,4.57-5.44.42,1.14.8,2.31,1.22,3.45,1.04.6,2.11,1.24,3.18,1.85-15.05,9.37-29.56,19.66-40.9,33.2-14.82,17.79-23.33,40.47-25.18,63.54-3.97,50.54,26.24,102.07,72.36,123.23,18.55,8.5,38.98,12.39,59,15.43,17.89,2.74,36.21,1.72,53.65-3.19,22.08-6.28,42.89-13.98,59.53-29.92,9.49-9.05,20.54-24.72,26.14-36.56,2.36-5,3.5-10.48,4.03-16.16,4.37-29.05,13.34-57.38,26.53-83.62,1.5-3.02,6.08-2.23,6.42,1.14,2.46,25-1.31,50.57-10.8,73.82-2.19,4.58-4.31,9.17-6.43,13.79,2.38-4.5,4.5-9.08,6.43-13.79,15.19-31.98,31.88-63.24,49.98-93.7,1.91-3.18,4.44-6.79,8.81-5.52,3.72,1.1,5.79,5.14,4.98,8.89-5.48,26.41-14.8,51.97-27.48,75.73,11.39-17.1,23.08-33.96,35.12-50.59,7.71-10.6,16.41-21.73,28.97-25.45,8.65,1.12,7.3,14.15,3.23,21.91-17.05,32.56-37.61,63.31-61.19,91.52,17.08-19.76,34.16-39.56,51.21-59.33,9.48-10.99,19.29-22.21,30.92-30.65,8.01-5.84,18.75,3.06,14.31,11.91-.66,1.27-1.34,2.47-2.05,3.56-27.56,41.85-61.06,79.77-99.22,112.24,38.31-28.59,76.62-57.15,114.92-85.74,3.85-2.88,9.34-5.87,12.95-1.62,1.82,2.15,2.08,5.27.95,7.86Z"/>
      <path class="cls-6" d="M203.61,158.22c3.69,4.15,10.44-.02,13.77-4.46,5.88-7.84,10.13-16.89,12.42-26.41-2.73,8.71-3.5,18.02-2.24,27.06.31,2.2.79,4.51,2.31,6.13,4.36,4.67,12.12-.08,15.74-5.34,5.6-8.16,8.88-17.9,9.35-27.78-.38,8.71.78,17.49,3.41,25.8.76,2.4,1.72,4.88,3.64,6.51,3.99,3.38,10.53,1.48,13.84-2.56,3.31-4.04,4.25-9.47,5.06-14.64,1.06-6.72,2.13-13.43,3.19-20.15.28,9.8,2.54,19.54,6.58,28.47,1.69,3.73,4.6,7.85,8.68,7.52,3.99-.33,6.21-4.68,7.41-8.5,3.2-10.2,4.57-20.96,4.01-31.64.07,7.45,2.06,14.88,5.74,21.36,3.01,5.3,9.85,10.35,14.62,6.56,1.79-1.42,2.61-3.72,3.25-5.92,2.58-8.95,3.38-18.41,2.4-27.67-.38-1.9-.64-3.84-.81-5.75.36,1.9.61,3.83.81,5.75.85,4.32,2.36,8.48,5.2,11.79,4.1,4.76,11.64,7.04,16.86,3.54,2-1.34,3.42-3.34,4.56-5.47-5.98-17.03-11.95-34.06-17.93-51.09-5.49-15.63-12.83-33.18-28.53-38.47-9.01-3.04-18.98-1.18-27.87,2.2-37.12,14.09-59.59,51.42-76.32,87.43-4.01,8.64-7.82,17.38-11.5,26.17.09,1.61.26,3.21.52,4.8.27,1.7.68,3.46,1.82,4.75Z"/>
      <path class="cls-6" d="M326.94,160.96c-14.84,17.76-23.34,40.45-25.17,63.52-4,50.56,26.25,102.08,72.34,123.23,14.22,6.52,29.54,10.32,44.93,13.11,21.23,3.86,43.38,5.84,64.19.11,23.39-6.44,45.53-14.1,63.07-30.88,9.47-9.06,20.53-24.72,26.12-36.58,2.36-5,3.5-10.48,4.03-16.17-.18,1.2-.41,2.4-.57,3.6-59.66-60.91-133.93-110.84-208.07-153.17-15.05,9.39-29.56,19.67-40.88,33.22Z"/>
      <g>
        <path class="cls-7" d="M497.34,280.45c-4.09-.4-8.11-1.35-11.92-2.84-11.28-4.42-20.68-13.64-25.36-24.81-9.76.81-20.01-2.56-28.29-9.33-8.2-6.7-13.51-15.93-14.74-25.55-12.44.36-23.43-3.11-31.09-9.83-9.48-8.32-12.91-22.25-7.97-32.39.4-.82,1.39-1.17,2.21-.76.82.4,1.17,1.39.76,2.21-4.31,8.85-1.22,21.07,7.17,28.44,7.32,6.43,18.08,9.6,30.3,8.94.88-.04,1.67.63,1.74,1.52.75,9.29,5.74,18.34,13.69,24.84,7.95,6.5,17.82,9.58,27.07,8.47.74-.09,1.47.34,1.74,1.05,4.17,10.85,13.13,19.85,23.95,24.09,10.82,4.25,23.51,3.72,33.94-1.4.88-.43,1.95-.23,2.67.5.72.72.9,1.75.47,2.62-.47.93-1.52,1.4-2.61,1.11-.33-.08-.62-.23-.87-.42-7.14,3.1-15.12,4.29-22.89,3.52ZM522.7,275.28h0s0,0,0,0Z"/>
        <path class="cls-7" d="M474.92,305.67s-.05,0-.08,0c-11.65-1.7-22.16-9.06-27.8-19.37-10.67,4.47-22.9,1.13-31.45-2.58-9.07-3.93-15.67-8.64-20.17-14.4-5.14-6.57-7.32-14.76-5.93-21.93-6.19.23-12.44-1.28-17.82-4.34-.79-.45-1.07-1.46-.62-2.26.45-.79,1.46-1.07,2.26-.62,5.47,3.1,11.92,4.44,18.17,3.76.56-.06,1.11.16,1.46.6.35.43.47,1.01.3,1.55-2.08,6.64-.25,14.76,4.8,21.2,4.15,5.31,10.33,9.69,18.88,13.4,8.31,3.6,20.27,6.87,30.14,1.97.4-.2.86-.22,1.27-.08.42.14.76.44.95.84,4.95,10.09,14.93,17.36,26.05,18.98.9.13,1.53.97,1.4,1.88-.13.88-.93,1.5-1.8,1.41Z"/>
      </g>
      <g>
        <path class="cls-11" d="M221.67,314.75c1.88-3.55,2.62-6.58,2.43-10.62-.06-1.36-.23-2.78-.95-3.94-.72-1.16-2.13-2-3.45-1.66-1.75.46-2.43,2.53-2.82,4.3-.85,3.79-.65,6.44.35,10.31.41,1.59,1.55,3.61,3.1,3.05.63-.23,1.03-.84,1.34-1.44Z"/>
        <path class="cls-11" d="M196.74,387.18c1.35-3.75,1.42-7.99.97-11.92-.16-1.4-.62-3.03-1.95-3.48-.96-.32-2.05.15-2.71.92s-.95,1.79-1.15,2.78c-.76,3.86-.77,7.76.9,11.41.51,1.11,1.58,2.35,2.72,1.9.65-.26.98-.96,1.22-1.62Z"/>
        <path class="cls-11" d="M268.21,355.52c.38-3.34-.16-6.94-.96-10.2-.27-1.11-.72-2.28-1.69-2.89-1.55-.97-3.73.05-4.63,1.65-1.66,2.97-.95,7.68-.24,10.81.58,2.54,2.18,5.73,4.72,5.15,1.85-.42,2.58-2.64,2.79-4.52Z"/>
        <path class="cls-11" d="M252.67,230.16c2.08-3.36,3.3-9.22,1.15-12.85-.63-1.06-1.73-2-2.95-1.86-1.6.19-2.4,2.01-2.76,3.58-.74,3.25-1.41,7-.11,10.17.56,1.37,1.88,2.83,3.27,2.32.62-.23,1.05-.8,1.4-1.36Z"/>
        <path class="cls-11" d="M210.72,237.09c.57.85,1.56,1.49,2.57,1.33,4.48-.7,3.56-8.03,2.96-11.06-.26-1.29-.9-2.71-2.17-3.02-1.12-.27-2.28.48-2.86,1.48-.57,1-.69,2.19-.79,3.33-.24,2.7-1.34,5.48.29,7.93Z"/>
        <path class="cls-11" d="M174.45,331.29c.4.78.96,1.59,1.81,1.82,1.78.47,2.99-1.76,3.47-3.54.9-3.3,1.82-6.99.76-10.37-.37-1.18-.97-2.42-2.1-2.93-1.41-.63-3.13.19-3.98,1.47-2.43,3.67-1.86,9.83.05,13.54Z"/>
      </g>
      <path class="cls-1" d="M378.45,55.88c.89,4.85-5.03,8.03-9.91,8.61-10.88,1.25-21.7-2.21-32.09-5.64-10.91-3.58-21.81-7.16-32.72-10.77-7.16-2.34-24.21-4.49-14.55-13.5,6.52-6.08,13.97-9.85,21.13-14.97,8.11-5.81,16.82-10.9,26.22-14.3,6.69-2.42,27.8-9.86,32.66-1.29,2.55,4.52-1.8,9.75-5.97,12.84-3.13,2.32-6.37,4.47-9.76,6.43,7.91-2.15,16.66-1.35,23.86,2.63,2.21,1.22,4.55,3.48,3.72,5.86-.54,1.41-2.02,2.2-3.41,2.79-7.55,3.28-15.88,4.89-24.14,4.61,8.91,1.15,17.28,5.84,22.91,12.86.89,1.12,1.76,2.37,2.05,3.83Z"/>
      <path class="cls-9" d="M190.61,82.98c-2.86.13-4.2,3.62-2.17,5.65,9.06,9.05,20.85,15.32,32.31,21.32.95.5,1.97,1.01,3.05.92,1.3-.11,2.35-1.09,3.23-2.06,4.64-5.11,7.54-11.43,9.82-17.88.6-1.7,3.49-7.71,2.52-9.28-1.12-1.82-7.84-.56-9.7-.51-7.78.2-15.57.39-23.35.59-1.81.05-9.59.97-15.7,1.24Z"/>
      <path class="cls-2" d="M264.75,69.8c-.26,3.94,2.68,7.48,6.43,8.43,4.05,1.02,8.27-.77,11.11-3.67.78-.8,1.05-1.99.29-2.92-.65-.79-2.13-1.09-2.92-.29-1.09,1.11-2.11,1.88-3.43,2.45-.73.32-1.02.4-1.84.53-.18.03-.37.05-.55.06-.38.03.46.03-.22,0-.37-.01-.73-.05-1.09-.09-.15-.02-.27-.05-.05,0-.2-.05-.39-.11-.58-.18-.13-.05-.25-.1-.38-.15-.01,0-.58-.29-.25-.11-.29-.17-.58-.36-.84-.57-.11-.08-.21-.17-.31-.26.24.21-.08-.08-.12-.13-.23-.24-.44-.5-.62-.78-.12-.17.07.18-.08-.14-.07-.15-.15-.29-.21-.44-.05-.12-.15-.42-.07-.13-.05-.16-.08-.32-.11-.48-.03-.16-.05-.32-.06-.49.03.37.02-.13.02-.24.07-1.12-.72-2.15-1.86-2.27s-2.19.74-2.27,1.86h0Z"/>
    </g>
  </g>
</svg>