<?xml version="1.0" encoding="utf-8"?>
<!-- Generator: Adobe Illustrator 28.0.0, SVG Export Plug-In . SVG Version: 6.00 Build 0)  -->
<svg version="1.1" id="圖層_1" xmlns="http://www.w3.org/2000/svg" xmlns:xlink="http://www.w3.org/1999/xlink" x="0px" y="0px"
	 viewBox="0 0 59.4 26.4" style="enable-background:new 0 0 59.4 26.4;" xml:space="preserve">
<style type="text/css">
	.st0{fill:#EF5C3F;}
	.st1{fill:#FFC022;}
	.st2{fill:#564336;}
	.st3{fill:#FFA21A;}
</style>
<g>
	<polygon class="st0" points="14.8,19.8 14.5,23.2 14.3,23.2 14.3,19.7 	"/>
	<polygon class="st0" points="8.4,20.4 8.1,23.9 7.8,23.9 7.8,20.4 	"/>
	<polygon class="st0" points="14.5,23 15.5,22.7 15.6,22.9 14.7,23.1 15.9,23.4 15.9,23.6 14.6,23.4 15.3,24 15.1,24.1 14.3,23.2 	
		"/>
	<polygon class="st0" points="8.1,23.5 9.1,23.4 9.1,23.5 8.2,23.8 9.4,23.9 9.4,24.1 8.2,24 9,24.6 8.6,24.6 7.8,23.9 	"/>
	<path class="st1" d="M19,10.9c-0.5-2.2-2.3-3.1-4.6-2.9c-0.9,0-1.5,0.4-2.2,1c-0.1,0.4-0.8,0.9-1,1.5C8,9.4,2.6,9.8,2.6,9.8L2.9,11
		H1.2l0.1,1.1l-0.8,0.3l2,4.2c1.7,2.2,3.9,3.9,6.1,4.2c2.7,0.3,6.2,0,8.1-2C18.5,16.8,19.7,13.6,19,10.9z"/>
	<path class="st0" d="M18.8,12.6c0.6,0,1.4-0.3,1.4-0.5c0-0.3-1-1-1.1-0.9C18.5,11.4,18.3,12.6,18.8,12.6z"/>
	<path class="st2" d="M16.2,10.8c0,0.1-0.1,0.4-0.4,0.4c-0.1,0-0.4-0.1-0.4-0.4c0-0.1,0.1-0.4,0.4-0.4
		C16.1,10.4,16.2,10.7,16.2,10.8z"/>
	<path class="st2" d="M19,10.4c0,0.1-0.1,0.4-0.4,0.4c-0.1,0-0.4-0.1-0.4-0.4c0-0.1,0.1-0.4,0.4-0.4S19,10.1,19,10.4z"/>
	<polygon class="st1" points="16.5,7.7 16.5,6.5 15.7,7.6 14.8,7.3 15.2,8.2 16.6,8.7 17,7.6 	"/>
	<path class="st3" d="M5.1,17.3c0.1,0,4.8,0.8,6.4-0.4c2-1.4,1.4-4.3-0.3-5c-1.7-0.5-5.8,1.7-5.8,1.7l0.4,0.9l-1.1,0.8
		c0.3,0,1,0.8,1,0.8L5.1,17.3z"/>
	<polygon class="st3" points="14,14.3 14.3,15.9 15.5,14.6 15,14.5 14.5,15.1 14.5,14.3 	"/>
	<polygon class="st3" points="17,16.6 18.1,15.2 17.6,15 17,15.6 17,14.7 16.2,14.6 	"/>
	<polygon class="st3" points="15,16.6 15.1,18.7 16.5,17 16,16.9 15.3,17.5 15.5,16.6 	"/>
</g>
<g>
	<path class="st3" d="M28.4,7c0.3-0.8-0.1-2.4-1.7-2.7c-1.5-0.3-3.2,0.4-3.2,0.4l0.5,0.4l-1.3,0.8l1,0.4l-0.6,0.6
		C23.2,6.8,27,10,28.4,7z"/>
	<polygon class="st0" points="30.4,15 31.4,17.6 31.8,17.6 30.7,14.8 	"/>
	<polygon class="st0" points="31.4,17.6 30.9,18.4 30.9,18.5 31.5,17.9 31.1,18.9 31.4,19 31.8,17.9 31.9,18.8 32.1,18.7 31.8,17.6 
			"/>
	<polygon class="st0" points="36.8,15.7 38.6,18 38.9,17.9 37.2,15.5 	"/>
	<polygon class="st0" points="38.6,18 38.2,18.8 38.4,18.9 38.7,18.3 38.6,19.3 38.9,19.3 39,18.2 39.4,19 39.5,18.8 38.9,17.9 	"/>
	<path class="st1" d="M40.8,10c-0.6-5.3-7-6.9-7.5-7c0-1.7-2.5-2.9-4.1-2.4c-2.4,0.8-3.1,4.1-2.9,6.2c0.3,3.9,1,7.5,6.4,9
		c2.2,0.6,5.6,0.1,6.9-1.9C40.1,12.8,40.9,11.4,40.8,10z"/>
	<path class="st0" d="M28.3,1.1C27.8,0.9,27,0.6,27,0.9c-0.1,0.3,0.3,1.3,0.5,1.3C27.9,2.3,28.8,1.5,28.3,1.1z"/>
	<path class="st3" d="M35.2,6.8c0,0.8,1,2.2,2.5,1.9s2.8-1.5,2.8-1.5l-0.8-0.1l0.9-1.3h-1L40,5.1C40,5.1,35.2,3.5,35.2,6.8z"/>
	<path class="st2" d="M31.6,2.1c0,0.1-0.3,0.3-0.4,0.3S31,2.1,31,2s0.3-0.3,0.4-0.3C31.5,1.9,31.6,2,31.6,2.1z"/>
	<path class="st2" d="M29.3,0.9c0,0.1-0.3,0.3-0.4,0.3c-0.1,0-0.3-0.3-0.3-0.4s0.3-0.3,0.4-0.3C29.3,0.6,29.3,0.7,29.3,0.9z"/>
	<polygon class="st1" points="31.1,0.9 32.5,0.1 32.1,0.9 32.8,0.7 32.5,1.2 33,1.5 32.4,2.1 	"/>
	<polygon class="st1" points="41.9,10.5 41.4,10.8 41.8,12.1 41,12.3 41.4,13.2 37.9,15.5 39.9,7.6 	"/>
	<polygon class="st3" points="27.4,8 28.2,6.6 27.8,6.5 27.3,7.1 27.2,6.3 26.5,6.3 	"/>
	<polygon class="st3" points="29.5,8.7 30.4,7.3 30,7.2 29.5,7.9 29.2,7.1 28.7,7.1 	"/>
	<polygon class="st3" points="31.6,8.7 32.5,7.3 32.1,7.2 31.6,7.9 31.4,7.1 30.7,7.1 	"/>
	<polygon class="st3" points="28.3,10.3 29.1,8.9 28.7,8.7 28.2,9.4 28.1,8.6 27.4,8.6 	"/>
	<polygon class="st3" points="30.7,10.9 31.6,9.5 31.2,9.4 30.7,10 30.5,9.3 30,9.3 	"/>
	<polygon class="st3" points="29.3,12.6 30.2,11.2 29.8,11 29.3,11.7 29.1,10.9 28.6,10.9 	"/>
</g>
<g>
	<polygon class="st0" points="47.1,23.4 44.3,24.8 44.5,25 47.4,23.8 	"/>
	<polygon class="st0" points="55.3,23.8 58.2,24.9 58.3,24.8 55.4,23.4 	"/>
	<path class="st1" d="M56.5,16.8c-0.6-1.4-2-2.3-2-2.3s-0.5-2.2-1.9-2.8c-2.5-1.1-4.8,0.4-5,2.9c-1.3,0.8-2.2,1.7-2.4,3.3
		c-0.4,1.7-0.4,3.9,0.8,5.3c1.8,2.3,5.1,2.7,7.6,2C58.6,24.3,57.3,18.5,56.5,16.8z"/>
	<polygon class="st1" points="50.2,11.5 50.4,10.3 50.7,10.7 51.5,9.6 51.6,10.7 52.2,10.7 51.6,11.7 	"/>
	<path class="st2" d="M53,12.9c0,0.1-0.1,0.3-0.3,0.3c-0.1,0-0.3-0.1-0.3-0.3s0.1-0.3,0.3-0.3C52.9,12.7,53,12.8,53,12.9z"/>
	<path class="st2" d="M49.7,12.9c0,0.1-0.1,0.3-0.3,0.3c-0.1,0-0.3-0.1-0.3-0.3s0.1-0.3,0.3-0.3C49.6,12.7,49.7,12.7,49.7,12.9z"/>
	<path class="st0" d="M50.7,13.5c0.1,0.4,0.4,0.9,0.5,0.9c0.1-0.1,0.5-0.9,0.5-1C51.5,13.2,50.6,13.1,50.7,13.5z"/>
	<polygon class="st3" points="47,16.9 47.8,18.3 48.5,17 47.9,17 47.6,17.5 47.6,17 	"/>
	<polygon class="st3" points="49.2,17 49.8,18.4 50.6,17.1 50.1,17.1 49.8,17.6 49.7,17.1 	"/>
	<polygon class="st3" points="51.2,17.1 52,18.4 52.6,17.1 52.1,17.3 52,17.6 51.7,17.1 	"/>
	<polygon class="st3" points="53.2,17 54.1,18.2 54.8,16.9 54.3,17 54,17.5 53.9,16.9 	"/>
	<polygon class="st3" points="52.6,18.7 53.5,19.8 54,18.5 53.5,18.5 53.2,19 53.1,18.5 	"/>
	<polygon class="st3" points="50.3,18.7 51.1,20.1 51.8,18.8 51.3,18.8 51.1,19.3 51,18.7 	"/>
	<polygon class="st3" points="48.2,18.7 48.9,19.9 49.7,18.7 49.2,18.8 48.9,19.2 48.8,18.7 	"/>
	<polygon class="st3" points="49.3,20.3 50.1,21.6 50.8,20.4 50.2,20.4 49.9,21 49.8,20.3 	"/>
	<polygon class="st3" points="51.7,20.3 52.5,21.6 53.2,20.3 52.6,20.4 52.4,20.8 52.2,20.3 	"/>
	<polygon class="st3" points="50.7,21.8 51.5,23.1 52.2,22 51.7,22 51.5,22.5 51.3,21.8 	"/>
	<path class="st0" d="M57.2,23.6l0.1-0.1l0.8,1L57.9,23h0.3l0.1,1.5l0.5-1.4c0,0,0.3,0,0.3,0.1S58.3,25,58.3,25l-0.3-0.1L57.2,23.6z
		"/>
	<path class="st0" d="M44.3,23.2h-0.3l0.3,1.3l-1-1.1l-0.1,0.1l0.9,1.1L42.7,24c0,0-0.1,0.1-0.1,0.3c0.1,0,1.8,0.8,1.8,0.8l0.1-0.3
		L44.3,23.2z"/>
</g>
</svg>
