<?xml version="1.0" encoding="utf-8"?>
<!-- Generator: Adobe Illustrator 28.1.0, SVG Export Plug-In . SVG Version: 6.00 Build 0)  -->
<svg version="1.1" id="_圖層_1" xmlns="http://www.w3.org/2000/svg" xmlns:xlink="http://www.w3.org/1999/xlink" x="0px" y="0px"
	 viewBox="0 0 163.4 50.1" style="enable-background:new 0 0 163.4 50.1;" xml:space="preserve">
<style type="text/css">
	.st0{clip-path:url(#SVGID_00000090272768061914495780000009981893138175247782_);}
	.st1{fill:#EF5C3F;}
	.st2{clip-path:url(#SVGID_00000077318361405874491340000003578225369372992425_);}
	.st3{clip-path:url(#SVGID_00000017502332541599999030000012718418230401823401_);}
	.st4{clip-path:url(#SVGID_00000163786952432810578390000003822719723147619986_);}
</style>
<g>
	<defs>
		
			<rect id="SVGID_1_" x="119.2" y="30.2" transform="matrix(0.9353 -0.354 0.354 0.9353 -5.3756 48.1152)" width="19.2" height="17"/>
	</defs>
	<clipPath id="SVGID_00000090296407556542730220000002133722940094622606_">
		<use xlink:href="#SVGID_1_"  style="overflow:visible;"/>
	</clipPath>
	<g style="clip-path:url(#SVGID_00000090296407556542730220000002133722940094622606_);">
		<path class="st1" d="M125.4,31c15.1-2.3,18.8,13.9,3.3,16.6c-0.5,0.1-0.8-0.6-0.5-1c6.8-7.5,1.9-4.8-5.1-5.6
			c-0.4-0.1-0.6-0.1-0.9-0.1c-9.3-1.2,4-3.3,8.2-4.6c0.3-0.1,0.5-0.6,0.3-0.8c-1.1-1.6-3.5-2.3-5.4-3.4
			C124.8,31.8,124.9,31.2,125.4,31L125.4,31L125.4,31z"/>
	</g>
</g>
<g>
	<defs>
		
			<rect id="SVGID_00000081618892801850186360000017533312470225801142_" x="144.7" y="-0.5" transform="matrix(6.575139e-02 -0.9978 0.9978 6.575139e-02 134.0484 161.4359)" width="17" height="19.2"/>
	</defs>
	<clipPath id="SVGID_00000057118854818408325870000011894871736233318563_">
		<use xlink:href="#SVGID_00000081618892801850186360000017533312470225801142_"  style="overflow:visible;"/>
	</clipPath>
	<g style="clip-path:url(#SVGID_00000057118854818408325870000011894871736233318563_);">
		<path class="st1" d="M153.4,0.6c14.6,4.2,11.3,20.4-3.9,16.4c-0.5-0.1-0.6-0.9-0.1-1.1c9.2-3.9,3.7-3.6-2.3-7.3
			c-0.3-0.2-0.5-0.3-0.7-0.4c-8-4.9,5-1.3,9.4-0.8c0.4,0.1,0.7-0.3,0.6-0.7c-0.4-2-2.3-3.6-3.5-5.3C152.5,1.1,153,0.5,153.4,0.6
			L153.4,0.6L153.4,0.6z"/>
	</g>
</g>
<g>
	<defs>
		
			<rect id="SVGID_00000026856989904223663850000007972590587755470239_" x="2.6" y="27.3" transform="matrix(0.9189 -0.3946 0.3946 0.9189 -13.1296 7.7167)" width="19.2" height="17"/>
	</defs>
	<clipPath id="SVGID_00000130612411268177778700000005922787893045616049_">
		<use xlink:href="#SVGID_00000026856989904223663850000007972590587755470239_"  style="overflow:visible;"/>
	</clipPath>
	<g style="clip-path:url(#SVGID_00000130612411268177778700000005922787893045616049_);">
		<path class="st1" d="M8.4,28.2c14.9-2.9,19.4,13.1,4,16.4c-0.5,0.1-0.9-0.5-0.6-0.9c6.4-7.7,1.6-4.9-5.4-5.4
			c-0.4-0.1-0.6-0.1-0.9-0.1c-9.4-0.8,3.8-3.4,8-5c0.3-0.1,0.4-0.6,0.2-0.8c-1.2-1.6-3.6-2.1-5.5-3.1C7.9,29,7.9,28.3,8.4,28.2
			L8.4,28.2L8.4,28.2z"/>
	</g>
</g>
<g>
	<defs>
		
			<rect id="SVGID_00000056397202121299929210000017944631167319796866_" x="72.2" y="14.6" transform="matrix(8.576468e-02 -0.9963 0.9963 8.576468e-02 49.6432 102.6147)" width="17" height="19.2"/>
	</defs>
	<clipPath id="SVGID_00000034075534912262624180000008292262293980727195_">
		<use xlink:href="#SVGID_00000056397202121299929210000017944631167319796866_"  style="overflow:visible;"/>
	</clipPath>
	<g style="clip-path:url(#SVGID_00000034075534912262624180000008292262293980727195_);">
		<path class="st1" d="M81,15.7c14.6,4.5,10.9,20.6-4.2,16.4c-0.5-0.2-0.5-0.9-0.1-1.1c9.4-3.8,3.8-3.5-2.2-7.3
			c-0.3-0.2-0.5-0.3-0.7-0.5c-7.9-5.1,5-1.2,9.4-0.6c0.4,0.1,0.7-0.3,0.6-0.7c-0.3-2-2.1-3.6-3.4-5.4C80,16.1,80.5,15.5,81,15.7
			L81,15.7L81,15.7z"/>
	</g>
</g>
</svg>
