<?xml version="1.0" encoding="UTF-8"?>
<svg id="_圖層_1" data-name=" 圖層 1" xmlns="http://www.w3.org/2000/svg" xmlns:xlink="http://www.w3.org/1999/xlink" viewBox="0 0 93.06 50.1">
  <defs>
    <style>
      .cls-1 {
        fill: #ef5c3f;
      }

      .cls-1, .cls-2 {
        stroke-width: 0px;
      }

      .cls-3 {
        clip-path: url(#clippath);
      }

      .cls-2 {
        fill: none;
      }

      .cls-4 {
        clip-path: url(#clippath-1);
      }

      .cls-5 {
        clip-path: url(#clippath-2);
      }
    </style>
    <clipPath id="clippath">
      <rect class="cls-2" x="48.85" y="30.22" width="19.2" height="17" transform="translate(-9.92 23.2) rotate(-20.73)"/>
    </clipPath>
    <clipPath id="clippath-1">
      <rect class="cls-2" x="74.36" y="-.43" width="17" height="19.2" transform="translate(68.26 91.25) rotate(-86.23)"/>
    </clipPath>
    <clipPath id="clippath-2">
      <rect class="cls-2" x="1.84" y="14.69" width="17" height="19.2" transform="translate(-14.75 32.5) rotate(-85.08)"/>
    </clipPath>
  </defs>
  <g class="cls-3">
    <path class="cls-1" d="M55.06,31c15.1-2.3,18.8,13.9,3.3,16.6-.5.1-.8-.6-.5-1,6.8-7.5,1.9-4.8-5.1-5.6-.4-.1-.6-.1-.9-.1-9.3-1.2,4-3.3,8.2-4.6.3-.1.5-.6.3-.8-1.1-1.6-3.5-2.3-5.4-3.4-.5-.3-.4-.9.1-1.1h0Z"/>
  </g>
  <g class="cls-4">
    <path class="cls-1" d="M83.06.6c14.6,4.2,11.3,20.4-3.9,16.4-.5-.1-.6-.9-.1-1.1,9.2-3.9,3.7-3.6-2.3-7.3-.3-.2-.5-.3-.7-.4-8-4.9,5-1.3,9.4-.8.4.1.7-.3.6-.7-.4-2-2.3-3.6-3.5-5.3-.4-.3.1-.9.5-.8h0Z"/>
  </g>
  <g class="cls-5">
    <path class="cls-1" d="M10.66,15.7c14.6,4.5,10.9,20.6-4.2,16.4-.5-.2-.5-.9-.1-1.1,9.4-3.8,3.8-3.5-2.2-7.3-.3-.2-.5-.3-.7-.5-7.9-5.1,5-1.2,9.4-.6.4.1.7-.3.6-.7-.3-2-2.1-3.6-3.4-5.4-.4-.4.1-1,.6-.8h0Z"/>
  </g>
</svg>