<?xml version="1.0" encoding="utf-8"?>
<!-- Generator: Adobe Illustrator 28.0.0, SVG Export Plug-In . SVG Version: 6.00 Build 0)  -->
<svg version="1.1" id="_圖層_1" xmlns="http://www.w3.org/2000/svg" xmlns:xlink="http://www.w3.org/1999/xlink" x="0px" y="0px"
	 viewBox="0 0 1920 250" style="enable-background:new 0 0 1920 250;" xml:space="preserve">
<style type="text/css">
	.st0{clip-path:url(#SVGID_00000173842338718186159170000012796008422023360694_);}
	.st1{fill:#EF5C3F;}
	.st2{clip-path:url(#SVGID_00000137130841030777747920000017796620225173023894_);}
	.st3{clip-path:url(#SVGID_00000140694856046769766190000004236747893286165396_);}
	.st4{clip-path:url(#SVGID_00000064335951699093183190000004770236258609651897_);}
	.st5{clip-path:url(#SVGID_00000062158116845765820460000015727214071833665158_);}
	.st6{clip-path:url(#SVGID_00000067227765738035833170000001774765680527095220_);}
	.st7{clip-path:url(#SVGID_00000047762835981444442960000007926924236287973515_);}
	.st8{clip-path:url(#SVGID_00000083779484564849977770000009369730309138116998_);}
	.st9{clip-path:url(#SVGID_00000180344571578680486170000007340868816675233469_);}
	.st10{clip-path:url(#SVGID_00000127759658659229756810000001153574077609597328_);}
	.st11{clip-path:url(#SVGID_00000043417796445991308670000006970263379503769759_);}
</style>
<g>
	<defs>
		
			<rect id="SVGID_1_" x="1802.7" y="198.6" transform="matrix(0.9353 -0.354 0.354 0.9353 42.1655 657.9748)" width="34.1" height="30.2"/>
	</defs>
	<clipPath id="SVGID_00000098199429617923154820000018231340247882441648_">
		<use xlink:href="#SVGID_1_"  style="overflow:visible;"/>
	</clipPath>
	<g style="clip-path:url(#SVGID_00000098199429617923154820000018231340247882441648_);">
		<path class="st1" d="M1813.8,200c26.7-4.1,33.3,24.7,5.8,29.4c-0.9,0.1-1.5-1-0.9-1.7c12-13.2,3.3-8.6-9.1-10
			c-0.7-0.1-1.1-0.1-1.6-0.2c-16.5-2.1,7.1-5.8,14.5-8.1c0.6-0.2,0.9-1,0.5-1.5c-2-2.9-6.2-4.1-9.5-6
			C1812.7,201.4,1812.8,200.2,1813.8,200L1813.8,200z"/>
	</g>
</g>
<g>
	<defs>
		
			<rect id="SVGID_00000023260627881608947570000015127293268595802528_" x="1848" y="144.1" transform="matrix(6.575139e-02 -0.9978 0.9978 6.575139e-02 1579.7549 2009.5686)" width="30.2" height="34.1"/>
	</defs>
	<clipPath id="SVGID_00000075137658067736533430000017678187997907012777_">
		<use xlink:href="#SVGID_00000023260627881608947570000015127293268595802528_"  style="overflow:visible;"/>
	</clipPath>
	<g style="clip-path:url(#SVGID_00000075137658067736533430000017678187997907012777_);">
		<path class="st1" d="M1863.4,146.1c25.9,7.4,20,36.2-6.9,29.1c-0.9-0.2-1-1.5-0.1-1.9c16.4-7,6.6-6.4-4.1-12.9
			c-0.6-0.4-0.9-0.6-1.3-0.8c-14.2-8.7,8.9-2.3,16.6-1.4c0.7,0.1,1.2-0.5,1.1-1.2c-0.7-3.5-4-6.3-6.2-9.4
			C1861.8,146.9,1862.6,145.8,1863.4,146.1L1863.4,146.1L1863.4,146.1z"/>
	</g>
</g>
<g>
	<defs>
		
			<rect id="SVGID_00000095300239059790560460000001601872161994526111_" x="89" y="70.6" transform="matrix(0.6384 -0.7697 0.7697 0.6384 -29.7903 111.8473)" width="30.2" height="34.1"/>
	</defs>
	<clipPath id="SVGID_00000086691483745159472060000009106757308747091125_">
		<use xlink:href="#SVGID_00000095300239059790560460000001601872161994526111_"  style="overflow:visible;"/>
	</clipPath>
	<g style="clip-path:url(#SVGID_00000086691483745159472060000009106757308747091125_);">
		<path class="st1" d="M113.2,75.5c16.7,21.2-5,41.1-22.7,19.6c-0.6-0.7,0.1-1.8,1-1.6c17.4,3.9,9.1-1.3,4.2-12.8
			c-0.3-0.7-0.4-1-0.6-1.5c-6.3-15.4,8.5,3.3,14.2,8.6c0.5,0.4,1.3,0.3,1.6-0.3c1.5-3.2,0.5-7.4,0.5-11.2
			C111.4,75.2,112.6,74.8,113.2,75.5L113.2,75.5L113.2,75.5z"/>
	</g>
</g>
<g>
	<defs>
		
			<rect id="SVGID_00000089537668731113050290000002904467964953664397_" x="24.5" y="20.1" transform="matrix(0.4329 -0.9015 0.9015 0.4329 -10.9841 56.7423)" width="30.2" height="34.1"/>
	</defs>
	<clipPath id="SVGID_00000168092742803815103260000000320967621569698238_">
		<use xlink:href="#SVGID_00000089537668731113050290000002904467964953664397_"  style="overflow:visible;"/>
	</clipPath>
	<g style="clip-path:url(#SVGID_00000168092742803815103260000000320967621569698238_);">
		<path class="st1" d="M45.5,23.2c21.3,16.5,5.1,41.1-17.2,24.5c-0.8-0.6-0.3-1.8,0.6-1.8c17.9-0.4,8.5-3.5,1-13.5
			c-0.4-0.6-0.7-0.9-0.9-1.3C19,17.7,37.9,32.3,44.7,36c0.6,0.3,1.3,0,1.4-0.7c0.7-3.5-1.3-7.3-2.3-11
			C43.7,23.3,44.7,22.6,45.5,23.2L45.5,23.2L45.5,23.2z"/>
	</g>
</g>
<g>
	<defs>
		
			<rect id="SVGID_00000054964042645867683050000002575635966173559424_" x="293.2" y="155.2" transform="matrix(0.4923 -0.8704 0.8704 0.4923 6.6421 355.8142)" width="30.2" height="34.1"/>
	</defs>
	<clipPath id="SVGID_00000042013891611160197520000003398482857316289943_">
		<use xlink:href="#SVGID_00000054964042645867683050000002575635966173559424_"  style="overflow:visible;"/>
	</clipPath>
	<g style="clip-path:url(#SVGID_00000042013891611160197520000003398482857316289943_);">
		<path class="st1" d="M315.1,158.7c20.2,17.9,2.3,41.4-18.8,23.3c-0.7-0.6-0.2-1.8,0.7-1.8c17.9,0.8,8.7-2.9,1.9-13.4
			c-0.4-0.6-0.6-0.9-0.9-1.3c-9-14,9,1.8,15.5,5.9c0.5,0.4,1.3,0.1,1.5-0.6c0.9-3.4-0.8-7.4-1.5-11.1
			C313.3,158.8,314.4,158.1,315.1,158.7L315.1,158.7L315.1,158.7z"/>
	</g>
</g>
<g>
	<defs>
		
			<rect id="SVGID_00000008871648889546162660000002575884464816741028_" x="166.8" y="92.4" transform="matrix(0.5317 -0.8469 0.8469 0.5317 -7.5494 205.319)" width="30.2" height="34.1"/>
	</defs>
	<clipPath id="SVGID_00000059989753181113292420000008848807425979509163_">
		<use xlink:href="#SVGID_00000008871648889546162660000002575884464816741028_"  style="overflow:visible;"/>
	</clipPath>
	<g style="clip-path:url(#SVGID_00000059989753181113292420000008848807425979509163_);">
		<path class="st1" d="M189.3,96.3c19.3,18.8,0.4,41.4-19.9,22.4c-0.7-0.6-0.1-1.8,0.8-1.7c17.8,1.6,8.8-2.5,2.5-13.3
			c-0.4-0.6-0.6-0.9-0.8-1.4c-8.3-14.4,8.9,2.2,15.2,6.6c0.5,0.4,1.3,0.1,1.5-0.5c1.1-3.4-0.5-7.4-1-11.2
			C187.5,96.3,188.6,95.6,189.3,96.3L189.3,96.3L189.3,96.3z"/>
	</g>
</g>
<g>
	<defs>
		
			<rect id="SVGID_00000058591441048641073020000011260363455965337000_" x="1596" y="193.3" transform="matrix(0.9189 -0.3946 0.3946 0.9189 48.6459 653.3992)" width="34.1" height="30.2"/>
	</defs>
	<clipPath id="SVGID_00000120560993484840698420000014750194473803562654_">
		<use xlink:href="#SVGID_00000058591441048641073020000011260363455965337000_"  style="overflow:visible;"/>
	</clipPath>
	<g style="clip-path:url(#SVGID_00000120560993484840698420000014750194473803562654_);">
		<path class="st1" d="M1606.4,194.9c26.4-5.2,34.3,23.2,7.1,29.1c-0.9,0.2-1.6-0.9-1-1.6c11.4-13.7,2.9-8.7-9.5-9.6
			c-0.7-0.1-1.1-0.1-1.6-0.1c-16.6-1.4,6.8-6.1,14.1-8.8c0.6-0.2,0.8-1,0.4-1.5c-2.2-2.8-6.4-3.8-9.8-5.5
			C1605.4,196.4,1605.5,195.1,1606.4,194.9L1606.4,194.9L1606.4,194.9z"/>
	</g>
</g>
<g>
	<defs>
		
			<rect id="SVGID_00000095335326311959173520000006643694038845908124_" x="1719.4" y="170.9" transform="matrix(8.576468e-02 -0.9963 0.9963 8.576468e-02 1398.564 1899.9199)" width="30.2" height="34.1"/>
	</defs>
	<clipPath id="SVGID_00000058586128436980359660000017021968858257937553_">
		<use xlink:href="#SVGID_00000095335326311959173520000006643694038845908124_"  style="overflow:visible;"/>
	</clipPath>
	<g style="clip-path:url(#SVGID_00000058586128436980359660000017021968858257937553_);">
		<path class="st1" d="M1735,172.8c25.8,7.9,19.3,36.6-7.4,29c-0.9-0.3-0.9-1.6-0.1-1.9c16.6-6.7,6.7-6.3-3.9-12.9
			c-0.6-0.4-0.9-0.6-1.3-0.9c-14-9,8.9-2.1,16.6-1.1c0.7,0.1,1.2-0.5,1.1-1.2c-0.6-3.5-3.8-6.4-6-9.5
			C1733.3,173.6,1734.1,172.5,1735,172.8L1735,172.8L1735,172.8z"/>
	</g>
</g>
<g>
	<defs>
		
			<rect id="SVGID_00000018948769702227252630000011955425085136413627_" x="472" y="183.8" transform="matrix(0.371 -0.9286 0.9286 0.371 119.8425 578.6471)" width="30.2" height="34.1"/>
	</defs>
	<clipPath id="SVGID_00000021811291145592709950000004141538859881883318_">
		<use xlink:href="#SVGID_00000018948769702227252630000011955425085136413627_"  style="overflow:visible;"/>
	</clipPath>
	<g style="clip-path:url(#SVGID_00000021811291145592709950000004141538859881883318_);">
		<path class="st1" d="M492,186.6c22.4,15,7.9,40.7-15.5,25.6c-0.8-0.5-0.5-1.8,0.5-1.8c17.8-1.6,8.2-4.1,0-13.5
			c-0.5-0.5-0.7-0.8-1-1.2c-10.8-12.7,9.1,0.6,16.2,3.8c0.6,0.3,1.3-0.1,1.4-0.8c0.5-3.5-1.8-7.2-3-10.9
			C490.2,186.9,491.2,186.1,492,186.6L492,186.6L492,186.6z"/>
	</g>
</g>
<g>
	<defs>
		
			<rect id="SVGID_00000024719040989808179370000003236026615491166883_" x="376.5" y="200.3" transform="matrix(8.576468e-02 -0.9963 0.9963 8.576468e-02 141.413 588.8765)" width="30.2" height="34.1"/>
	</defs>
	<clipPath id="SVGID_00000031195142197847876220000018312558798594972305_">
		<use xlink:href="#SVGID_00000024719040989808179370000003236026615491166883_"  style="overflow:visible;"/>
	</clipPath>
	<g style="clip-path:url(#SVGID_00000031195142197847876220000018312558798594972305_);">
		<path class="st1" d="M392.1,202.3c25.8,7.9,19.3,36.6-7.5,29c-0.9-0.3-0.9-1.6-0.1-1.9c16.6-6.7,6.7-6.3-3.9-12.9
			c-0.6-0.4-0.9-0.6-1.3-0.9c-14-9,8.9-2.1,16.6-1.1c0.6,0.1,1.2-0.5,1.1-1.2c-0.6-3.5-3.8-6.4-6-9.5
			C390.5,203.1,391.2,202,392.1,202.3L392.1,202.3L392.1,202.3z"/>
	</g>
</g>
<g>
	<defs>
		
			<rect id="SVGID_00000040554400357405959100000010973277241858206892_" x="208.2" y="163.2" transform="matrix(0.1343 -0.9909 0.9909 0.1343 14.5992 377.3008)" width="30.2" height="34.1"/>
	</defs>
	<clipPath id="SVGID_00000111174698765067032920000003585687819579762879_">
		<use xlink:href="#SVGID_00000040554400357405959100000010973277241858206892_"  style="overflow:visible;"/>
	</clipPath>
	<g style="clip-path:url(#SVGID_00000111174698765067032920000003585687819579762879_);">
		<path class="st1" d="M224.5,165.3c25.4,9.1,17.5,37.6-8.9,28.6c-0.9-0.3-0.9-1.6,0-1.9c16.9-5.9,7-5.9-3.2-13.1
			c-0.6-0.4-0.9-0.6-1.3-0.9c-13.5-9.7,9-1.7,16.6-0.3c0.6,0.1,1.2-0.4,1.2-1.1c-0.4-3.5-3.5-6.6-5.6-9.8
			C222.9,166,223.7,165,224.5,165.3L224.5,165.3L224.5,165.3z"/>
	</g>
</g>
</svg>
