<?xml version="1.0" encoding="utf-8"?>
<!-- Generator: Adobe Illustrator 28.1.0, SVG Export Plug-In . SVG Version: 6.00 Build 0)  -->
<svg version="1.1" id="_圖層_1" xmlns="http://www.w3.org/2000/svg" xmlns:xlink="http://www.w3.org/1999/xlink" x="0px" y="0px"
	 viewBox="0 0 137.4 43.6" style="enable-background:new 0 0 137.4 43.6;" xml:space="preserve">
<style type="text/css">
	.st0{clip-path:url(#SVGID_00000055709252008563824820000006643974902066016914_);}
	.st1{fill:#EF5C3F;}
	.st2{clip-path:url(#SVGID_00000076605584385068425830000003243251075652561307_);}
	.st3{clip-path:url(#SVGID_00000122716184774570147040000014753352436396442286_);}
	.st4{clip-path:url(#SVGID_00000146463045546525512300000007872761310613993397_);}
</style>
<g>
	<defs>
		
			<rect id="SVGID_1_" x="100.2" y="25.2" transform="matrix(0.9353 -0.354 0.354 0.9353 -4.4319 40.4397)" width="16.2" height="14.4"/>
	</defs>
	<clipPath id="SVGID_00000168810798061646883030000007523618043631623341_">
		<use xlink:href="#SVGID_1_"  style="overflow:visible;"/>
	</clipPath>
	<g style="clip-path:url(#SVGID_00000168810798061646883030000007523618043631623341_);">
		<path class="st1" d="M105.5,25.8c12.7-1.9,15.8,11.7,2.8,14c-0.4,0.1-0.7-0.5-0.4-0.8c5.7-6.3,1.6-4.1-4.3-4.8
			c-0.3-0.1-0.5-0.1-0.8-0.1c-7.8-1,3.4-2.8,6.9-3.9c0.3-0.1,0.4-0.5,0.2-0.7c-1-1.4-2.9-1.9-4.5-2.9C105,26.5,105,25.9,105.5,25.8
			L105.5,25.8L105.5,25.8z"/>
	</g>
</g>
<g>
	<defs>
		
			<rect id="SVGID_00000173859417129003456580000003510018693225342900_" x="121.7" y="-0.7" transform="matrix(6.575139e-02 -0.9978 0.9978 6.575139e-02 113.0476 135.4991)" width="14.4" height="16.2"/>
	</defs>
	<clipPath id="SVGID_00000085957112011917800070000015575671787515841971_">
		<use xlink:href="#SVGID_00000173859417129003456580000003510018693225342900_"  style="overflow:visible;"/>
	</clipPath>
	<g style="clip-path:url(#SVGID_00000085957112011917800070000015575671787515841971_);">
		<path class="st1" d="M129,0.2c12.3,3.5,9.5,17.2-3.3,13.8c-0.4-0.1-0.5-0.7-0.1-0.9c7.8-3.3,3.1-3-1.9-6.1
			c-0.3-0.2-0.4-0.3-0.6-0.4c-6.7-4.1,4.2-1.1,7.9-0.7c0.3,0.1,0.6-0.2,0.5-0.6c-0.3-1.7-1.9-3-2.9-4.5C128.3,0.6,128.7,0.1,129,0.2
			L129,0.2L129,0.2z"/>
	</g>
</g>
<g>
	<defs>
		
			<rect id="SVGID_00000068642735112237739600000016926042831139842458_" x="2" y="22.7" transform="matrix(0.9189 -0.3946 0.3946 0.9189 -10.9557 6.3884)" width="16.2" height="14.4"/>
	</defs>
	<clipPath id="SVGID_00000110435868588226963100000011639441380591550105_">
		<use xlink:href="#SVGID_00000068642735112237739600000016926042831139842458_"  style="overflow:visible;"/>
	</clipPath>
	<g style="clip-path:url(#SVGID_00000110435868588226963100000011639441380591550105_);">
		<path class="st1" d="M6.9,23.4c12.6-2.5,16.3,11,3.4,13.8c-0.4,0.1-0.8-0.4-0.5-0.8c5.4-6.5,1.4-4.1-4.5-4.6
			c-0.3-0.1-0.5-0.1-0.8-0.1c-7.9-0.7,3.2-2.9,6.7-4.2c0.3-0.1,0.4-0.5,0.2-0.7c-1-1.3-3-1.8-4.7-2.6C6.4,24.1,6.5,23.5,6.9,23.4
			L6.9,23.4L6.9,23.4z"/>
	</g>
</g>
<g>
	<defs>
		
			<rect id="SVGID_00000070077818135715358710000000444736725447208335_" x="60.6" y="12" transform="matrix(8.576468e-02 -0.9963 0.9963 8.576468e-02 41.9373 85.9469)" width="14.4" height="16.2"/>
	</defs>
	<clipPath id="SVGID_00000163049596253199735910000015176079096604110492_">
		<use xlink:href="#SVGID_00000070077818135715358710000000444736725447208335_"  style="overflow:visible;"/>
	</clipPath>
	<g style="clip-path:url(#SVGID_00000163049596253199735910000015176079096604110492_);">
		<path class="st1" d="M68,12.9c12.3,3.8,9.2,17.4-3.5,13.8c-0.4-0.1-0.4-0.8-0.1-0.9c7.9-3.2,3.2-3-1.9-6.1
			c-0.3-0.2-0.4-0.3-0.6-0.4c-6.7-4.3,4.2-1,7.9-0.5c0.3,0.1,0.6-0.2,0.5-0.6c-0.3-1.7-1.8-3-2.9-4.5C67.2,13.3,67.6,12.8,68,12.9
			L68,12.9L68,12.9z"/>
	</g>
</g>
</svg>
