<?xml version="1.0" encoding="utf-8"?>
<!-- Generator: Adobe Illustrator 28.1.0, SVG Export Plug-In . SVG Version: 6.00 Build 0)  -->
<svg version="1.1" id="_圖層_1" xmlns="http://www.w3.org/2000/svg" xmlns:xlink="http://www.w3.org/1999/xlink" x="0px" y="0px"
	 viewBox="0 0 281 65.1" style="enable-background:new 0 0 281 65.1;" xml:space="preserve">
<style type="text/css">
	.st0{clip-path:url(#SVGID_00000111907720546437588920000006788028013809322884_);}
	.st1{fill:#EF5C3F;}
	.st2{clip-path:url(#SVGID_00000022545412106135638550000004544912543996471937_);}
	.st3{clip-path:url(#SVGID_00000003081863462488550300000005331044668844676259_);}
	.st4{clip-path:url(#SVGID_00000125598989344550247340000009859320481902805153_);}
	.st5{clip-path:url(#SVGID_00000047782905620353319290000013625450179265920403_);}
	.st6{clip-path:url(#SVGID_00000072973499627447012780000000167404548671684275_);}
	.st7{clip-path:url(#SVGID_00000025429185180677630940000015341022566286146445_);}
	.st8{clip-path:url(#SVGID_00000133517070147833109200000011064817059166343588_);}
	.st9{clip-path:url(#SVGID_00000011726774625279407010000002392546290253281690_);}
	.st10{clip-path:url(#SVGID_00000124881496593945090650000013266116291877499551_);}
	.st11{clip-path:url(#SVGID_00000038374049199494052990000005560635181691483574_);}
</style>
<g>
	<g>
		<g>
			<defs>
				
					<rect id="SVGID_1_" x="525.9" y="-273.1" transform="matrix(0.9353 -0.354 0.354 0.9353 126.4856 175.4915)" width="34.1" height="30.2"/>
			</defs>
			<clipPath id="SVGID_00000043459324519866401540000001049579120160714655_">
				<use xlink:href="#SVGID_1_"  style="overflow:visible;"/>
			</clipPath>
			<g style="clip-path:url(#SVGID_00000043459324519866401540000001049579120160714655_);">
				<path class="st1" d="M537-271.6c26.7-4.1,33.3,24.7,5.8,29.4c-0.9,0.1-1.5-1-0.9-1.7c12-13.2,3.3-8.6-9.1-10
					c-0.7-0.1-1.1-0.1-1.6-0.2c-16.5-2.1,7.1-5.8,14.5-8.1c0.6-0.2,0.9-1,0.5-1.5c-2-2.9-6.2-4.1-9.5-6
					C535.9-270.2,536-271.4,537-271.6L537-271.6z"/>
			</g>
		</g>
	</g>
</g>
<g>
	<g>
		<g>
			<defs>
				
					<rect id="SVGID_00000163063339755762427100000001407617255361770663_" x="571.1" y="-327.5" transform="matrix(6.575610e-02 -0.9978 0.9978 6.575610e-02 857.4169 294.9335)" width="30.2" height="34.1"/>
			</defs>
			<clipPath id="SVGID_00000091693838600889408130000015177836501731326624_">
				<use xlink:href="#SVGID_00000163063339755762427100000001407617255361770663_"  style="overflow:visible;"/>
			</clipPath>
			<g style="clip-path:url(#SVGID_00000091693838600889408130000015177836501731326624_);">
				<path class="st1" d="M586.6-325.5c25.9,7.4,20,36.2-6.9,29.1c-0.9-0.2-1-1.5-0.1-1.9c16.4-7,6.6-6.4-4.1-12.9
					c-0.6-0.4-0.9-0.6-1.3-0.8c-14.2-8.7,8.9-2.3,16.6-1.4c0.7,0.1,1.2-0.5,1.1-1.2c-0.7-3.5-4-6.3-6.2-9.4
					C585-324.7,585.8-325.8,586.6-325.5L586.6-325.5L586.6-325.5z"/>
			</g>
		</g>
	</g>
</g>
<g>
	<g>
		<g>
			<defs>
				
					<rect id="SVGID_00000138571053995078865210000006944992655317573024_" x="319.2" y="-278.3" transform="matrix(0.9189 -0.3946 0.3946 0.9189 131.1438 111.3291)" width="34.1" height="30.2"/>
			</defs>
			<clipPath id="SVGID_00000030476403202973802440000009334265651913745828_">
				<use xlink:href="#SVGID_00000138571053995078865210000006944992655317573024_"  style="overflow:visible;"/>
			</clipPath>
			<g style="clip-path:url(#SVGID_00000030476403202973802440000009334265651913745828_);">
				<path class="st1" d="M329.6-276.7c26.4-5.2,34.3,23.2,7.1,29.1c-0.9,0.2-1.6-0.9-1-1.6c11.4-13.7,2.9-8.7-9.5-9.6
					c-0.7-0.1-1.1-0.1-1.6-0.1c-16.6-1.4,6.8-6.1,14.1-8.8c0.6-0.2,0.8-1,0.4-1.5c-2.2-2.8-6.4-3.8-9.8-5.5
					C328.6-275.2,328.7-276.5,329.6-276.7L329.6-276.7L329.6-276.7z"/>
			</g>
		</g>
	</g>
</g>
<g>
	<g>
		<g>
			<defs>
				
					<rect id="SVGID_00000093860172419952169210000009033167534092927360_" x="442.6" y="-300.7" transform="matrix(8.576731e-02 -0.9963 0.9963 8.576731e-02 701.049 196.757)" width="30.2" height="34.1"/>
			</defs>
			<clipPath id="SVGID_00000008141524553753037370000002685576360325847454_">
				<use xlink:href="#SVGID_00000093860172419952169210000009033167534092927360_"  style="overflow:visible;"/>
			</clipPath>
			<g style="clip-path:url(#SVGID_00000008141524553753037370000002685576360325847454_);">
				<path class="st1" d="M458.2-298.8c25.8,7.9,19.3,36.6-7.4,29c-0.9-0.3-0.9-1.6-0.1-1.9c16.6-6.7,6.7-6.3-3.9-12.9
					c-0.6-0.4-0.9-0.6-1.3-0.9c-14-9,8.9-2.1,16.6-1.1c0.7,0.1,1.2-0.5,1.1-1.2c-0.6-3.5-3.8-6.4-6-9.5
					C456.5-298,457.3-299.1,458.2-298.8L458.2-298.8L458.2-298.8z"/>
			</g>
		</g>
	</g>
</g>
<g>
	<g>
		<g>
			<defs>
				
					<rect id="SVGID_00000136381658097404998100000005713640871401569942_" x="47" y="16.3" transform="matrix(0.367 -0.9302 0.9302 0.367 10.9418 68.5522)" width="17.6" height="19.9"/>
			</defs>
			<clipPath id="SVGID_00000028320478952005723230000007230687053366701725_">
				<use xlink:href="#SVGID_00000136381658097404998100000005713640871401569942_"  style="overflow:visible;"/>
			</clipPath>
			<g style="clip-path:url(#SVGID_00000028320478952005723230000007230687053366701725_);">
				<path class="st1" d="M58.6,17.9c13,8.7,4.7,23.6-9,14.9c-0.4-0.3-0.2-1,0.3-1c10.3-1,4.8-2.4-0.1-7.9c-0.3-0.3-0.4-0.5-0.6-0.8
					c-6.3-7.4,5.2,0.3,9.4,2.2c0.3,0.1,0.8-0.1,0.8-0.5c0.3-2.1-1.1-4.2-1.7-6.3C57.6,18.1,58.2,17.7,58.6,17.9L58.6,17.9L58.6,17.9
					z"/>
			</g>
		</g>
	</g>
</g>
<g>
	<g>
		<g>
			<defs>
				
					<rect id="SVGID_00000049939672568474018280000007062287890642300574_" x="2.2" y="0.1" transform="matrix(0.1307 -0.9914 0.9914 0.1307 -0.3634 19.6359)" width="17.6" height="19.9"/>
			</defs>
			<clipPath id="SVGID_00000020381577956643420210000003538219176318169526_">
				<use xlink:href="#SVGID_00000049939672568474018280000007062287890642300574_"  style="overflow:visible;"/>
			</clipPath>
			<g style="clip-path:url(#SVGID_00000020381577956643420210000003538219176318169526_);">
				<path class="st1" d="M11.7,1.2C26.5,6.5,22,23,6.6,17.9c-0.6-0.1-0.5-0.9,0-1c9.8-3.4,4-3.4-1.9-7.7C4.4,8.9,4.2,8.8,4,8.6
					c-7.9-5.6,5.2-1,9.6-0.1c0.3,0.1,0.8-0.2,0.6-0.6c-0.2-2-2.1-3.7-3.2-5.7C10.8,1.6,11.2,1.1,11.7,1.2L11.7,1.2L11.7,1.2z"/>
			</g>
		</g>
	</g>
</g>
<g>
	<g>
		<g>
			<defs>
				
					<rect id="SVGID_00000063623262614353271600000015325374719738741648_" x="177.3" y="27" transform="matrix(0.3112 -0.9503 0.9503 0.3112 93.0447 202.2612)" width="17.6" height="19.8"/>
			</defs>
			<clipPath id="SVGID_00000175313028314428439380000003944284042809969068_">
				<use xlink:href="#SVGID_00000063623262614353271600000015325374719738741648_"  style="overflow:visible;"/>
			</clipPath>
			<g style="clip-path:url(#SVGID_00000175313028314428439380000003944284042809969068_);">
				<path class="st1" d="M188.4,28.4c13.6,7.9,6,23.4-8,15.5c-0.5-0.2-0.3-1,0.2-1.1c10.3-1.6,4.7-2.7-0.5-7.9
					c-0.3-0.3-0.4-0.4-0.6-0.7c-6.7-6.9,5.3,0,9.5,1.6c0.3,0.1,0.8-0.1,0.8-0.5c0.1-2.1-1.3-4.1-2.2-6.2
					C187.3,28.7,187.9,28.2,188.4,28.4L188.4,28.4L188.4,28.4z"/>
			</g>
		</g>
	</g>
</g>
<g>
	<g>
		<g>
			<defs>
				
					<rect id="SVGID_00000169550054545594909530000000758244445885947578_" x="93.9" y="14.3" transform="matrix(0.2416 -0.9704 0.9704 0.2416 54.3995 118.0765)" width="17.6" height="19.8"/>
			</defs>
			<clipPath id="SVGID_00000104706200043625126570000006824945577225388448_">
				<use xlink:href="#SVGID_00000169550054545594909530000000758244445885947578_"  style="overflow:visible;"/>
			</clipPath>
			<g style="clip-path:url(#SVGID_00000104706200043625126570000006824945577225388448_);">
				<path class="st1" d="M104.5,15.6c14,6.9,7.7,22.8-7,16c-0.5-0.2-0.4-0.9,0.2-1.1c10.2-2.4,4.4-3-1-7.8c-0.3-0.2-0.4-0.4-0.7-0.6
					c-7.2-6.5,5.3-0.4,9.5,0.9c0.3,0.1,0.8-0.2,0.8-0.6c-0.1-2.1-1.6-4-2.6-6C103.5,16,104,15.4,104.5,15.6L104.5,15.6L104.5,15.6z"
					/>
			</g>
		</g>
	</g>
</g>
<g>
	<g>
		<g>
			<defs>
				
					<rect id="SVGID_00000044157323565152223130000008730220518891420051_" x="260.9" y="23" transform="matrix(0.1808 -0.9835 0.9835 0.1808 188.5921 292.1303)" width="17.6" height="19.8"/>
			</defs>
			<clipPath id="SVGID_00000165205559040189322910000004009259669431304579_">
				<use xlink:href="#SVGID_00000044157323565152223130000008730220518891420051_"  style="overflow:visible;"/>
			</clipPath>
			<g style="clip-path:url(#SVGID_00000165205559040189322910000004009259669431304579_);">
				<path class="st1" d="M270.8,24.2c14.5,6,9.2,22.3-5.9,16.4c-0.5-0.2-0.5-0.9,0.1-1c10-2.9,4.2-3.3-1.6-7.7
					c-0.4-0.2-0.5-0.4-0.7-0.6c-7.6-6,5.3-0.7,9.6,0.3c0.3,0.1,0.8-0.3,0.7-0.6c-0.1-2-1.8-3.9-2.9-5.8
					C269.9,24.6,270.4,24,270.8,24.2L270.8,24.2L270.8,24.2z"/>
			</g>
		</g>
	</g>
</g>
<g>
	<g>
		<g>
			<defs>
				
					<rect id="SVGID_00000170247869102416959330000002926134548395641986_" x="220.9" y="45.2" transform="matrix(0.9649 -0.2626 0.2626 0.9649 -6.0855 62.5167)" width="19.8" height="17.6"/>
			</defs>
			<clipPath id="SVGID_00000127736489802704966940000005383984384477024935_">
				<use xlink:href="#SVGID_00000170247869102416959330000002926134548395641986_"  style="overflow:visible;"/>
			</clipPath>
			<g style="clip-path:url(#SVGID_00000127736489802704966940000005383984384477024935_);">
				<path class="st1" d="M228.2,45.7c15.7-0.8,17.9,16.1,1.7,17.4c-0.5,0-0.8-0.7-0.5-1c7.8-7,2.4-4.8-4.7-6.2
					c-0.4-0.1-0.6-0.1-0.9-0.2c-9.4-2.1,4.5-2.9,8.9-3.9c0.3,0,0.6-0.5,0.3-0.9c-1-1.8-3.3-2.7-5.2-4
					C227.4,46.4,227.7,45.7,228.2,45.7L228.2,45.7L228.2,45.7z"/>
			</g>
		</g>
	</g>
</g>
<g>
	<g>
		<g>
			<defs>
				
					<rect id="SVGID_00000119095308400536744580000013547939009007743663_" x="128.4" y="42.4" transform="matrix(0.998 -6.354448e-02 6.354448e-02 0.998 -2.9738 8.894)" width="19.8" height="17.6"/>
			</defs>
			<clipPath id="SVGID_00000140718576380633589500000014059509161245481910_">
				<use xlink:href="#SVGID_00000119095308400536744580000013547939009007743663_"  style="overflow:visible;"/>
			</clipPath>
			<g style="clip-path:url(#SVGID_00000140718576380633589500000014059509161245481910_);">
				<path class="st1" d="M137.4,42.5c15.6,2.3,14.3,19.5-1.8,17.3c-0.5-0.1-0.7-0.8-0.2-1.1c8.9-5.3,3.3-4.1-3.4-7.1
					c-0.3-0.1-0.5-0.2-0.9-0.3c-8.8-3.9,4.9-2,9.5-2.1c0.3,0,0.6-0.3,0.6-0.7c-0.6-1.9-2.7-3.3-4.4-4.9
					C136.6,43.1,137,42.5,137.4,42.5L137.4,42.5L137.4,42.5z"/>
			</g>
		</g>
	</g>
</g>
</svg>
