<?xml version="1.0" encoding="utf-8"?>
<!-- Generator: Adobe Illustrator 28.0.0, SVG Export Plug-In . SVG Version: 6.00 Build 0)  -->
<svg version="1.1" id="Objects" xmlns="http://www.w3.org/2000/svg" xmlns:xlink="http://www.w3.org/1999/xlink" x="0px" y="0px"
	 viewBox="0 0 188.6 92.6" style="enable-background:new 0 0 188.6 92.6;" xml:space="preserve">
<style type="text/css">
	.st0{fill:#FAF1E3;}
	.st1{enable-background:new    ;}
	.st2{fill:#4F442B;}
</style>
<g>
	<path class="st0" d="M186.8,50.4c0.2,3.7-0.6,7.2-2.2,10.5c-1.1,2.2-2,4.5-3.8,6.3c-3.1,3.1-6.6,5.7-10.3,8
		c-2.1,1.2-4.2,2.3-6.3,3.5c-3.4,2-7.1,3.1-10.8,4.3c-7.4,2.4-15.1,3.4-22.8,4.8c-5.3,1-10.6,1.2-15.9,1.4
		c-6.1,0.1-12.2,0.3-18.2,0.2c-4.6-0.1-9.2-0.5-13.8-0.8c-2.9-0.2-5.8-0.4-8.7-0.7c-1.1-0.1-2.2-0.5-3.4-0.8
		c-7.4,4.7-15.6,5.6-24.1,5.6c0.2-0.6,0.5-1.1,0.4-1.2c-0.8-0.7-0.2-1.2,0.3-1.6c1.5-0.9,2.4-2.3,3.4-3.7c0.9-1.2,1.5-2.6,2-4
		c0.5-1.3,0.9-2.7,1.4-4.2c-1.8-0.6-3.5-1.2-5.2-1.8c-3.7-1.3-7.4-2.8-10.8-4.8c-2.2-1.3-4.6-2.4-6.7-3.9c-4.1-2.9-8.5-5.5-11.6-9.6
		c-2.5-3.3-4.5-6.9-5.5-11C12.7,41,13.2,35.4,16,30c1.1-2.2,1.9-4.6,3.6-6.4c3.7-4.2,7.6-8.1,12.3-11.2c2.8-1.9,5.6-3.4,8.8-4.3
		c2.7-0.7,5.4-1.9,8.1-2.8c6.2-2,12.6-3.1,19.1-3.5C73.3,1.5,78.6,1,84,0.8c4.4-0.1,8.8,0,13.2,0.2c6.4,0.2,12.7,0.7,19,1.7
		c9.7,1.6,19.3,3.7,28.5,7.4c4.2,1.7,8.2,3.4,12.1,5.6c6.9,3.8,13.7,7.8,19.6,12.9c3.6,3.1,6.8,6.8,8.1,11.6
		C185.4,43.5,186.6,46.8,186.8,50.4L186.8,50.4z M180,65.9c2.9-4.1,4.9-8.5,5.4-13.6c0.1-0.4,0-0.9,0-1.3c-0.1-3.5-1.3-6.7-2.2-10
		c-1.3-4.6-4.1-8.1-7.6-11.1c-4.5-3.9-9.4-7.1-14.6-10c-3.7-2.1-7.4-4.4-11.3-6.2c-3.9-1.8-7.9-3.2-12-4.6c-6.8-2.4-13.9-3.7-21-4.9
		c-8.1-1.4-16.2-1.6-24.4-1.8c-2.5-0.1-5.1,0.3-7.6,0.1c-2.3-0.2-4.5-0.2-6.8,0c-1.8,0.1-3.6,0.2-5.4,0.3C69.4,3,66.3,3,63.2,3.4
		C57.6,4,52,4.7,46.8,6.9c-2.8,1.2-5.8,2-8.6,3.2c-1.5,0.6-2.9,1.4-4.2,2.3c-2,1.4-3.8,2.9-5.7,4.4c-3.3,2.5-5.8,5.7-8.4,8.9
		c-1.1,1.3-1.6,3.1-2.4,4.6c-2.8,5.5-3.4,11.2-1.6,17.1c2.1,6.8,6,12.1,12.1,15.8c0.7,0.4,1.4,1,2.1,1.5c1.5,1.1,2.9,2.2,4.4,3.1
		c1.6,1,3.3,1.7,5,2.6c1.5,0.8,3.1,1.7,4.7,2.3c3.6,1.4,7.2,2.8,11,4.2c0,5.3-2.1,9.9-6.2,14.2c1.2,0,2,0,2.7-0.1c2-0.2,4-0.5,6-0.9
		c3.8-0.7,7.5-1.7,10.8-3.7c1.1-0.7,2.2-1.4,3.4-0.3c0.2,0.2,0.5,0.1,0.8,0.2c5,0.4,9.9,0.8,14.9,1.1c1.2,0.1,2.5,0.2,3.7,0.2
		c5.3,0.1,10.6,0.2,15.9,0.1c6.4-0.2,12.9-0.2,19.2-1c6.9-0.8,13.6-2.4,20.4-3.8c6-1.2,11.7-3.2,17.2-6.1c5.2-2.7,9.9-5.9,14.4-9.6
		C179.1,66.9,179.6,66.4,180,65.9L180,65.9z"/>
	<path class="st0" d="M185.3,52.3c-0.5,5-2.5,9.5-5.4,13.6c-0.4,0.5-0.9,0.9-1.4,1.4c-4.5,3.7-9.2,6.9-14.4,9.6
		c-5.5,2.8-11.2,4.8-17.2,6.1c-6.8,1.4-13.6,2.9-20.4,3.8c-6.3,0.8-12.8,0.8-19.2,1c-5.3,0.1-10.6,0-15.9-0.1
		c-1.2,0-2.5-0.1-3.7-0.2c-5-0.4-10-0.7-14.9-1.1c-0.3,0-0.6,0-0.8-0.2c-1.3-1.2-2.3-0.4-3.4,0.3c-3.3,2-7,3-10.8,3.7
		c-2,0.3-4,0.6-6,0.9C51,91,50.3,90.9,49.1,91c4-4.3,6.2-8.8,6.2-14.2c-3.8-1.4-7.5-2.8-11-4.2c-1.6-0.7-3.1-1.5-4.7-2.3
		c-1.7-0.8-3.4-1.6-5-2.6c-1.5-0.9-3-2.1-4.4-3.1c-0.7-0.5-1.4-1-2.1-1.5c-6.1-3.7-10-9-12.1-15.8c-1.9-6-1.3-11.6,1.6-17.1
		c0.8-1.6,1.3-3.3,2.4-4.6c2.5-3.2,5.1-6.4,8.4-8.9c1.9-1.4,3.8-3,5.7-4.4c1.3-0.9,2.8-1.7,4.2-2.3C41,8.9,44,8,46.8,6.8
		C52,4.7,57.6,3.9,63.2,3.3c3.1-0.4,6.2-0.4,9.3-0.6c1.8-0.1,3.6-0.2,5.4-0.3c2.3-0.2,4.5-0.2,6.8,0c2.5,0.3,5.1-0.1,7.6-0.1
		c8.2,0.2,16.3,0.4,24.4,1.8c7.1,1.3,14.2,2.5,21,4.9c4,1.4,8.1,2.8,12,4.6s7.5,4.1,11.3,6.2c5.2,2.9,10.1,6.1,14.6,10
		c3.5,3,6.3,6.5,7.6,11.1c0.9,3.3,2,6.6,2.2,10C185.3,51.3,185.4,51.8,185.3,52.3L185.3,52.3z M167.8,71.6c2.6-0.3,3.3-1.2,3-3.2
		C169.5,69.2,168.6,70.2,167.8,71.6z M164.1,70.4c2.9,0.5,4.9-1.6,4.8-4.9c-0.3,0.1-0.7,0.1-0.9,0.3c-1.2,1.2-2.3,2.4-3.4,3.6
		C164.2,69.6,164.2,70,164.1,70.4z M46.2,13.1c2,0.7,3.7,0,5-1.6C49.4,11.6,47.8,12.4,46.2,13.1z M50.9,9.3c-2.8-0.2-5.5,0-7.8,2.1
		C44.6,12,47.7,11.1,50.9,9.3z"/>
	<path class="st0" d="M173.2,83.5c0.1,0.1,0.2,0.1,0.4,0.2c-0.3,0.5-0.6,1.1-1,1.4c-1.1,0.9-5.9,2.6-7.8,2.5
		C167.6,86.3,170.4,84.9,173.2,83.5L173.2,83.5z"/>
	<path class="st0" d="M173.6,79.1c0.5,1.6-0.1,2.5-1.1,3c-1.9,1-3.8,1.8-5.7,2.7c-0.3,0.1-0.6,0-1.3,0.1
		C168.2,82.6,171.6,82.1,173.6,79.1L173.6,79.1z"/>
	<path class="st0" d="M170.8,68.4c0.3,2-0.4,2.9-3,3.2C168.6,70.2,169.5,69.2,170.8,68.4z"/>
	<path class="st0" d="M168.8,65.5c0.2,3.3-1.8,5.3-4.8,4.9c0.1-0.4,0.2-0.8,0.4-1c1.1-1.2,2.3-2.4,3.4-3.6
		C168.1,65.6,168.5,65.6,168.8,65.5z"/>
	<path class="st0" d="M51.2,11.5c-1.3,1.6-3,2.2-5,1.6C47.8,12.4,49.4,11.6,51.2,11.5z"/>
	<path class="st0" d="M43.1,11.4c2.3-2.1,5-2.3,7.8-2.1C47.7,11.1,44.6,12,43.1,11.4z"/>
	<path class="st0" d="M15.1,17.2c0.2-0.1,0.4-0.2,1-0.5c-0.7,1.8-1.9,2.9-2.9,4C11,23.3,8.8,26,7.4,29.2c-0.3,0.8-0.5,1.6-0.7,2.4
		c-0.2,0.6-0.3,1.2-0.5,2c-1.4-1.4-1.1-2.8-0.6-4.2c1.3-3.9,3.8-7,6.8-9.8C13.3,18.8,14.2,18,15.1,17.2L15.1,17.2z"/>
	<path class="st0" d="M6.1,19.5c-1.7,3.2-3.4,6.4-5.2,9.9C0.1,26.3,1.7,23.3,6.1,19.5z"/>
</g>
<g class="st1">
	<path class="st2" d="M42.5,34.2L42.5,34.2h0.3c0.3,0.1,0.5,0.2,0.8,0.5c0.3,0.6,0.5,1,0.5,1.2s-0.2,0.5-0.6,0.8
		c-0.1-0.1-0.2-0.1-0.4-0.1c-0.1,0.1-0.2,0.1-0.3,0.1c-0.5-0.3-0.7-0.7-0.7-1.2c0,0,0-0.2-0.1-0.5C42.1,34.4,42.3,34.2,42.5,34.2z
		 M46.7,43.3L46.7,43.3c0.4,0,0.6,0.3,0.7,0.9v0.1v0.2l0,0c0.1,0,0.7-0.1,1.6-0.4h0.1c0.1,0,0.2,0.1,0.2,0.3c0,0.5-0.6,1-1.6,1.5
		c-0.7,0.2-1,0.4-1.1,0.6c-0.1,0.2-0.1,0.3-0.1,0.4l0,0c1.4,0.4,2.1,0.6,2,0.8c0.5,0.2,0.8,0.5,0.7,0.8c0,0.3-0.3,0.6-0.7,0.9H48
		c0,0-0.2,0-0.4,0s-0.6-0.4-1-1c0-0.2-0.1-0.5-0.4-1h-0.1c0,0.2-0.4,0.7-1.2,1.5c-0.3,0-0.5,0.1-0.7,0h-0.4c-0.4,0-0.6-0.4-0.6-1.1
		c0.3-0.5,0.7-0.9,1.1-1.3c0,0,0.1-0.1,0.2-0.4L44.4,46c-0.4,0.1-0.6,0.1-0.6,0.1c-0.9-0.3-1.3-0.6-1.3-0.8
		c-0.2-0.1-0.3-0.4-0.4-0.8c0.1-0.4,0.3-0.6,0.5-0.6c0.8,0.4,1.5,0.6,2.2,0.6h0.1c0.5,0,0.7,0,0.7-0.2c0-0.4,0.3-0.8,0.7-1.1
		C46.5,43.3,46.6,43.3,46.7,43.3z M45.2,37.2c0.4,0,0.6,0.1,0.5,0.3c0,0.1,0,0.1,0,0.1c-0.3,0.7-0.5,1.1-0.6,1.2v0.1
		c0.4,0.1,0.5,0.2,0.5,0.4v0.1c0.9-0.7,1.4-1,1.7-1s0.5,0.3,0.4,0.7c0,0.2-0.4,0.8-1.1,1.8c-0.2,0.1-0.3,0.3-0.3,0.4l0,0
		c0.5,0,1.1,0.1,2,0.1c-0.1,0.5-0.5,1-1.4,1.3l-1.5,0.2c-0.5-0.1-0.8-0.2-0.9-0.2c0,0-0.2,0-0.5,0c-0.4,0-0.6-0.5-0.6-1.3l0,0
		c0-0.1,0.4-0.5,1-1.1l0,0h-0.2c-0.3-0.1-0.5-0.2-0.5-0.2c-0.2,0-0.4,0-0.5,0s-0.4-0.2-0.6-0.6c-0.1-0.4-0.1-0.7-0.2-0.7
		c0-0.4,0.8-0.9,2.3-1.5C44.8,37.2,45,37.2,45.2,37.2z M43.3,35.7L43.3,35.7L43.3,35.7L43.3,35.7C43.4,35.8,43.4,35.7,43.3,35.7
		L43.3,35.7z M51.1,32.2c0.2,0,0.3,0.2,0.3,0.4c-0.1,0.8-1.1,1.3-3,1.5c-0.2,0-0.6,0-1.4,0c-0.5-0.1-0.8-0.2-1-0.2
		C45.8,34,45.5,34,45.4,34c-0.4-0.2-0.8-0.4-1.1-0.5c-0.5-0.4-0.8-0.8-0.7-1.1c0-0.1,0.1-0.1,0.3-0.2c0.1,0,0.7,0.1,1.7,0.3l1.1,0.1
		c0.7,0.1,1.6,0,2.6-0.1c0.2-0.1,0.7-0.2,1.5-0.4C50.8,32.1,50.9,32.1,51.1,32.2z M43.7,44.9L43.7,44.9L43.7,44.9L43.7,44.9
		L43.7,44.9z M44,47.5L44,47.5v0.2c0,0,0.1,0.1,0.3,0.1l0.1-0.1L44,47.5z M44.3,45.3L44.3,45.3L44.3,45.3L44.3,45.3
		C44.4,45.3,44.4,45.3,44.3,45.3L44.3,45.3z M45.1,40.7L45.1,40.7l0.3,0.1h0.2v-0.1h-0.2H45.1z M45.8,34.5c0.8,0.2,1.2,0.4,1.2,0.7
		s0,0.4,0.1,0.4c0,0.2-0.3,0.5-0.7,0.7c-0.1-0.1-0.2-0.1-0.3-0.1c-0.1,0.1-0.2,0.1-0.3,0.1c-0.4-0.3-0.6-0.7-0.6-1.3
		C45.2,34.7,45.4,34.6,45.8,34.5z M45.4,45.8L45.4,45.8l0.1,0.2v0.1c-0.1,0-0.1,0-0.1,0v0.1h0.2l0.5,0.1v-0.1
		c-0.2,0-0.4-0.1-0.4-0.3v-0.1h-0.1h-0.1C45.5,45.7,45.4,45.7,45.4,45.8z M45.7,40.1C45.7,40.2,45.7,40.2,45.7,40.1l0.2,0.1
		c0,0,0-0.1-0.1-0.1H45.7z M45.9,46.7L45.9,46.7c0.2,0,0.3,0,0.3-0.1s0-0.1-0.1-0.1C46,46.5,45.9,46.6,45.9,46.7z M46.3,44.3
		L46.3,44.3L46.3,44.3L46.3,44.3L46.3,44.3C46.3,44.2,46.3,44.2,46.3,44.3z M47.2,45.4L47.2,45.4c0,0.1,0,0.1,0.1,0.2l0,0
		c0,0,0.1,0,0.1-0.1v-0.1C47.3,45.4,47.3,45.4,47.2,45.4z M48.7,40.2c1.1,0.2,1.6,0.4,1.6,0.6c0.3,0.2,0.4,0.4,0.4,0.6
		c-0.2,0.5-0.3,0.8-0.4,0.8c-0.2,0-0.4,0-0.5,0.1C49.3,42,49,41.8,49,41.7c-0.3-0.4-0.5-0.8-0.4-1.2C48.5,40.3,48.6,40.3,48.7,40.2z
		 M49.4,34.4c0.7,0.1,1.1,0.3,1.1,0.6s-0.3,0.8-0.7,1.4c-0.1,0-0.1,0-0.1,0s-0.1,0-0.3-0.1c-0.1,0-0.2,0.1-0.2,0l0,0
		c-0.2,0-0.3-0.6-0.3-1.6C49,34.5,49.2,34.4,49.4,34.4z M55.1,33.4c0.3,0.1,0.5,0.2,0.5,0.4c-0.2,0.8-0.5,1.3-0.9,1.7l-0.7,1
		c0.4,0.5,0.5,1.4,0.3,2.7c0,0,0,0.3,0,0.8c0,0.1-0.1,0.7-0.2,1.7c-0.1,0.6-0.2,1.9-0.4,3.8c-0.1,0.9-0.2,1.6-0.2,2l-0.1,1.2
		c-0.3,0.8-0.7,1.1-1.2,1.1c-0.5-0.1-0.8-0.4-0.9-1.2l0.1-0.2c0.2-1.8,0.3-3,0.3-3.4c0.1-0.2,0.1-0.5,0.2-0.9l0.6-5.9
		c0-0.1,0-0.3,0.1-0.6l-0.1-0.1l-0.6-0.1c-0.4,0-0.6-0.4-0.5-1c0.2-0.4,0.5-0.7,1.1-1.1c1.4-1.3,2.2-1.9,2.4-1.9
		C55,33.4,55.1,33.4,55.1,33.4z M51.8,36.5L51.8,36.5L51.8,36.5L51.8,36.5L51.8,36.5z M51.9,36.3L51.9,36.3L51.9,36.3
		C52,36.3,52,36.3,51.9,36.3z M52,36.7L52,36.7C52,36.8,52,36.8,52,36.7L52,36.7L52,36.7z M52.3,36.4L52.3,36.4L52.3,36.4L52.3,36.4
		L52.3,36.4z M52.3,37L52.3,37L52.3,37C52.4,37,52.4,37,52.3,37z M52.3,45.4L52.3,45.4C52.3,45.5,52.3,45.5,52.3,45.4L52.3,45.4
		L52.3,45.4z M52.9,48L52.9,48c0,0.1,0,0.2,0.1,0.2h0.1c0-0.1,0-0.1,0-0.1L52.9,48L52.9,48z M52.9,46v0.2H53c0,0,0.1,0,0.1-0.1
		C53.1,46.1,53.1,46,52.9,46L52.9,46z M53.1,38L53.1,38L53.1,38C53.2,38.1,53.2,38.1,53.1,38l0.3,0.1h0.3l0.1,0.1v-0.1
		c-0.1,0-0.1-0.1-0.1-0.2h-0.1C53.4,38,53.3,38.1,53.1,38z M53.2,37.6L53.2,37.6l0.3,0.1l0,0h0.1h0.3v-0.2h-0.1l0,0
		c0,0-0.1-0.1-0.2-0.1v-0.1v-0.1l0,0C53.3,37.5,53.2,37.6,53.2,37.6z M53.5,36.8C53.5,36.8,53.5,36.9,53.5,36.8l0.2,0.1l0,0
		C53.7,36.9,53.7,36.8,53.5,36.8L53.5,36.8z M59.2,37.2c0.4,0,0.5,0.2,0.5,0.6c-0.2,0.7-0.5,1-1,1v0.1c0.1,0.4,0.1,0.9,0.1,1.7h0.1
		h0.5c0.2,0,0.3,0.2,0.3,0.5c0,0.4-0.4,0.7-1,1.1l-0.2,1.6l0,0c0.3-0.1,0.6-0.2,0.8-0.2h0.3c0.2,0,0.3,0.2,0.3,0.5
		c-0.1,0.5-0.6,0.9-1.5,1.2h-0.1c-0.1,0.3-0.1,0.6-0.1,0.7l-0.1,0.8c0,0.3-0.1,0.5-0.3,0.7l0,0l0.2,0.1h0.1l1.4-0.1
		c0.1-0.1,0.3-0.1,0.5-0.1h0.3c0.2,0,0.3,0.1,0.3,0.4c-0.3,0.9-0.7,1.2-1.4,1.2H58l0,0c-0.3-0.1-0.5-0.2-0.5-0.2h-0.1
		C56.8,49,56.6,49,56.6,49c-0.3-0.1-0.6-0.2-1-0.3c-0.7-0.2-1-0.5-1-0.7c0,0-0.1-0.1-0.1-0.4c0-0.2,0.2-0.2,0.5-0.2h0.1
		c0.2,0,0.6,0.1,1.1,0.2v-0.1C56.1,47.4,56,46.9,56,46l0.1-0.6c0,0,0-0.1-0.1-0.1c-0.3,0.1-0.4,0.1-0.5,0.1c-0.2,0-0.5-0.2-0.8-0.6
		c-0.1-0.2-0.1-0.4-0.1-0.7V44c0-0.1,0.1-0.2,0.2-0.2c0.2,0.1,0.4,0.1,0.6,0.1h0.5c0.3,0,0.5,0,0.5-0.1c0.1-1,0.2-1.6,0.2-1.9h-0.1
		C56.2,42,56,42,55.9,42c-0.5-0.2-0.9-0.4-0.9-0.6c-0.2-0.1-0.3-0.3-0.3-0.5s0.1-0.4,0.3-0.5c0.4,0.1,0.7,0.1,0.9,0.1l0.7,0.1
		c0,0,0-0.1,0.1-0.1c0-0.4,0-0.8,0.1-1.1v-0.1c0,0,0.1-0.2,0.1-0.6v-0.1l0,0h-0.3c-0.4-0.1-0.8-0.3-1.2-0.5
		c-0.2-0.3-0.2-0.6-0.2-0.9v-0.1c0-0.1,0.2-0.1,0.3-0.1h0.1c0.4,0,0.8,0.1,1.2,0.2c0.2,0,0.3,0,0.3,0h0.1c0.1,0,0.2,0,0.3,0l0.2,0.1
		l0,0L59.2,37.2z M55.5,44.8L55.5,44.8L55.5,44.8L55.5,44.8L55.5,44.8C55.5,44.7,55.5,44.8,55.5,44.8z M55.9,41.1L55.9,41.1l0.1,0.2
		h0.1c0.1,0,0.1,0,0.1-0.1L55.9,41.1z M56.6,45.3L56.6,45.3C56.7,45.4,56.7,45.3,56.6,45.3L56.6,45.3L56.6,45.3z M56.6,45.9
		L56.6,45.9L56.6,45.9L56.6,45.9L56.6,45.9z M56.9,46.5L56.9,46.5c0.1,0.1,0.2,0.1,0.3,0.1l0,0L56.9,46.5z M57.1,46.9L57.1,46.9
		L57.1,46.9c0.2,0.1,0.2,0.1,0.2,0H57.1L57.1,46.9z M57.1,46.3c0,0,0,0.1,0.1,0.2h0.1v-0.2C57.2,46.3,57.2,46.3,57.1,46.3
		C57.2,46.3,57.1,46.3,57.1,46.3z M57.5,34.3c1.1,0.2,1.6,0.5,1.6,1c0,0,0.1,0.1,0.1,0.2c0,0.2-0.2,0.5-0.6,0.8h-0.1h-0.2
		c0,0-0.1,0-0.3,0c-0.4-0.3-0.6-0.7-0.8-1.2c-0.1-0.2-0.1-0.4-0.1-0.5C57.1,34.4,57.3,34.3,57.5,34.3z M57.4,40.7L57.4,40.7
		c0.1,0.1,0.1,0.1,0.1,0.2c0.1,0,0.1,0,0.1,0v-0.1L57.4,40.7z M57.4,47L57.4,47l0.2,0.1l0,0L57.4,47z M57.5,46.5
		c0,0.1,0.1,0.2,0.1,0.2h0.1c0,0,0.1,0,0.1-0.1v-0.2l0,0C57.6,46.5,57.6,46.5,57.5,46.5z M58.9,38.1L58.9,38.1l-0.1,0.2H59
		L58.9,38.1L58.9,38.1z"/>
	<path class="st2" d="M80.4,34c0.5,0,0.7,0.3,0.6,0.9c-0.1,0.9-0.8,1.5-2.1,1.9h-0.1c-0.2-0.1-0.3-0.2-0.3-0.4l0.1-0.6
		c-0.2,0-0.9,0-2,0.1c-0.2,0-0.8,0-2,0.1l0,0v0.1c0.1,0,0.2,0.4,0.2,1.2v0.1c-0.3,2.2-0.6,3.3-0.9,3.5L73.8,41l0,0
		c0.6,0.3,2,0.6,4.4,1.1c0.4,0,1.5,0,3.3-0.2c0.4,0.1,0.6,0.3,0.6,0.5c-0.1,0.5-0.8,1-2.1,1.3c-0.3,0-0.4,0-0.4,0l-0.2-0.1h-0.2
		c-0.3,0-0.5-0.1-0.6-0.1c-0.4,0-0.8,0-1.2,0c-1.4-0.4-2.5-0.6-3-0.9v0.1c0.1,0.2,0.1,0.8,0.1,1.7l0,0c1,0,2.4-0.1,4-0.2h0.1
		c0.4,0,0.6,0.4,0.5,1l-0.6,2.2c-0.4,0.5-0.9,0.7-1.4,0.7c-0.1,0-0.2-0.1-0.4-0.2h-0.1c0,0.3-0.3,0.5-0.9,0.7
		c-1,0.3-1.7,0.4-2.1,0.4v0.4c-0.1,0.5-0.3,0.8-0.7,1c-0.1,0.1-0.3,0.1-0.5,0.1c-0.5-0.1-0.7-0.5-0.6-1.1c0-0.3,0-0.5-0.1-0.5
		c-0.3,0.1-0.5,0.1-0.7,0c-0.5-0.2-0.9-0.3-1.1-0.5c-0.3-0.3-0.5-0.6-0.5-0.7c0.1-0.1,0.3-0.1,0.4-0.1l0,0c0.5,0,1.1,0.1,1.8,0.2
		h0.2c0-0.2,0-0.3,0-0.3c0.1-0.1,0.2-0.7,0.3-1.8c-0.7-0.2-1.4-0.6-2.2-1.1c-0.2-0.3-0.3-0.5-0.3-0.6l0,0c0-0.1,0.2-0.1,0.7-0.1
		l1.4,0.3h0.4l0,0c0.1,0,0.2-0.1,0.2-0.3c0-0.3,0.1-0.7,0.1-1.2c0.1-0.4,0.3-0.7,0.5-0.6V42c-1.9-0.8-3-1.4-3.3-1.9
		c-0.1-0.1-0.3-0.4-0.5-0.8c-0.1,0-0.4,0.5-1,1.5c-0.2,0.3-0.7,0.8-1.7,1.4c-0.1,0-0.3,0.1-0.6,0.1c-0.6-0.1-0.9-0.3-0.9-0.7l0,0
		c0-0.3,0.6-0.9,1.6-1.8l2.1-2.7c0.4-0.3,0.6-0.5,0.7-0.5c0,0,0.1,0,0.2,0l0,0c0,0.1,0,0.3,0.2,0.5c0,0.1,0,0.2,0,0.2l-0.5,1.6
		c0.2,0.2,1.2,0.7,3.1,1.6h0.1c-0.1-0.4-0.1-0.8-0.1-1.3l0,0c0.1-0.2,0.2-0.6,0.3-1.1c0.1,0,0.1,0,0.1,0V38c0,0,0-0.1-0.1-0.1
		c0.2-1.3,0.4-2,0.5-2l0,0l0,0c-0.3,0-1.3,0-2.8-0.1c-1.3-0.1-2.3-0.5-2.9-1.1c-0.1-0.3-0.2-0.6-0.3-0.8c0.1-0.3,0.2-0.5,0.5-0.5
		c0.1,0,0.7,0.2,1.8,0.6h0.1c1.3,0.2,2,0.3,2.1,0.3c3,0.3,5.3,0.3,6.9-0.1C79.5,34.1,80.1,34,80.4,34z M65.7,41.2L65.7,41.2
		c0.3,0,0.4,0,0.4,0h0.1v-0.1c-0.1,0-0.1-0.1-0.1-0.2H66L65.7,41.2z M66.1,40.8L66.1,40.8c0.1,0.1,0.2,0.1,0.4,0.2
		c0.1,0,0.2,0,0.2-0.1s0-0.1-0.1-0.1l0,0l-0.2,0.1l0,0c0-0.1,0-0.1-0.1-0.2l0,0L66.1,40.8z M66.5,41.3L66.5,41.3L66.5,41.3
		L66.5,41.3L66.5,41.3z M67.6,42.6c0.5,0.1,0.9,0.4,1.2,1.1c0.1,0.2,0.1,0.5,0.1,0.6v0.1c0,0.4-0.1,1-0.1,2
		c-0.2,0.9-0.4,1.4-0.6,1.4l-0.8,0.1c-0.4,0-0.6-0.6-0.6-1.7c0-0.1,0-0.2,0.1-0.3c0.1-1.5,0.2-2.4,0.2-2.7
		C67.2,42.8,67.4,42.6,67.6,42.6z M76.2,50.7c0.1,0.1,0.2,0.2,0.2,0.4c-0.1,0.6-1.1,1-3.2,1.3c-0.4,0-0.9,0-1.7,0.1
		c-0.4-0.2-0.8-0.3-1.1-0.3c-0.3,0.1-0.6,0.1-0.8,0.1c-1.2-0.3-1.8-0.6-1.8-0.8c-0.3-0.3-0.4-0.5-0.4-0.7s0.1-0.3,0.3-0.3
		c1.4,0.5,2.5,0.7,3.2,0.8l0.7,0.1c0.1,0,0.3,0,0.5,0c0,0,0.1,0.1,0.2,0.1c0.9,0,1.8-0.1,2.8-0.4C75.5,50.7,75.8,50.7,76.2,50.7z
		 M67.8,44.9L67.8,44.9l0.3,0.1h0.2v-0.1h-0.2H67.8z M67.8,43.7L67.8,43.7l0.2,0.1l0,0C68,43.8,68,43.7,67.8,43.7L67.8,43.7z
		 M68.3,44.2L68.3,44.2l0.1,0.2h0.1v-0.1C68.4,44.3,68.3,44.3,68.3,44.2z M72.4,41.3L72.4,41.3L72.4,41.3L72.4,41.3L72.4,41.3z
		 M72.8,43.8V44c0,0,0.1,0,0.1,0.1l0,0c0,0,0.1,0,0.1-0.1L72.8,43.8L72.8,43.8z M73,41.6L73,41.6L73,41.6C73,41.7,73.1,41.7,73,41.6
		L73,41.6L73,41.6z M73.6,40.1C73.6,40.1,73.6,40.2,73.6,40.1c0.2,0.1,0.3,0,0.3,0l0,0H73.6C73.6,40,73.6,40,73.6,40.1z M73.8,37.1
		L73.8,37.1h0.3h0.2l0,0c0,0,0-0.1-0.1-0.1h-0.1C73.9,37,73.8,37,73.8,37.1z M74,46l-0.2,1.7c0.4,0,1.1-0.1,2.2-0.4
		c0.3,0,0.5-0.1,0.5-0.3c0.2-0.4,0.3-0.7,0.3-1c-0.1-0.1-0.3-0.1-0.6-0.1c-0.6,0-1.3,0-2.1,0C74.1,45.9,74,46,74,46z M73.9,42.1
		L73.9,42.1c0.1,0.1,0.2,0.1,0.4,0.1v-0.1l0,0h-0.1C74.1,42,74,42.1,73.9,42.1z M79,37.7c0.2,0,0.3,0.2,0.4,0.5
		c-0.3,0.8-0.7,1.3-1.1,1.2c-0.1,0-0.4,0.1-1,0.1c-0.2-0.1-0.4-0.2-0.5-0.2c-0.1,0.1-0.3,0.1-0.4,0.1c-0.2-0.1-0.4-0.2-0.7-0.3
		c-0.3-0.3-0.5-0.5-0.5-0.6v-0.2c0-0.3,0.3-0.5,0.9-0.4c0.8,0,1.2,0,1.2,0h0.1C78.3,37.8,78.9,37.7,79,37.7z M75.5,42.2L75.5,42.2
		L75.5,42.2L75.5,42.2L75.5,42.2z M76.2,42.2c0,0.1-0.1,0.1-0.4,0.1l0,0c0.2,0,0.3,0.1,0.3,0.1s0.1,0,0.2,0h0.1v-0.1
		C76.4,42.3,76.3,42.2,76.2,42.2z M77.6,49.7h0.2c0.4,0.1,0.9,0.4,1.3,0.8c0.3,0.3,0.4,0.9,0.3,1.8c0,0,0,0.1,0,0.3
		c-0.2,0.7-0.5,1.1-0.9,1c-0.2,0-0.4,0-0.6,0.1c-0.3-0.1-0.5-0.5-0.7-1.4c0.1-0.1,0.1-0.2,0.1-0.3c0-0.3,0-1-0.1-2.2h0.2
		C77.5,49.7,77.5,49.7,77.6,49.7z M77.3,35.4L77.3,35.4l0.2,0.1l0,0C77.5,35.4,77.5,35.3,77.3,35.4C77.4,35.3,77.3,35.3,77.3,35.4z
		 M78,51.2L78,51.2L78,51.2c0.2,0.1,0.2,0.1,0.2,0l0,0H78z M78.1,46L78.1,46c0.1,0.1,0.2,0.1,0.3,0.1V46c0,0-0.1,0-0.1-0.1L78.1,46z
		 M78.1,44.7L78.1,44.7L78.1,44.7c0.1,0.1,0.2,0.1,0.2,0H78.1L78.1,44.7z M78.2,51L78.2,51L78.2,51L78.2,51l0.2,0.1
		c0,0,0.1,0,0.1,0.1v0.1h-0.1v0.1h0.3l0.4,0.1l0,0c0-0.1-0.1-0.2-0.3-0.2v-0.1l0.1-0.1c-0.1,0-0.1-0.1-0.1-0.1
		C78.4,51,78.3,51,78.2,51z M80,34.5L80,34.5l0.2,0.1l0.4,0.1v-0.1c0,0-0.1-0.1-0.4-0.2l0,0C80.2,34.5,80.1,34.5,80,34.5z"/>
	<path class="st2" d="M92.7,39.4c0.3,0.1,0.4,0.2,0.4,0.5c-0.1,0.7-0.9,1.1-2.4,1.2c-0.2,0-0.6,0-1.1,0c-0.4-0.1-0.7-0.2-0.8-0.2
		L88.3,41c-0.6-0.2-1.1-0.5-1.5-0.8c-0.2-0.2-0.3-0.3-0.3-0.6v-0.2c0-0.1,0.2-0.1,0.3-0.1h0.4c0.1,0,0.1,0,0.1,0l0.2,0.1
		c0.4,0,1,0.1,1.7,0.3c1.4,0,2.1,0,2.1-0.2c0,0,0.1,0,0.2,0.1L92.7,39.4z M87.2,47.6c0.5,0.2,0.8,0.6,1,1c1.6,0.1,2.8,0.1,3.3,0h0.3
		c0.6,0.1,0.8,0.5,0.7,1.2c-0.1,1.4-0.6,2.5-1.5,3.2c-0.1,0-0.4,0.1-0.9,0.2c-0.3-0.1-0.5-0.2-0.5-0.4c0,0-0.3,0.1-0.8,0.4
		c-0.2,0-0.3,0.1-0.5,0.1L88,53.1h-0.1c-0.1,0.1-0.2,0.1-0.3,0.1c-0.2-0.2-0.3-0.4-0.3-0.5c0,0-0.2,0-0.5,0
		c-0.3-0.2-0.4-0.4-0.4-0.6c-0.1-0.1-0.1-0.4-0.1-1.1l0,0l0.1-0.2v-0.2c0-0.4,0-1.3,0-2.6C86.6,47.7,86.9,47.6,87.2,47.6L87.2,47.6z
		 M91.9,45.1c0.2,0,0.3,0.2,0.4,0.5c-0.1,0.5-0.6,1-1.5,1.2l-1.7,0.1c-0.2-0.1-0.4-0.2-0.6-0.2s-0.3,0-0.5,0.1
		c-0.7-0.2-1.2-0.5-1.4-0.8c-0.2-0.2-0.2-0.4-0.2-0.5c0-0.3,0.2-0.5,0.5-0.4l0,0c1,0.2,1.7,0.3,2,0.4C89.9,45.5,90.9,45.3,91.9,45.1
		C91.8,45.1,91.8,45.1,91.9,45.1z M86.9,50.5L86.9,50.5c0.1,0.2,0.1,0.3,0.2,0.3c0-0.1,0-0.2,0.1-0.2c0,0,0-0.1-0.1-0.1
		S86.9,50.5,86.9,50.5z M92,42.4c0.2,0,0.4,0.2,0.3,0.5c-0.1,0.6-0.7,1-1.9,1.1c0,0-0.1,0.1-0.3,0.1C89.9,44,89.8,44,89.7,44h-0.2
		h-0.6c-0.5-0.1-1-0.3-1.6-0.5c-0.3-0.5-0.4-0.8-0.4-1s0.2-0.4,0.5-0.3l0,0c1.1,0.2,1.7,0.4,1.9,0.4h0.1c0.1,0,0.2,0.1,0.3,0.1h0.2
		c0.1,0,0.7-0.1,1.7-0.2C91.8,42.4,92,42.4,92,42.4z M87.1,50.9L87.1,50.9c0,0.1,0,0.1,0.1,0.2L87.1,50.9
		C87.2,50.9,87.2,50.9,87.1,50.9L87.1,50.9z M87.4,50.6L87.4,50.6c0.1,0,0.2,0,0.2,0H87.4C87.5,50.6,87.4,50.6,87.4,50.6z
		 M87.6,46.1L87.6,46.1L87.6,46.1L87.6,46.1L87.6,46.1z M87.8,51.8L87.8,51.8L87.8,51.8C87.9,51.9,87.9,51.8,87.8,51.8L87.8,51.8
		L87.8,51.8z M88.3,46L88.3,46c0,0.1,0,0.2,0.1,0.2l0,0c0,0,0.1,0,0.1-0.1V46H88.3z M88.4,50.2L88.4,50.2c0,0.8,0,1.2,0,1.5
		l-0.1,0.5l0,0c0.2,0,0.6,0,1.2-0.2c0.1,0.1,0.2,0.1,0.3,0.1l0.5-1.6c0-0.1,0-0.1-0.1-0.1c-0.3,0-0.6,0-0.8,0L88.4,50.2z M90,36.3
		h0.3c0.4,0,0.8,0.3,1.3,0.7c0.4,0.4,0.5,0.8,0.5,1.1s-0.2,0.6-0.6,1L91,39c-0.1,0-0.2,0-0.3,0c-0.2,0-0.5-0.3-0.8-0.9L89.4,37v-0.2
		C89.5,36.5,89.7,36.3,90,36.3z M89.8,43.3L89.8,43.3l-0.1,0.2h0.1c0,0,0.1,0,0.1-0.1C90,43.4,89.9,43.4,89.8,43.3z M90.7,46
		L90.7,46h0.2l0.3,0.3c0.2,0,0.2,0,0.2-0.1c-0.1-0.2-0.2-0.3-0.4-0.3C90.9,45.9,90.7,45.9,90.7,46z M90.9,43.4L90.9,43.4L90.9,43.4
		L90.9,43.4L90.9,43.4z M97.3,43.6c0.3,0.1,0.7,0.1,1,0.2l0,0c0.1,0,0.1,0,0.2,0c0.5,0.1,1.4,0.3,2.8,0.5c0.6,0.2,0.9,0.5,0.8,0.7
		c0.1,0.3,0.1,0.5,0.1,0.8V46c-0.1,1-0.5,1.9-1.2,2.5c-0.6,0.1-0.9,0.2-1.1,0.2l0,0c0.5,0.4,0.7,0.8,0.6,1c0.1,0,0.1,0.5,0,1.4
		c0,0,0.1,0.1,0,0.4l-0.1,0.7v0.3h0.3c0.5,0.1,0.9,0,1.1-0.1c0.4-0.3,0.7-0.5,0.9-0.5c0.2,0.1,0.3,0.3,0.2,0.5
		c-0.1,1.1-0.7,1.8-1.8,2.1l-1.1-0.1c-0.2,0-0.3,0-0.5,0c-0.4,0-0.7-0.4-1.1-1.2L98.2,52c0-0.2,0-0.3,0.1-0.5c0-0.7,0.1-1.3,0.2-1.8
		v-0.2l0.1-0.3l0,0c-0.4,0-0.8,0-1.1,0.1v0.3c-0.1,0.8-0.5,1.7-1.2,2.8c-0.6,0.7-1,1-1.2,1c-0.3,0-0.5,0-0.8,0l0,0
		c-0.4,0-0.6-0.4-0.6-1.1c0-0.2,0.3-0.5,0.9-0.9c0.1,0,0.6-0.5,1.5-1.6l0.4-0.5v-0.1h-0.1c-0.5-0.2-0.9-0.4-1.1-0.6
		c-0.3-0.5-0.4-0.9-0.5-1.3c0-0.2,0-0.8,0.1-1.8c0.1-0.9,0.3-1.4,0.4-1.5c0.5,0.3,0.8,0.4,0.9,0.4C96.5,43.9,96.8,43.6,97.3,43.6
		L97.3,43.6z M97.7,39c0.2,0.1,0.3,0.3,0.3,0.5c-0.1,0.6-0.3,1.2-0.8,1.9c-0.1,0.4-0.6,0.9-1.5,1.6c-0.2,0-0.3,0-0.3,0l-0.7-0.1
		c-0.4,0-0.6-0.4-0.7-1.2v-0.1c0-0.4,0.2-0.6,0.6-0.6c0.5-0.3,1.3-1,2.4-1.9C97.4,39,97.6,39,97.7,39z M95.2,52.3L95.2,52.3
		L95.2,52.3L95.2,52.3L95.2,52.3z M96.4,51.1L96.4,51.1L96.4,51.1C96.4,51.2,96.4,51.2,96.4,51.1l0.4,0.1v-0.1H96.4z M96.8,45.2
		c0.1,0,0.2,0.6,0.2,1.6v0.9c-0.1,0.2-0.1,0.3-0.1,0.3h0.2c1.6,0,2.4-0.1,2.4-0.2c0.4-0.5,0.6-0.9,0.6-1.2v-0.3
		c0-0.3-0.2-0.5-0.8-0.5c-0.9-0.3-1.7-0.5-2.2-0.8C96.8,45.1,96.8,45.1,96.8,45.2z M98.9,52.9L98.9,52.9L98.9,52.9l0.3,0.2h0.2V53
		c0,0,0-0.1-0.1-0.1h-0.1l0,0C99,52.9,99,52.9,98.9,52.9z M98.9,52.1C98.9,52.1,98.9,52.2,98.9,52.1l0.2,0.1v-0.1H98.9L98.9,52.1z
		 M99,53.3C99,53.3,99.1,53.3,99,53.3l0.3,0.1l0,0c-0.1,0-0.1-0.1-0.1-0.2L99,53.3C99,53.2,99,53.2,99,53.3z M99.4,39
		c0.6,0.1,1.3,0.4,2.2,0.7c0.6,0.2,1.2,0.4,2,0.6c0.2,0.1,0.8,0.3,1.7,0.4c0.2,0.2,0.3,0.4,0.2,0.7c-0.1,0.5-0.5,0.9-1.2,1.2
		c-0.6,0-0.9,0-1.1,0c-0.1,0-0.3-0.2-0.3-0.6c-0.1,0-0.6-0.3-1.4-0.7c0-0.1-0.5-0.6-1.5-1.5C99.5,39.6,99.4,39.4,99.4,39z
		 M99.4,53.1L99.4,53.1c0.1,0,0.2,0,0.2-0.1c0,0,0-0.1-0.1-0.1C99.5,53,99.5,53,99.4,53.1z M99.5,53.5L99.5,53.5L99.5,53.5
		L99.5,53.5L99.5,53.5z M100.1,44.6L100.1,44.6L100.1,44.6L100.1,44.6L100.1,44.6z M101,47L101,47h0.2l0.3,0.2l0.1-0.1v-0.2
		c0,0-0.1,0-0.2-0.1C101.1,46.9,101,47,101,47z"/>
	<path class="st2" d="M121.9,40.6c0.5,0.1,0.8,0.5,0.7,1.2c-0.1,0.7-0.8,1.6-2.1,2.9c-0.3,0.1-0.5,0.2-0.5,0.2V45
		c0.4,0.3,0.6,1,0.5,2c0,0,0,0.1,0,0.4c-0.2,2.1-0.8,4.2-1.8,6.3c-0.4,1.3-1.1,1.9-2,1.8h-0.2c-0.6-0.1-1.3-0.8-2.1-2.2
		c-0.1-0.1-0.2-0.3-0.2-0.7c0.1-0.3,0.2-0.4,0.5-0.4c0.6,0.2,1.2,0.5,1.9,1.1l0,0c1-2.3,1.6-3.9,1.7-4.8c0-0.3,0.1-0.6,0.1-1
		c0-0.1,0.1-0.3,0.1-0.5c-0.1-0.8-0.2-1.2-0.3-1.2c-0.4-0.1-0.5-0.2-0.5-0.2c0-0.3,0.3-0.5,0.7-0.6c0.2-0.3,0.6-0.7,1.1-1.2
		c0.2-0.2,0.3-0.3,0.3-0.4c0-0.1-0.1-0.2-0.4-0.5c-0.2,0-0.4,0-0.4,0h-0.1c-0.3,0-0.9-0.1-1.8-0.1c-0.9-0.2-1.9-0.6-3.1-1.4
		c-0.3-0.3-0.4-0.6-0.4-0.9l0.1-0.3c1.3,0.4,2.6,0.7,3.9,0.8c0,0,0.1,0.1,0.4,0.1C119.6,40.7,120.9,40.6,121.9,40.6z M117,41.3
		L117,41.3c0.2,0,0.3,0,0.3,0v-0.1c0,0,0-0.1-0.1-0.1C117.1,41.1,117,41.2,117,41.3z M118.1,50.6L118.1,50.6L118.1,50.6L118.1,50.6
		L118.1,50.6z M118.9,51.1L118.9,51.1C119,51.1,119,51.1,118.9,51.1l0.2,0.1v-0.1V51L118.9,51.1L118.9,51.1z M119,48.5L119,48.5
		L119,48.5L119,48.5L119,48.5z M119.6,48.9L119.6,48.9L119.6,48.9L119.6,48.9C119.7,48.9,119.7,48.8,119.6,48.9
		C119.6,48.8,119.6,48.9,119.6,48.9z M120.5,43.1L120.5,43.1L120.5,43.1c0.2,0.1,0.2,0.1,0.3,0.1l0,0c0,0,0-0.1-0.1-0.1H120.5z
		 M120.9,43.6L120.9,43.6L120.9,43.6L120.9,43.6L120.9,43.6z"/>
</g>
<g class="st1">
	<path class="st2" d="M141.9,53.4c0.9,0.2,1.3,0.6,1.3,1c0.2,0.5,0.2,1,0.2,1.3v0.5l0,0c0.3,0,1.4-0.2,3.3-0.7h0.1
		c0.2,0,0.3,0.2,0.3,0.6c-0.1,0.6-0.5,1-1.2,1.2c-0.5,0.1-1.4,0.2-2.7,0.2c0,0.4,0,0.7-0.1,0.8c0,0.1-0.1,0.5-0.2,1.1v0.2
		c-0.1,0.7-0.6,1-1.5,0.9c-0.4,0-0.7-0.5-0.7-1.4c0-0.1,0.1-0.2,0.1-0.3l0,0c0-0.3,0-0.6,0-0.8c0.1-0.2,0.1-0.3,0.1-0.4l0,0
		c-0.1,0-0.4,0-0.8,0c-0.5-0.1-1.1-0.2-1.9-0.3c-0.9,0-1.5,0-1.8,0c0,0.1-0.4,0.5-1.1,1.4c-0.1,0.3-0.5,0.4-1.1,0.3l0,0
		c-0.5-0.1-0.7-0.3-0.7-0.7c-0.1-0.2-0.1-0.4-0.1-0.5c0-0.2,0.2-0.5,0.5-0.9v-0.1c-2-0.2-3-0.7-3.3-1.6v-0.3c0-0.2,0.1-0.3,0.3-0.4
		c1.9,0.6,3.2,1,3.9,1.2c0.2-0.2,0.3-0.7,0.5-1.6c0.2-0.3,0.4-0.4,0.8-0.5c0.1,0,0.2-0.1,0.3,0c0.7,0.1,1,0.4,0.9,0.8
		c0,0.1,0,0.4,0,0.8c-0.1,0.4-0.2,0.7-0.4,1.1l0,0c0.1,0,0.4,0.1,1,0.2c0.3,0,0.5,0,0.6,0c0.2,0,0.4,0.1,0.6,0.1h0.1
		c0.6,0.1,1.2,0.1,1.8,0l0,0c0-1,0-1.8,0-2.5l0,0C141.1,53.6,141.3,53.4,141.9,53.4z M138.6,40.3c0.3,0.1,0.4,0.2,0.4,0.5
		c0,0.4-0.3,0.7-0.7,1c-0.4,0.1-0.9,0.1-1.5,0.2c-0.2-0.1-0.4-0.2-0.4-0.2v0.1c0.5,0.2,0.9,0.6,1.2,1c0.2,0.2,0.2,0.4,0.2,0.6
		c0,0.2-0.2,0.5-0.6,0.8c-0.1-0.1-0.2-0.1-0.4-0.1h-0.3h-0.1c-0.5-0.4-0.7-0.7-0.7-1c0,0-0.1-0.3-0.1-0.8c0-0.1,0.1-0.2,0.1-0.5
		c-0.1-0.1-0.1-0.1-0.2-0.1h-0.2c-0.1-0.1-0.2-0.1-0.3-0.1c-0.5,0.9-1,1.6-1.5,2.2h-1c-0.2,0-0.4-0.3-0.6-0.9v-0.5
		c0-0.2,0.2-0.4,0.5-0.6l1.3-1.6c0.2-0.1,0.4-0.2,0.7-0.3l0.2,0.1l0,0h0.2c0.3,0,0.5,0.3,0.4,0.9l0,0
		C136.7,40.6,137.9,40.4,138.6,40.3z M132.2,55.4L132.2,55.4L132.2,55.4L132.2,55.4L132.2,55.4z M132.5,55.5L132.5,55.5l0.1,0.1
		c0,0,0.1,0,0.1-0.1c-0.1,0-0.1,0-0.1-0.1C132.6,55.5,132.5,55.6,132.5,55.5z M133.1,56L133.1,56L133.1,56l0.3,0.1V56
		c0,0,0-0.1-0.1-0.1C133.2,56,133.1,56,133.1,56z M144,45.1c0.4,0,0.5,0.8,0.4,2.3c0,0.1,0,0.3,0,0.4c-0.5,3-0.8,4.5-0.9,4.5
		c-0.3,0.5-0.7,0.7-1,0.7c-0.4,0-0.6-0.4-0.5-1.2l0,0l0,0c-0.3,0.4-0.8,0.7-1.4,0.9c-0.5,0.2-1,0.2-1.6,0.1c0,0-0.2,0.1-0.5,0.1
		c-0.2-0.1-0.4-0.2-0.5-0.2h-0.1c-0.4,0-0.6,0-0.6,0c-0.6-0.2-1-0.5-1.2-0.8l0,0c-0.1,0.6-0.5,0.8-1.3,0.8c-0.5-0.1-0.8-0.9-0.8-2.4
		c0.1-0.2,0.1-0.4,0.1-0.5v-0.3c0.1-0.8,0.2-1.9,0.4-3.4c0.2-0.4,0.4-0.6,0.7-0.6c0.8,0.2,1.2,0.5,1.2,0.8c0,0,0.1,0.3,0.1,0.8
		c0.1,0,0.3,0,0.6,0c0.2,0.1,0.7,0.2,1.7,0.3c0.2,0,0.4,0,0.4,0l0,0c0.4,0,1.1,0,2.2-0.1l0,0c0.1,0,0.1,0.1,0.1,0.4
		c-0.6,0.6-1.3,0.9-1.9,0.8c0,0,0,0-0.1,0s-0.2-0.1-0.3-0.1c0,0-0.3,0-0.7,0.1c-0.2-0.1-0.4-0.2-0.5-0.2h-0.1l-0.6,0.1
		c-0.5-0.1-0.8-0.3-1-0.6h-0.1c0,0.3-0.1,0.5-0.1,0.7c-0.1,0.8-0.1,1.5-0.2,2.1l-0.1,0.6v0.1h0.2c0.5,0.3,1,0.4,1.2,0.4l1,0.1
		c0.3,0,0.5,0,0.8-0.1h0.1l0,0l1.6-0.2c0.4-0.1,0.6-0.1,0.8-0.1h0.2c0.1-0.4,0.2-0.8,0.2-1l0.1-0.6c0.2-0.7,0.3-1.4,0.4-2.3l0,0
		c0.1-0.2,0.2-0.6,0.3-1.2c-1.5,0.3-2.6,0.4-3.2,0.4c-1.5-0.2-2.3-0.4-2.6-0.5l-0.3,0.1c-0.3,0-0.5-0.4-0.4-1
		c-0.1,0-0.1-0.1-0.1-0.3c0.1-0.4,0.3-0.5,0.6-0.5c2,0.4,3.2,0.6,3.4,0.7C141.3,45.3,142.5,45.2,144,45.1z M134.4,49.1L134.4,49.1
		l0.2,0.1v-0.1H134.4z M141.8,49.3l0.2,0.2l0,0c-0.1,0.5-0.9,0.8-2.6,0.9l-0.2-0.1c-0.4,0-0.6,0.1-0.7,0c-0.3-0.1-0.4-0.2-0.5-0.2
		h-0.1c-0.3,0.1-0.4,0.1-0.4,0.1c-0.7-0.3-1-0.6-1-1c0-0.1,0.2-0.1,0.5-0.2c0.2,0.1,0.3,0.2,0.4,0.2l0.7,0.1c0.7,0.1,1.7,0,2.8-0.1
		C140.9,49.2,141.2,49.2,141.8,49.3z M138.3,41.1L138.3,41.1L138.3,41.1C138.3,41,138.3,41.1,138.3,41.1z M138.9,45.7h-0.3v0.1
		c0.2,0,0.4,0.1,0.4,0.2l0,0l0,0v-0.1c0,0,0.1,0,0.1-0.1l0,0H139L138.9,45.7z M139.1,46.1C139.1,46.2,139.1,46.2,139.1,46.1
		L139.1,46.1h0.1H139.1z M139.5,45.8L139.5,45.8L139.5,45.8L139.5,45.8L139.5,45.8z M141.9,39.9c0.6,0.1,1,0.4,0.9,0.8
		c0.1,0.2,0.1,0.3,0.1,0.4c0,0,0,0.2-0.1,0.4c0.7,0.1,1.7-0.1,3.1-0.4c0,0,0.4-0.1,1.1-0.2c0.2,0.1,0.4,0.2,0.3,0.4
		c-0.3,0.7-0.7,1.1-1.1,1.1c-0.3,0.1-0.7,0.1-1.1,0.1v0.1l0.7,0.2h0.1l0,0c0.9,0.3,1.4,0.6,1.4,0.8c0,0.1,0,0.1,0,0.1
		c0,0.3-0.3,0.5-0.8,0.7l-0.4-0.2c-0.2,0.1-0.4,0.1-0.5,0.1c-0.6-0.3-1-0.4-1-0.5c-0.5-0.5-0.7-1-0.7-1.4l0,0l0,0
		c-0.2,0-0.3,0-0.3,0l0,0c-0.4-0.1-0.7-0.2-0.9-0.3l0,0c-0.2,0.7-0.6,1.3-1,1.7c-0.2,0-0.5,0-0.8,0c-0.4-0.1-0.5-0.6-0.5-1.4
		c0.2-0.2,0.4-0.8,0.8-1.8C141.2,40.2,141.5,39.9,141.9,39.9C141.8,39.9,141.9,39.9,141.9,39.9z M140.7,46.2L140.7,46.2l0.2,0.1l0,0
		C140.9,46.3,140.9,46.2,140.7,46.2L140.7,46.2z M141.4,57.9L141.4,57.9c0,0.3,0.2,0.3,0.4,0.4v-0.1l0,0
		C141.8,58.2,141.7,58.1,141.4,57.9L141.4,57.9z M141.8,55.7L141.8,55.7l0.1,0.1c0.1,0,0.1,0,0.1-0.1H141.8L141.8,55.7z M141.8,40.6
		L141.8,40.6c0,0.1,0,0.2,0.1,0.2h0.1c0-0.1,0.1-0.1,0.1-0.1l-0.1-0.1C141.9,40.6,141.8,40.6,141.8,40.6z M142.4,54.2L142.4,54.2
		c0,0.1,0,0.1,0.1,0.2c0.1,0,0.1,0,0.1,0v-0.1L142.4,54.2z M142.5,56.4L142.5,56.4l0.1,0.1c0,0,0.1,0,0.1-0.1l0,0H142.5z
		 M142.6,51.2L142.6,51.2l0.3,0.1h0.2v-0.1h-0.2H142.6z M142.6,56.3L142.6,56.3l0.3,0.1v-0.1H142.6
		C142.7,56.2,142.6,56.2,142.6,56.3z M142.7,50L142.7,50l0.1,0.1l0,0C142.8,50,142.8,50,142.7,50L142.7,50z M143.1,50.6
		C143.2,50.7,143.2,50.7,143.1,50.6l0.2,0.1v-0.1H143.1C143.2,50.6,143.2,50.6,143.1,50.6z M143.4,57.2L143.4,57.2
		c0.2,0,0.3,0,0.3,0v-0.1c0,0,0-0.1-0.1-0.1C143.5,57,143.5,57,143.4,57.2z M145.2,56.5L145.2,56.5L145.2,56.5L145.2,56.5
		L145.2,56.5z M145.6,56.6L145.6,56.6L145.6,56.6L145.6,56.6L145.6,56.6z"/>
	<path class="st2" d="M157.8,56.6c0.3,0,0.5,0.2,0.7,0.4c0.2,0.3,0.3,0.6,0.2,0.9c-0.1,0.4-0.2,0.6-0.5,0.8
		c-0.2,0.2-0.5,0.2-0.8,0.2c-0.3-0.1-0.5-0.2-0.7-0.5c-0.2-0.2-0.2-0.5-0.2-0.9c0.1-0.4,0.2-0.6,0.5-0.8
		C157.2,56.6,157.5,56.6,157.8,56.6z M158.5,55.3c-0.1,0.1-0.2,0.3-0.3,0.4c-0.1,0.1-0.2,0.1-0.3,0.1s-0.2-0.1-0.2-0.2
		c-0.1-0.2-0.1-0.4-0.2-0.5c0.2-3.1,0.3-5.5,0.3-7s0.3-2.6,0.9-3.2c0.6-0.6,1.2-0.5,1.7,0.3C161,45.9,160.3,49.3,158.5,55.3z"/>
</g>
</svg>
