<?xml version="1.0" encoding="utf-8"?>
<!-- Generator: Adobe Illustrator 28.3.0, SVG Export Plug-In . SVG Version: 6.00 Build 0)  -->
<svg version="1.1" id="_圖層_2" xmlns="http://www.w3.org/2000/svg" xmlns:xlink="http://www.w3.org/1999/xlink" x="0px" y="0px"
	 viewBox="0 0 859.4 719.2" style="enable-background:new 0 0 859.4 719.2;" xml:space="preserve">
<style type="text/css">
	.st0{fill:#FFC93D;}
	.st1{fill:#F2B01C;}
	.st2{fill:#E09500;}
	.st3{fill:#D6AA49;}
	.st4{fill:#936B3B;}
	.st5{fill:#BA9449;}
	.st6{fill:#EF5C3F;}
	.st7{fill:none;stroke:#1E1E1E;stroke-miterlimit:10;}
	.st8{fill:#F9F5EB;}
	.st9{fill:#DDD2BC;}
	.st10{fill:#EDE6D9;}
	.st11{fill:#D6CFC1;stroke:#D6CFC1;stroke-width:4;stroke-miterlimit:10;}
	.st12{fill:#564336;}
	.st13{fill:#E8D9C1;}
</style>
<g>
	<g>
		<polygon class="st0" points="671.7,14.2 623.3,155.7 578.4,129.6 556.3,167.4 547.4,107 493.3,79.3 		"/>
		<polygon class="st1" points="568.5,123.8 623.3,155.7 578.4,129.6 556.3,167.4 547.4,107 626.2,51.9 		"/>
		<polygon class="st2" points="549.5,121.8 626.2,51.9 547.4,107 		"/>
		<g>
			<path class="st3" d="M556.5,184.6c0.3-2.7,0.7-5.4,1.2-8.1l-4.1-0.8c-0.5,2.8-0.9,5.6-1.2,8.4L556.5,184.6z"/>
			<path class="st3" d="M611.2,270.1c5.3-0.7,10.2-2.8,14.3-6l2.5,3.3c-4.6,3.6-10.3,5.9-16.3,6.8L611.2,270.1z M579.8,262.4l2.9-3
				c4.2,4.1,8.7,7.1,13.1,8.9l-1.6,3.9C589.3,270.1,584.4,266.8,579.8,262.4z M634.7,251.8c1.8-4.3,2.5-9,2.2-13.5
				c0-0.4-0.1-0.7-0.1-1.1l-0.1-0.8l4.1-0.6l0.1,0.9c0,0.4,0.1,0.8,0.1,1.3c0.4,5.1-0.5,10.4-2.5,15.3L634.7,251.8z M461.1,264.8
				l0-4.2c5.6,0,11.2-0.2,16.6-0.6l0.3,4.2C472.4,264.6,466.8,264.8,461.1,264.8z M494.1,258.3l2.6-0.4c4.9-0.8,9.4-1.7,13.6-2.7
				l1,4c-4.4,1.1-8.9,2-14,2.8l-2.6,0.4L494.1,258.3z M427.4,262.7l0.5-4.1c5.6,0.7,11.2,1.2,16.6,1.5l-0.3,4.2
				C438.8,263.9,433.1,263.4,427.4,262.7z M525.9,250c4.5-1.9,8.7-4.2,12.5-6.7c0.6-0.4,1.2-0.8,1.8-1.2l2.4,3.4
				c-0.6,0.4-1.2,0.9-1.9,1.3c-4,2.6-8.4,5-13.1,7L525.9,250z M560.6,234.2l3.8-1.7c2.2,5,4.9,9.8,7.9,14.3l-3.4,2.3
				C565.7,244.5,562.9,239.5,560.6,234.2z M394.2,257.2l0.8-4.1c5.6,1.2,11.1,2.2,16.4,3.1l-0.7,4.1
				C405.4,259.5,399.9,258.4,394.2,257.2z M361.6,249.3l1.1-4c5.4,1.5,10.7,2.9,16.1,4.2l-1,4C372.4,252.2,367,250.8,361.6,249.3z
				 M553,231.8c3.6-3,7.7-6.5,12.2-9.4c0.5-0.3,0.9-0.6,1.4-0.9l2.2,3.5l-1.3,0.8c-4.3,2.8-8.1,6-11.8,9L553,231.8z M615.6,217
				l1.1-4c6.8,1.5,12,3.8,15.9,7.1l-2.7,3.2C626.6,220.4,621.8,218.3,615.6,217z M582.4,214.5c5.5-1.7,11.2-2.6,17-2.9l0.2,4.2
				l-1.7,0.1c-4.8,0.4-9.6,1.2-14.3,2.7L582.4,214.5z M552.2,201.3l4.1-0.3c0.4,5.4,1.3,10.8,2.7,16.1l-4,1
				C553.6,212.6,552.6,206.9,552.2,201.3z"/>
		</g>
		<path class="st0" d="M614.9,18.8l-45.4,14.2c-2.3,0.7-3.6,3.2-2.9,5.5l0.2,0.7c0.7,2.3,3.2,3.6,5.5,2.9l45.2-14.9
			c2.4-0.8,3.6-3.4,2.7-5.7l0,0C619.5,19.2,617.2,18.1,614.9,18.8z"/>
	</g>
	<g id="Layer_1">
		<g>
			<path class="st4" d="M125.3,573.2c23,30.7,24.4,77,54.5,103.5c35.7,31.4,92.8,35.9,137.6,38.1c93.8,4.5,197.2,13.3,285.6-21.3
				c15.5-6.1,32.3-12,43.4-25c13-15.2,18.6-37.7,26.1-55.6c7.2-17.1,16-37.2,19.3-55.3c4.1-23-20.3-30.9-40-33.2L125.3,573.2
				L125.3,573.2z"/>
			<path class="st5" d="M152.3,504.4c-31.2,21.5-72.8,28.1-101.5,56.1c11.2-1.1,23.2-1.5,34.7-0.1c-17.6,11.6-34.3,24.1-45.6,41.9
				c44.4-10.2,95.2-13.1,140.8-7.7c-16.9,15.3-33.6,39.3-41.7,60.9c8.8-3.3,17.6-6.6,26.6-9.6c14.1-4.6,59.6-16.7,59.6-16.7
				s7.5,25.1,8.6,34.8c9.5-9.5,20.9-18,31.3-26.7c21.4,16,39.4,34,56.1,54.8c1.3-11.1,0.9-22.6,2.1-33.8c13.8,5.3,18.5,20.8,29,29.8
				c11.4-9.7,20.3-23.2,33.1-31.3c6.6,10.5,7.8,24.2,14.7,34.5c13.3-6.4,26.1-17.9,38.9-26.1c9-5.7,46.7-17.3,35.8-19
				c-3.3-0.5,23.2,10.1,31.8,14.2c12,5.7,25.3,10.2,37,15.3c1.9-8.2-0.8-17.5-1.8-25c13.1-3.6,64.1,2.9,74.1,5
				c11.7,2.5,23.5,9.2,35,10.4c1.8-17.5-17.5-27-27.5-37.2c27.5-8.6,56.9-5.2,85.1-5.4c-9.7-13.4-33.4-18-48-24.9
				c-20.3-9.6-40.1-16.9-61.4-22.4c27.2-1.5,55.2-0.5,82.5,2c21,1.9,42.1,7.5,63.1,7.2c-8.8-14.2-21.7-22.7-34.6-31.9
				c13.5-0.3,28.7,6.4,41,11c-24.5-30.3-64.2-60.8-103.9-66.3c-33.2-4.6-71.7-6.5-104.9-2.9c-47.8,5.1-90,23.4-135.5,36.3
				c-46.4,13.2-92.8,1.8-137.4-11.1c-13.6-3.9-27.2-4.8-41.1-6.9c-7.4-1.1-27.1-0.6-31.8-6.1L152.3,504.4L152.3,504.4z"/>
			<path class="st3" d="M630.2,551.7c23.7-6,26.7-5.7,51.2-4.1c-12.9-11.3-29.3-15.2-43.6-21.5c35.2-4.5,68.7,1.9,102.4,9.5
				c-1.4-19.2-51.3-37.5-66.1-43.8c-39.6-16.8-85.4-26.8-128-30.7c-72.6-6.6-143.5,10.3-209.4,38.6c1-0.9,2.3-3,3.5-4.2l0.2-4.5
				c-14.1-0.5-28.7-5.7-42.8-7.8c-22.3-3.4-45.7,1.9-67.9-1.9c-34.6-6-76.2-11.3-120.1,12.1c14,0.5,47.6,12,58.2,25
				c-2.5,5.2-22.7,12.9-42.2,35.2c-11.1,12.8-24.5,25.7-31.2,41.1c36.2-16.8,83.9-26.8,123.7-26.5c-11.2,18.1-20.5,39-29.6,58.4
				c11.3-2.9,24.3-7.8,35.7-12c7.7-2.8,47.7-23.8,56.3-18.6c7.3,4.3,5.1,41.6,9.1,51.6c12.4-7.6,20.6-21.5,31.7-30.9
				c10.8,10.8,10.9,30,22.1,40c6.9-7,10.3-17.5,17.1-24.3c7-7,3.2-6.4,12.6-4.2c17.1,4,35.9,20.6,51,29.6
				c11,6.6,21.6,15.1,32.8,20.7c7.1-15.6,0.4-38.4-1.5-54.3c23.7,0,51.2,8,72.7,16.9c-6.1-7.8-16.2-12.9-22.3-21.2
				c29.3-2.2,59.5,15.3,88.4,17.7c0.5-13.1-27.8-26-35.5-34.3c19.8-3.2,42-5.7,62.8-6.5c22.6-0.8,46.9,5.4,68.9,3.5
				C688.4,587.2,639.3,560.7,630.2,551.7L630.2,551.7z"/>
			<path class="st5" d="M219.4,514.2c-33.4,39.7,35.5,56,62.4,61.3c43.4,8.5,89.4,8.2,133.9,10.2c40.4,1.8,82.1,2,121.5-2.3
				c25.2-2.8,99.5-6,72.4-51c-15.6-25.8-53.4-33.4-80.4-37.7c-40.6-6.5-86.1-14.4-127-7.6L219.4,514.2L219.4,514.2z"/>
			<path class="st6" d="M229.3,235.1c-11.7,5.6-21.4,15.5-26.8,27.3c-1.1,2.5-2.1,5.1-2,7.8c0.1,2.7,1.3,5.5,3.8,6.8
				c4.1,2.1,8.8-0.9,12.3-3.8c-1.5,3-2.4,6.3-2,9.6c0.5,3.3,2.7,6.4,5.8,7.4c5.4,1.7,10.5-3.1,14.2-7.4c0.7,3.4,2.1,7.2,5.4,8.3
				c4.1,1.4,8.2-2.4,10.7-5.9c8.6-11.9,20.2-33.1,18.4-48.4C267.3,222.5,237.2,231.3,229.3,235.1L229.3,235.1z"/>
			<path class="st7" d="M376.7,237.1c-0.2-1.9-0.5-3.9-0.8-5.8C376.1,233.2,376.3,235.2,376.7,237.1z"/>
			<path class="st8" d="M804.9,374.2c-15.3,35.8-47.3,60.6-78.1,84c-50.7,38.5-102,77.5-160.3,102.9c-64.2,28-135.1,38.6-205.2,38.1
				c-38.4-0.2-78.2-4.1-111.6-23.1c-69.4-39.5-62.1-125.3-45.5-192c9.4-37.9,21.8-75,36.9-111c0.1,1.6,0.3,3.2,0.5,4.8
				c0.4,2.8,1.3,5.9,5.4,6.5c3,0.5,6-1,8-3.3c6.1-7.4,10.8-16,13.6-25.1c-1.8,7.5-2.2,15.3-1.1,22.9c0.5,3.5,1.4,7.2,6.1,8.1
				c3.4,0.7,7-0.9,9.2-3.6c7.3-8.8,11.6-20,12.1-31.4c-0.4,8.7,0.8,17.5,3.4,25.8c1.2,3.8,2.8,7.7,7.9,8.3c2.8,0.4,5.7-0.7,7.9-2.6
				c4.7-4.1,5.8-10.4,6.8-16.4c1.1-6.7,2.1-13.4,3.2-20.1c0.3,9.8,2.5,19.5,6.6,28.5c1.7,3.7,4.6,7.9,8.7,7.5c4-0.3,6.2-4.7,7.4-8.5
				c3.2-10.2,4.6-21,4-31.6c0.1,8.9,2.9,17.7,8,25c2,2.8,5.2,4.6,8.6,4.4c4.6-0.4,6-4,7-7.3c2.5-9,3.4-18.4,2.4-27.7
				c0.9,4.3,2.4,8.5,5.2,11.8c4.1,4.8,11.6,7.1,16.8,3.5c2-1.3,3.4-3.3,4.6-5.4c0.4,1.1,0.8,2.3,1.2,3.4c1,0.6,2.1,1.2,3.2,1.9
				c-15,9.4-29.6,19.7-40.9,33.2c-14.8,17.8-23.3,40.5-25.2,63.5c-4,50.5,26.2,102.1,72.4,123.2c18.5,8.5,39,12.4,59,15.4
				c17.9,2.7,36.2,1.7,53.6-3.2c22.1-6.3,42.9-14,59.5-29.9c9.5-9,20.5-24.7,26.1-36.6c2.4-5,3.5-10.5,4-16.2
				c4.4-29.1,13.3-57.4,26.5-83.6c1.5-3,6.1-2.2,6.4,1.1c2.5,25-1.3,50.6-10.8,73.8c-2.2,4.6-4.3,9.2-6.4,13.8
				c2.4-4.5,4.5-9.1,6.4-13.8c15.2-32,31.9-63.2,50-93.7c1.9-3.2,4.4-6.8,8.8-5.5c3.7,1.1,5.8,5.1,5,8.9
				c-5.5,26.4-14.8,52-27.5,75.7c11.4-17.1,23.1-34,35.1-50.6c7.7-10.6,16.4-21.7,29-25.5c8.7,1.1,7.3,14.1,3.2,21.9
				c-17,32.6-37.6,63.3-61.2,91.5c17.1-19.8,34.2-39.6,51.2-59.3c9.5-11,19.3-22.2,30.9-30.6c8-5.8,18.8,3.1,14.3,11.9
				c-0.7,1.3-1.3,2.5-2,3.6c-27.6,41.9-61.1,79.8-99.2,112.2c38.3-28.6,76.6-57.1,114.9-85.7c3.8-2.9,9.3-5.9,13-1.6
				C805.8,368.5,806,371.6,804.9,374.2L804.9,374.2z"/>
			<path class="st9" d="M243.5,282.7c3.7,4.1,10.4,0,13.8-4.5c5.9-7.8,10.1-16.9,12.4-26.4c-2.7,8.7-3.5,18-2.2,27.1
				c0.3,2.2,0.8,4.5,2.3,6.1c4.4,4.7,12.1-0.1,15.7-5.3c5.6-8.2,8.9-17.9,9.4-27.8c-0.4,8.7,0.8,17.5,3.4,25.8
				c0.8,2.4,1.7,4.9,3.6,6.5c4,3.4,10.5,1.5,13.8-2.6c3.3-4,4.2-9.5,5.1-14.6c1.1-6.7,2.1-13.4,3.2-20.2c0.3,9.8,2.5,19.5,6.6,28.5
				c1.7,3.7,4.6,7.9,8.7,7.5c4-0.3,6.2-4.7,7.4-8.5c3.2-10.2,4.6-21,4-31.6c0.1,7.4,2.1,14.9,5.7,21.4c3,5.3,9.9,10.4,14.6,6.6
				c1.8-1.4,2.6-3.7,3.2-5.9c2.6-8.9,3.4-18.4,2.4-27.7c-0.4-1.9-0.6-3.8-0.8-5.8c0.4,1.9,0.6,3.8,0.8,5.8c0.9,4.3,2.4,8.5,5.2,11.8
				c4.1,4.8,11.6,7,16.9,3.5c2-1.3,3.4-3.3,4.6-5.5c-6-17-12-34.1-17.9-51.1c-5.5-15.6-12.8-33.2-28.5-38.5c-9-3-19-1.2-27.9,2.2
				c-37.1,14.1-59.6,51.4-76.3,87.4c-4,8.6-7.8,17.4-11.5,26.2c0.1,1.6,0.3,3.2,0.5,4.8C241.9,279.6,242.3,281.4,243.5,282.7
				L243.5,282.7z"/>
			<path class="st9" d="M366.8,285.4c-14.8,17.8-23.3,40.5-25.2,63.5c-4,50.6,26.2,102.1,72.3,123.2c14.2,6.5,29.5,10.3,44.9,13.1
				c21.2,3.9,43.4,5.8,64.2,0.1c23.4-6.4,45.5-14.1,63.1-30.9c9.5-9.1,20.5-24.7,26.1-36.6c2.4-5,3.5-10.5,4-16.2
				c-0.2,1.2-0.4,2.4-0.6,3.6c-59.7-60.9-133.9-110.8-208.1-153.2C392.6,261.6,378.1,271.9,366.8,285.4L366.8,285.4z"/>
			<g>
				<path class="st10" d="M537.2,404.9c-4.1-0.4-8.1-1.4-11.9-2.8c-11.3-4.4-20.7-13.6-25.4-24.8c-9.8,0.8-20-2.6-28.3-9.3
					c-8.2-6.7-13.5-15.9-14.7-25.5c-12.4,0.4-23.4-3.1-31.1-9.8c-9.5-8.3-12.9-22.2-8-32.4c0.4-0.8,1.4-1.2,2.2-0.8
					c0.8,0.4,1.2,1.4,0.8,2.2c-4.3,8.9-1.2,21.1,7.2,28.4c7.3,6.4,18.1,9.6,30.3,8.9c0.9,0,1.7,0.6,1.7,1.5
					c0.8,9.3,5.7,18.3,13.7,24.8s17.8,9.6,27.1,8.5c0.7-0.1,1.5,0.3,1.7,1.1c4.2,10.9,13.1,19.9,24,24.1c10.8,4.2,23.5,3.7,33.9-1.4
					c0.9-0.4,2-0.2,2.7,0.5c0.7,0.7,0.9,1.8,0.5,2.6c-0.5,0.9-1.5,1.4-2.6,1.1c-0.3-0.1-0.6-0.2-0.9-0.4
					C552.9,404.5,545,405.7,537.2,404.9L537.2,404.9z M562.6,399.8L562.6,399.8L562.6,399.8z"/>
				<path class="st10" d="M514.8,430.1C514.8,430.1,514.8,430.1,514.8,430.1c-11.7-1.7-22.2-9.1-27.9-19.4
					c-10.7,4.5-22.9,1.1-31.5-2.6c-9.1-3.9-15.7-8.6-20.2-14.4c-5.1-6.6-7.3-14.8-5.9-21.9c-6.2,0.2-12.4-1.3-17.8-4.3
					c-0.8-0.5-1.1-1.5-0.6-2.3c0.5-0.8,1.5-1.1,2.3-0.6c5.5,3.1,11.9,4.4,18.2,3.8c0.6-0.1,1.1,0.2,1.5,0.6c0.4,0.4,0.5,1,0.3,1.5
					c-2.1,6.6-0.2,14.8,4.8,21.2c4.1,5.3,10.3,9.7,18.9,13.4c8.3,3.6,20.3,6.9,30.1,2c0.4-0.2,0.9-0.2,1.3-0.1
					c0.4,0.1,0.8,0.4,1,0.8c5,10.1,14.9,17.4,26,19c0.9,0.1,1.5,1,1.4,1.9C516.5,429.6,515.7,430.2,514.8,430.1L514.8,430.1z"/>
			</g>
			<g>
				<path class="st11" d="M261.6,439.2c1.9-3.5,2.6-6.6,2.4-10.6c-0.1-1.4-0.2-2.8-1-3.9s-2.1-2-3.4-1.7c-1.8,0.5-2.4,2.5-2.8,4.3
					c-0.9,3.8-0.6,6.4,0.4,10.3c0.4,1.6,1.5,3.6,3.1,3C260.8,440.4,261.2,439.8,261.6,439.2L261.6,439.2z"/>
				<path class="st11" d="M236.6,511.7c1.4-3.8,1.4-8,1-11.9c-0.2-1.4-0.6-3-1.9-3.5c-1-0.3-2.1,0.1-2.7,0.9s-0.9,1.8-1.1,2.8
					c-0.8,3.9-0.8,7.8,0.9,11.4c0.5,1.1,1.6,2.4,2.7,1.9C236.1,513,236.4,512.3,236.6,511.7L236.6,511.7z"/>
				<path class="st11" d="M308.1,480c0.4-3.3-0.2-6.9-1-10.2c-0.3-1.1-0.7-2.3-1.7-2.9c-1.5-1-3.7,0-4.6,1.6c-1.7,3-1,7.7-0.2,10.8
					c0.6,2.5,2.2,5.7,4.7,5.1C307.1,484.1,307.9,481.9,308.1,480L308.1,480z"/>
				<path class="st11" d="M292.6,354.6c2.1-3.4,3.3-9.2,1.1-12.9c-0.6-1.1-1.7-2-3-1.9c-1.6,0.2-2.4,2-2.8,3.6
					c-0.7,3.2-1.4,7-0.1,10.2c0.6,1.4,1.9,2.8,3.3,2.3C291.8,355.8,292.2,355.2,292.6,354.6z"/>
				<path class="st11" d="M250.6,361.6c0.6,0.9,1.6,1.5,2.6,1.3c4.5-0.7,3.6-8,3-11.1c-0.3-1.3-0.9-2.7-2.2-3
					c-1.1-0.3-2.3,0.5-2.9,1.5c-0.6,1-0.7,2.2-0.8,3.3C250.1,356.3,249,359.1,250.6,361.6L250.6,361.6z"/>
				<path class="st11" d="M214.3,455.8c0.4,0.8,1,1.6,1.8,1.8c1.8,0.5,3-1.8,3.5-3.5c0.9-3.3,1.8-7,0.8-10.4c-0.4-1.2-1-2.4-2.1-2.9
					c-1.4-0.6-3.1,0.2-4,1.5C211.9,445.9,212.4,452,214.3,455.8L214.3,455.8z"/>
			</g>
			<path class="st6" d="M418.3,180.4c0.9,4.8-5,8-9.9,8.6c-10.9,1.2-21.7-2.2-32.1-5.6c-10.9-3.6-21.8-7.2-32.7-10.8
				c-7.2-2.3-24.2-4.5-14.5-13.5c6.5-6.1,14-9.9,21.1-15c8.1-5.8,16.8-10.9,26.2-14.3c6.7-2.4,27.8-9.9,32.7-1.3
				c2.5,4.5-1.8,9.8-6,12.8c-3.1,2.3-6.4,4.5-9.8,6.4c7.9-2.1,16.7-1.4,23.9,2.6c2.2,1.2,4.5,3.5,3.7,5.9c-0.5,1.4-2,2.2-3.4,2.8
				c-7.5,3.3-15.9,4.9-24.1,4.6c8.9,1.2,17.3,5.8,22.9,12.9C417.2,177.6,418,178.9,418.3,180.4L418.3,180.4z"/>
			<path class="st0" d="M230.5,207.5c-2.9,0.1-4.2,3.6-2.2,5.7c9.1,9.1,20.9,15.3,32.3,21.3c1,0.5,2,1,3.1,0.9
				c1.3-0.1,2.4-1.1,3.2-2.1c4.6-5.1,7.5-11.4,9.8-17.9c0.6-1.7,3.5-7.7,2.5-9.3c-1.1-1.8-7.8-0.6-9.7-0.5
				c-7.8,0.2-15.6,0.4-23.4,0.6C244.4,206.3,236.6,207.2,230.5,207.5L230.5,207.5z"/>
			<path class="st12" d="M322.5,202c0.7-3.9-1.9-7.7-5.6-9c-3.9-1.4-8.3-0.1-11.4,2.5c-0.9,0.7-1.2,1.9-0.6,2.9
				c0.6,0.9,2,1.3,2.9,0.6c1.2-1,2.3-1.7,3.7-2.1c0.8-0.2,1.1-0.3,1.9-0.3c0.2,0,0.4,0,0.6,0c0.4,0-0.5-0.1,0.2,0
				c0.4,0,0.7,0.1,1.1,0.2c0.1,0,0.3,0.1,0,0c0.2,0.1,0.4,0.1,0.6,0.2c0.1,0.1,0.2,0.1,0.4,0.2c0,0,0.5,0.3,0.2,0.1
				c0.3,0.2,0.5,0.4,0.8,0.7c0.1,0.1,0.2,0.2,0.3,0.3c-0.2-0.2,0.1,0.1,0.1,0.1c0.2,0.3,0.4,0.5,0.5,0.8c0.1,0.2-0.1-0.2,0.1,0.1
				c0.1,0.2,0.1,0.3,0.2,0.5c0,0.1,0.1,0.4,0.1,0.1c0,0.2,0,0.3,0.1,0.5c0,0.2,0,0.3,0,0.5c0-0.4,0,0.1,0,0.2
				c-0.2,1.1,0.5,2.2,1.6,2.4C321.2,203.9,322.3,203.1,322.5,202L322.5,202L322.5,202z"/>
		</g>
	</g>
	<g>
		<path class="st13" d="M81.3,399.3c-8.7-3-18.2,1.7-21.2,10.4c-3,8.7,1.7,18.2,10.4,21.2s18.2-1.7,21.2-10.4
			C94.8,411.8,90.1,402.3,81.3,399.3z M73.8,421.6c-3.5-1.2-5.4-5-4.2-8.6c1.2-3.5,5-5.4,8.6-4.2c3.5,1.2,5.4,5,4.2,8.6
			C81.2,420.9,77.3,422.8,73.8,421.6z"/>
		<path class="st13" d="M827.3,225.6c-6.3-4-14.7-2.1-18.7,4.2c-4,6.3-2.1,14.7,4.2,18.7c6.3,4,14.7,2.1,18.7-4.2
			C835.5,238,833.6,229.6,827.3,225.6z M817.1,241.7c-2.6-1.6-3.3-5-1.7-7.6c1.6-2.6,5-3.3,7.6-1.7c2.6,1.6,3.3,5,1.7,7.6
			C823,242.5,819.7,243.3,817.1,241.7z"/>
		<path class="st13" d="M118.8,279.9c-7.4-2.5-15.5,1.5-18,8.9c-2.5,7.4,1.5,15.5,8.9,18c7.4,2.5,15.5-1.5,18-8.9
			C130.2,290.5,126.2,282.4,118.8,279.9z"/>
		<path class="st13" d="M48,215.5c-7.1-4.5-16.4-2.4-20.9,4.7c-4.5,7.1-2.4,16.4,4.7,20.9c7.1,4.5,16.4,2.4,20.9-4.7
			C57.1,229.3,55,219.9,48,215.5z"/>
		<path class="st13" d="M331.6,44.3c-5.4-6.4-14.9-7.2-21.3-1.8c-6.4,5.4-7.2,14.9-1.8,21.3c5.4,6.4,14.9,7.2,21.3,1.8
			C336.1,60.2,336.9,50.7,331.6,44.3z"/>
		<path class="st13" d="M14.6,411.6c-5.8-2-12,1.1-14,6.9c-2,5.8,1.1,12,6.9,14c5.8,2,12-1.1,14-6.9
			C23.4,419.9,20.3,413.6,14.6,411.6z"/>
		<path class="st13" d="M853.4,296.6c-6-3.8-14-2-17.8,4c-3.8,6-2,14,4,17.8c6,3.8,14,2,17.8-4C861.2,308.4,859.5,300.5,853.4,296.6
			z"/>
		
			<ellipse transform="matrix(0.9979 -6.497741e-02 6.497741e-02 0.9979 -7.9278 14.6235)" class="st13" cx="220.9" cy="129.2" rx="7.4" ry="7.4"/>
		
			<ellipse transform="matrix(0.9979 -6.497741e-02 6.497741e-02 0.9979 -28.8157 53.8163)" class="st13" cx="812.9" cy="469.9" rx="7.4" ry="7.4"/>
		<circle class="st13" cx="125.3" cy="180.2" r="8"/>
		<circle class="st13" cx="493.3" cy="156.8" r="8"/>
		<path class="st13" d="M734.1,202.7l6.9-1.6c2.4-0.5,3.9-2.9,3.4-5.4c-0.5-2.4-2.9-3.9-5.4-3.4l-6.9,1.6l-1.6-6.9
			c-0.5-2.4-2.9-3.9-5.4-3.4c-2.4,0.5-3.9,2.9-3.4,5.4l1.6,6.9l-6.9,1.6c-2.4,0.5-3.9,2.9-3.4,5.4c0.5,2.4,2.9,3.9,5.4,3.4l6.9-1.6
			l1.6,6.9c0.5,2.4,2.9,3.9,5.4,3.4c2.4-0.5,3.9-2.9,3.4-5.4L734.1,202.7z"/>
		<path class="st13" d="M473.6,23.4l7.1,0.6c2.5,0.2,4.6-1.6,4.8-4.1c0.2-2.5-1.6-4.6-4.1-4.8l-7.1-0.6l0.6-7.1
			c0.2-2.5-1.6-4.6-4.1-4.8c-2.5-0.2-4.6,1.6-4.8,4.1l-0.6,7.1l-7.1-0.6c-2.5-0.2-4.6,1.6-4.8,4.1c-0.2,2.5,1.6,4.6,4.1,4.8l7.1,0.6
			l-0.6,7.1c-0.2,2.5,1.6,4.6,4.1,4.8c2.5,0.2,4.6-1.6,4.8-4.1L473.6,23.4z"/>
		<path class="st13" d="M234.2,57.9l6.4-3.1c2.2-1.1,3.1-3.8,2-6c-1.1-2.2-3.8-3.1-6-2l-6.4,3.1l-3.1-6.4c-1.1-2.2-3.8-3.1-6-2
			c-2.2,1.1-3.1,3.8-2,6l3.1,6.4l-6.4,3.1c-2.2,1.1-3.1,3.8-2,6c1.1,2.2,3.8,3.1,6,2l6.4-3.1l3.1,6.4c1.1,2.2,3.8,3.1,6,2
			c2.2-1.1,3.1-3.8,2-6L234.2,57.9z"/>
	</g>
</g>
</svg>
