<?xml version="1.0" encoding="UTF-8"?>
<svg id="_圖層_2" data-name=" 圖層 2" xmlns="http://www.w3.org/2000/svg" version="1.1" viewBox="0 0 859.4 719.2">
  <defs>
    <style>
      .cls-1 {
        fill: #ef5c3f;
      }

      .cls-1, .cls-2, .cls-3, .cls-4, .cls-5, .cls-6, .cls-7, .cls-8, .cls-9, .cls-10, .cls-11, .cls-12, .cls-13, .cls-14, .cls-15 {
        stroke-width: 0px;
      }

      .cls-2 {
        fill: #964022;
      }

      .cls-3 {
        fill: #564336;
      }

      .cls-4 {
        fill: #f4ede1;
      }

      .cls-5 {
        fill: #ba9449;
      }

      .cls-6 {
        fill: #eda20a;
      }

      .cls-7 {
        fill: #ffa6a6;
      }

      .cls-8 {
        fill: #d6aa49;
      }

      .cls-9 {
        fill: #936b3b;
      }

      .cls-10 {
        fill: #ddd2bc;
      }

      .cls-11 {
        fill: #ffc93d;
      }

      .cls-16 {
        fill: none;
        stroke: #1e1e1e;
      }

      .cls-16, .cls-17 {
        stroke-miterlimit: 10;
      }

      .cls-12 {
        fill: #ede6d9;
      }

      .cls-13 {
        fill: #875d00;
      }

      .cls-14 {
        fill: #f9f5eb;
      }

      .cls-15 {
        fill: #fff;
      }

      .cls-17 {
        fill: #d6cfc1;
        stroke: #d6cfc1;
        stroke-width: 4px;
      }
    </style>
  </defs>
  <path class="cls-6" d="M437,234.7c-4.9-12.1-13.4-30.9-21-42.2-10.4-15.3-17.7-31.8-33.4-42.3-12.7-8.6-26.8-15.5-41.2-20.8-5.6-2.1-11.9-3.2-16.9-6.6-4.2-2.8-7.5-6.7-12-9.3-11.3-6.5-40.1-11.2-40.1-10.4l-20-1.8c-34.7,2.9,14.6,45.1,23.2,51.8,25.5,20.1,56.1,34.6,82.6,53.3,18.1,12.8,36.8,26.8,58.5,32.8,10.1,2.8,26.1,9.7,20.4-4.5h-.1Z"/>
  <g>
    <g>
      <path class="cls-2" d="M283.7,34.5c11.3-2.7,22.3-5.6,33.7-1.7,9.9,3.4,17.7,10.8,23.1,19.5,4.7,7.7,6.6,16.1,7.1,25,.4,7.4.7,18.3-4.7,24.2-1.5,1.6,1.2,3.8,2.7,2.2,5.8-6.2,5.6-17.1,5.5-25-.2-9.9-2.3-18.9-7.2-27.5-5.4-9.5-13.9-17.1-24-21.2-12.2-4.9-24.2-1.8-36.4,1.1-2.1.5-1.8,3.9.4,3.4h-.2Z"/>
      <path class="cls-7" d="M309.2,18.3c-3.5-11.9-19.1-5-22.6,3.3,1.8-5.9,1.1-23.4-9.3-21.4-7.8,1.5-6.6,9.9-4,16.5-4.5-6.3-13.3-10.4-19.1-6.4-12.2,8.3.9,21.2,10.7,20-9.3,3.4-20.6,14.2-8.1,21.3,4.6,2.6,11.2,1.6,15.7-1.3,3.9-2.5,4.8-4.7,5.4-8.2-.4,8.9,4.4,20.3,16,15.1,14.6-6.5.2-17.3-4.8-23.7,8.3-1.1,23.6-3.3,20.2-15.2h-.1Z"/>
    </g>
    <path class="cls-15" d="M283.2,30.3c-.7,4.3-3.9,7.4-7.3,6.9s-5.6-4.4-4.9-8.8,3.9-7.4,7.3-6.9,5.6,4.4,4.9,8.8Z"/>
  </g>
  <g id="Layer_1" data-name="Layer 1">
    <g>
      <path class="cls-9" d="M96,559.1c25.2,33.7,26.8,84.4,59.8,113.5,39.1,34.4,101.7,39.4,150.9,41.8,102.8,4.9,216.2,14.6,313.1-23.4,17-6.7,35.4-13.2,47.6-27.4,14.3-16.7,20.4-41.3,28.6-61,7.9-18.7,17.5-40.8,21.2-60.6,4.5-25.2-22.3-33.9-43.9-36.4l-577.3,53.5h0Z"/>
      <path class="cls-5" d="M125.6,483.7c-34.2,23.6-79.8,30.8-111.3,61.5,12.3-1.2,25.4-1.6,38,0-19.3,12.7-37.6,26.4-50,45.9,48.7-11.2,104.4-14.4,154.4-8.4-18.5,16.8-36.8,43.1-45.7,66.8,9.6-3.6,19.3-7.2,29.2-10.5,15.5-5,65.3-18.3,65.3-18.3,0,0,8.2,27.5,9.4,38.2,10.4-10.4,22.9-19.7,34.3-29.3,23.5,17.5,43.2,37.3,61.5,60.1,1.4-12.2,1-24.8,2.3-37.1,15.1,5.8,20.3,22.8,31.8,32.7,12.5-10.6,22.3-25.4,36.3-34.3,7.2,11.5,8.6,26.5,16.1,37.8,14.6-7,28.6-19.6,42.7-28.6,9.9-6.2,51.2-19,39.3-20.8-3.6-.5,25.4,11.1,34.9,15.6,13.2,6.2,27.7,11.2,40.6,16.8,2.1-9-.9-19.2-2-27.4,14.4-3.9,70.3,3.2,81.2,5.5,12.8,2.7,25.8,10.1,38.4,11.4,2-19.2-19.2-29.6-30.2-40.8,30.2-9.4,62.4-5.7,93.3-5.9-10.6-14.7-36.6-19.7-52.6-27.3-22.3-10.5-44-18.5-67.3-24.6,29.8-1.6,60.5-.5,90.5,2.2,23,2.1,46.2,8.2,69.2,7.9-9.6-15.6-23.8-24.9-37.9-35,14.8-.3,31.5,7,45,12.1-26.9-33.2-70.4-66.7-113.9-72.7-36.4-5-78.6-7.1-115-3.2-52.4,5.6-98.7,25.7-148.6,39.8-50.9,14.5-101.7,2-150.7-12.2-14.9-4.3-29.8-5.3-45.1-7.6-8.1-1.2-29.7-.7-34.9-6.7l-48.5-3.4h0Z"/>
      <path class="cls-8" d="M649.6,535.5c26-6.6,29.3-6.2,56.1-4.5-14.1-12.4-32.1-16.7-47.8-23.6,38.6-4.9,75.3,2.1,112.3,10.4-1.5-21.1-56.2-41.1-72.5-48-43.4-18.4-93.6-29.4-140.3-33.7-79.6-7.2-157.3,11.3-229.6,42.3,1.1-1,2.5-3.3,3.8-4.6l.2-4.9c-15.5-.5-31.5-6.2-46.9-8.6-24.5-3.7-50.1,2.1-74.4-2.1-37.9-6.6-83.5-12.4-131.7,13.3,15.4.5,52.2,13.2,63.8,27.4-2.7,5.7-24.9,14.1-46.3,38.6-12.2,14-26.9,28.2-34.2,45.1,39.7-18.4,92-29.4,135.6-29.1-12.3,19.8-22.5,42.8-32.5,64,12.4-3.2,26.6-8.6,39.1-13.2,8.4-3.1,52.3-26.1,61.7-20.4,8,4.7,5.6,45.6,10,56.6,13.6-8.3,22.6-23.6,34.8-33.9,11.8,11.8,12,32.9,24.2,43.9,7.6-7.7,11.3-19.2,18.7-26.6,7.7-7.7,3.5-7,13.8-4.6,18.7,4.4,39.4,22.6,55.9,32.5,12.1,7.2,23.7,16.6,36,22.7,7.8-17.1.4-42.1-1.6-59.5,26,0,56.1,8.8,79.7,18.5-6.7-8.6-17.8-14.1-24.5-23.2,32.1-2.4,65.2,16.8,96.9,19.4.5-14.4-30.5-28.5-38.9-37.6,21.7-3.5,46.1-6.2,68.9-7.1,24.8-.9,51.4,5.9,75.5,3.8-2.2-14.4-56-43.4-66-53.3h.2Z"/>
      <path class="cls-5" d="M199.2,494.4c-36.6,43.5,38.9,61.4,68.4,67.2,47.6,9.3,98,9,146.8,11.2,44.3,2,90,2.2,133.2-2.5,27.6-3.1,109.1-6.6,79.4-55.9-17.1-28.3-58.5-36.6-88.2-41.3-44.5-7.1-94.4-15.8-139.2-8.3l-200.4,29.7h0Z"/>
      <path class="cls-1" d="M210.1,188.4c-12.8,6.1-23.5,17-29.4,29.9-1.2,2.7-2.3,5.6-2.2,8.6s1.4,6,4.2,7.5c4.5,2.3,9.6-1,13.5-4.2-1.6,3.3-2.6,6.9-2.2,10.5.5,3.6,3,7,6.4,8.1,5.9,1.9,11.5-3.4,15.6-8.1.8,3.7,2.3,7.9,5.9,9.1,4.5,1.5,9-2.6,11.7-6.5,9.4-13,22.1-36.3,20.2-53.1-2-15.7-35-6-43.6-1.9h-.1Z"/>
      <path class="cls-16" d="M371.7,190.6c-.2-2.1-.5-4.3-.9-6.4.2,2.1.4,4.3.9,6.4Z"/>
      <path class="cls-14" d="M841.2,340.9c-16.8,39.3-51.9,66.4-85.6,92.1-55.6,42.2-111.8,85-175.8,112.8-70.4,30.7-148.1,42.3-225,41.8-42.1-.2-85.7-4.5-122.4-25.3-76.1-43.3-68.1-137.4-49.9-210.5,10.3-41.6,23.9-82.2,40.5-121.7.1,1.8.3,3.5.5,5.3.4,3.1,1.4,6.5,5.9,7.1,3.3.5,6.6-1.1,8.8-3.6,6.7-8.1,11.8-17.5,14.9-27.5-2,8.2-2.4,16.8-1.2,25.1.5,3.8,1.5,7.9,6.7,8.9,3.7.8,7.7-1,10.1-3.9,8-9.6,12.7-21.9,13.3-34.4-.4,9.5.9,19.2,3.7,28.3,1.3,4.2,3.1,8.4,8.7,9.1,3.1.4,6.2-.8,8.7-2.9,5.2-4.5,6.4-11.4,7.5-18,1.2-7.3,2.3-14.7,3.5-22,.3,10.7,2.7,21.4,7.2,31.2,1.9,4.1,5,8.7,9.5,8.2,4.4-.3,6.8-5.2,8.1-9.3,3.5-11.2,5-23,4.4-34.6.1,9.8,3.2,19.4,8.8,27.4,2.2,3.1,5.7,5,9.4,4.8,5-.4,6.6-4.4,7.7-8,2.7-9.9,3.7-20.2,2.6-30.4,1,4.7,2.6,9.3,5.7,12.9,4.5,5.3,12.7,7.8,18.4,3.8,2.2-1.4,3.7-3.6,5-5.9.4,1.2.9,2.5,1.3,3.7,1.1.7,2.3,1.3,3.5,2.1-16.4,10.3-32.5,21.6-44.8,36.4-16.2,19.5-25.5,44.4-27.6,69.6-4.4,55.4,28.7,111.9,79.4,135.1,20.3,9.3,42.8,13.6,64.7,16.9,19.6,3,39.7,1.9,58.8-3.5,24.2-6.9,47-15.4,65.2-32.8,10.4-9.9,22.5-27.1,28.6-40.1,2.6-5.5,3.8-11.5,4.4-17.8,4.8-31.9,14.6-62.9,29.1-91.7,1.6-3.3,6.7-2.4,7,1.2,2.7,27.4-1.4,55.5-11.8,80.9-2.4,5-4.7,10.1-7,15.1,2.6-4.9,4.9-10,7-15.1,16.7-35.1,35-69.3,54.8-102.7,2.1-3.5,4.8-7.5,9.6-6,4.1,1.2,6.4,5.6,5.5,9.8-6,28.9-16.2,57-30.2,83,12.5-18.7,25.3-37.3,38.5-55.5,8.4-11.6,18-23.8,31.8-28,9.5,1.2,8,15.5,3.5,24-18.6,35.7-41.2,69.4-67.1,100.3,18.7-21.7,37.5-43.4,56.1-65,10.4-12.1,21.2-24.3,33.9-33.6,8.8-6.4,20.6,3.4,15.7,13-.8,1.4-1.4,2.7-2.2,3.9-30.3,45.9-67,87.5-108.8,123,42-31.4,84-62.6,126-94,4.2-3.2,10.2-6.5,14.3-1.8,2.1,2.3,2.3,5.7,1.1,8.6h0v.2Z"/>
      <path class="cls-10" d="M225.6,240.6c4.1,4.5,11.4,0,15.1-4.9,6.5-8.6,11.1-18.5,13.6-28.9-3,9.5-3.8,19.7-2.4,29.7.3,2.4.9,4.9,2.5,6.7,4.8,5.2,13.3-.1,17.2-5.8,6.1-9,9.8-19.6,10.3-30.5-.4,9.5.9,19.2,3.7,28.3.9,2.6,1.9,5.4,3.9,7.1,4.4,3.7,11.5,1.6,15.1-2.9,3.6-4.4,4.6-10.4,5.6-16,1.2-7.3,2.3-14.7,3.5-22.1.3,10.7,2.7,21.4,7.2,31.2,1.9,4.1,5,8.7,9.5,8.2,4.4-.3,6.8-5.2,8.1-9.3,3.5-11.2,5-23,4.4-34.6.1,8.1,2.3,16.3,6.2,23.5,3.3,5.8,10.9,11.4,16,7.2,2-1.5,2.9-4.1,3.5-6.5,2.9-9.8,3.7-20.2,2.6-30.4-.4-2.1-.7-4.2-.9-6.4.4,2.1.7,4.2.9,6.4,1,4.7,2.6,9.3,5.7,12.9,4.5,5.3,12.7,7.7,18.5,3.8,2.2-1.4,3.7-3.6,5-6-6.6-18.6-13.2-37.4-19.6-56-6-17.1-14-36.4-31.2-42.2-9.9-3.3-20.8-1.3-30.6,2.4-40.7,15.5-65.3,56.4-83.7,95.8-4.4,9.4-8.6,19.1-12.6,28.7.1,1.8.3,3.5.5,5.3.2,1.9.7,3.8,2,5.3h.4Z"/>
      <path class="cls-10" d="M360.8,243.6c-16.2,19.5-25.5,44.4-27.6,69.6-4.4,55.5,28.7,111.9,79.3,135.1,15.6,7.1,32.3,11.3,49.2,14.4,23.2,4.3,47.6,6.4,70.4.1,25.7-7,49.9-15.5,69.2-33.9,10.4-10,22.5-27.1,28.6-40.1,2.6-5.5,3.8-11.5,4.4-17.8-.2,1.3-.4,2.6-.7,3.9-65.5-66.8-146.8-121.5-228.2-168-16.3,10.5-32.2,21.8-44.6,36.6h0Z"/>
      <g>
        <path class="cls-12" d="M547.7,374.6c-4.5-.4-8.9-1.5-13-3.1-12.4-4.8-22.7-14.9-27.8-27.2-10.7.9-21.9-2.9-31-10.2-9-7.3-14.8-17.4-16.1-28-13.6.4-25.7-3.4-34.1-10.7-10.4-9.1-14.1-24.3-8.8-35.5.4-.9,1.5-1.3,2.4-.9s1.3,1.5.9,2.4c-4.7,9.8-1.3,23.1,7.9,31.1,8,7,19.8,10.5,33.2,9.8,1,0,1.9.7,1.9,1.6.9,10.2,6.2,20.1,15,27.2s19.5,10.5,29.7,9.3c.8-.1,1.6.3,1.9,1.2,4.6,12,14.4,21.8,26.3,26.4,11.8,4.6,25.8,4.1,37.2-1.5,1-.4,2.2-.2,3,.5s1,2,.5,2.9c-.5,1-1.6,1.5-2.9,1.2-.3-.1-.7-.2-1-.4-7.9,3.4-16.6,4.7-25.1,3.8h-.1ZM575.5,369h0Z"/>
        <path class="cls-12" d="M523.1,402.2h0c-12.8-1.9-24.3-10-30.6-21.3-11.7,4.9-25.1,1.2-34.5-2.9-10-4.3-17.2-9.4-22.1-15.8-5.6-7.2-8-16.2-6.5-24-6.8.2-13.6-1.4-19.5-4.7-.9-.5-1.2-1.6-.7-2.5s1.6-1.2,2.5-.7c6,3.4,13,4.8,20,4.2.7-.1,1.2.2,1.6.7s.5,1.1.3,1.6c-2.3,7.2-.2,16.2,5.3,23.2,4.5,5.8,11.3,10.6,20.7,14.7,9.1,3.9,22.3,7.6,33,2.2.4-.2,1-.2,1.4-.1s.9.4,1.1.9c5.5,11.1,16.3,19.1,28.5,20.8,1,.1,1.6,1.1,1.5,2.1-.2,1-1.1,1.6-2.1,1.5h0Z"/>
      </g>
      <g>
        <path class="cls-17" d="M245.5,412.2c2.1-3.8,2.9-7.2,2.6-11.6-.1-1.5-.2-3.1-1.1-4.3s-2.3-2.2-3.7-1.9c-2,.5-2.6,2.7-3.1,4.7-1,4.2-.7,7,.4,11.3.4,1.8,1.6,3.9,3.4,3.3.5-.2,1-.9,1.4-1.5h.1Z"/>
        <path class="cls-17" d="M218.1,491.7c1.5-4.2,1.5-8.8,1.1-13-.2-1.5-.7-3.3-2.1-3.8-1.1-.3-2.3.1-3,1s-1,2-1.2,3.1c-.9,4.3-.9,8.6,1,12.5.5,1.2,1.8,2.6,3,2.1.7-.3,1-1.1,1.2-1.8h0Z"/>
        <path class="cls-17" d="M296.5,456.9c.4-3.6-.2-7.6-1.1-11.2-.3-1.2-.8-2.5-1.9-3.2-1.6-1.1-4.1,0-5,1.8-1.9,3.3-1.1,8.4-.2,11.8.7,2.7,2.4,6.2,5.2,5.6,2-.3,2.9-2.7,3.1-4.8h-.1Z"/>
        <path class="cls-17" d="M279.5,319.4c2.3-3.7,3.6-10.1,1.2-14.1-.7-1.2-1.9-2.2-3.3-2.1-1.8.2-2.6,2.2-3.1,3.9-.8,3.5-1.5,7.7-.1,11.2.7,1.5,2.1,3.1,3.6,2.5.8-.1,1.2-.8,1.6-1.4h0Z"/>
        <path class="cls-17" d="M233.4,327.1c.7,1,1.8,1.6,2.9,1.4,4.9-.8,3.9-8.8,3.3-12.2-.3-1.4-1-3-2.4-3.3-1.2-.3-2.5.5-3.2,1.6s-.8,2.4-.9,3.6c-.2,3-1.4,6,.3,8.8h0Z"/>
        <path class="cls-17" d="M193.6,430.4c.4.9,1.1,1.8,2,2,2,.5,3.3-2,3.8-3.8,1-3.6,2-7.7.9-11.4-.4-1.3-1.1-2.6-2.3-3.2-1.5-.7-3.4.2-4.4,1.6-2.6,3.9-2.1,10.6,0,14.8h0Z"/>
      </g>
      <path class="cls-1" d="M417.3,128.4c1,5.3-5.5,8.8-10.9,9.4-12,1.3-23.8-2.4-35.2-6.1-12-3.9-23.9-7.9-35.9-11.8-7.9-2.5-26.5-4.9-15.9-14.8,7.1-6.7,15.4-10.9,23.1-16.4,8.9-6.4,18.4-12,28.7-15.7,7.3-2.6,30.5-10.9,35.9-1.4,2.7,4.9-2,10.7-6.6,14-3.4,2.5-7,4.9-10.7,7,8.7-2.3,18.3-1.5,26.2,2.9,2.4,1.3,4.9,3.8,4.1,6.5-.5,1.5-2.2,2.4-3.7,3.1-8.2,3.6-17.4,5.4-26.4,5,9.8,1.3,19,6.4,25.1,14.1,1,1.2,1.9,2.6,2.2,4.3h0Z"/>
      <path class="cls-11" d="M211.4,158.2c-3.2.1-4.6,3.9-2.4,6.2,10,10,22.9,16.8,35.4,23.4,1.1.5,2.2,1.1,3.4,1,1.4-.1,2.6-1.2,3.5-2.3,5-5.6,8.2-12.5,10.7-19.6.7-1.9,3.8-8.4,2.7-10.2-1.2-2-8.6-.7-10.6-.5-8.6.2-17.1.4-25.7.7-1.9.1-10.4,1.1-17.1,1.4h0Z"/>
      <path class="cls-3" d="M312.3,152.1c.8-4.3-2.1-8.4-6.1-9.9-4.3-1.5-9.1-.1-12.5,2.7-1,.8-1.3,2.1-.7,3.2.7,1,2.2,1.4,3.2.7,1.3-1.1,2.5-1.9,4.1-2.3.9-.2,1.2-.3,2.1-.3h.7c.4,0-.5-.1.2,0,.4,0,.8.1,1.2.2.1,0,.3.1,0,0,.2.1.4.1.7.2.1.1.2.1.4.2,0,0,.5.3.2.1.3.2.5.4.9.8.1.1.2.2.3.3-.2-.2.1.1.1.1.2.3.4.5.5.9.1.2-.1-.2.1.1.1.2.1.3.2.5,0,.1.1.4.1.1,0,.2,0,.3.1.5v.5c0-.4,0,.1,0,.2-.2,1.2.5,2.4,1.8,2.6,1,.4,2.2-.4,2.4-1.6h0v.2Z"/>
    </g>
  </g>
  <path class="cls-1" d="M743.2,6.3c-4.8,5.7-9.9,11.2-15.4,16.4-4.5,4.2-9.4,7.4-12.1,13-1.4,2.9,2,6.5,4.9,5.7,6.8-1.9,11.4-7.5,16.1-12.5,5.2-5.4,9.8-11.2,14.2-17.3,3.5-5-3.9-9.7-7.6-5.2h-.1Z"/>
  <path class="cls-1" d="M773.1,26.3c-8.9,2.2-16.9,8.2-24.2,13.4-6.1,4.3-17,9.9-16.8,18.3,0,2.2,1.3,3.7,3.5,4.1,7.8,1.4,14.6-7.2,20.4-11.5,7.3-5.5,15.7-10.2,21.8-17.1,2.7-3-1-8.1-4.7-7.2Z"/>
  <path class="cls-1" d="M764.2,74.7c-7.3-.6-16.1.6-22.7,3.7-4.5,2.1-3.3,9.3,1.8,9.5,3.5,0,7-.3,10.5-.4,3.7-.2,7.4,0,11.1-.2,3.1-.2,5.3-3.8,5.1-6.6-.2-3.2-2.6-5.7-5.8-6h0Z"/>
  <g>
    <path class="cls-1" d="M604.5,63.2c-1.5-6.5-11.6-8.5-14.8-2.3-8.3,16.2-12.3,34.1-15.8,52-8.4-1.4-16.9-3.1-25.5-4,3.5-17.3,6.7-34.8,6.9-52.4.2-12.9-16.5-13.6-21-3.1-13,30.5-17.9,65.1-25.1,97.4-4,17.9-16.5,44.7-4.7,61.5,5.3,7.6,14.6,9.8,22,3.4.5-.4,1.1-.9,1.6-1.4,2.6-2.3,4.3-7.1,3-10.5-5.2-13.2,4.9-44,10.4-63.8,8.5,2.1,17.2,3.2,25.7,4.6-5.9,21.9-16.8,45.3-10.3,67.1,2.1,7,10.2,9.2,15.7,4.5,19.9-16.8,21.6-49.8,26.7-74.2,5.3-25.8,11.1-53.1,5.2-79.2h0v.4Z"/>
    <path class="cls-1" d="M655,133.6c-3.2-5.8-10.2-6-14.9-2.3-9.8,7.6-11.4,21.2-14.8,32.6-4,13.2-9,26.5-11.9,40-3.1,15.1,19,27.8,26.7,11.8,6.6-13.6,10.7-28.7,14-43.5,2.8-12.6,7.4-26.7.9-38.6h0Z"/>
    <path class="cls-1" d="M684,74.2c-7-6.6-16.5-7.9-25.1-3.4-7.2,3.7-11.9,11.2-12.2,19.3-.3,6.8,3.5,13.7,9.7,16.4,5.3,2.3,11.7,2.1,16.8-.8,3.5-2,6.4-5,8.3-8.5.7-.7,1.3-1.4,2-2.1,5.3-5.5,6.5-15.2.5-20.9h0Z"/>
  </g>
  <path class="cls-11" d="M246.2,102.3s65.8,6.8,107.8,35.4c59,40.1,77.7,84.6,77.7,84.6l-14.7-56.1s30.4-74.2-9.9-100.7c-62.2-41-106.9,26.6-106.9,26.6l-54,10.3h0Z"/>
  <path class="cls-13" d="M365,94.5c-30.5-15.9-55.2-14.6-55.2-14.6l-9.6,12.1s24.4,1.1,51.4,17c27,16,65.4,57.1,65.4,57.1l5.5-17.1s-16.9-33.4-57.5-54.4h0Z"/>
  <g>
    <path class="cls-4" d="M101.9,365.1c-9.5-3.3-20,1.9-23.2,11.4-3.3,9.5,1.9,20,11.4,23.2,9.5,3.3,20-1.9,23.2-11.4,3.4-9.5-1.8-20-11.4-23.2ZM93.7,389.6c-3.8-1.3-5.9-5.5-4.6-9.4,1.3-3.8,5.5-5.9,9.4-4.6,3.8,1.3,5.9,5.5,4.6,9.4-1.3,3.8-5.6,5.9-9.4,4.6Z"/>
    <path class="cls-4" d="M840.1,176.2c-6.9-4.4-16.1-2.3-20.5,4.6s-2.3,16.1,4.6,20.5,16.1,2.3,20.5-4.6c4.4-6.9,2.3-16.1-4.6-20.5ZM828.9,193.9c-2.9-1.8-3.6-5.5-1.9-8.3s5.5-3.6,8.3-1.9,3.6,5.5,1.9,8.3c-1.9,2.7-5.5,3.6-8.3,1.9Z"/>
    <path class="cls-4" d="M108.5,231.6c-8.1-2.7-17,1.6-19.7,9.8s1.6,17,9.8,19.7,17-1.6,19.7-9.8c2.7-8.1-1.6-17-9.8-19.7Z"/>
    <path class="cls-4" d="M48.7,318.7c-6.4-2.2-13.2,1.2-15.4,7.6s1.2,13.2,7.6,15.4c6.4,2.2,13.2-1.2,15.4-7.6,2.1-6.2-1.3-13.2-7.6-15.4Z"/>
    <circle class="cls-4" cx="178.5" cy="29.2" r="8.1"/>
    <circle class="cls-4" cx="429.8" cy="12.3" r="8.1"/>
    <circle class="cls-4" cx="846.9" cy="250.5" r="8.1" transform="translate(-14.4 55.2) rotate(-3.7)"/>
    <circle class="cls-4" cx="68.5" cy="162.7" r="8.8"/>
    <path class="cls-4" d="M159,104.9l7.6-1.8c2.6-.5,4.3-3.2,3.7-5.9-.5-2.6-3.2-4.3-5.9-3.7l-7.6,1.8-1.8-7.6c-.5-2.6-3.2-4.3-5.9-3.7-2.6.5-4.3,3.2-3.7,5.9l1.8,7.6-7.6,1.8c-2.6.5-4.3,3.2-3.7,5.9.5,2.6,3.2,4.3,5.9,3.7l7.6-1.8,1.8,7.6c.5,2.6,3.2,4.3,5.9,3.7,2.6-.5,4.3-3.2,3.7-5.9l-1.8-7.6Z"/>
    <path class="cls-4" d="M744.2,195l7.6-1.8c2.6-.5,4.3-3.2,3.7-5.9-.5-2.6-3.2-4.3-5.9-3.7l-7.6,1.8-1.8-7.6c-.5-2.6-3.2-4.3-5.9-3.7-2.6.5-4.3,3.2-3.7,5.9l1.8,7.6-7.6,1.8c-2.6.5-4.3,3.2-3.7,5.9.5,2.6,3.2,4.3,5.9,3.7l7.6-1.8,1.8,7.6c.5,2.6,3.2,4.3,5.9,3.7,2.6-.5,4.3-3.2,3.7-5.9l-1.8-7.6Z"/>
  </g>
</svg>