<?xml version="1.0" encoding="utf-8"?>
<!-- Generator: Adobe Illustrator 28.0.0, SVG Export Plug-In . SVG Version: 6.00 Build 0)  -->
<svg version="1.1" id="object" xmlns="http://www.w3.org/2000/svg" xmlns:xlink="http://www.w3.org/1999/xlink" x="0px" y="0px"
	 viewBox="0 0 230 90" style="enable-background:new 0 0 230 90;" xml:space="preserve">
<style type="text/css">
	.st0{fill:#FFC93D;}
	.st1{fill:#FFECB5;}
</style>
<path class="st0" d="M182.4,35.1h-37.5v-5.4c0-16.4-13.3-29.7-29.6-29.7h-0.6C98.3,0,85.1,13.3,85.1,29.7v5.4H47.5
	c-1.9,0-3.5,1.6-3.5,3.5v38c0,1.9,1.6,3.5,3.5,3.5h134.9c1.9,0,3.5-1.6,3.5-3.5v-38C185.9,36.6,184.4,35.1,182.4,35.1L182.4,35.1z
	 M115,31.5c-5.5,0-9.9-4.4-9.9-9.9s4.4-9.9,9.9-9.9s9.9,4.4,9.9,9.9S120.5,31.5,115,31.5z"/>
<path class="st0" d="M10.9,35h208.2c6,0,10.9,4.9,10.9,10.9v33.1c0,6-4.9,10.9-10.9,10.9H10.9C4.9,90,0,85.1,0,79.1V46
	C0,39.9,4.9,35,10.9,35z"/>
<g>
	<rect y="68.8" class="st1" width="230" height="6.6"/>
	<path class="st1" d="M228.9,80.1H1.3c-0.7,0-1.3-0.4-1.3-0.9v-2h230v2.2C230,79.7,229.5,80.1,228.9,80.1L228.9,80.1z"/>
</g>
</svg>
