<?xml version="1.0" encoding="UTF-8"?>
<svg id="_圖層_1" data-name="圖層 1" xmlns="http://www.w3.org/2000/svg" viewBox="0 0 90 100">
  <defs>
    <style>
      .cls-1 {
        fill: #d74c38;
      }

      .cls-1, .cls-2 {
        stroke-width: 0px;
      }

      .cls-2 {
        fill: #f5f1e9;
      }
    </style>
  </defs>
  <path class="cls-2" d="m88.24,35.59C84.17,13.88,54.28-6.29,33.44,2.79,12.18,12.04-4.73,36.44,2.22,57.65c2.66,8.12,9.21,16.45,17.47,22.96-1,8.25-2.21,18.14-2.36,18.83l14.66-11.2c10.82,5.06,22.62,6.46,32.14,1.1,21.62-12.17,28.16-32.03,24.09-53.74h.02Z"/>
  <path class="cls-1" d="m31.59,36.04c-.7-.4-1.17-.65-1.42-.75l5.33-9.98c.1.1.33.24.68.45.36.21.79.44,1.28.69l-4.34,8.14,1.48.84c.43.25.78.43,1.06.54-.65,1.14-.99,1.73-1.01,1.78l-.04.07c-.45-.3-1.23-.77-2.33-1.4l-.68-.39Zm11.65,4.31c.3.17.52.26.66.26l.02.02-1.07,1.83-5.36-3.06,5.31-9.94c.12.08.26.17.42.27l.49.3c.33.2.69.41,1.08.64,1.09.62,2.18,1.22,3.27,1.79-.28.41-.62.97-1.01,1.7-.04.08-.07.14-.08.19h-.03c-.21-.2-.54-.44-1-.7l-2.25-1.29-1.01,1.9,1.7.97c.53.3.85.46.97.49l-.96,1.85c-.22-.16-.51-.34-.87-.54l-1.78-1.01-1.43,2.68,2.92,1.67Zm6.19,5.92c-.21-.16-.8-.51-1.74-1.05l-.23-.13,4.39-8.23-1.42-.81c-.42-.24-.68-.36-.78-.36-.1,0-.18,0-.24.02l-.02-.02,1.02-1.9h.03c.13.13.54.4,1.23.8l4.49,2.56c.42.24.68.36.78.36.1,0,.18,0,.24-.02l.02.02-1.02,1.9h-.03c-.13-.13-.54-.4-1.23-.8l-1.07-.61-4.41,8.27Zm13.02-6.65c-.22.55-.41.96-.55,1.23-.14.26-.29.51-.44.75-.15.24-.29.45-.42.63-.3.39-.52.58-.66.6-.32.02-.98-.12-1.96-.44l-.02-.07c.35-.23.83-.93,1.44-2.08.27-.51.49-.95.66-1.34l1.94.72Zm8.89,6.9l-1.3,2.11h-.06c-.06-.77-.47-1.47-1.23-2.11-.24-.21-.48-.38-.73-.52-.24-.14-.47-.24-.67-.29-.2-.05-.38-.07-.55-.06-.36.03-.61.19-.77.47-.2.38-.24.72-.11,1.04.17.39.55.82,1.17,1.3.62.47,1.08.89,1.4,1.28.32.39.54.78.67,1.17.24.73.14,1.52-.3,2.35-.58,1.09-1.43,1.71-2.53,1.84-.95.12-1.94-.12-2.97-.7-.83-.47-1.56-1.11-2.2-1.9-.21-.26-.38-.52-.5-.78l1.4-2.44h.04c.03,1.39.71,2.48,2.06,3.25.96.55,1.72.67,2.29.36.19-.1.34-.25.45-.45.11-.2.17-.39.17-.55,0-.17-.03-.34-.13-.52-.18-.35-.57-.74-1.19-1.18-.62-.44-1.09-.86-1.41-1.28-.32-.42-.53-.83-.64-1.23-.19-.73-.06-1.52.39-2.38.47-.88,1.15-1.43,2.04-1.63.9-.21,1.87-.02,2.89.56,1.03.59,1.8,1.35,2.31,2.28Zm-40.27,6.27c-.18.12-.44.5-.78,1.13l-1.23,2.31c-.37.7-1.05,1.11-2.02,1.23-1.01.13-2.04-.1-3.08-.7-1.45-.83-2.35-1.96-2.71-3.4-.35-1.38-.16-2.77.59-4.17.79-1.49,1.88-2.48,3.26-2.99,1.55-.57,3.15-.39,4.82.56,1.11.63,1.87,1.36,2.28,2.18l-1.29,2.13-.07-.02c0-.4-.2-.83-.59-1.31-.37-.45-.81-.82-1.33-1.12-.51-.29-1-.46-1.48-.51-.47-.05-.92,0-1.36.17-.9.32-1.64,1-2.2,2.05-.49.92-.63,1.8-.43,2.63.2.83.69,1.47,1.48,1.92.86.49,1.57.59,2.12.3.17-.09.31-.24.41-.42l.66-1.23-.92-.53c-.5-.28-.79-.39-.88-.33l-.02-.02.97-1.98c.11.12.64.44,1.59.99l.84.48c.52.3.97.51,1.35.62v.03Zm1.31,7c-.2-.68-.27-1.39-.2-2.14.07-.75.3-1.48.69-2.2.39-.72.87-1.34,1.45-1.85.58-.51,1.22-.89,1.91-1.13.7-.24,1.43-.33,2.2-.27.77.06,1.54.31,2.3.74,1.32.75,2.2,1.82,2.64,3.19.47,1.47.29,2.99-.55,4.56-.81,1.52-1.98,2.5-3.51,2.94-.94.27-1.9.28-2.87.03-.48-.12-.99-.34-1.55-.66-.55-.32-1.06-.76-1.52-1.33-.45-.57-.78-1.19-.99-1.87Zm2.53-3.31c-.25.46-.4.93-.46,1.4-.06.47-.03.92.08,1.35.25.9.81,1.61,1.69,2.11.84.48,1.65.58,2.46.31.83-.29,1.5-.93,2.04-1.93.5-.94.68-1.87.52-2.78-.17-.98-.72-1.73-1.64-2.25-.89-.51-1.78-.57-2.67-.19-.83.36-1.51,1.02-2.02,1.99Zm11.83,9.41c-.23-.17-.64-.42-1.23-.76l-.57-.33,3.87-7.28.64.4.16.09c.55.32.92.5,1.09.54l-3.95,7.33Zm-.49,1.02c-.15.24-.33.55-.54.94-.2.38-.34.66-.42.85l-1.9-1.08c.2-.29.38-.58.54-.87.16-.3.3-.6.43-.9l1.88,1.07Z"/>
</svg>