<?xml version="1.0" encoding="utf-8"?>
<!-- Generator: Adobe Illustrator 28.3.0, SVG Export Plug-In . SVG Version: 6.00 Build 0)  -->
<svg version="1.1" id="圖層_1" xmlns="http://www.w3.org/2000/svg" xmlns:xlink="http://www.w3.org/1999/xlink" x="0px" y="0px"
	 viewBox="0 0 269.8 211.1" style="enable-background:new 0 0 269.8 211.1;" xml:space="preserve">
<style type="text/css">
	.st0{fill:#D6CFC1;}
	.st1{fill:#EDE6D9;}
	.st2{fill:#EF5C3F;}
	.st3{fill:#FFC93D;}
	.st4{fill:#564336;}
	.st5{fill:#ED7454;}
	.st6{fill:#FFFFFF;}
	.st7{fill:#F2EAD7;}
	.st8{fill:#F5F1E9;}
	.st9{fill:#D74C38;}
</style>
<g>
	<g>
		<path class="st0" d="M7.6,170.3c0,0-8.5-10.4-7.5-10.6c1.1-0.1,9.9-1,9.9-1l-5-12l14.8,1.2l-6.7-10.7l13.7-4.6l3.8,20L7.6,170.3
			L7.6,170.3z"/>
		<path class="st1" d="M32.2,127.7l67-4.2c0,0,9.7-42.6,22.2-51.2c8-5.5,32-5.5,34.3,15.5c1.6,14.7,7.1,76.2-7.8,94.6
			c-23.5,29.2-59.1,31-84.4,27.2c-40.3-6-59.6-42.3-59.6-42.3l7.3-1.8L5,155.1l13.6-0.9l-5.5-11.7l10.8,1.5l-5.1-15.1L32.2,127.7
			L32.2,127.7z"/>
		<path class="st0" d="M42.2,166.3c0,0,21.3-19.5,40-26.6c18.1-6.8,40.8,11,29.7,27.4c-11.4,16.9-52.2,19.1-52.2,19.1l3.1-10.5
			l-13.3,1.4L53,166L42.2,166.3z"/>
		<path class="st2" d="M114.9,79.9c0,0,3.6-5.5,15.2-8.2c11-2.6,15.7,0.5,15.7,0.5s-1.7-12.5-7.6-14.2c-6-1.6-7.2,2.6-7.2,2.6
			s-2-2.8-6-0.6c-4.1,2.2-4.2,5.3-4.2,5.3s-3.3-0.4-5.6,2.4C112.7,70.6,114.9,79.9,114.9,79.9L114.9,79.9z"/>
		<path class="st3" d="M153.9,84.7c0,0-0.8,3.2-0.5,7.7s2.5,7.5,2.5,7.5s12.1-6.9,11.8-9.4S153.9,84.7,153.9,84.7z"/>
		<path class="st4" d="M140.8,83c0.1,1.1-0.6,2-1.6,2.2c-1,0.1-2-0.6-2.1-1.7s0.6-2,1.6-2.2C139.7,81.2,140.7,81.9,140.8,83z"/>
		<path class="st4" d="M154.5,80.1c0.1,1-0.6,1.9-1.5,2c-1,0.1-1.8-0.6-1.9-1.6c-0.1-1,0.6-1.9,1.5-2S154.4,79.1,154.5,80.1z"/>
		<path class="st5" d="M118.3,67.3c-0.5,0.2-0.9,0.6-1.1,1c-1.8,1.4-2.5,3.9-0.9,6.2c1-1.4,1-2.5,2.8-3.3c1.1-0.5,2.8-1,2.7-2.6
			C121.5,66.9,119.5,66.8,118.3,67.3z"/>
		<path class="st5" d="M126.9,60.6c-1,0-2.8,0.9-3.5,2c-0.5,0.6-0.9,1.3-0.8,2c0.3,2.7,3.2,0.3,4.3-0.5
			C128.4,63.1,129.8,60.5,126.9,60.6z"/>
		<path class="st6" d="M115.4,121l5.2-5.5l-2.2-1.6l-1.7,2.7l-0.7-2.9l-2.6,0.3L115.4,121z"/>
		<path class="st6" d="M130.2,154.8l5.2-5.5l-2.2-1.6l-1.7,2.8l-0.7-2.9l-2.6,0.3L130.2,154.8z"/>
		<path class="st6" d="M128.3,114.3l3.1,11.4l6-9.9l-3.5-0.5l-1.4,3.3l-1.4-4.4L128.3,114.3z"/>
		<path class="st6" d="M142.7,152.2l2.8,9.8l5.3-10.3l-3.5-0.2l-1.2,3.3l-1.7-4.2L142.7,152.2z"/>
		<path class="st6" d="M147.3,133.3l4,9.4l4.1-10.9l-3.5,0.2l-0.8,3.5l-2.2-4L147.3,133.3z"/>
		<path class="st6" d="M135.2,133.5l4,9.4l4.1-10.9l-3.5,0.2l-0.8,3.5l-2.2-4L135.2,133.5z"/>
		<path class="st6" d="M120.2,129.7l4,9.4l4.1-10.9l-3.5,0.2l-0.8,3.5l-2.2-4L120.2,129.7z"/>
		<path class="st6" d="M142.7,118.9l3.8,8.7l3.9-10.1l-3.3,0.2l-0.9,3.3l-1.2-3.1L142.7,118.9z"/>
		<path class="st6" d="M133.1,166.3l0.2,9.6l7.5-7.7l-3.1-1.2l-2,2.6l0.1-3.4L133.1,166.3z"/>
		<path class="st7" d="M80,144.8l-4.8,7l9-1l-1.9-2.3l-2.7,0.8l1.9-2.8L80,144.8z"/>
		<path class="st7" d="M85.7,155l-6.4,5.5l9.8,1l-1.2-1.9l-3.3-0.4l2.2-1.8L85.7,155z"/>
		<path class="st7" d="M91.6,167.1l-5.1,4.9l8.4,1.2l-1.1-2.4h-3.4l2.5-1.4L91.6,167.1z"/>
		<path class="st7" d="M68.5,150.3l-3.4,5.3l6.1-0.2l-0.5-2.3l-2.2,0.3l1-1.6L68.5,150.3z"/>
		<path class="st7" d="M72,159.3l-4.7,4.4l8.8,1l-1.1-2.4l-3.2,0.4l2-2.2L72,159.3z"/>
		<path class="st7" d="M77.9,168.9l-4.7,6.1l9.2,0.5l-1.1-2.6l-3.6,0.3l2.2-2L77.9,168.9z"/>
		<path class="st7" d="M88.5,139.7l-3.4,5.3l6.5,0.4l-1.1-2.2l-2,0.3l0.8-1.8L88.5,139.7z"/>
		<path class="st7" d="M96,150.1l-4.7,6.3l7.9,0.5l-1.1-2.2l-3.2,0.4l2.4-2.2L96,150.1z"/>
		<path class="st7" d="M102.2,161.1l-5.3,6.2l8.3,0.2l-1.1-2.6l-3,0.4l1.8-2.1L102.2,161.1z"/>
	</g>
	<path class="st8" d="M269.7,37.1c-1.3-22.3-32.6-42.3-54.6-35.9c-22.4,6.5-38.5,25-34.3,47c1.6,8.5,7.2,17.6,14.5,25.2
		c-4.2,8.3-4.7,11.7-4.9,12.4l16.4-3.1c10.2,6.4,21.7,9.3,32,5.1C262,78.4,271,59.4,269.7,37.1L269.7,37.1z"/>
	<path class="st9" d="M211.6,32.9c-0.8-0.3-1.4-0.7-1.6-0.7l4.7-10.9c0.1,0.1,0.3,0.2,0.8,0.5c0.3,0.2,0.8,0.3,1.4,0.7l-4,8.8
		l1.6,0.8c0.5,0.2,0.8,0.3,1.1,0.5c-0.7,1.2-0.9,1.8-0.9,1.9v0.1c-0.5-0.2-1.4-0.7-2.5-1.2L211.6,32.9z M224.2,36.4
		c0.2,0.2,0.6,0.2,0.8,0.2l0,0l-1,1.9l-5.9-2.8l4.7-10.9c0.1,0.1,0.2,0.2,0.5,0.2l0.6,0.2c0.3,0.2,0.8,0.3,1.2,0.6
		c1.2,0.6,2.4,1.1,3.5,1.6c-0.2,0.5-0.6,1-0.9,1.8c0,0.1-0.1,0.2-0.1,0.2l0,0c-0.2-0.2-0.6-0.5-1.1-0.7l-2.4-1.1l-0.9,2l1.8,0.9
		c0.6,0.2,0.9,0.5,1,0.5l-0.9,2c-0.2-0.2-0.6-0.2-0.9-0.6l-1.9-0.9l-1.2,2.9L224.2,36.4z M231.1,42.1c-0.2-0.2-0.8-0.5-1.8-1
		l-0.2-0.1l4-8.9l-1.6-0.7c-0.5-0.2-0.8-0.3-0.8-0.3c-0.1,0-0.2,0-0.2,0l0,0l0.9-2l0,0c0.2,0.2,0.6,0.3,1.4,0.7l5,2.4
		c0.5,0.2,0.8,0.3,0.8,0.3c0.1,0,0.2,0,0.2,0l0,0l-0.9,2l0,0c-0.2-0.2-0.6-0.3-1.4-0.7l-1.2-0.6L231.1,42.1z M244.2,34.2
		c-0.2,0.6-0.3,1-0.5,1.4c-0.1,0.2-0.2,0.6-0.3,0.8c-0.1,0.2-0.2,0.5-0.3,0.7c-0.2,0.5-0.5,0.7-0.7,0.7c-0.3,0-1-0.1-2-0.3v-0.1
		c0.3-0.2,0.8-1,1.4-2.3c0.2-0.6,0.5-1,0.7-1.5L244.2,34.2z M254,40.8l-1.1,2.4h-0.1c-0.1-0.8-0.6-1.5-1.5-2.1
		c-0.2-0.2-0.6-0.3-0.8-0.5s-0.5-0.2-0.8-0.2c-0.2,0-0.3-0.1-0.6,0c-0.3,0.1-0.7,0.3-0.7,0.6c-0.2,0.3-0.2,0.8-0.1,1.1
		c0.2,0.3,0.7,0.8,1.4,1.2c0.7,0.5,1.2,0.8,1.6,1.2c0.3,0.3,0.7,0.7,0.8,1.2c0.3,0.8,0.3,1.6-0.1,2.5c-0.6,1.2-1.4,1.9-2.5,2.1
		c-1,0.2-2,0-3.2-0.6c-0.9-0.5-1.7-1-2.4-1.8c-0.2-0.2-0.5-0.6-0.6-0.7l1.2-2.7l0,0c0.1,1.5,0.9,2.6,2.5,3.2c1,0.6,1.8,0.6,2.4,0.2
		c0.2-0.1,0.3-0.2,0.5-0.5c0.1-0.2,0.2-0.3,0.2-0.6c0-0.2-0.1-0.3-0.2-0.6c-0.2-0.3-0.7-0.7-1.4-1.1c-0.7-0.5-1.2-0.8-1.6-1.2
		c-0.3-0.3-0.7-0.8-0.8-1.2c-0.3-0.8-0.2-1.6,0.2-2.5c0.5-0.9,1.1-1.6,2-1.9c0.9-0.3,1.9-0.2,3.1,0.3
		C252.6,39.1,253.5,39.9,254,40.8z M212.3,50.4c-0.2,0.1-0.5,0.6-0.7,1.2l-1.1,2.5c-0.3,0.8-1,1.2-2,1.5c-1,0.2-2.1,0-3.3-0.6
		c-1.6-0.7-2.6-1.9-3.1-3.4c-0.5-1.4-0.5-2.8,0.3-4.4c0.8-1.6,1.8-2.7,3.2-3.4c1.6-0.8,3.3-0.7,5.1,0.2c1.2,0.6,2,1.2,2.5,2.1
		l-1.1,2.4H212c0-0.3-0.3-0.8-0.8-1.2c-0.3-0.5-0.9-0.8-1.5-1.1c-0.6-0.2-1.1-0.5-1.6-0.5s-0.9,0.1-1.4,0.3
		c-0.9,0.3-1.7,1.1-2.1,2.4c-0.5,1-0.6,1.9-0.2,2.8c0.3,0.8,0.9,1.5,1.7,1.9c0.9,0.5,1.7,0.6,2.3,0.1c0.2-0.1,0.2-0.2,0.3-0.5
		l0.7-1.4l-1-0.6c-0.6-0.2-0.8-0.3-0.9-0.2l0,0l0.9-2.1c0.1,0.1,0.8,0.5,1.8,0.9l0.9,0.5C211.4,50.1,211.9,50.3,212.3,50.4
		L212.3,50.4z M214.4,57.6c-0.3-0.8-0.3-1.5-0.5-2.3c0-0.8,0.1-1.6,0.6-2.4c0.3-0.8,0.8-1.5,1.4-2c0.6-0.6,1.2-1,1.9-1.4
		c0.8-0.3,1.5-0.5,2.3-0.5c0.8,0,1.7,0.1,2.5,0.6c1.4,0.7,2.4,1.7,3.1,3.2c0.6,1.5,0.5,3.2-0.2,4.9c-0.7,1.7-1.9,2.8-3.5,3.4
		c-0.9,0.3-1.9,0.5-2.9,0.2c-0.5-0.1-1-0.2-1.7-0.6c-0.6-0.2-1.2-0.7-1.7-1.2C215,58.9,214.5,58.3,214.4,57.6z M216.7,54
		c-0.2,0.5-0.3,1-0.3,1.5c0,0.5,0,0.9,0.2,1.4c0.3,0.9,0.9,1.7,1.9,2.1c0.9,0.5,1.8,0.5,2.6,0.1c0.8-0.3,1.5-1.1,2-2.1
		c0.5-1,0.6-2,0.3-2.9c-0.3-1-0.9-1.7-1.9-2.1c-0.9-0.5-1.9-0.5-2.8,0C217.7,52.1,217.2,52.9,216.7,54z M229.7,62.9
		c-0.2-0.2-0.8-0.3-1.4-0.7l-0.7-0.2l3.5-7.9l0.7,0.3l0.2,0.1c0.6,0.2,1,0.5,1.2,0.5L229.7,62.9z M229.4,64c-0.2,0.2-0.2,0.6-0.5,1
		c-0.2,0.3-0.2,0.8-0.3,0.9l-2-1c0.2-0.2,0.3-0.7,0.6-0.9c0.2-0.3,0.2-0.7,0.3-0.9L229.4,64z"/>
</g>
</svg>
