<?xml version="1.0" encoding="utf-8"?>
<!-- Generator: Adobe Illustrator 28.0.0, SVG Export Plug-In . SVG Version: 6.00 Build 0)  -->
<svg version="1.1" id="圖層_1" xmlns="http://www.w3.org/2000/svg" xmlns:xlink="http://www.w3.org/1999/xlink" x="0px" y="0px"
	 viewBox="0 0 170 155" style="enable-background:new 0 0 170 155;" xml:space="preserve">
<style type="text/css">
	.st0{fill:#D6CFC1;}
	.st1{fill:#EDE6D9;}
	.st2{fill:#EF5C3F;}
	.st3{fill:#FFC93D;}
	.st4{fill:#564336;}
	.st5{fill:#ED7454;}
	.st6{fill:#FFFFFF;}
	.st7{fill:#F2EAD7;}
	.st8{fill:#F5F1E9;}
	.st9{fill:#D74C38;}
</style>
<g>
	<path class="st0" d="M8.7,113.4c0,0-8.5-10.4-7.5-10.6c1.1-0.1,9.9-1,9.9-1l-5-12L20.9,91l-6.7-10.7l13.7-4.6l3.8,20L8.7,113.4
		L8.7,113.4z"/>
	<path class="st1" d="M33.3,70.8l67-4.2c0,0,9.7-42.6,22.2-51.2c8-5.5,32-5.5,34.3,15.5c1.6,14.7,7.1,76.2-7.8,94.6
		c-23.5,29.2-59.1,31-84.4,27.2c-40.3-6-59.6-42.3-59.6-42.3l7.3-1.8L6.1,98.2l13.6-0.9l-5.5-11.7L25,87.1L19.9,72L33.3,70.8
		L33.3,70.8z"/>
	<path class="st0" d="M43.3,109.4c0,0,21.3-19.5,40-26.6c18.1-6.8,40.8,11,29.7,27.4c-11.4,16.9-52.2,19.1-52.2,19.1l3.1-10.5
		l-13.3,1.4l3.5-11.1L43.3,109.4z"/>
	<path class="st2" d="M116,23c0,0,3.6-5.5,15.2-8.2c11-2.6,15.7,0.5,15.7,0.5s-1.7-12.5-7.6-14.2c-6-1.6-7.2,2.6-7.2,2.6
		s-2-2.8-6-0.6c-4.1,2.2-4.2,5.3-4.2,5.3s-3.3-0.4-5.6,2.4C113.8,13.7,116,23,116,23L116,23z"/>
	<path class="st3" d="M155,27.8c0,0-0.8,3.2-0.5,7.7c0.3,4.5,2.5,7.5,2.5,7.5s12.1-6.9,11.8-9.4C168.5,31.1,155,27.8,155,27.8z"/>
	<path class="st4" d="M141.9,26.1c0.1,1.1-0.6,2-1.6,2.2c-1,0.1-2-0.6-2.1-1.7c-0.1-1.1,0.6-2,1.6-2.2
		C140.8,24.3,141.8,25,141.9,26.1z"/>
	<path class="st4" d="M155.6,23.2c0.1,1-0.6,1.9-1.5,2c-1,0.1-1.8-0.6-1.9-1.6c-0.1-1,0.6-1.9,1.5-2
		C154.6,21.5,155.5,22.2,155.6,23.2z"/>
	<path class="st5" d="M119.4,10.4c-0.5,0.2-0.9,0.6-1.1,1c-1.8,1.4-2.5,3.9-0.9,6.2c1-1.4,1-2.5,2.8-3.3c1.1-0.5,2.8-1,2.7-2.6
		C122.6,10,120.6,9.9,119.4,10.4z"/>
	<path class="st5" d="M128,3.7c-1,0-2.8,0.9-3.5,2c-0.5,0.6-0.9,1.3-0.8,2c0.3,2.7,3.2,0.3,4.3-0.5C129.5,6.2,130.9,3.6,128,3.7z"/>
	<path class="st6" d="M116.5,64.1l5.2-5.5l-2.2-1.6l-1.7,2.7l-0.7-2.9l-2.6,0.3L116.5,64.1z"/>
	<path class="st6" d="M131.3,97.9l5.2-5.5l-2.2-1.6l-1.7,2.8l-0.7-2.9l-2.6,0.3L131.3,97.9z"/>
	<path class="st6" d="M129.4,57.4l3.1,11.4l6-9.9l-3.5-0.5l-1.4,3.3l-1.4-4.4L129.4,57.4z"/>
	<path class="st6" d="M143.8,95.3l2.8,9.8l5.3-10.3l-3.5-0.2l-1.2,3.3l-1.7-4.2L143.8,95.3z"/>
	<path class="st6" d="M148.4,76.4l4,9.4l4.1-10.9l-3.5,0.2l-0.8,3.5l-2.2-4L148.4,76.4z"/>
	<path class="st6" d="M136.3,76.6l4,9.4l4.1-10.9l-3.5,0.2l-0.8,3.5l-2.2-4L136.3,76.6z"/>
	<path class="st6" d="M121.3,72.8l4,9.4l4.1-10.9l-3.5,0.2l-0.8,3.5l-2.2-4L121.3,72.8z"/>
	<path class="st6" d="M143.8,62l3.8,8.7l3.9-10.1l-3.3,0.2l-0.9,3.3l-1.2-3.1L143.8,62z"/>
	<path class="st6" d="M134.2,109.4l0.2,9.6l7.5-7.7l-3.1-1.2l-2,2.6l0.1-3.4L134.2,109.4z"/>
	<path class="st7" d="M81.1,87.9l-4.8,7l9-1l-1.9-2.3l-2.7,0.8l1.9-2.8L81.1,87.9z"/>
	<path class="st7" d="M86.8,98.1l-6.4,5.5l9.8,1l-1.2-1.9l-3.3-0.4l2.2-1.8L86.8,98.1z"/>
	<path class="st7" d="M92.7,110.2l-5.1,4.9l8.4,1.2l-1.1-2.4l-3.4,0l2.5-1.4L92.7,110.2z"/>
	<path class="st7" d="M69.6,93.4l-3.4,5.3l6.1-0.2l-0.5-2.3l-2.2,0.3l1-1.6L69.6,93.4z"/>
	<path class="st7" d="M73.1,102.4l-4.7,4.4l8.8,1l-1.1-2.4l-3.2,0.4l2-2.2L73.1,102.4z"/>
	<path class="st7" d="M79,112l-4.7,6.1l9.2,0.5l-1.1-2.6l-3.6,0.3l2.2-2L79,112z"/>
	<path class="st7" d="M89.6,82.8l-3.4,5.3l6.5,0.4l-1.1-2.2l-2,0.3l0.8-1.8L89.6,82.8z"/>
	<path class="st7" d="M97.1,93.2l-4.7,6.3l7.9,0.5l-1.1-2.2l-3.2,0.4l2.4-2.2L97.1,93.2z"/>
	<path class="st7" d="M103.3,104.2l-5.3,6.2l8.3,0.2l-1.1-2.6l-3,0.4l1.8-2.1L103.3,104.2z"/>
</g>
<path class="st8" d="M241-234.4c-6.1-24.3-41.3-45.1-64.3-33.4c-23.4,11.9-40.9,40.7-31.6,64.2c3.6,9,11.6,18,21.3,24.8
	c-0.6,9.4-1.3,20.7-1.4,21.5L181-171c12.6,5,26,5.8,36.4-1C241.1-187.2,247.1-210.1,241-234.4L241-234.4z"/>
<path class="st9" d="M176.9-230c-0.8-0.4-1.4-0.7-1.7-0.8l5.3-11.7c0.1,0.1,0.4,0.3,0.8,0.5c0.4,0.2,0.9,0.4,1.5,0.7l-4.4,9.5
	l1.7,0.9c0.5,0.2,0.9,0.4,1.2,0.5c-0.7,1.3-1,2-1,2.1l0,0.1c-0.5-0.3-1.4-0.8-2.7-1.4L176.9-230z M190.4-226
	c0.3,0.2,0.6,0.3,0.8,0.3l0,0l-1.1,2.1l-6.3-3.1l5.3-11.6c0.1,0.1,0.3,0.2,0.5,0.3l0.6,0.3c0.4,0.2,0.8,0.4,1.3,0.6
	c1.3,0.6,2.6,1.2,3.8,1.8c-0.3,0.5-0.6,1.1-1,2c0,0.1-0.1,0.2-0.1,0.2l0,0c-0.3-0.2-0.6-0.5-1.2-0.7l-2.6-1.3l-1,2.2l2,1
	c0.6,0.3,1,0.5,1.1,0.5l-1,2.2c-0.3-0.2-0.6-0.3-1-0.6l-2.1-1l-1.4,3.1L190.4-226z M197.8-219.7c-0.3-0.2-0.9-0.5-2-1.1l-0.3-0.1
	l4.4-9.6l-1.7-0.8c-0.5-0.2-0.8-0.4-0.9-0.4c-0.1,0-0.2,0-0.3,0l0,0l1-2.2l0,0c0.2,0.2,0.6,0.4,1.4,0.8l5.3,2.6
	c0.5,0.2,0.8,0.4,0.9,0.4s0.2,0,0.3,0l0,0l-1,2.2l0,0c-0.2-0.2-0.6-0.4-1.4-0.8l-1.3-0.6L197.8-219.7z M212.1-228.1
	c-0.2,0.6-0.4,1.1-0.5,1.4c-0.1,0.3-0.3,0.6-0.4,0.9c-0.1,0.3-0.3,0.5-0.4,0.7c-0.3,0.5-0.5,0.7-0.7,0.7c-0.4,0-1.1-0.1-2.2-0.4
	l0-0.1c0.4-0.3,0.9-1.1,1.5-2.4c0.3-0.6,0.5-1.1,0.7-1.6L212.1-228.1z M222.6-220.9l-1.3,2.5l-0.1,0c-0.1-0.8-0.6-1.6-1.5-2.3
	c-0.3-0.2-0.6-0.4-0.9-0.5c-0.3-0.1-0.5-0.2-0.8-0.3c-0.2,0-0.4-0.1-0.6,0c-0.4,0.1-0.7,0.3-0.8,0.6c-0.2,0.4-0.2,0.8-0.1,1.2
	c0.2,0.4,0.7,0.9,1.4,1.4c0.7,0.5,1.3,0.9,1.7,1.4c0.4,0.4,0.7,0.8,0.8,1.3c0.3,0.8,0.3,1.7-0.2,2.7c-0.6,1.3-1.5,2-2.7,2.3
	c-1.1,0.2-2.2,0-3.4-0.6c-1-0.5-1.8-1.1-2.6-2c-0.3-0.3-0.5-0.6-0.6-0.8l1.4-2.9l0,0c0.1,1.6,1,2.8,2.6,3.5c1.1,0.6,2,0.6,2.6,0.3
	c0.2-0.1,0.4-0.3,0.5-0.5c0.1-0.2,0.2-0.4,0.2-0.6c0-0.2-0.1-0.4-0.2-0.6c-0.2-0.4-0.7-0.8-1.4-1.2c-0.7-0.5-1.3-0.9-1.7-1.4
	c-0.4-0.4-0.7-0.9-0.8-1.3c-0.3-0.8-0.2-1.7,0.3-2.7c0.5-1,1.2-1.7,2.2-2c1-0.3,2.1-0.2,3.3,0.4C221.1-222.7,222-221.9,222.6-220.9z
	 M177.5-211c-0.2,0.1-0.5,0.6-0.8,1.3l-1.2,2.7c-0.4,0.8-1.1,1.3-2.2,1.5c-1.1,0.2-2.3,0-3.5-0.6c-1.7-0.8-2.8-2.1-3.3-3.7
	c-0.5-1.5-0.4-3.1,0.4-4.8c0.8-1.7,2-2.9,3.5-3.6c1.7-0.8,3.5-0.7,5.5,0.3c1.3,0.6,2.2,1.4,2.7,2.3l-1.3,2.5l-0.1,0
	c0-0.4-0.3-0.9-0.8-1.4c-0.4-0.5-1-0.9-1.6-1.2c-0.6-0.3-1.2-0.5-1.7-0.5c-0.5,0-1,0.1-1.5,0.3c-1,0.4-1.8,1.2-2.3,2.5
	c-0.5,1.1-0.6,2.1-0.3,3c0.3,0.9,0.9,1.6,1.8,2.1c1,0.5,1.8,0.6,2.4,0.2c0.2-0.1,0.3-0.3,0.4-0.5l0.7-1.4l-1.1-0.5
	c-0.6-0.3-0.9-0.4-1-0.3l0,0l1-2.3c0.1,0.1,0.8,0.5,1.9,1l1,0.5C176.5-211.4,177-211.2,177.5-211L177.5-211z M179.5-203.2
	c-0.3-0.8-0.4-1.6-0.4-2.4c0-0.8,0.2-1.7,0.6-2.5c0.4-0.8,0.9-1.6,1.5-2.2c0.6-0.6,1.3-1.1,2.1-1.4c0.8-0.3,1.6-0.5,2.5-0.5
	c0.9,0,1.8,0.2,2.7,0.7c1.5,0.8,2.6,1.9,3.2,3.4c0.6,1.6,0.5,3.4-0.3,5.2c-0.8,1.8-2.1,3-3.8,3.6c-1,0.4-2.1,0.5-3.2,0.2
	c-0.5-0.1-1.1-0.3-1.8-0.6c-0.6-0.3-1.3-0.8-1.8-1.4C180.2-201.8,179.7-202.5,179.5-203.2z M182.1-207.1c-0.2,0.5-0.4,1.1-0.4,1.6
	c0,0.5,0,1,0.2,1.5c0.3,1,1,1.8,2.1,2.3c1,0.5,1.9,0.5,2.8,0.2c0.9-0.4,1.6-1.2,2.2-2.3c0.5-1.1,0.6-2.2,0.4-3.2
	c-0.3-1.1-0.9-1.9-2-2.4c-1-0.5-2.1-0.5-3,0C183.3-209.1,182.6-208.3,182.1-207.1z M196.1-197.3c-0.3-0.2-0.8-0.4-1.4-0.8l-0.7-0.3
	l3.9-8.5l0.7,0.4l0.2,0.1c0.6,0.3,1.1,0.5,1.3,0.5L196.1-197.3z M195.7-196.1c-0.2,0.3-0.3,0.6-0.5,1.1c-0.2,0.4-0.3,0.8-0.4,1
	l-2.2-1.1c0.2-0.3,0.4-0.7,0.6-1c0.2-0.4,0.3-0.7,0.4-1L195.7-196.1z"/>
</svg>
