<?xml version="1.0" encoding="UTF-8"?>
<svg id="_圖層_1" data-name="圖層 1" xmlns="http://www.w3.org/2000/svg" viewBox="0 0 154 218">
  <defs>
    <style>
      .cls-1 {
        fill: none;
      }

      .cls-1, .cls-2, .cls-3, .cls-4 {
        stroke-width: 0px;
      }

      .cls-2 {
        fill: #d74c38;
      }

      .cls-3 {
        fill: #c2a16c;
      }

      .cls-4 {
        fill: #ffc93d;
      }
    </style>
  </defs>
  <rect class="cls-1" y="0" width="154" height="161"/>
  <path class="cls-2" d="M77,58.8c.8,0,1.5-1,2.3-1s1.4,1,2.2,1.1c.7.1,1.4.4,2.2.5s1.4.5,2.1.8c.7.2,1.4.3,2.2.6.7.3,1.4.5,2.1.8s1.5.3,2.2.6,1.2,1,1.9,1.3,1.9-.3,2.6.1c.7.4,1.3.8,1.9,1.2.6.4.7,1.6,1.3,2.1.6.4,1.1,1,1.7,1.5s2,0,2.5.5c.6.5.8,1.4,1.3,1.9.6.5.4,1.7,1,2.3.6.6,2.1.1,2.6.7s1.1,1.1,1.6,1.7,0,2,.5,2.6,1.8.4,2.3,1.1c.5.6.3,1.7.7,2.3.4.6,1.3,1,1.7,1.6.4.6.6,1.4,1,2.1.4.6.6,1.4,1,2.1s1.1,1.1,1.4,1.8c.4.7.1,1.7.5,2.3.4.7,1.4,1,1.8,1.6.3.7.7,1.4,1,2,.3.7,1.1,1.1,1.5,1.8.3.7-.4,1.9-.1,2.6s1.8.9,2.1,1.6c.3.7.3,1.6.6,2.2.3.7.2,1.6.5,2.3.3.7,1,1.2,1.3,1.9.3.7-.2,1.7,0,2.4.3.7.3,1.5.6,2.2s1.1,1.2,1.4,1.9c.2.7.5,1.4.7,2.2.3.7.3,1.5.5,2.2s.5,1.4.7,2.2c.2.7.2,1.5.4,2.3s.9,1.3,1.1,2.1c.2.7.3,1.5.4,2.3.2.7-.7,1.7-.5,2.5s1.1,1.3,1.2,2.1c.2.7.2,1.5.4,2.3s.9,1.4,1,2.2.4,1.5.5,2.3-1.1,1.7-.9,2.5.3,1.5.4,2.3c.1.8,1.3,1.4,1.4,2.1.1.8.4,1.5.5,2.2.1.8-.8,1.6-.8,2.4.1.8.6,1.5.7,2.2.1.8.1,1.5.2,2.3.1.8.7,1.5.8,2.3s-.2,1.6-.1,2.3c.1.8.1,1.3.1,2.1.5-.6.8-1,1.2-1.7.4-.6.4-1.5.8-2.2.4-.7,1.8-.7,2.2-1.3.4-.7.9-1.3,1.3-2,.4-.7-.6-2-.2-2.7.3-.7,1-1.2,1.3-1.9s1.1-1.2,1.4-1.9c.3-.7.4-1.5.7-2.2s.7-1.4.9-2.1c.3-.7.1-1.6.3-2.3.3-.7,1-1.3,1.2-2s-.6-1.7-.4-2.5c.2-.8.8-1.4.9-2.1.2-.8.1-1.5.2-2.3.2-.8,1.3-1.3,1.4-2.1.1-.8-.8-1.7-.7-2.4.1-.8,1-1.4,1.1-2.2s.6-1.5.7-2.3c.1-.8.1-1.6.2-2.3.1-.8,0-1.5,0-2.3s.2-1.6.2-2.3-.4-1.6-.4-2.3c0-.8.6-1.6.6-2.3,0-.8-.9-1.5-.9-2.3s.5-1.6.5-2.3c0-.8.1-1.5,0-2.3s-.2-1.5-.2-2.3c-.1-.8-.8-1.5-.9-2.2-.1-.8.1-1.6,0-2.3-.1-.7-.9-1.4-1-2.2-.1-.8.8-1.6.6-2.4-.1-.8,0-1.6-.1-2.3-.1-.8-1.7-1.2-1.8-2s.2-1.6.1-2.3c-.2-.7-.7-1.4-.8-2.2-.2-.8-.2-1.5-.3-2.3-.2-.7.5-1.7.3-2.4-.2-.7-.3-1.5-.5-2.2s-.2-1.6-.4-2.3c-.2-.7-1.3-1.2-1.5-1.9-.2-.7-.7-1.4-.9-2.1s.1-1.6-.1-2.3c-.2-.7-.6-1.4-.8-2.1-.3-.7-.9-1.3-1.2-2s-.5-1.4-.8-2.1c-.3-.7-.9-1.3-1.2-2s-.4-1.5-.8-2.2c-.3-.7.2-1.8-.1-2.4-.3-.7-.6-1.4-.9-2.1-.3-.7-.9-1.3-1.2-1.9-.3-.7-.4-1.5-.8-2.2-.3-.7-.7-1.4-1.1-2-.4-.7-1.1-1.2-1.4-1.8s-1-1.2-1.4-1.8c-.4-.7-.8-1.3-1.2-2s-.1-1.7-.5-2.4-1.1-1.1-1.5-1.8c-.4-.6-.4-1.6-.8-2.2-.4-.6-1.4-.9-1.9-1.5-.4-.6-.2-1.7-.6-2.3-.4-.6-1.8-.6-2.3-1.2s-.8-1.3-1.3-1.9-.5-1.5-1-2.1-.9-1.2-1.4-1.8c-.5-.6-1.6-.6-2.1-1.1-.5-.6-.5-1.6-1.1-2.1-.5-.6-.7-1.4-1.3-2-.5-.5-1.6-.5-2.2-1s-.9-1.2-1.5-1.7c-.5-.5-1.6-.5-2.2-1s-.4-1.9-.9-2.4c-.6-.5-1.1-1-1.7-1.5-.6-.4-1.4-.7-2-1.1-.6-.4-1.6-.3-2.3-.7-.6-.4-1.1-1.1-1.7-1.5s-1.2-1-1.8-1.4-1.8.1-2.4-.2c-.7-.3-1.2-.9-1.9-1.2-.7-.3-1-1.4-1.7-1.7-.7-.3-1.5-.3-2.2-.6-.7-1-1.4-1-2.2-1.3-.7-.3-1.5-.2-2.2-.4s-1.2-1.2-2-1.4c-.8-.2-1.7.6-2.4.5-.7-.1-1.3-1-2.1-1.1-.8-.1-1.5-.2-2.3-.3-.8-.1-1.5.6-2.3.5C76.7.5,76,0,75.2,0h-4.6C69.8,0,69.1,0,68.3.1s-1.2,1.6-2,1.7c-.8.2-1.8-1-2.5-.8-.7.2-1.4.6-2.1.8-.7.2-1.5.2-2.3.5-.7.3-1.2,1.1-1.9,1.5s-1.2.9-1.9,1.3c-.7.3-1.7-.1-2.4.3-.7.3-.9,1.5-1.6,1.8s-1.1.8-1.7,1.2-1.1,1-1.8,1.4c-.6.4-1.9-.1-2.5.3-.6.4-1.2.9-1.8,1.4-.6.4-.7,1.5-1.3,2s-1,1.2-1.5,1.7c-.6.5-1,1.1-1.5,1.6-.6.5-1.9.2-2.4.7s-.7,1.5-1.2,2-1.2,1-1.7,1.6-.4,1.7-.9,2.3c-.5.6-1.7.5-2.2,1-.5.6-.6,1.5-1.1,2.1s-.9,1.2-1.4,1.8c-.5.6-.9,1.2-1.4,1.8-.4.6-.9,1.2-1.3,1.8s-1.5.8-1.9,1.5c-.4.6-.2,1.7-.7,2.3-.4.6-1.5.9-1.9,1.5s-.5,1.5-.8,2.2c-.4.7,0,1.7-.4,2.4s-1,1.2-1.3,1.8c-.4.7-.9,1.2-1.3,1.9-.3.7-1,1.2-1.3,1.9s-.8,1.3-1.1,2-.4,1.5-.7,2.2-1.3,1.1-1.5,1.8c-.3.7-.1,1.6-.3,2.3s-.5,1.5-.8,2.2-1,1.2-1.3,2c-.3.7.3,1.7,0,2.4s-.7,1.4-.9,2.1c-.3.7-1.3,1.2-1.5,1.9-.3.7.5,1.8.3,2.5-.3.7-1.6,1.1-1.9,1.8-.3.7.8,1.8.6,2.6-.2.7-1.5,1.1-1.7,1.9-.2.7.7,1.8.5,2.5s-.5,1.4-.7,2.2c-.2.7-1.6,1.2-1.7,1.9-.2.6.6,1.5.4,2.3-.2.7-1.1,1.3-1.3,2.1-.2.8.7,1.7.5,2.4-.1.8-1.3,1.3-1.4,2.1-.1.7,0,1.6-.1,2.3-.1.8,0,1.6-.1,2.3-.1.7-.4,1.5-.5,2.3s-.5,1.5-.6,2.3c-.1.8.3,1.6.3,2.3-.1.8-.1,1.5-.2,2.3,0,.8-.7,1.5-.7,2.2,0,.8.4,1.6.4,2.3,0,.8-.1,1.5-.2,2.3,0,.8.2,1.5.2,2.3s-.4,1.6-.4,2.3c0,.8.6,1.5.6,2.3s.2,1.5.3,2.3.3,1.5.3,2.3c.1.8-.5,1.6-.4,2.4s.6,1.5.7,2.3c.1.8-.2,1.6-.1,2.3s.5,1.5.7,2.2c.2.7.3,1.5.5,2.3s.8,1.4,1,2.1c.2.7.3,1.5.5,2.2.2.7.5,1.4.8,2.2.3.7.7,1.4.9,2.1.3.7,0,1.6.3,2.3s1,1.2,1.3,1.9c.3.7.4,1.5.8,2.2.3.7.4,1.5.8,2.2.3.7.5,1.5.8,2.2.4.7,1.3,1,1.6,1.7s0,1.8.4,2.5,1.2,1,1.6,1.7c.4.6,1,.7,1.5,1.3.1-.8-.1-1.2-.1-2,.1-.8-.3-1.6-.2-2.3s.3-1.5.3-2.3c.1-.8.8-1.5.8-2.2s-.4-1.6-.3-2.3c.1-.8.9-1.4,1-2.2s.2-1.5.3-2.3c.1-.8.6-1.5.7-2.2.1-.8.1-1.5.3-2.3.1-.8-.4-1.6-.3-2.4.2-.8,1-1.4,1.2-2.1.2-.8-.8-1.7-.7-2.5.2-.7,1.3-1.3,1.4-2s-.6-1.7-.4-2.4,1.6-1.2,1.8-1.9c.2-.7-.7-1.7-.5-2.5s.5-1.5.7-2.2.3-1.5.5-2.2.6-1.4.8-2.2c.2-.7.7-1.4.9-2.1.2-.7.2-1.6.4-2.3.3-.7,1.3-1.2,1.6-1.9.3-.7-.4-1.8-.2-2.5.3-.7.7-1.4.9-2.1.3-.7,1.4-1.1,1.7-1.8.3-.7.6-1.4.9-2.1s.6-1.4.9-2.1-.4-1.9-.1-2.5c.3-.7.4-1.5.7-2.2.3-.7.6-1.4.9-2.1s1.2-1.1,1.5-1.8c.3-.7.5-1.5.9-2.1.4-.7,1.1-1.1,1.5-1.8.4-.7,1.3-1,1.7-1.7s.7-1.4,1.1-2c.4-.6.1-1.8.5-2.4s.9-1.3,1.3-1.9c.4-.6,1.1-1.1,1.6-1.7s.7-1.5,1.1-2c.5-.6,1.9-.4,2.4-1s.7-1.5,1.2-2,1.1-1,1.7-1.6.8-1.3,1.4-1.8c.6-.5,1.3-.8,1.9-1.3.6-.5,1.3-.8,1.9-1.2.6-.4.4-2,1-2.5.6-.4,1.6-.3,2.3-.8.6-.4,1-1.4,1.6-1.7.6-.4,1.9.3,2.5-.1.7-.3,1.1-1.1,1.8-1.4.7-.3,1.3-.7,2.1-1,.7-.3,1.6-.1,2.3-.3.7-.2,1.4-.4,2.1-.6.7-.2,1.4-.6,2.1-.8s1.4-.6,2.2-.7c.8-.1,1.5-.6,2.2-.7.9-.1,1.7,1,2.4,1.1h0Z"/>
  <path class="cls-4" d="M98.3,35.5l-2.3.8-2.3.9-2.2,1-2.1,1.3-2,1.4-2.1,1.4-.9-2.1-.9-2-.9-2-1.2-1.9-.8-2.1-1.1-1.9-.9-2-2.3.1-1.4,1.6-1,2-1,1.9-1.2,1.8-.9,2-1.3,1.8-.8,2-1.1,1.9-2-1-1.9-1-2.1-.7-2-.7-1.8-1-2.2-.4-1.6,1.5.9,1.8.8,1.8.8,1.8.9,1.8.6,1.9,1,1.7,1.3,1.6,1.3,1.5,1.6.1,2-.7,2.2-.3,2.1-.6,2.5-.3,2.5-.2,2.5.1,2.1.3,2.1.2,2.1.3,2.1.3,2.1.4,2,.6,2,.6,1.5-.9.2-.1.6-1.7.7-1.7.9-2.2.8-2.2,1.1-2.3.8-2.4.1-.2.9-2,.5-2.1-1.3-1.5Z"/>
  <path class="cls-2" d="M59,96.6c2.1,0,3.8-1.7,3.8-3.8s-1.8-3.8-3.8-3.8-3.8,1.7-3.8,3.8,1.7,3.8,3.8,3.8Z"/>
  <path class="cls-2" d="M95.5,96.6c2.1,0,3.8-1.7,3.8-3.8s-1.7-3.8-3.8-3.8-3.8,1.7-3.8,3.8,1.7,3.8,3.8,3.8Z"/>
  <path class="cls-2" d="M64.8,105.5h24.2l-7.6-7.9c-2.5-2.6-6.6-2.6-9.1,0l-7.5,7.9Z"/>
  <path class="cls-4" d="M64.8,105.5l7.5,3.5c2.5,1.1,6.6,1.1,9.1,0l7.5-3.5h-24.1Z"/>
  <path class="cls-3" d="M34.8,214.7q.1.1.2.2c0,.2-.1,1.1-.1,1.3-.1.8,0,1.5-.9,1.7-.6.1-1.2-.1-1.8-.1s-1.4-.1-2-.3c-1.2-.4-2.5-1.2-3.2-2.4-.8-1.2-1-2.6-.9-4,0-1.1.4-2.3,1.1-3.1.9-1.1,1.8-2,3.1-2.6.7-.3,1.5-.5,2.3-.5.4,0,.8,0,1.2.1.3.1.8.1,1,.4.1.2,0,.6,0,.8v1.7c-.1.7-.9.4-1.4.6-.5.2-1,.5-1.4.9-.7.7-1.1,1.8-.9,2.9.1.5.2,1,.6,1.3.2.2.5.3.8.4.5.2,1.1.4,1.6.5-.1.1.5.1.7.2h0Z"/>
  <path class="cls-3" d="M69.8,214.7q.1.1.2.2c0,.2-.1,1.1-.1,1.3-.1.8-.1,1.5-.9,1.7-.6.1-1.2-.1-1.8-.1s-1.4-.1-2-.3c-1.2-.4-2.5-1.2-3.2-2.4-.8-1.2-1-2.6-.9-4,0-1.1.4-2.3,1.1-3.1.9-1.1,1.8-2,3.1-2.6.7-.3,1.5-.5,2.3-.5.4,0,.8,0,1.2.1.3.1.8.1,1,.4.1.2,0,.6,0,.8v1.7c-.1.7-.9.4-1.4.6-.5.2-1,.5-1.4.9-.7.7-1.1,1.8-.9,2.9.1.5.2,1,.6,1.3.2.2.5.3.8.4.5.2,1.1.4,1.6.5-.1.1.5.1.7.2h0Z"/>
  <path class="cls-3" d="M80.8,216.4c-.1-.3-.4-.7-.4-.8-.4-.7-.7-1.4-1.1-2-.2-.3-.4-.7-.6-1s-.2-.4.1-.7c1.4-1,2.7-2.1,4.1-3.2.1-.1.2-.2.2-.3s-.1-.1-.1-.2c-.6-.5-1.2-1-1.8-1.5-.1-.1-.3-.3-.4-.1-1.2.9-2.3,1.9-3.5,2.9-.3.3-.7.6-1,.9-.3.3-.5.4-.6,0-.1-.6,0-1.1,0-1.7,0-.7.2-1.3.5-1.9v-.2c0-.2-.2-.2-.4-.2-.3,0-.6-.1-.9-.1-.6,0-1.1,0-1.7-.1-.3,0-.4.3-.4.6-.1,1.7-.3,3.5-.4,5.2-.1.9-.1,1.7-.2,2.6,0,.5-.1,1-.1,1.6,0,.5.1.5.5.5,1,.1,2,.3,3.1.2.1,0,.3-1.5.3-1.6,0-.2,0-1.3.3-1.2.1,0,.1.1.2.2.4.7.8,1.5,1.2,2.2.2.3.3.7.7.7.4.1.8,0,1.2,0h1c.3-.2.3-.5.2-.8Z"/>
  <path class="cls-3" d="M44.9,216.8v-.2c.1-.8.1-1.8,0-2.6,0-.1,0-.2-.1-.3s-.3-.1-.5-.1c-.7.1-1.5-.1-2.2-.1-.3,0-.6.1-.7-.3-.1-.3,0-.6,0-.9v-1.6c0-1.1,0-2.1.1-3.2v-1.2c-.1-.1-.2-.1-.3-.2h-2.7c-.2,0-.4,0-.5.2s0,.5,0,.7c.2,1.5.2,3,.1,4.5,0,.8-.1,1.5-.1,2.3,0,.4,0,.8.1,1.1,0,.5,0,1.7.6,1.9.5.2,1.2-.1,1.7-.1.6,0,1.2.1,1.8.1.5,0,1,.1,1.6.1.2,0,.5.1.7,0,.2.1.3,0,.4-.1h0Z"/>
  <path class="cls-3" d="M127,216.2c0-.5-.3-1.1-.4-1.5-.5-1.7-1-3.5-1.4-5.2-.3-1.1-.6-2.1-1.2-3.1-.1-.2-.3-.4-.6-.4-.1,0-.2.1-.3.2-.6.6-1.2,1.2-1.8,1.9-.7.8-1.4,1.5-2.1,2.4-.4.5-.9.9-1.4.3-1.2-1.2-2.1-2.9-3.4-4-.3-.3-.7-.6-1.1-.4-.2.1-.4.4-.4.7-1.1,3-2,6-2.8,9-.1.2-.1.4-.1.6,1.5.2,3,.2,4.5.1-.1-1.2.1-2.3.2-3.4.1-.8.5-1.1,1.2-.4.8.8,1.2,2,2,2.7.4.4.8.7,1.2.1.4-.6.6-1.5,1.1-2.1.3-.4,1.7-2,2.3-1.3.3.3.1,1.4.1,1.7v1.2c0,.2-.2,1-.1,1.2.2.3.4.5.7.5.7,0,1.3-.2,2-.2.5,0,1.1.2,1.5-.1.2-.1.3-.3.3-.5h0Z"/>
  <path class="cls-3" d="M107,207.6c-1.1-2.3-3.7-3.1-6-2.3s-3.5,2.9-3.8,5.2c-.2,1.4-.2,3,.5,4.3.3.6.6,1.1,1.1,1.5,1.1,1.2,2.7,1.8,4.3,1.6.4,0,.8-.1,1.1-.3,2-.7,3.6-2.8,3.9-4.8.1-1.6-.4-3.7-1.1-5.2h0ZM104.7,212.9c-.2.5-.5.9-.9,1.2-.7.5-1.8.3-2.5-.2-.7-.6-1-1.5-1-2.4,0-1.1.4-2.6,1.5-3.2.9-.5,1.8-.3,2.5.4.3.4.6.9.7,1.4.1,1,0,2-.3,2.8h0Z"/>
  <path class="cls-3" d="M58.3,206.2c-.2-.1-.6-.2-1-.2-.6,0-1,.1-.9.7.1.6.2,3.4.2,4,0,.4-.1.9-.2,1.3-.2.6-.4.9-.8,1.3-.2.2-1,.4-1.2.4-.5,0-1.1,0-1.5-.3-1.5-.8-2-4.6-2.1-6.1-.1-.7,0-1.2-.8-1.3-.5-.1-1.8.1-1.9.2-.1.1,0,.4,0,.6.2,1.2.7,5,1.1,6.1.7,1.8,1.8,3.7,4,3.9,1.1.1,1.9.2,2.7-.1,1.2-.4,1.8-.7,2.3-1.6.7-1.4.7-2.9.9-4.3-.1-.6-.1-4.2-.8-4.6h0Z"/>
  <path class="cls-3" d="M92.8,207.1c-1.8-1.5-4.1-1.9-6.2-2.1h0c-.3,0-.4.1-.4.4-.1,1.1-.1,2.2-.1,3.3v1.7c0,2-.1,4.7-.1,6.7,0,.3,0,.5.3.6.5.2,3,.6,6.4-.7,1-.4,2.2-1.3,2.4-4.1.1-3.4-1.3-5-2.3-5.8ZM92,212.5c-.1.7-.2,1.4-.7,1.9-.6.6-1.2.7-2,.9-.2,0-.5,0-.6-.2-.1-.1,0-.2,0-.3.1-1.7-.3-5.8-.3-6.2.1-.6,1.7.4,2,.6.5.4,1.1,1,1.4,1.7.3.4.3,1.1.2,1.6h0Z"/>
  <path class="cls-2" d="M26,179.3l1-.6,1.9-.7.7,1.3.6,1.2-1.6.8-1.2.3-.6-1.3-.8-1h0ZM40.3,173.6l2.3.8,1.3,1-1.5,3.1,1.6.1-.4-.5,1.4-2,.9-1.9,2.3,1.1.9.9-1.3,2-.4.5,2.6.1v1.9l-.2,1.9-2.5-.2h-.3l-.1.9v.8l2.5.1v2l-.2,1.4-2.4-.2v1.5l2.5.1v2.5l-.1.9-2.3-.2v1.4l1.6.1,1.8.1v1.7l-.2,1.8-3.5-.3-2.8-.1h-4.2l-1.6-.3.2-6.8-.9.3-2.1.3-.1-.9h-.9l-1.8.2,1.8.3-.2.7h2.4l1.3.1.1,1.8-.2,1-1.5-.1.6.5,1.2,1.2-1.5,1.2-1.6.4-.9-1-1-1.1-.6-.4-1.3,1.6-.8.9-2-.5-1.1-.9,1.1-1.2.6-.7-1.8.1-.2-1.4v-1.3l2.3-.1h1l.1-.7-.8.1-1.9.2-.5-1-.4-1.7,1.2-.9,1.2-.7-1.1-.6-.5-.8-.4-1.2.8-.5,2.1-1.3,1.3-.7-.5-1-.7-1,1.3-.8,1.4-.5-1.2.2-3.9.6-.4-1-.2-2.1,2.5-.3,3.6-.7,2.9-1.4.8,1.5.5,1.7-1.4.3.9.2,1.5.8-.8,1.9-.5,1.1-.7,1.1-1.6-.5-1.2-.7.3-.5-1,.5h-.1l.5.4.8,1.2-1.9.9-1.2.8.6.4,3.4-2,1.3,1.1.7,1.4-3.9,1.8-1.8.9,2.2-.2.8-.1-.2-.5,1.1-.5,1.8-.3.9,1.8.3.9-.1-2.4v-3.3l-.7-.5-.7-.8,1.5-2.2,1.4-3.1.8-2.5h0ZM32.5,177.2l.7,1,.7,1.4h0l.8-2.1.1-.7h0l-2.3.4ZM41.7,183.6l1.5.1v-1.7h-1.4v.5l-.1,1.1h0ZM41.6,188.4l1.5.1.1-1.6h-1.5l-.1,1.5ZM41.5,191.7v1.6h1.4l.1-1.5-1.5-.1Z"/>
  <path class="cls-2" d="M56,172.3l8.8-.2,6.1-.1h3.5l.8,1.3.4,1-.1.8-.4.7-1.1,1.2-1.7-.8h-.1v1.1l-.1,1.4-4.4.1h-.8v.6c.3,0,.6.1.9.1l4.7.3h4.2l-.3,1.4-.6,1.6-4.2-.4-6.7-.6-5.9-.9c-.2,0-.4-.1-.6-.2l-.4,1.4-.4.8-1.4-.3-2.2-.6.4-.9.5-1.2.6-2.1.3-1.7,2,.2,1.7.3-.3,1.5,2.1.4,1.7.3.1-1.9c0-.6,0-1.3-.1-1.9l-6.6.2-.1-1.7-.3-1.2h0ZM55,191.1l5.5-.1,2.8-.1v-1.2l-4.9.2h-1.8l-.1-2.1-.1-1.8-.1-2,2-.3,2.1-.1h0c.4,0,.8-.1,1.2-.1l1.6-.1v-1.2h4.1v.9l3.8-.1,2.3.1,1,.6v5.3l.6-.2.8,1.2.8,1.5.5,1.2-1.2.5-2.3.6c-.1-.3-.2-.6-.4-.8l-8.1.4-4.5.2-5.6.4v-2.9h0ZM60.3,187.4h1.3c.5,0,1.1,0,1.6-.1h0v-1l-1.7.1c-.4,0-.9,0-1.3.1v.7l.1.2h0ZM71.8,176.1l-1.2-.4.3-.4.1-.3h-4.1c0,.4,0,.8-.1,1.2h1.1l3.9-.1h0ZM70.2,187.1v-1h-3.2v1.1l3.2-.1h0ZM71.9,190.5c-.1-.2-.2-.4-.2-.5l1.9-.5h-5.1l-1.2.1v.2l.1,1,4.5-.3h0Z"/>
  <path class="cls-2" d="M83.7,183.6l2.2.1h2.6c0-.8,0-1.6.1-2.3v-2.4h-6.1l-.2-1.6v-2.4h4l6.2.1,7.4.2v2.3l-.3,1.7-5.8-.3h-1.1l-.3,4.4v.2l5.2.2v2.2l-.1,1.7-5.2-.2-.1,2.4v2l3.5.1,5.1.2-.1,2.1-.3,1.8-.9-.1-5.1-.2-8-.2-6.3-.1-.2-1.6-.1-1.8,2.5-.2,5.7.1.2-2.6v-1.8h-4.4l-.3-1.5.2-2.5h0Z"/>
  <path class="cls-2" d="M105.5,174.3l1.4-.1,2-.2v.2c3,0,6,.1,9,.1l7.1.3,2.1.3.9.6-.4,11.3-.4,7.9-.1,2.3-1.5-.2-2.1-.2-4.5-.1-11.9-.4h-.7l-1.4.1.1-7,.4-14.9h0ZM116.1,178l1.7-.1,1.5-.1v.5c0,.7.1,1.3.1,2h1.7l-.6-.5-1-.7.7-.9.7-.8c-1.1-.1-2.2-.1-3.3-.2h-9l-.3,14.3v2l9,.3,6.1.1c0-.4.1-.8.1-1.2l-.8.7-1,.1-1.3-.1-1.4-.8c0-.1-.1-.1-.1-.2l-1.3,1.3-.7-.6-.8-.9-2.9.2-1.6.1-2.3.2-.1-1.2v-1.3l2.2-.1h1.5l3.4-.1.1.8.8-.9c.1-.1.2-.3.3-.4-.1-.4-.2-.8-.3-1.2l-.6-3.6c-.1-.5-.1-1-.1-1.4h-4.2l-2.8.1-.2-1.1v-1.8l5.2-.1h1.8l-.2-2.4h0ZM111.1,184l3.4.1,1.6.2.4.4-.1,1.8-.1,2.1-.1,1c-.4,0-.8-.1-1.2-.1h-1.5l-2.5-.1h-.5l-1.1-.1-.2-1.3.1-1.8v-2l1-.1.8-.1h0ZM113.5,187.5v-.9l-.6-.1h-.8v1h1.4ZM120.8,184l1.8.7,1.2.8-1.5,2.6-1.2,2,.4.5.2-.1.2-.6.3-1.4,1,.9.7.3c0-1.6.1-3.2.2-4.7l.2-7.2c-.8-.1-1.7-.1-2.5-.2l1.2.9,1,.8-.8.9-.3.3h.8v1.2l-.1,1.6c-1.2,0-2.5-.1-3.8-.1.1.5.1.9.1,1.4l.1,1.3.8-1.9h0Z"/>
</svg>