<?xml version="1.0" encoding="utf-8"?>
<!-- Generator: Adobe Illustrator 28.1.0, SVG Export Plug-In . SVG Version: 6.00 Build 0)  -->
<svg version="1.1" id="圖層_1" xmlns="http://www.w3.org/2000/svg" xmlns:xlink="http://www.w3.org/1999/xlink" x="0px" y="0px"
	 viewBox="0 0 154.2 232.7" style="enable-background:new 0 0 154.2 232.7;" xml:space="preserve">
<style type="text/css">
	.st0{fill:#D74C38;}
	.st1{fill:#FFFFFF;}
	.st2{fill:none;}
	.st3{fill:#FFC93D;}
	.st4{fill:#C2A16C;}
</style>
<path class="st0" d="M-80.3,286.5c0.1,0,0.1,0.1,0.2,0.1c0,0,0,0,0,0.1C-80.2,286.6-80.3,286.6-80.3,286.5z"/>
<g>
	<path class="st1" d="M139.3,161c0-0.6,0.2-1.8,0.2-2.2c0,0.4,0,1.1,0,1.7c0.2-0.1,0.4-0.1,0.5-0.2c0.1-0.3,0.1-0.7-0.1-1.2V159
		c-0.1,0.1-0.2,0.3-0.3,0.4c0-0.8,0-1.3-0.1-2.1c-0.1-0.7,0.2-1.5,0.1-2.3c-0.1-0.8-0.7-1.5-0.8-2.3s-0.1-1.5-0.2-2.3
		c-0.1-0.7,1.7-1.6,1.6-2.4c0-0.8-1.4-1.4-1.5-2.2c-0.1-0.7-0.4-1.4-0.5-2.2c-0.1-0.7-1.3-1.3-1.4-2.1c-0.1-0.8-0.2-1.5-0.4-2.3
		s1-1.7,0.9-2.5s-0.4-1.5-0.5-2.3s-0.8-1.4-1-2.2s-0.2-1.6-0.4-2.3c-0.1-0.8-1-1.3-1.2-2.1c-0.2-0.8,0.7-1.8,0.5-2.5
		c-0.1-0.8-0.2-1.6-0.4-2.3c-0.2-0.8-0.9-1.3-1.1-2.1s-0.2-1.6-0.4-2.3c-0.2-0.8-0.5-1.5-0.7-2.2s-0.2-1.5-0.5-2.2
		c-0.1-0.2-0.1-0.4-0.2-0.5c-0.2,0.1-0.3,0.2-0.4,0.4c-0.4,0.5-0.6,1.1-1.1,1.6s-1.3,0.8-1.8,1.4c-0.5,0.5-1.6,0.8-2,1.3
		c-0.5,0.5-0.8,1.1-1.3,1.5c-0.5,0.5-0.1,1.4-0.6,1.8c-0.5,0.5-1.1,1-1.6,1.5s-1.3,0.9-1.9,1.3c-0.6,0.5-0.8,1.2-1.3,1.5
		c-0.6,0.5-2.3,0.3-2.9,0.8s-0.8,1.2-1.4,1.5c-0.6,0.4-1.3,0.8-2,1.2c-0.7,0.5-1,1-1.7,1.4s-1.6,0.6-2.3,1c-0.7,0.4-1.6,0.6-2.3,0.9
		c-0.7,0.3-0.5,1.5-1.2,1.9c-0.7,0.3-1.9,0.2-2.8,0.6c-0.7,0.3-1.2,1.1-1.9,1.3c-0.7,0.3-2.3-0.2-3,0.1c-0.8,0.2-1.3,0.8-2.2,1.1
		c-0.8,0.2-1.6,0.5-2.5,0.8c-0.8,0.2-1.9,0.1-2.8,0.2c-0.8,0.2-1.7,0.3-2.5,0.5s-1.7,0.5-2.5,0.6c-0.8,0.2-1.7,0.5-2.7,0.5
		c-1,0.1-1.8,0.5-2.7,0.5c-1.1,0.1-2-0.8-2.9-0.8c-1,0-1.8,0.8-2.8,0.8s-1.7-0.8-2.7-0.8c-0.8-0.1-1.7-0.3-2.7-0.4
		c-1-0.1-1.7-0.4-2.5-0.6c-0.8-0.1-1.7-0.2-2.7-0.5c-0.8-0.2-1.7-0.4-2.5-0.6c-0.8-0.2-1.8-0.2-2.7-0.5c-0.8-0.2-1.4-0.8-2.3-1
		c-0.8-0.2-2.3,0.2-3.1-0.1s-1.6-0.6-2.3-0.9c-0.7-0.3-0.8-1.2-1.6-1.6c-0.7-0.3-1.3-0.8-2-1.2s-2.4,0-3-0.4c-0.7-0.4-1-1.1-1.6-1.5
		c-0.7-0.4-0.5-1.3-1.2-1.8s-2.5-0.1-3.1-0.5c-0.6-0.5-1.3-0.9-1.9-1.3c-0.6-0.5,0-1.5-0.6-2s-2.2-0.3-2.8-0.9
		c-0.6-0.5-0.4-1.3-0.8-1.8c-0.5-0.5-1.6-0.8-2-1.2c-0.5-0.5-0.7-1.1-1.2-1.6s-0.7-1.1-1.2-1.6s-1.3-0.8-1.7-1.4
		c-0.5-0.5-0.1-1.3-0.6-1.8s-1.7-0.8-2.2-1.2c-0.1-0.1-0.1-0.2-0.2-0.3c0,0.2-0.1,0.5-0.1,0.7c-0.2,0.7-0.7,1.4-0.9,2.1
		c-0.2,0.8-0.6,1.5-0.8,2.2s-0.3,1.5-0.5,2.2s-0.5,1.4-0.7,2.2c-0.2,0.8,0.7,1.8,0.5,2.5s-1.6,1.2-1.8,1.9c-0.2,0.7,0.5,1.7,0.4,2.4
		s-1.2,1.3-1.4,2c-0.1,0.8,0.9,1.7,0.7,2.5c-0.2,0.7-1,1.3-1.2,2.1c-0.1,0.8,0.4,1.6,0.3,2.4c-0.2,0.8-0.2,1.5-0.3,2.3
		c-0.1,0.7-0.6,1.4-0.7,2.2s-0.2,1.5-0.3,2.3c-0.1,0.8-0.9,1.4-1,2.2c-0.1,0.7,0.3,1.6,0.3,2.3s-0.7,1.4-0.8,2.2
		c0,0.8-0.2,1.6-0.3,2.3s0.3,1.5,0.2,2.3c0,0.8,0.2,1.2,0.1,1.9c0.1,0-0.1,0.3-0.1,0.3c-0.1,0.9-0.1,1.1,0.4,1.6s2.7,0.4,3.4,0.9
		c0.6,0.5,1,1,1.6,1.5s0.6,1.2,1.2,1.6c0.6,0.5,1.1,0.9,1.7,1.4s1.9,0.5,2.5,0.8c0.6,0.5,0.6,1.2,1.3,1.6c0.6,0.5,0.8,1.1,1.6,1.5
		c0.6,0.4,1.9,0.4,2.7,0.8c0.7,0.4,1.1,0.9,1.8,1.3c0.6,0.4,1.9,0.4,2.7,0.8c0.7,0.4,0.5,1.5,1.1,1.9c0.7,0.4,1.3,0.8,2,1.1
		s1.7,0.5,2.4,0.9c0.7,0.3,1.9,0.2,2.8,0.5c0.7,0.3,1.3,0.8,2,1.2c0.7,0.3,1.4,0.8,2.2,1.1c0.7,0.3,2.2-0.1,2.9,0.1
		c0.8,0.2,1.4,0.7,2.3,0.9c0.8,0.2,1.2,1.1,2,1.3s1.8,0.2,2.7,0.5c0.8,0.8,1.7,0.8,2.7,1c0.8,0.2,1.8,0.2,2.7,0.3
		c0.8,0.2,1.4,0.9,2.4,1.1c1,0.2,2-0.5,2.9-0.4c0.8,0.1,1.6,0.8,2.5,0.8c1,0.1,1.8,0.2,2.8,0.2c1,0.1,1.8-0.5,2.8-0.4
		c1,0,1.8,0.4,2.8,0.4h5.6c1,0,1.8,0,2.8-0.1s1.4-1.2,2.4-1.3c1-0.2,2.2,0.8,3,0.6s1.7-0.5,2.5-0.6c0.8-0.2,1.8-0.2,2.8-0.4
		c0.8-0.2,1.4-0.8,2.3-1.1c0.8-0.3,1.4-0.7,2.3-1c0.8-0.2,2,0.1,2.9-0.2c0.8-0.2,1.1-1.2,1.9-1.4s1.3-0.6,2-0.9
		c0.7-0.3,1.3-0.8,2.2-1.1c0.7-0.3,2.3,0.1,3-0.2s1.4-0.7,2.2-1.1c0.7-0.3,0.8-1.1,1.6-1.5c0.7-0.4,1.2-0.9,1.8-1.3
		c0.7-0.4,1.2-0.8,1.8-1.2c0.7-0.4,2.3-0.2,2.9-0.5c0.6-0.4,0.8-1.1,1.4-1.5s1.4-0.8,2-1.2c0.6-0.5,0.5-1.3,1.1-1.8s2-0.4,2.7-0.8
		c0.6-0.5,0.7-1.1,1.3-1.6s1.1-0.9,1.7-1.4c0.6-0.5,1.1-0.9,1.7-1.4"/>
	<path class="st1" d="M78.5,20.7l-46.2,10L11.6,108c0,0-17.6,48,66.9,47.7s70.6-51.5,70.6-51.5l-42.3-85.1L78.5,20.7z"/>
	<rect x="0.1" y="0" class="st2" width="154" height="161"/>
	<path class="st0" d="M77.1,58.8c0.8,0,1.5-1,2.3-1s1.4,1,2.2,1.1c0.7,0.1,1.4,0.4,2.2,0.5s1.4,0.5,2.1,0.8c0.7,0.2,1.4,0.3,2.2,0.6
		c0.7,0.3,1.4,0.5,2.1,0.8s1.5,0.3,2.2,0.6s1.2,1,1.9,1.3s1.9-0.3,2.6,0.1c0.7,0.4,1.3,0.8,1.9,1.2c0.6,0.4,0.7,1.6,1.3,2.1
		c0.6,0.4,1.1,1,1.7,1.5s2,0,2.5,0.5c0.6,0.5,0.8,1.4,1.3,1.9c0.6,0.5,0.4,1.7,1,2.3c0.6,0.6,2.1,0.1,2.6,0.7s1.1,1.1,1.6,1.7
		s0,2,0.5,2.6s1.8,0.4,2.3,1.1c0.5,0.6,0.3,1.7,0.7,2.3c0.4,0.6,1.3,1,1.7,1.6c0.4,0.6,0.6,1.4,1,2.1c0.4,0.6,0.6,1.4,1,2.1
		s1.1,1.1,1.4,1.8c0.4,0.7,0.1,1.7,0.5,2.3c0.4,0.7,1.4,1,1.8,1.6c0.3,0.7,0.7,1.4,1,2c0.3,0.7,1.1,1.1,1.5,1.8
		c0.3,0.7-0.4,1.9-0.1,2.6s1.8,0.9,2.1,1.6c0.3,0.7,0.3,1.6,0.6,2.2c0.3,0.7,0.2,1.6,0.5,2.3c0.3,0.7,1,1.2,1.3,1.9
		c0.3,0.7-0.2,1.7,0,2.4c0.3,0.7,0.3,1.5,0.6,2.2s1.1,1.2,1.4,1.9c0.2,0.7,0.5,1.4,0.7,2.2c0.3,0.7,0.3,1.5,0.5,2.2s0.5,1.4,0.7,2.2
		c0.2,0.7,0.2,1.5,0.4,2.3s0.9,1.3,1.1,2.1c0.2,0.7,0.3,1.5,0.4,2.3c0.2,0.7-0.7,1.7-0.5,2.5s1.1,1.3,1.2,2.1
		c0.2,0.7,0.2,1.5,0.4,2.3s0.9,1.4,1,2.2s0.4,1.5,0.5,2.3s-1.1,1.7-0.9,2.5s0.3,1.5,0.4,2.3c0.1,0.8,1.3,1.4,1.4,2.1
		c0.1,0.8,0.4,1.5,0.5,2.2c0.1,0.8-0.8,1.6-0.8,2.4c0.1,0.8,0.6,1.5,0.7,2.2c0.1,0.8,0.1,1.5,0.2,2.3c0.1,0.8,0.7,1.5,0.8,2.3
		s-0.2,1.6-0.1,2.3c0.1,0.8,0.1,1.3,0.1,2.1c0.5-0.6,0.8-1,1.2-1.7c0.4-0.6,0.4-1.5,0.8-2.2c0.4-0.7,1.8-0.7,2.2-1.3
		c0.4-0.7,0.9-1.3,1.3-2c0.4-0.7-0.6-2-0.2-2.7c0.3-0.7,1-1.2,1.3-1.9s1.1-1.2,1.4-1.9c0.3-0.7,0.4-1.5,0.7-2.2s0.7-1.4,0.9-2.1
		c0.3-0.7,0.1-1.6,0.3-2.3c0.3-0.7,1-1.3,1.2-2s-0.6-1.7-0.4-2.5c0.2-0.8,0.8-1.4,0.9-2.1c0.2-0.8,0.1-1.5,0.2-2.3
		c0.2-0.8,1.3-1.3,1.4-2.1c0.1-0.8-0.8-1.7-0.7-2.4c0.1-0.8,1-1.4,1.1-2.2s0.6-1.5,0.7-2.3c0.1-0.8,0.1-1.6,0.2-2.3
		c0.1-0.8,0-1.5,0-2.3s0.2-1.6,0.2-2.3s-0.4-1.6-0.4-2.3c0-0.8,0.6-1.6,0.6-2.3c0-0.8-0.9-1.5-0.9-2.3s0.5-1.6,0.5-2.3
		c0-0.8,0.1-1.5,0-2.3s-0.2-1.5-0.2-2.3c-0.1-0.8-0.8-1.5-0.9-2.2c-0.1-0.8,0.1-1.6,0-2.3c-0.1-0.7-0.9-1.4-1-2.2
		c-0.1-0.8,0.8-1.6,0.6-2.4c-0.1-0.8,0-1.6-0.1-2.3c-0.1-0.8-1.7-1.2-1.8-2s0.2-1.6,0.1-2.3c-0.2-0.7-0.7-1.4-0.8-2.2
		c-0.2-0.8-0.2-1.5-0.3-2.3c-0.2-0.7,0.5-1.7,0.3-2.4c-0.2-0.7-0.3-1.5-0.5-2.2s-0.2-1.6-0.4-2.3c-0.2-0.7-1.3-1.2-1.5-1.9
		c-0.2-0.7-0.7-1.4-0.9-2.1s0.1-1.6-0.1-2.3c-0.2-0.7-0.6-1.4-0.8-2.1c-0.3-0.7-0.9-1.3-1.2-2s-0.5-1.4-0.8-2.1
		c-0.3-0.7-0.9-1.3-1.2-2s-0.4-1.5-0.8-2.2c-0.3-0.7,0.2-1.8-0.1-2.4c-0.3-0.7-0.6-1.4-0.9-2.1c-0.3-0.7-0.9-1.3-1.2-1.9
		c-0.3-0.7-0.4-1.5-0.8-2.2c-0.3-0.7-0.7-1.4-1.1-2c-0.4-0.7-1.1-1.2-1.4-1.8s-1-1.2-1.4-1.8c-0.4-0.7-0.8-1.3-1.2-2
		s-0.1-1.7-0.5-2.4s-1.1-1.1-1.5-1.8c-0.4-0.6-0.4-1.6-0.8-2.2c-0.4-0.6-1.4-0.9-1.9-1.5c-0.4-0.6-0.2-1.7-0.6-2.3
		c-0.4-0.6-1.8-0.6-2.3-1.2s-0.8-1.3-1.3-1.9s-0.5-1.5-1-2.1s-0.9-1.2-1.4-1.8c-0.5-0.6-1.6-0.6-2.1-1.1c-0.5-0.6-0.5-1.6-1.1-2.1
		c-0.5-0.6-0.7-1.4-1.3-2c-0.5-0.5-1.6-0.5-2.2-1s-0.9-1.2-1.5-1.7c-0.5-0.5-1.6-0.5-2.2-1c-0.6-0.5-0.4-1.9-0.9-2.4
		c-0.6-0.5-1.1-1-1.7-1.5c-0.6-0.4-1.4-0.7-2-1.1c-0.6-0.4-1.6-0.3-2.3-0.7c-0.6-0.4-1.1-1.1-1.7-1.5s-1.2-1-1.8-1.4
		c-0.6-0.4-1.8,0.1-2.4-0.2c-0.7-0.3-1.2-0.9-1.9-1.2c-0.7-0.3-1-1.4-1.7-1.7c-0.7-0.3-1.5-0.3-2.2-0.6c-0.7-1-1.4-1-2.2-1.3
		c-0.7-0.3-1.5-0.2-2.2-0.4s-1.2-1.2-2-1.4S85,1.5,84.3,1.4s-1.3-1-2.1-1.1c-0.8-0.1-1.5-0.2-2.3-0.3s-1.5,0.6-2.3,0.5
		c-0.8,0-1.5-0.5-2.3-0.5S73.8,0,73,0s-1.5,0-2.3,0s-1.5,0-2.3,0.1s-1.2,1.6-2,1.7c-0.8,0.2-1.8-1-2.5-0.8c-0.7,0.2-1.4,0.6-2.1,0.8
		S60.3,2,59.5,2.3c-0.7,0.3-1.2,1.1-1.9,1.5s-1.2,0.9-1.9,1.3C55,5.4,54,5,53.3,5.4c-0.7,0.3-0.9,1.5-1.6,1.8S50.6,8,50,8.4
		c-0.6,0.4-1.1,1-1.8,1.4c-0.6,0.4-1.9-0.1-2.5,0.3c-0.6,0.4-1.2,0.9-1.8,1.4c-0.6,0.4-0.7,1.5-1.3,2s-1,1.2-1.5,1.7
		c-0.6,0.5-1,1.1-1.5,1.6c-0.6,0.5-1.9,0.2-2.4,0.7s-0.7,1.5-1.2,2s-1.2,1-1.7,1.6s-0.4,1.7-0.9,2.3c-0.5,0.6-1.7,0.5-2.2,1
		c-0.5,0.6-0.6,1.5-1.1,2.1s-0.9,1.2-1.4,1.8c-0.5,0.6-0.9,1.2-1.4,1.8c-0.4,0.6-0.9,1.2-1.3,1.8s-1.5,0.8-1.9,1.5
		c-0.4,0.6-0.2,1.7-0.7,2.3c-0.4,0.6-1.5,0.9-1.9,1.5s-0.5,1.5-0.8,2.2c-0.4,0.7,0,1.7-0.4,2.4s-1,1.2-1.3,1.8
		c-0.4,0.7-0.9,1.2-1.3,1.9c-0.3,0.7-1,1.2-1.3,1.9s-0.8,1.3-1.1,2s-0.4,1.5-0.7,2.2s-1.3,1.1-1.5,1.8c-0.3,0.7-0.1,1.6-0.3,2.3
		s-0.5,1.5-0.8,2.2s-1,1.2-1.3,2c-0.3,0.7,0.3,1.7,0,2.4s-0.7,1.4-0.9,2.1c-0.3,0.7-1.3,1.2-1.5,1.9C8,67,8.8,68.1,8.6,68.8
		c-0.3,0.7-1.6,1.1-1.9,1.8c-0.3,0.7,0.8,1.8,0.6,2.6c-0.2,0.7-1.5,1.1-1.7,1.9c-0.2,0.7,0.7,1.8,0.5,2.5S5.6,79,5.4,79.8
		c-0.2,0.7-1.6,1.2-1.7,1.9c-0.2,0.6,0.6,1.5,0.4,2.3c-0.2,0.7-1.1,1.3-1.3,2.1c-0.2,0.8,0.7,1.7,0.5,2.4c-0.1,0.8-1.3,1.3-1.4,2.1
		c-0.1,0.7,0,1.6-0.1,2.3c-0.1,0.8,0,1.6-0.1,2.3c-0.1,0.7-0.4,1.5-0.5,2.3S0.7,99,0.6,99.8s0.3,1.6,0.3,2.3
		c-0.1,0.8-0.1,1.5-0.2,2.3c0,0.8-0.7,1.5-0.7,2.2c0,0.8,0.4,1.6,0.4,2.3c0,0.8-0.1,1.5-0.2,2.3c0,0.8,0.2,1.5,0.2,2.3
		S0,115.1,0,115.8c0,0.8,0.6,1.5,0.6,2.3s0.2,1.5,0.3,2.3s0.3,1.5,0.3,2.3c0.1,0.8-0.5,1.6-0.4,2.4s0.6,1.5,0.7,2.3
		c0.1,0.8-0.2,1.6-0.1,2.3s0.5,1.5,0.7,2.2s0.3,1.5,0.5,2.3s0.8,1.4,1,2.1c0.2,0.7,0.3,1.5,0.5,2.2c0.2,0.7,0.5,1.4,0.8,2.2
		c0.3,0.7,0.7,1.4,0.9,2.1c0.3,0.7,0,1.6,0.3,2.3s1,1.2,1.3,1.9s0.4,1.5,0.8,2.2c0.3,0.7,0.4,1.5,0.8,2.2c0.3,0.7,0.5,1.5,0.8,2.2
		c0.4,0.7,1.3,1,1.6,1.7s0,1.8,0.4,2.5s1.2,1,1.6,1.7c0.4,0.6,1,0.7,1.5,1.3c0.1-0.8-0.1-1.2-0.1-2c0.1-0.8-0.3-1.6-0.2-2.3
		s0.3-1.5,0.3-2.3c0.1-0.8,0.8-1.5,0.8-2.2s-0.4-1.6-0.3-2.3c0.1-0.8,0.9-1.4,1-2.2s0.2-1.5,0.3-2.3c0.1-0.8,0.6-1.5,0.7-2.2
		c0.1-0.8,0.1-1.5,0.3-2.3c0.1-0.8-0.4-1.6-0.3-2.4c0.2-0.8,1-1.4,1.2-2.1c0.2-0.8-0.8-1.7-0.7-2.5c0.2-0.7,1.3-1.3,1.4-2
		s-0.6-1.7-0.4-2.4s1.6-1.2,1.8-1.9c0.2-0.7-0.7-1.7-0.5-2.5s0.5-1.5,0.7-2.2s0.3-1.5,0.5-2.2s0.6-1.4,0.8-2.2
		c0.2-0.7,0.7-1.4,0.9-2.1c0.2-0.7,0.2-1.6,0.4-2.3c0.3-0.7,1.3-1.2,1.6-1.9c0.3-0.7-0.4-1.8-0.2-2.5c0.3-0.7,0.7-1.4,0.9-2.1
		c0.3-0.7,1.4-1.1,1.7-1.8c0.3-0.7,0.6-1.4,0.9-2.1s0.6-1.4,0.9-2.1s-0.4-1.9-0.1-2.5c0.3-0.7,0.4-1.5,0.7-2.2
		c0.3-0.7,0.6-1.4,0.9-2.1s1.2-1.1,1.5-1.8c0.3-0.7,0.5-1.5,0.9-2.1c0.4-0.7,1.1-1.1,1.5-1.8c0.4-0.7,1.3-1,1.7-1.7s0.7-1.4,1.1-2
		c0.4-0.6,0.1-1.8,0.5-2.4s0.9-1.3,1.3-1.9c0.4-0.6,1.1-1.1,1.6-1.7s0.7-1.5,1.1-2c0.5-0.6,1.9-0.4,2.4-1s0.7-1.5,1.2-2
		s1.1-1,1.7-1.6s0.8-1.3,1.4-1.8c0.6-0.5,1.3-0.8,1.9-1.3c0.6-0.5,1.3-0.8,1.9-1.2c0.6-0.4,0.4-2,1-2.5c0.6-0.4,1.6-0.3,2.3-0.8
		c0.6-0.4,1-1.4,1.6-1.7c0.6-0.4,1.9,0.3,2.5-0.1c0.7-0.3,1.1-1.1,1.8-1.4c0.7-0.3,1.3-0.7,2.1-1c0.7-0.3,1.6-0.1,2.3-0.3
		s1.4-0.4,2.1-0.6c0.7-0.2,1.4-0.6,2.1-0.8s1.4-0.6,2.2-0.7c0.8-0.1,1.5-0.6,2.2-0.7C75.6,57.6,76.4,58.7,77.1,58.8L77.1,58.8z"/>
	<path class="st3" d="M98.4,35.5l-2.3,0.8l-2.3,0.9l-2.2,1l-2.1,1.3l-2,1.4l-2.1,1.4l-0.9-2.1l-0.9-2l-0.9-2l-1.2-1.9l-0.8-2.1
		l-1.1-1.9l-0.9-2l-2.3,0.1L75,30l-1,2l-1,1.9l-1.2,1.8l-0.9,2l-1.3,1.8l-0.8,2l-1.1,1.9l-2-1l-1.9-1l-2.1-0.7l-2-0.7l-1.8-1
		l-2.2-0.4l-1.6,1.5l0.9,1.8l0.8,1.8l0.8,1.8l0.9,1.8l0.6,1.9l1,1.7l1.3,1.6l1.3,1.5l1.6,0.1l2-0.7l2.2-0.3l2.1-0.6l2.5-0.3l2.5-0.2
		l2.5,0.1l2.1,0.3l2.1,0.2l2.1,0.3l2.1,0.3l2.1,0.4l2,0.6l2,0.6l1.5-0.9l0.2-0.1l0.6-1.7l0.7-1.7l0.9-2.2l0.8-2.2l1.1-2.3l0.8-2.4
		l0.1-0.2l0.9-2l0.5-2.1L98.4,35.5z"/>
	<path class="st0" d="M59.1,96.6c2.1,0,3.8-1.7,3.8-3.8S61.1,89,59.1,89s-3.8,1.7-3.8,3.8S57,96.6,59.1,96.6z"/>
	<path class="st0" d="M95.6,96.6c2.1,0,3.8-1.7,3.8-3.8S97.7,89,95.6,89s-3.8,1.7-3.8,3.8S93.5,96.6,95.6,96.6z"/>
	<path class="st0" d="M64.9,105.5h24.2l-7.6-7.9c-2.5-2.6-6.6-2.6-9.1,0L64.9,105.5z"/>
	<path class="st3" d="M64.9,105.5l7.5,3.5c2.5,1.1,6.6,1.1,9.1,0l7.5-3.5H64.9z"/>
</g>
<path class="st4" d="M38.4,226.8c0.1,0.1,0.1,0.1,0.2,0.2c0,0.2-0.1,1.1-0.1,1.3c-0.1,0.8,0,1.5-0.9,1.7c-0.6,0.1-1.2-0.1-1.8-0.1
	s-1.4-0.1-2-0.3c-1.2-0.4-2.5-1.2-3.2-2.4c-0.8-1.2-1-2.6-0.9-4c0-1.1,0.4-2.3,1.1-3.1c0.9-1.1,1.8-2,3.1-2.6
	c0.7-0.3,1.5-0.5,2.3-0.5c0.4,0,0.8,0,1.2,0.1c0.3,0.1,0.8,0.1,1,0.4c0.1,0.2,0,0.6,0,0.8c0,0.6,0,1.2,0,1.7
	c-0.1,0.7-0.9,0.4-1.4,0.6c-0.5,0.2-1,0.5-1.4,0.9c-0.7,0.7-1.1,1.8-0.9,2.9c0.1,0.5,0.2,1,0.6,1.3c0.2,0.2,0.5,0.3,0.8,0.4
	c0.5,0.2,1.1,0.4,1.6,0.5C37.6,226.7,38.2,226.7,38.4,226.8L38.4,226.8z"/>
<path class="st4" d="M73.4,226.8c0.1,0.1,0.1,0.1,0.2,0.2c0,0.2-0.1,1.1-0.1,1.3c-0.1,0.8-0.1,1.5-0.9,1.7c-0.6,0.1-1.2-0.1-1.8-0.1
	c-0.6,0-1.4-0.1-2-0.3c-1.2-0.4-2.5-1.2-3.2-2.4c-0.8-1.2-1-2.6-0.9-4c0-1.1,0.4-2.3,1.1-3.1c0.9-1.1,1.8-2,3.1-2.6
	c0.7-0.3,1.5-0.5,2.3-0.5c0.4,0,0.8,0,1.2,0.1c0.3,0.1,0.8,0.1,1,0.4c0.1,0.2,0,0.6,0,0.8c0,0.6,0,1.2,0,1.7
	c-0.1,0.7-0.9,0.4-1.4,0.6c-0.5,0.2-1,0.5-1.4,0.9c-0.7,0.7-1.1,1.8-0.9,2.9c0.1,0.5,0.2,1,0.6,1.3c0.2,0.2,0.5,0.3,0.8,0.4
	c0.5,0.2,1.1,0.4,1.6,0.5C72.6,226.7,73.2,226.7,73.4,226.8L73.4,226.8z"/>
<path class="st4" d="M84.4,228.5c-0.1-0.3-0.4-0.7-0.4-0.8c-0.4-0.7-0.7-1.4-1.1-2c-0.2-0.3-0.4-0.7-0.6-1s-0.2-0.4,0.1-0.7
	c1.4-1,2.7-2.1,4.1-3.2c0.1-0.1,0.2-0.2,0.2-0.3s-0.1-0.1-0.1-0.2c-0.6-0.5-1.2-1-1.8-1.5c-0.1-0.1-0.3-0.3-0.4-0.1
	c-1.2,0.9-2.3,1.9-3.5,2.9c-0.3,0.3-0.7,0.6-1,0.9c-0.3,0.3-0.5,0.4-0.6,0c-0.1-0.6,0-1.1,0-1.7c0-0.7,0.2-1.3,0.5-1.9
	c0-0.1,0-0.1,0-0.2c0-0.2-0.2-0.2-0.4-0.2c-0.3,0-0.6-0.1-0.9-0.1c-0.6,0-1.1,0-1.7-0.1c-0.3,0-0.4,0.3-0.4,0.6
	c-0.1,1.7-0.3,3.5-0.4,5.2c-0.1,0.9-0.1,1.7-0.2,2.6c0,0.5-0.1,1-0.1,1.6c0,0.5,0.1,0.5,0.5,0.5c1,0.1,2,0.3,3.1,0.2
	c0.1,0,0.3-1.5,0.3-1.6c0-0.2,0-1.3,0.3-1.2c0.1,0,0.1,0.1,0.2,0.2c0.4,0.7,0.8,1.5,1.2,2.2c0.2,0.3,0.3,0.7,0.7,0.7
	c0.4,0.1,0.8,0,1.2,0c0.3,0,0.7,0,1,0C84.5,229.1,84.5,228.8,84.4,228.5z"/>
<path class="st4" d="M48.5,228.9c0,0,0-0.1,0-0.2c0.1-0.8,0.1-1.8,0-2.6c0-0.1,0-0.2-0.1-0.3s-0.3-0.1-0.5-0.1
	c-0.7,0.1-1.5-0.1-2.2-0.1c-0.3,0-0.6,0.1-0.7-0.3c-0.1-0.3,0-0.6,0-0.9c0-0.5,0-1.1,0-1.6c0-1.1,0-2.1,0.1-3.2c0-0.3,0-0.7,0-1
	c0-0.1,0-0.1,0-0.2c-0.1-0.1-0.2-0.1-0.3-0.2c-0.9,0-1.8,0-2.7,0c-0.2,0-0.4,0-0.5,0.2s0,0.5,0,0.7c0.2,1.5,0.2,3,0.1,4.5
	c0,0.8-0.1,1.5-0.1,2.3c0,0.4,0,0.8,0.1,1.1c0,0.5,0,1.7,0.6,1.9c0.5,0.2,1.2-0.1,1.7-0.1c0.6,0,1.2,0.1,1.8,0.1
	c0.5,0,1,0.1,1.6,0.1c0.2,0,0.5,0.1,0.7,0C48.3,229.1,48.4,229,48.5,228.9L48.5,228.9z"/>
<path class="st4" d="M130.6,228.3c0-0.5-0.3-1.1-0.4-1.5c-0.5-1.7-1-3.5-1.4-5.2c-0.3-1.1-0.6-2.1-1.2-3.1c-0.1-0.2-0.3-0.4-0.6-0.4
	c-0.1,0-0.2,0.1-0.3,0.2c-0.6,0.6-1.2,1.2-1.8,1.9c-0.7,0.8-1.4,1.5-2.1,2.4c-0.4,0.5-0.9,0.9-1.4,0.3c-1.2-1.2-2.1-2.9-3.4-4
	c-0.3-0.3-0.7-0.6-1.1-0.4c-0.2,0.1-0.4,0.4-0.4,0.7c-1.1,3-2,6-2.8,9c-0.1,0.2-0.1,0.4-0.1,0.6c1.5,0.2,3,0.2,4.5,0.1
	c-0.1-1.2,0.1-2.3,0.2-3.4c0.1-0.8,0.5-1.1,1.2-0.4c0.8,0.8,1.2,2,2,2.7c0.4,0.4,0.8,0.7,1.2,0.1c0.4-0.6,0.6-1.5,1.1-2.1
	c0.3-0.4,1.7-2,2.3-1.3c0.3,0.3,0.1,1.4,0.1,1.7c0,0.4,0,0.8,0,1.2c0,0.2-0.2,1-0.1,1.2c0.2,0.3,0.4,0.5,0.7,0.5
	c0.7,0,1.3-0.2,2-0.2c0.5,0,1.1,0.2,1.5-0.1C130.5,228.7,130.6,228.5,130.6,228.3L130.6,228.3z"/>
<path class="st4" d="M110.6,219.7c-1.1-2.3-3.7-3.1-6-2.3s-3.5,2.9-3.8,5.2c-0.2,1.4-0.2,3,0.5,4.3c0.3,0.6,0.6,1.1,1.1,1.5
	c1.1,1.2,2.7,1.8,4.3,1.6c0.4,0,0.8-0.1,1.1-0.3c2-0.7,3.6-2.8,3.9-4.8C111.8,223.3,111.3,221.2,110.6,219.7L110.6,219.7z
	 M108.3,225c-0.2,0.5-0.5,0.9-0.9,1.2c-0.7,0.5-1.8,0.3-2.5-0.2c-0.7-0.6-1-1.5-1-2.4c0-1.1,0.4-2.6,1.5-3.2
	c0.9-0.5,1.8-0.3,2.5,0.4c0.3,0.4,0.6,0.9,0.7,1.4C108.7,223.2,108.6,224.2,108.3,225L108.3,225z"/>
<path class="st4" d="M61.9,218.3c-0.2-0.1-0.6-0.2-1-0.2c-0.6,0-1,0.1-0.9,0.7c0.1,0.6,0.2,3.4,0.2,4c0,0.4-0.1,0.9-0.2,1.3
	c-0.2,0.6-0.4,0.9-0.8,1.3c-0.2,0.2-1,0.4-1.2,0.4c-0.5,0-1.1,0-1.5-0.3c-1.5-0.8-2-4.6-2.1-6.1c-0.1-0.7,0-1.2-0.8-1.3
	c-0.5-0.1-1.8,0.1-1.9,0.2c-0.1,0.1,0,0.4,0,0.6c0.2,1.2,0.7,5,1.1,6.1c0.7,1.8,1.8,3.7,4,3.9c1.1,0.1,1.9,0.2,2.7-0.1
	c1.2-0.4,1.8-0.7,2.3-1.6c0.7-1.4,0.7-2.9,0.9-4.3C62.6,222.3,62.6,218.7,61.9,218.3L61.9,218.3z"/>
<path class="st4" d="M96.4,219.2c-1.8-1.5-4.1-1.9-6.2-2.1l0,0c-0.3,0-0.4,0.1-0.4,0.4c-0.1,1.1-0.1,2.2-0.1,3.3c0,0.6,0,1.1,0,1.7
	c0,2-0.1,4.7-0.1,6.7c0,0.3,0,0.5,0.3,0.6c0.5,0.2,3,0.6,6.4-0.7c1-0.4,2.2-1.3,2.4-4.1C98.8,221.6,97.4,220,96.4,219.2z
	 M95.6,224.6c-0.1,0.7-0.2,1.4-0.7,1.9c-0.6,0.6-1.2,0.7-2,0.9c-0.2,0-0.5,0-0.6-0.2c-0.1-0.1,0-0.2,0-0.3c0.1-1.7-0.3-5.8-0.3-6.2
	c0.1-0.6,1.7,0.4,2,0.6c0.5,0.4,1.1,1,1.4,1.7C95.7,223.4,95.7,224.1,95.6,224.6L95.6,224.6z"/>
<path class="st0" d="M29.6,191.4l1-0.6l1.9-0.7l0.7,1.3l0.6,1.2l-1.6,0.8l-1.2,0.3l-0.6-1.3L29.6,191.4L29.6,191.4z M43.9,185.7
	l2.3,0.8l1.3,1l-1.5,3.1l1.6,0.1l-0.4-0.5l1.4-2l0.9-1.9l2.3,1.1l0.9,0.9l-1.3,2l-0.4,0.5l2.6,0.1v1.9l-0.2,1.9l-2.5-0.2h-0.3
	l-0.1,0.9v0.8l2.5,0.1v2l-0.2,1.4l-2.4-0.2v1.1v0.4l2.5,0.1v2.5l-0.1,0.9l-2.3-0.2v1.4l1.6,0.1l1.8,0.1v1.7l-0.2,1.8l-3.5-0.3
	l-2.8-0.1h-4.2l-1.6-0.3l0.2-6.8l-0.9,0.3l-2.1,0.3l-0.1-0.9h-0.9l-1.8,0.2l1.8,0.3l-0.2,0.7H40l1.3,0.1l0.1,1.8l-0.2,1l-1.5-0.1
	l0.6,0.5l1.2,1.2l-1.5,1.2l-1.6,0.4l-0.9-1l-1-1.1l-0.6-0.4l-1.3,1.6l-0.8,0.9l-2-0.5l-1.1-0.9l1.1-1.2l0.6-0.7l-1.8,0.1l-0.2-1.4
	V203l2.3-0.1h1l0.1-0.7l-0.8,0.1l-1.9,0.2l-0.5-1l-0.4-1.7l1.2-0.9l1.2-0.7l-1.1-0.6l-0.5-0.8l-0.4-1.2l0.8-0.5l2.1-1.3l1.3-0.7
	l-0.5-1l-0.7-1l1.3-0.8l1.4-0.5l-1.2,0.2l-3.9,0.6l-0.4-1l-0.2-2.1l2.5-0.3l3.6-0.7l2.9-1.4l0.8,1.5l0.5,1.7l-1.4,0.3l0.9,0.2
	l1.5,0.8l-0.8,1.9l-0.5,1.1l-0.7,1.1l-1.6-0.5l-1.2-0.7l0.3-0.5l-1,0.5h-0.1l0.5,0.4l0.8,1.2l-1.9,0.9l-1.2,0.8l0.6,0.4l3.4-2
	l1.3,1.1l0.7,1.4l-3.9,1.8l-1.8,0.9l2.2-0.2l0.8-0.1l-0.2-0.5l1.1-0.5l1.8-0.3l0.9,1.8l0.3,0.9l-0.1-2.4v-3.3l-0.7-0.5l-0.7-0.8
	l1.5-2.2l1.4-3.1L43.9,185.7L43.9,185.7z M36.1,189.3l0.7,1l0.7,1.4l0,0l0.8-2.1l0.1-0.7l0,0L36.1,189.3z M45.3,195.7l1.5,0.1v-1.7
	h-0.1h-1.3v0.5L45.3,195.7L45.3,195.7z M45.2,200.5l1.5,0.1l0.1-1.6h-1.5L45.2,200.5z M45.1,203.8v1.6h1.4l0.1-1.5L45.1,203.8z"/>
<path class="st0" d="M59.6,184.4l8.8-0.2l6.1-0.1H78l0.8,1.3l0.4,1l-0.1,0.8l-0.4,0.7l-1.1,1.2l-1.7-0.8h-0.1c0,0.4,0,0.7,0,1.1
	l-0.1,1.4l-4.4,0.1h-0.8v0.6c0.3,0,0.6,0.1,0.9,0.1l4.7,0.3h4.2l-0.3,1.4l-0.6,1.6l-4.2-0.4l-6.7-0.6l-5.9-0.9
	c-0.2,0-0.4-0.1-0.6-0.2l-0.4,1.4l-0.4,0.8l-1.4-0.3l-2.2-0.6l0.4-0.9l0.5-1.2l0.6-2.1l0.3-1.7l2,0.2l1.7,0.3l-0.3,1.5l2.1,0.4
	l1.7,0.3l0.1-1.9c0-0.6,0-1.3-0.1-1.9l-6.6,0.2l-0.1-1.7L59.6,184.4L59.6,184.4z M58.6,203.2l5.5-0.1l2.8-0.1c0-0.4,0-0.8,0-1.2
	L62,202l0,0l0,0c-0.6,0-1.2,0-1.8,0l-0.1-2.1l-0.1-1.8l-0.1-2l2-0.3l2.1-0.1l0,0c0.4,0,0.8-0.1,1.2-0.1l1.6-0.1v-1.2h2.7h1.4
	c0,0.3,0,0.6,0,0.9l3.8-0.1l2.3,0.1l1,0.6v2.4v2.9l0.6-0.2l0.8,1.2l0.8,1.5l0.5,1.2l-1.2,0.5l-2.3,0.6c-0.1-0.3-0.2-0.6-0.4-0.8
	l-8.1,0.4l-4.5,0.2l-5.6,0.4v-1.6L58.6,203.2L58.6,203.2z M63.9,199.5h1.3c0.5,0,1.1,0,1.6-0.1l0,0v-1l-1.7,0.1
	c-0.4,0-0.9,0-1.3,0.1c0,0.2,0,0.5,0,0.7L63.9,199.5L63.9,199.5z M75.4,188.2l-1.2-0.4l0.3-0.4l0.1-0.3h-3.4c-0.2,0-0.5,0-0.7,0
	c0,0.4,0,0.8-0.1,1.2h1.1L75.4,188.2L75.4,188.2z M73.8,199.2c0-0.1,0-0.2,0-0.3v-0.7H71h-0.4c0,0.4,0,0.7,0,1.1L73.8,199.2
	L73.8,199.2z M75.5,202.6c-0.1-0.2-0.2-0.4-0.2-0.5l1.9-0.5h-1.4h-2l0,0h-1.7l-1.2,0.1v0.2l0.1,1L75.5,202.6L75.5,202.6z"/>
<path class="st0" d="M87.3,195.7l2.2,0.1h2.6c0-0.8,0-1.6,0.1-2.3v-2.4h-1h-5.1l-0.2-1.6v-2.4h4l6.2,0.1l7.4,0.2v2.3l-0.3,1.7
	l-5.8-0.3h-1.1l-0.3,4.4v0.2l5.2,0.2v2.2l-0.1,1.7l-5.2-0.2l-0.1,2.4v2l3.5,0.1l5.1,0.2l-0.1,2.1l-0.3,1.8l-0.9-0.1l-5.1-0.2l-8-0.2
	l-6.3-0.1l-0.2-1.6l-0.1-1.8l2.5-0.2l5.7,0.1l0.2-2.6v-1.8h-4.4l-0.3-1.5L87.3,195.7L87.3,195.7z"/>
<path class="st0" d="M109.1,186.4l1.4-0.1l2-0.2v0.2c3,0,6,0.1,9,0.1l7.1,0.3l2.1,0.3l0.9,0.6l-0.4,11.3l-0.4,7.9l-0.1,2.3l-1.5-0.2
	l-2.1-0.2l-4.5-0.1l-11.9-0.4H110l-1.4,0.1l0.1-7L109.1,186.4L109.1,186.4z M119.7,190.1l1.7-0.1l1.5-0.1v0.5c0,0.7,0.1,1.3,0.1,2
	h1.7l-0.6-0.5l-1-0.7l0.7-0.9l0.7-0.8c-1.1-0.1-2.2-0.1-3.3-0.2c-3,0-6,0-9,0l-0.3,14.3c0,0.7,0,1.3,0,2l9,0.3l6.1,0.1
	c0-0.4,0.1-0.8,0.1-1.2l-0.8,0.7l-1,0.1l-1.3-0.1l-1.4-0.8c0-0.1-0.1-0.1-0.1-0.2l-1.3,1.3l-0.7-0.6l-0.8-0.9l-2.9,0.2l-1.6,0.1
	l-2.3,0.2l-0.1-1.2v-1.3l2.2-0.1h1.5l3.4-0.1l0.1,0.8l0.8-0.9c0.1-0.1,0.2-0.3,0.3-0.4c-0.1-0.4-0.2-0.8-0.3-1.2l-0.6-3.6
	c-0.1-0.5-0.1-1-0.1-1.4h-4.2l-2.8,0.1l-0.2-1.1v-1.8l5.2-0.1h1.8L119.7,190.1L119.7,190.1z M114.7,196.1l3.4,0.1l1.6,0.2l0.4,0.4
	l-0.1,1.8l-0.1,2.1l-0.1,1c-0.4,0-0.8-0.1-1.2-0.1l0,0h-1.5l-2.5-0.1l0,0c-0.2,0-0.4,0-0.5,0l-1.1-0.1l-0.2-1.3l0.1-1.8v-2l1-0.1
	L114.7,196.1L114.7,196.1L114.7,196.1z M117.1,199.6v-0.9l-0.6-0.1c-0.3,0-0.5,0-0.8,0v0.8v0.2h1H117.1z M124.4,196.1l1.8,0.7
	l1.2,0.8l-1.5,2.6l-1.2,2l0.4,0.5l0.2-0.1l0.2-0.6l0.3-1.4l1,0.9l0.7,0.3c0-1.6,0.1-3.2,0.2-4.7l0.2-7.2c-0.8-0.1-1.7-0.1-2.5-0.2
	l1.2,0.9l1,0.8l-0.8,0.9l-0.3,0.3h0.8v1.2l-0.1,1.6c-1.2,0-2.5-0.1-3.8-0.1c0.1,0.5,0.1,0.9,0.1,1.4l0.1,1.3L124.4,196.1
	L124.4,196.1z"/>
</svg>
