<?xml version="1.0" encoding="utf-8"?>
<!-- Generator: Adobe Illustrator 28.0.0, SVG Export Plug-In . SVG Version: 6.00 Build 0)  -->
<svg version="1.1" id="圖層_1" xmlns="http://www.w3.org/2000/svg" xmlns:xlink="http://www.w3.org/1999/xlink" x="0px" y="0px"
	 viewBox="0 0 200 120" style="enable-background:new 0 0 200 120;" xml:space="preserve">
<style type="text/css">
	.st0{clip-path:url(#SVGID_00000052803043991574581440000012660272678174230177_);}
	.st1{fill:#2B2B22;}
	.st2{fill:#EF5C3F;}
	.st3{fill:#0C0B0A;}
	.st4{fill:#FFC022;}
	.st5{fill:#ED7454;}
	.st6{fill:#564336;}
	.st7{fill:#FFFFFF;}
	.st8{fill:#5B5B4B;}
</style>
<g>
	<defs>
		<rect id="SVGID_1_" y="0" width="200" height="120"/>
	</defs>
	<clipPath id="SVGID_00000131336851536991173680000011363114058865748621_">
		<use xlink:href="#SVGID_1_"  style="overflow:visible;"/>
	</clipPath>
	<g style="clip-path:url(#SVGID_00000131336851536991173680000011363114058865748621_);">
		<path class="st1" d="M171,4.8l17.5-1.3l-9.7,13.3l15.3,0.2l-8,7.4l13.8,2.8l-7.5,12.8l-15.3-10.4L171,4.8z"/>
		<path class="st2" d="M145.4,93.9l-2.4,18.4l-1,0.1l0.8-18.8L145.4,93.9z"/>
		<path class="st3" d="M139.4,77.1c0,4.3-0.9,17.8,3.5,19.9c6.7,3.2,8.1-17.4,10.3-19L139.4,77.1L139.4,77.1z"/>
		<path class="st1" d="M87.5,67.9c0,0-21.2,30.6-36.5,24.2c-27.7-11.5,6.1-60.3,20-72.3C98.1-3.5,180.3,2,180.3,2l-4.1,11.5l4.2,1.3
			l-1.5,8.4l10.3,2.4l-7.1,9.1l11.2,3.6c0,0-19.7,41.2-53.6,46C107.8,88.8,87.5,67.9,87.5,67.9L87.5,67.9z"/>
		<path class="st3" d="M78.2,73.8l-6.8-1.6l1.3-6.8l-8.2,0.2l0.2-9.5h-7.1l0.7-8.9L51.2,45C40.4,63.3,33.7,85,51,92.1
			c9.3,3.8,20.7-5.8,28.3-14.1L78.2,73.8L78.2,73.8z"/>
		<path class="st3" d="M85.3,23.2l-2.9,7.5l7.5,3.6l-4.2,7.3l10.8,6.1l-5.3,7.9l6,5.9l-5,10.3c3,2.3,7.5,5.2,13.3,7.7l4.8-11.5
			l-3.8-7.5l7.3-12.9l-6-6.1l3.3-9.5l-5.7-7.7l5.5-10.7l-3.9-8C94.1,8,82.2,11.8,74,17.5L85.3,23.2L85.3,23.2z"/>
		<path class="st3" d="M164.1,11.4l-4.4,9.8l7.7,5.4l-1.8,11.6l7.1,2.3l0.9,12.9l8.2-0.9l-1.5,5.7c8.5-10.4,18.7-24.1,18.7-24.1
			l-12.3-1.9l7.1-11.2l-14.9,2.1L189.2,10l-12.1,0.4L180.7,0c0,0-9,1.4-21.4,1.4L164.1,11.4L164.1,11.4z"/>
		<path class="st3" d="M93.2,60.2l-6.6-3.6l5.5-7.5l-9.9-5.7l3.3-5.9L78,32.9l3.1-5.9c0,0-6.3-4.3-10.3-6.9
			C66,24.2,59.3,32.3,53.3,41.6l7.4,1.1l-0.4,10.7l6.8-1.4l-0.4,10.7l9.7-0.9l-1.3,7.9l7.6,4.5c3-3.6,4.9-6.3,4.9-6.3
			s0.5,0.6,1.6,1.5L93.2,60.2L93.2,60.2z"/>
		<path class="st3" d="M178,56.3c0-1.1-10.6,2.3-10.6,2.3l2.7-13.6l-10.6-1.8l3.1-12.7l-8.4-8.9l4.9-8.9l-4.7-11.3
			c-6.4,0.1-13.6,0.3-21.1,0.9l8.1,12l-8.8,12.5l10.4,9.1L137.6,47l7.5,4.8l-3.8,13.6l8.6,4.5l-1.5,12.2
			c12.2-4.2,22.2-12.8,29.6-21.3L178,56.3L178,56.3z"/>
		<path class="st3" d="M145.5,71.1l-8.2-3.2l3.3-13.4l-8.4-4.8l4.6-12.5l-8.6-9.5l5.1-11.6l-6.2-13.3c-5.1,0.5-10.2,1.1-15.2,1.9
			l3.9,8.7l-6.8,9.8l6.4,8.2l-4.2,8.4l7.5,7.5l-9.1,12.9l4.4,8.6l-5.5,12.1c8.3,3.1,18.8,5.1,31,3.4c1.5-0.2,3-0.5,4.5-0.9
			L145.5,71.1L145.5,71.1z"/>
		<path class="st2" d="M143,112.3l-6.9,6.9l-0.6-0.8l5.2-5.3l-7.4,0.8l0-1.2l7.3-0.6l-6-2.1l0.8-0.8l7,2.6L143,112.3z"/>
		<path class="st2" d="M116.5,112.8l-6.9,6.9l-0.6-0.8l5.2-5.3l-7.4,0.8l0-1.2l7.3-0.6l-6-2.1l0.8-0.8l7,2.6L116.5,112.8z"/>
		<path class="st2" d="M118.9,94.4l-2.4,18.4l-1,0.1l0.8-18.8L118.9,94.4z"/>
		<path class="st3" d="M112.6,76.8c0,4.3-0.9,17.8,3.5,19.9c6.7,3.2,8.1-17.4,10.3-19L112.6,76.8L112.6,76.8z"/>
		<path class="st4" d="M45.8,88.1c0,0-2.1,12.5,0.3,15.2c0.5,0.6,5.8-7.9,5.8-7.9s1.2,7.3,1.8,7.3c1.8,0.1,5-10.4,5-10.4
			s0.2-2.2-4-4C49.4,85.9,45.8,88.1,45.8,88.1L45.8,88.1z"/>
		<path class="st2" d="M40.9,81c0,0-0.4-2,0.2-7.7c0.9-8,2.5-11.7,2.5-11.7s-2.9-11.4-8.2-9.4C33,53.1,34,58.5,34,58.5
			s-3.1-0.9-4.4,4.5c-0.9,3.6,2.9,8.4,2.9,8.4S28,71,30.7,77.1C31.8,79.5,40.9,81,40.9,81z"/>
		<path class="st5" d="M33.9,65.4c0.1-1.5,1.9-3.5,1.4-5c-0.4-1.3-1.8-1-2.7-0.4c-2.6,1.1-1.6,6.5,0.1,8.3
			C34.5,70.2,33.8,66.4,33.9,65.4L33.9,65.4z"/>
		<path class="st5" d="M32.6,73.1c-2.3-0.5-1.4,2.7-0.5,3.6c0.6,0.6,3.8,2.7,4.2,1.1c0.2-0.8-1.2-1.2-1.6-1.8
			c-0.5-0.7-0.3-1.3-0.5-2.1c-0.4-1.6-3.3-1.5-3.3,0.4c0,0.7,0.7,1.5,1.3,1.3L32.6,73.1z"/>
		<path class="st6" d="M51,76.2c0.8,0,1.5-0.7,1.5-1.6c0-0.9-0.7-1.6-1.5-1.6c-0.8,0-1.5,0.7-1.5,1.6C49.5,75.5,50.2,76.2,51,76.2z"
			/>
		<path class="st7" d="M51.5,75.3c0,0.4-0.4,0.8-0.8,0.8c-0.4,0-0.8-0.4-0.8-0.8c0-0.4,0.4-0.8,0.8-0.8
			C51.1,74.5,51.5,74.8,51.5,75.3z"/>
		<path class="st8" d="M147.1,16.1c0,0-26.9-4.8-39.3,4.3c-11.2,8.2-15,29.5,6.8,36.8c21.9,7.3,43.7-12.7,43.7-12.7l-10.2-1.1
			l9.3-8.2l-12.4-3.6l7.3-3.4L141.8,22L147.1,16.1L147.1,16.1z"/>
		<path class="st3" d="M102.9,34.1c1.4,0,3.1-0.3,4.4-1c0.4-0.2,0.1-0.9-0.4-0.7c-1.2,0.6-2.7,0.8-4,0.9
			C102.4,33.4,102.4,34.2,102.9,34.1L102.9,34.1z"/>
		<path class="st3" d="M106.9,28.2c1.6,0,3.2-0.2,4.6-1c0.4-0.2,0-0.9-0.4-0.7c-1.3,0.7-2.8,0.8-4.2,0.9
			C106.4,27.5,106.4,28.2,106.9,28.2L106.9,28.2z"/>
		<path class="st3" d="M112.9,21.2c1.9,0,3.7-0.4,5.5-0.5c0.5,0,0.5-0.8,0-0.8c-1.8,0-3.7,0.4-5.5,0.5
			C112.4,20.5,112.4,21.2,112.9,21.2z"/>
		<path class="st3" d="M117.7,26.7c1.6,0,3.2-0.4,4.9-0.2c0.5,0.1,0.5-0.7,0-0.8c-1.6-0.2-3.2,0.2-4.9,0.2
			C117.2,25.9,117.2,26.7,117.7,26.7z"/>
		<path class="st3" d="M113.5,35.1c1.9,0,3.8,0.2,5.6-0.2c0.5-0.1,0.3-0.8-0.2-0.7c-1.8,0.4-3.6,0.2-5.4,0.2
			C113,34.3,113,35.1,113.5,35.1L113.5,35.1z"/>
		<path class="st3" d="M105.1,44.8c1.7,0,3.3,0,5-0.2c0.5-0.1,0.3-0.8-0.2-0.7c-1.6,0.2-3.2,0.2-4.8,0.2
			C104.7,44.1,104.7,44.8,105.1,44.8z"/>
		<path class="st3" d="M112,51.9c2,0,4-0.4,6-0.5c0.5,0,0.5-0.8,0-0.8c-2,0-4,0.4-6,0.5C111.5,51.1,111.5,51.9,112,51.9z"/>
		<path class="st3" d="M124.2,54.3c2.3-0.5,4.6-0.8,6.8-1.4c0.5-0.1,0.3-0.8-0.2-0.7c-2.3,0.5-4.6,0.9-6.8,1.4
			C123.6,53.7,123.7,54.4,124.2,54.3z"/>
		<path class="st3" d="M118.8,44.6c2.1,0,4.1-0.4,6.2-0.5c0.5,0,0.5-0.8,0-0.8c-2.1,0-4.1,0.4-6.2,0.5
			C118.3,43.8,118.3,44.6,118.8,44.6z"/>
		<path class="st3" d="M132.9,45.3c0.5,0,0.5-0.8,0-0.8C132.5,44.5,132.5,45.3,132.9,45.3z"/>
		<path class="st3" d="M132.9,45.3c1.7,0,3.3-0.4,4.8-1.2c0.4-0.2,0.1-0.9-0.4-0.7c-1.4,0.7-2.9,1.1-4.5,1.1
			C132.5,44.5,132.5,45.3,132.9,45.3z"/>
		<path class="st3" d="M125.2,38.9c1.8-0.2,3.6-0.5,5.4-0.9c0.5-0.1,0.3-0.8-0.2-0.7c-1.7,0.4-3.5,0.7-5.2,0.9
			C124.8,38.2,124.7,39,125.2,38.9L125.2,38.9z"/>
		<path class="st3" d="M132.9,33.2c1.7,0,3.4,0,5.1-0.2c0.5-0.1,0.5-0.8,0-0.8c-1.7,0.2-3.4,0.2-5.1,0.2
			C132.5,32.5,132.5,33.2,132.9,33.2z"/>
		<path class="st3" d="M121.9,30.3h3.3c0.5,0,0.5-0.8,0-0.8h-3.3C121.4,29.5,121.4,30.3,121.9,30.3z"/>
		<path class="st3" d="M131.2,26.7c1.8,0,3.6,0,5.4-0.5c0.5-0.1,0.3-0.9-0.2-0.7c-1.7,0.5-3.5,0.4-5.2,0.4
			C130.7,25.9,130.7,26.7,131.2,26.7L131.2,26.7z"/>
		<path class="st3" d="M124.1,22.1c2,0,4-0.2,6-0.5c0.5-0.1,0.5-0.8,0-0.8c-2,0.2-4,0.4-6,0.5C123.6,21.4,123.6,22.1,124.1,22.1z"/>
		<path class="st3" d="M130.3,18c0.5,0,0.5-0.8,0-0.8C129.8,17.3,129.8,18,130.3,18z"/>
		<path class="st3" d="M130.4,18c2.4,0.5,4.9,0.5,7.3,0c0.5-0.1,0.3-0.8-0.2-0.7c-2.3,0.4-4.6,0.4-6.9,0
			C130.2,17.2,130,17.9,130.4,18L130.4,18z"/>
		<path class="st3" d="M139.3,26.2c1.7,0.5,3.4,0.4,5.1,0.9c0.5,0.1,0.7-0.6,0.2-0.7c-1.7-0.5-3.4-0.4-5.1-0.9
			C139,25.3,138.8,26.1,139.3,26.2z"/>
		<path class="st3" d="M141.6,37.3c1.5,0,3.2-0.3,4.6-1c0.4-0.2,0.1-0.9-0.4-0.7c-1.3,0.6-2.8,0.8-4.2,0.9
			C141.1,36.6,141.1,37.3,141.6,37.3L141.6,37.3z"/>
		<path class="st3" d="M140.3,49.3c1.4-0.2,2.7-0.7,4-1.1c0.4-0.2,0.3-0.9-0.2-0.7c-1.3,0.4-2.6,0.9-4,1.1
			C139.7,48.7,139.9,49.4,140.3,49.3z"/>
		<path class="st3" d="M135,55.5c1.6-0.3,3.1-0.9,4.4-1.9c0.4-0.3-0.2-0.8-0.5-0.5c-1.2,1-2.6,1.5-4,1.7
			C134.4,54.8,134.6,55.6,135,55.5z"/>
		<path class="st3" d="M148.5,49.1c1.4-0.3,2.7-0.9,4-1.4c0.4-0.2,0.3-0.9-0.2-0.7c-1.3,0.5-2.6,1.1-4,1.4
			C147.8,48.5,148,49.2,148.5,49.1z"/>
		<path class="st4" d="M44,112.7c-1.3,1-1.8,3-3.6,3.2c-3.5,0.3-3.8-5.5-7.4-3.4c-1.3,0.7-1.7,2.2-3.1,3.1c-1.8,1.3-3.3,0.3-4.3-1.3
			c-1.8-2.9-2.1-6.8-7-6.2c-1.9,0.2-3.4,2-4.3,3.7c-0.8,1.6-0.8,2.5-2,3.8c-1.6,1.7-3,0.6-4.8,0c-1-0.3-1.7-0.4-2.4-0.4
			C3,115,0.2,115.8,0,117.5c-0.3,2.6,2.2,1.6,3.5,1.2c2.1-0.6,2.9-0.9,4.9,0c1.7,0.8,2.6,2,4.4,0.6c1.3-1,1.8-3.1,2.7-4.5
			c6-9.5,8.1,8.1,14.8,4.3c1.3-0.7,2.2-2.4,3.7-3c2.5-1,2.7,1,4.2,2.2c2.3,1.9,8.5,0.2,9.7-3C49.1,112.3,45.9,111.3,44,112.7
			L44,112.7z"/>
		<path class="st3" d="M45.5,112.4c0,0.4-0.3,0.8-0.7,0.8c-0.4,0-0.7-0.3-0.7-0.8c0-0.4,0.3-0.8,0.7-0.8
			C45.2,111.7,45.5,112,45.5,112.4z"/>
		<path class="st3" d="M47.5,114.5c0,0.4-0.3,0.8-0.7,0.8c-0.4,0-0.7-0.3-0.7-0.8s0.3-0.8,0.7-0.8C47.2,113.7,47.5,114.1,47.5,114.5
			z"/>
	</g>
</g>
</svg>
