<?xml version="1.0" encoding="UTF-8"?>
<svg id="_圖層_2" data-name="圖層 2" xmlns="http://www.w3.org/2000/svg" viewBox="0 0 711.12 382.34">
  <defs>
    <style>
      .cls-1 {
        fill: #ef5c3f;
      }

      .cls-1, .cls-2, .cls-3, .cls-4, .cls-5, .cls-6, .cls-7, .cls-8, .cls-9, .cls-10 {
        stroke-width: 0px;
      }

      .cls-2 {
        fill: #f2ead7;
      }

      .cls-3 {
        fill: #564336;
      }

      .cls-4 {
        fill: #ba9449;
      }

      .cls-5 {
        fill: #ffc022;
      }

      .cls-6 {
        fill: #89857d;
      }

      .cls-7 {
        fill: #d6aa49;
      }

      .cls-8 {
        fill: #936b3b;
      }

      .cls-9 {
        fill: #ffa21a;
      }

      .cls-10 {
        fill: #ddd6c7;
      }
    </style>
  </defs>
  <g id="Layer_1" data-name="Layer 1">
    <g>
      <path class="cls-8" d="M85.37,236.3c22.99,30.66,24.38,77.04,54.47,103.51,35.69,31.4,92.84,35.91,137.59,38.08,93.84,4.55,197.2,13.32,285.62-21.31,15.54-6.08,32.32-11.97,43.43-24.97,12.95-15.16,18.64-37.7,26.13-55.6,7.15-17.09,16.03-37.19,19.26-55.35,4.09-22.95-20.33-30.93-39.96-33.16L85.37,236.3Z"/>
      <path class="cls-4" d="M112.37,167.47c-31.16,21.47-72.83,28.09-101.5,56.12,11.16-1.12,23.2-1.45,34.74-.1-17.64,11.57-34.27,24.11-45.61,41.94,44.4-10.16,95.21-13.12,140.78-7.7-16.94,15.28-33.62,39.28-41.66,60.91,8.75-3.28,17.58-6.63,26.58-9.57,14.07-4.6,59.58-16.73,59.58-16.73,0,0,7.51,25.05,8.62,34.75,9.46-9.5,20.89-17.98,31.3-26.7,21.44,16.04,39.44,33.98,56.06,54.85,1.32-11.12.94-22.63,2.07-33.77,13.79,5.29,18.45,20.8,29.04,29.85,11.39-9.65,20.28-23.15,33.06-31.27,6.58,10.55,7.76,24.2,14.72,34.49,13.34-6.44,26.1-17.93,38.87-26.08,8.98-5.73,46.7-17.32,35.78-19-3.31-.51,23.22,10.12,31.78,14.18,11.98,5.69,25.33,10.22,37.04,15.28,1.88-8.17-.82-17.5-1.8-25.03,13.09-3.61,64.14,2.9,74.11,5.04,11.68,2.51,23.45,9.23,35.01,10.44,1.77-17.54-17.48-26.99-27.48-37.25,27.48-8.63,56.91-5.2,85.08-5.35-9.72-13.39-33.36-17.96-48.02-24.86-20.34-9.58-40.06-16.93-61.44-22.4,27.19-1.53,55.15-.48,82.52,2.05,20.96,1.94,42.09,7.48,63.12,7.17-8.84-14.18-21.67-22.68-34.58-31.89,13.51-.27,28.7,6.39,40.98,10.96-24.53-30.33-64.21-60.81-103.89-66.33-33.15-4.61-71.69-6.47-104.88-2.93-47.76,5.09-90.03,23.4-135.48,36.32-46.44,13.21-92.79,1.78-137.41-11.07-13.62-3.92-27.24-4.84-41.13-6.92-7.45-1.11-27.09-.61-31.82-6.08l-44.15-3.31Z"/>
      <path class="cls-7" d="M590.34,214.74c23.72-6.01,26.65-5.69,51.21-4.07-12.86-11.26-29.28-15.2-43.57-21.55,35.16-4.49,68.72,1.87,102.37,9.48-1.37-19.16-51.31-37.51-66.11-43.76-39.62-16.75-85.36-26.82-128.01-30.68-72.56-6.56-143.5,10.35-209.42,38.6.98-.94,2.34-3.05,3.47-4.19l.22-4.53c-14.09-.53-28.66-5.69-42.79-7.82-22.26-3.37-45.68,1.94-67.85-1.93-34.58-6.03-76.19-11.33-120.07,12.13,13.97.51,47.62,12.02,58.25,24.97-2.52,5.18-22.7,12.86-42.15,35.23-11.1,12.76-24.46,25.72-31.2,41.07,36.15-16.84,83.92-26.77,123.72-26.49-11.22,18.09-20.47,38.95-29.6,58.38,11.31-2.87,24.31-7.76,35.72-11.99,7.69-2.85,47.66-23.75,56.3-18.65,7.34,4.34,5.09,41.57,9.06,51.56,12.41-7.6,20.61-21.53,31.69-30.87,10.81,10.83,10.94,30.02,22.14,39.99,6.91-6.97,10.3-17.48,17.07-24.3,6.97-7.03,3.2-6.44,12.64-4.24,17.06,3.97,35.92,20.63,50.95,29.63,10.95,6.56,21.56,15.12,32.79,20.74,7.13-15.56.38-38.36-1.52-54.29,23.68,0,51.23,7.98,72.7,16.88-6.13-7.82-16.2-12.92-22.29-21.21,29.32-2.18,59.52,15.26,88.37,17.65.47-13.09-27.83-25.95-35.54-34.3,19.85-3.25,41.96-5.7,62.78-6.47,22.56-.84,46.92,5.41,68.92,3.48-2.12-12.89-51.15-39.41-60.23-48.41Z"/>
      <path class="cls-4" d="M529.3,224.54c-3.72-.37-7.38,3.54-4.8,7.67,2.17,3.46,9.69,4.92,13.2,5.57,8.84,1.63,20.15,1.14,29.41.57,7.24-.45,21.57-9.02,9.62-15.45-7.26-3.9-23.3-2.2-31.23-1.32-4.16.46-9.38.65-12.59,2.97h-3.6Z"/>
      <path class="cls-4" d="M193.82,194.54c-8.22,3.38-4.01,13.91,1.08,18.15,5.28,4.4,11.61,6.39,18.12,7.62,15.22,2.87,30.3,2,44.31-2.89,3.66,23.06,31.75,30.83,51.56,34.71,25.05,4.91,50.63,3.43,75.13-1.93,14.77-3.24,27.85-8.5,37.96-19.42,13.19,7.12,56.17,7.05,59.76-11.64,5.59-29.06-56.43-14.32-68.88-11.54-50.02,11.18-97.87-4.28-144.77-20.74-15.37-5.4-32.49-10.66-49.06-9.16-11.76,1.06-17.46,7.49-23.81,16.35,1.31-1.15,1.06-2.28,1.59-3.72l-3,4.2Z"/>
      <path class="cls-2" d="M474.11,162.04s3.52-12.7,9.97-16.29c6.45-3.59,22.17-3.67,22.17-3.67l4.34,12.66,6.91,1.02-11.78,9.13,2.81,10.53-21.81,2.84-12.61-16.23Z"/>
      <polygon class="cls-6" points="393.67 147.73 408.07 120.12 418.88 135.72 430.88 130.32 432.08 139.92 459.08 142.32 460.28 164.53 484.89 150.13 486.09 165.13 498.09 169.33 499.08 186.03 487.89 196.34 436.88 187.34 393.67 147.73"/>
      <path class="cls-10" d="M489.09,190.94l-10.2-21.6-30.01,12.6-10.2-33.01-18.6,10.2-6-19.8-20.13,5.37c-9.75,27.54-5.79,61.47,27.79,77.44,32.32,15.37,61.4,1.87,76.66-34.44.23-.55.46-1.11.68-1.67l-9.99,4.91Z"/>
      <path class="cls-10" d="M194.96,63.43c-20.43,9.88-29.29,48.48-22.22,89.88,5.87,34.38,37.37,72.71,81.8,56.56,33.64-12.23,44.44-42.42,29.29-78.77-16.17-38.81-57.56-82.81-88.87-67.66Z"/>
      <path class="cls-2" d="M421.98,211.12c3.3-22.45-23.65-51.46-61.88-68.87-31.74-14.46-81.15-9.93-92.74,35.91-8.78,34.7,10.13,60.59,48.72,68.48,41.19,8.42,100.85-1.1,105.9-35.51Z"/>
      <polygon class="cls-6" points="172.82 155.83 181.22 141.12 192.92 152.53 194.72 146.53 213.33 152.53 217.83 124.62 235.53 130.62 236.43 122.82 249.64 125.52 258.94 116.82 271.24 121.02 276.64 117.12 271.24 119.22 258.34 114.42 249.04 123.42 236.43 120.12 234.33 128.22 216.93 122.52 211.23 149.23 194.12 144.43 192.32 149.23 180.92 137.52 172.74 153.31 172.82 155.83"/>
      <polygon class="cls-6" points="350.46 138.72 330.05 144.43 336.66 149.53 329.15 156.13 348.06 171.73 337.76 175.83 315.65 184.63 318.65 192.44 320.15 211.04 320.45 191.54 318.05 185.53 352.26 171.43 331.25 155.53 339.36 150.43 333.36 145.03 350.46 138.72"/>
      <path class="cls-6" d="M340.86,185.83c.9-.3,14.7-3.6,14.7-3.6l6,11.7-5.1-13.2-15.3,3-3.3-6.9-2.4.9,5.4,8.1Z"/>
      <polygon class="cls-6" points="334.26 143.23 329.15 138.12 323.75 143.83 311.15 143.52 306.35 153.13 312.35 145.03 324.05 145.33 328.25 140.52 332.16 144.73 334.26 143.23"/>
      <g>
        <path class="cls-9" d="M527.83,69.58c-3.12-7.74-19.47-17.55-33.34-8.28-13.87,9.26-21.75,26.83-21.75,26.83l7.89-1.16-4.3,16.09,10.72-4.42-.2,9.25s54.15-5.61,40.98-38.31Z"/>
        <polygon class="cls-1" points="543.22 123.3 545.76 167.82 548.29 168.18 549.74 122.93 543.22 123.3"/>
        <polygon class="cls-1" points="569.5 129.73 572.03 174.25 574.56 174.61 576.01 129.37 569.5 129.73"/>
        <path class="cls-5" d="M562.77,42.87c1.04-16.39-13.12-29.07-31.1-27.67-24.66,1.93-29.44,28.86-31.15,44.82-4.1,38.14,9.54,75.77,50.46,83.67,32.26,6.23,63.9-7.14,69.73-42.92,2.81-17.27,8.56-26.7-3.61-39.16-8.1-8.3-37.7-17.36-54.33-17.67v-1.07Z"/>
        <polygon class="cls-5" points="526.34 27.38 526.18 5.39 530.39 11.05 537.51 0 538.7 7.19 541.34 5.28 545.22 16.63 526.34 27.38"/>
        <path class="cls-1" d="M509.27,28.79c-5.46.21-12.87,2.93-12.28,5.24.59,2.3,9.87,8.75,11.77,7.52,3.47-2.24,5.61-12.96.51-12.76Z"/>
        <path class="cls-3" d="M537.94,27.88c0,1.76-1.43,3.19-3.19,3.19s-3.19-1.43-3.19-3.19,1.43-3.19,3.19-3.19,3.19,1.43,3.19,3.19Z"/>
        <circle class="cls-3" cx="517.38" cy="21.43" r="3.19"/>
        <polygon class="cls-1" points="545.81 164.22 532.94 161.36 532.22 163.15 542.95 166.72 527.93 168.51 528.29 171.73 544.02 169.94 534.01 177.8 537.58 178.87 548.29 168.18 545.81 164.22"/>
        <polygon class="cls-1" points="572.26 169.94 559.39 167.08 558.67 168.87 569.4 172.44 554.38 174.23 554.74 177.44 570.47 175.66 560.46 183.52 564.04 184.59 574.74 173.9 572.26 169.94"/>
        <path class="cls-5" d="M609.15,56.65l20.83,7.44-1.98,7.44,6.45,4.46-4.46,6.45,6.45,3.47-9.43,10.42,4.96,1.98s-14.88,25.3-28.28,33.24c-13.39,7.94,5.46-74.91,5.46-74.91Z"/>
        <path class="cls-9" d="M564.59,60.71c-7.76,4.79-15.3,24.21-2.75,37.44,12.55,13.23,32.92,18.46,32.92,18.46l-2.71-8.28,18.13,1.65-6.75-10.73,10-1.49s-16.07-57.28-48.84-37.05Z"/>
      </g>
      <path class="cls-2" d="M518.2,220.64s15.75,14.4,45.01,11.25c22.38-2.41,33.31-28.81,33.31-28.81l-16.65,8.1-5.4-12.6s-22.05,13.95-23.4,13.95-16.2-5.85-16.2-5.85l-16.65,13.95Z"/>
      <g>
        <path class="cls-4" d="M188.21,256.74c4.32-4.83,9.39-8.69,15.15-11.65,2.58-1.33.31-5.21-2.27-3.89-6.07,3.12-11.51,7.26-16.06,12.35-1.93,2.16,1.24,5.35,3.18,3.18h0Z"/>
        <path class="cls-4" d="M228.77,244.28c2.84-4.44,6.48-8.11,10.45-11.55,2.2-1.9-1-5.07-3.18-3.18-4.27,3.69-8.11,7.69-11.15,12.46-1.57,2.45,2.33,4.71,3.89,2.27h0Z"/>
        <path class="cls-4" d="M213.42,236.94c2.43-2.4,5.14-4.47,7.8-6.6.96-.77.79-2.39,0-3.18-.94-.94-2.23-.76-3.18,0-2.67,2.13-5.37,4.2-7.8,6.6-2.07,2.04,1.12,5.22,3.18,3.18h0Z"/>
        <path class="cls-4" d="M91.59,234.54c3.53-3.53,7.08-6.93,11.55-9.25,2.58-1.34.3-5.22-2.27-3.89-4.79,2.49-8.67,6.17-12.46,9.95-2.06,2.05,1.13,5.24,3.18,3.18h0Z"/>
        <path class="cls-4" d="M122.94,225.89c4.32-2.56,7.95-6.06,12-9,2.32-1.69.08-5.6-2.27-3.89-4.04,2.94-7.68,6.45-12,9-2.5,1.48-.23,5.37,2.27,3.89h0Z"/>
        <path class="cls-4" d="M158.21,218.93c3.36-2.71,7.34-4.5,10.95-6.85,2.42-1.58.17-5.48-2.27-3.89-3.95,2.57-8.17,4.58-11.86,7.55-2.26,1.82.95,4.99,3.18,3.18h0Z"/>
        <path class="cls-4" d="M116.41,207.51c4.1-1.72,8.34-2.98,12.6-4.2,2.79-.8,1.6-5.14-1.2-4.34-4.27,1.22-8.5,2.49-12.6,4.2-2.64,1.1-1.48,5.46,1.2,4.34h0Z"/>
        <path class="cls-4" d="M148.21,193.19c2.9,0,2.9-4.5,0-4.5s-2.9,4.5,0,4.5h0Z"/>
        <path class="cls-4" d="M150.61,193.19c5.4-.6,10.8-1.2,16.2-1.8,2.85-.32,2.88-4.82,0-4.5-5.4.6-10.8,1.2-16.2,1.8-2.85.32-2.88,4.82,0,4.5h0Z"/>
        <path class="cls-4" d="M137.41,167.3c4.87-1.64,9.95-1.15,15-1.12,2.9.02,2.9-4.48,0-4.5-5.45-.04-10.95-.49-16.2,1.28-2.73.92-1.56,5.27,1.2,4.34h0Z"/>
        <path class="cls-4" d="M105,155.38c5.46-.69,10.75-2.31,16.2-3,2.84-.36,2.87-4.86,0-4.5-5.46.69-10.75,2.31-16.2,3-2.84.36-2.88,4.86,0,4.5h0Z"/>
        <path class="cls-4" d="M149.41,154.18h7.2c2.9,0,2.9-4.5,0-4.5h-7.2c-2.9,0-2.9,4.5,0,4.5h0Z"/>
        <path class="cls-4" d="M264.49,284.56c.19-6.49,2.96-12.44,4.72-18.61.8-2.8-3.54-3.98-4.34-1.2-1.88,6.59-4.68,12.86-4.88,19.8-.09,2.9,4.42,2.9,4.5,0h0Z"/>
        <path class="cls-4" d="M262.38,255.09c1.59-3.21,2.98-6.51,4.8-9.6,1.47-2.51-2.42-4.77-3.89-2.27-1.82,3.09-3.21,6.39-4.8,9.6-1.28,2.59,2.6,4.87,3.89,2.27h0Z"/>
        <path class="cls-4" d="M302.6,267.75c0,7.21-.05,14.41-.6,21.6-.22,2.9,4.28,2.88,4.5,0,.55-7.19.6-14.39.6-21.6,0-2.9-4.5-2.9-4.5,0h0Z"/>
        <path class="cls-4" d="M336.87,272.94c4.08,3.52,7.88,7.32,11.4,11.4,1.9,2.2,5.07-1,3.18-3.18-3.52-4.08-7.32-7.88-11.4-11.4-2.18-1.89-5.38,1.28-3.18,3.18h0Z"/>
        <path class="cls-4" d="M369.06,261c2.9,0,2.9-4.5,0-4.5s-2.9,4.5,0,4.5h0Z"/>
        <path class="cls-4" d="M369.13,261.89c4.15,3.02,7.85,6.58,12,9.6,2.35,1.71,4.59-2.2,2.27-3.89-4.15-3.02-7.85-6.58-12-9.6-2.35-1.71-4.59,2.2-2.27,3.89h0Z"/>
        <path class="cls-4" d="M389.08,302.95c4.01,4.55,8.23,8.92,11.65,13.95,1.62,2.38,5.53.13,3.89-2.27-3.64-5.35-8.09-10.01-12.35-14.86-1.92-2.18-5.09,1.01-3.18,3.18h0Z"/>
        <path class="cls-4" d="M401.54,251.69c3.6,1.8,7.2,3.6,10.8,5.4,2.59,1.29,4.87-2.59,2.27-3.89-3.6-1.8-7.2-3.6-10.8-5.4-2.59-1.29-4.87,2.59-2.27,3.89h0Z"/>
        <path class="cls-4" d="M434.69,277.15c2.87,2.32,5.53,4.88,8.4,7.2,2.23,1.81,5.44-1.36,3.18-3.18-2.87-2.32-5.53-4.88-8.4-7.2-2.24-1.81-5.44,1.36-3.18,3.18h0Z"/>
        <path class="cls-4" d="M453.08,257.4c2.9,0,2.9-4.5,0-4.5s-2.9,4.5,0,4.5h0Z"/>
        <path class="cls-4" d="M451.95,257.09c4.4,3.04,9.36,4.96,14.34,6.83,2.72,1.02,3.89-3.33,1.2-4.34-4.63-1.74-9.17-3.55-13.27-6.37-2.4-1.65-4.64,2.25-2.27,3.89h0Z"/>
        <path class="cls-4" d="M430.94,254.69c2.4,1.82,4.62,3.82,7.2,5.4,2.48,1.52,4.74-2.37,2.27-3.89-2.57-1.58-4.8-3.58-7.2-5.4-.98-.74-2.52-.16-3.08.81-.68,1.15-.17,2.34.81,3.08h0Z"/>
        <path class="cls-4" d="M432.68,240.52c3.29,1.25,6.75,1.82,10.2,2.4,2.84.47,4.05-3.86,1.2-4.34-3.45-.58-6.92-1.15-10.2-2.4-2.72-1.03-3.88,3.32-1.2,4.34h0Z"/>
        <path class="cls-4" d="M471.69,248.4c2.9,0,2.9-4.5,0-4.5s-2.9,4.5,0,4.5h0Z"/>
        <path class="cls-4" d="M470.55,248.09c6.02,4.12,12.58,7.19,19.2,10.2,2.62,1.19,4.91-2.69,2.27-3.89-6.62-3.01-13.18-6.09-19.2-10.2-2.4-1.64-4.65,2.26-2.27,3.89h0Z"/>
        <path class="cls-4" d="M510.3,278.35c3.34,2.64,6.86,5.01,10.66,6.95,2.58,1.32,4.86-2.57,2.27-3.89-3.45-1.76-6.71-3.85-9.75-6.25-2.25-1.78-5.46,1.38-3.18,3.18h0Z"/>
        <path class="cls-4" d="M488.55,231.89c5.69,3.02,11.96,4.51,17.94,6.83,2.71,1.05,3.87-3.3,1.2-4.34-5.61-2.17-11.53-3.54-16.87-6.37-2.56-1.36-4.84,2.53-2.27,3.89h0Z"/>
        <path class="cls-4" d="M531.1,250.72c5.98,1.2,11.93,2.43,18,3.08,2.88.31,2.85-4.19,0-4.5-5.66-.61-11.23-1.8-16.81-2.92-2.83-.57-4.04,3.77-1.2,4.34h0Z"/>
        <path class="cls-4" d="M507.69,196.79c5.89-.09,11.67-1.22,17.4-2.48,2.83-.62,1.63-4.96-1.2-4.34-5.35,1.18-10.71,2.24-16.21,2.32-2.9.04-2.9,4.55,0,4.5h0Z"/>
        <path class="cls-4" d="M550.9,197.99c2.9,0,2.9-4.5,0-4.5s-2.9,4.5,0,4.5h0Z"/>
        <path class="cls-4" d="M553.3,197.99c3.21-.03,6.39-.56,9.6-.6,2.9-.04,2.9-4.54,0-4.5-3.21.04-6.39.57-9.6.6-2.9.03-2.9,4.53,0,4.5h0Z"/>
        <path class="cls-4" d="M594.71,166.78c2.9,0,2.9-4.5,0-4.5s-2.9,4.5,0,4.5h0Z"/>
        <path class="cls-4" d="M594.72,166.7c7.18,1.15,14.42,1.85,21.6,3,2.84.46,4.06-3.88,1.2-4.34-7.18-1.15-14.42-1.85-21.6-3-2.84-.46-4.06,3.88-1.2,4.34h0Z"/>
        <path class="cls-4" d="M643.99,177.28c1.95,1.28,4.05,2.32,6,3.6,2.44,1.59,4.69-2.3,2.27-3.89-1.95-1.28-4.05-2.32-6-3.6-2.44-1.59-4.69,2.3-2.27,3.89h0Z"/>
        <path class="cls-4" d="M482.49,140.29c2.58-.63,5.15-1.08,7.8-1.12,2.9-.04,2.9-4.54,0-4.5-3.05.04-6.05.56-9,1.28-2.82.69-1.62,5.03,1.2,4.34h0Z"/>
        <path class="cls-4" d="M518.5,146.38c2.22.04,4.39.55,6.6.6,2.91.06,2.9-4.44,0-4.5-2.21-.05-4.38-.56-6.6-.6-2.9-.05-2.9,4.46,0,4.5h0Z"/>
        <path class="cls-4" d="M447.08,134.97c5.86-.67,11.55-2.33,17.4-3,2.85-.33,2.88-4.83,0-4.5-5.86.67-11.55,2.33-17.4,3-2.85.33-2.88,4.83,0,4.5h0Z"/>
      </g>
      <path class="cls-2" d="M199.08,69.41c-6.51.53-10.56,5.14-14.3,10.33-1.51,2.09-3.71,6.49-4.19,10.36-.03.12-.05.24-.08.35-.84,4.2-1.76,8.7,1.35,12.29,2.14,2.47,6.28,4.73,9.45,3.03,3.75-2.01,3.24-7.74,4.15-11.18,1.2-4.57,3.25-8.87,6.2-12.59,4.64-5.86,9.74-13.6-2.59-12.59Z"/>
    </g>
  </g>
</svg>