<?xml version="1.0" encoding="utf-8"?>
<!-- Generator: Adobe Illustrator 28.0.0, SVG Export Plug-In . SVG Version: 6.00 Build 0)  -->
<svg version="1.1" id="圖層_1" xmlns="http://www.w3.org/2000/svg" xmlns:xlink="http://www.w3.org/1999/xlink" x="0px" y="0px"
	 viewBox="0 0 160 75" style="enable-background:new 0 0 160 75;" xml:space="preserve">
<style type="text/css">
	.st0{clip-path:url(#SVGID_00000142149810794168795830000013015097674753336506_);}
	.st1{fill:#9E6E39;}
	.st2{fill:#C1923E;}
	.st3{fill:#E2AF47;}
	.st4{fill:#BA9449;}
	.st5{fill:#EDE2CE;}
	.st6{fill:#FFF8EB;}
	.st7{fill:#F2EAD7;}
</style>
<g>
	<defs>
		<rect id="SVGID_1_" y="0" width="160" height="75"/>
	</defs>
	<clipPath id="SVGID_00000134948078871387454360000008330566871541652629_">
		<use xlink:href="#SVGID_1_"  style="overflow:visible;"/>
	</clipPath>
	<g style="clip-path:url(#SVGID_00000134948078871387454360000008330566871541652629_);">
		<path class="st1" d="M19.2,41c5.2,7.1,5.5,17.9,12.3,24.1c8,7.3,20.9,8.4,31,8.9c21.1,1.1,44.4,3.1,64.3-5
			c3.5-1.4,7.3-2.8,9.8-5.8c2.9-3.5,4.2-8.8,5.9-13c1.6-4,3.6-8.7,4.3-12.9c0.9-5.3-4.6-7.2-9-7.7L19.2,41z"/>
		<path class="st2" d="M25.3,24.9c-7,5-16.4,6.5-22.8,13.1c2.5-0.3,5.2-0.3,7.8,0c-4,2.7-7.7,5.6-10.3,9.8c10-2.4,21.4-3.1,31.7-1.8
			c-3.8,3.6-7.6,9.1-9.4,14.2c2-0.8,4-1.5,6-2.2c3.2-1.1,13.4-3.9,13.4-3.9s1.7,5.8,1.9,8.1c2.1-2.2,4.7-4.2,7-6.2
			c4.8,3.7,8.9,7.9,12.6,12.8c0.3-2.6,0.2-5.3,0.5-7.9c3.1,1.2,4.2,4.8,6.5,7c2.6-2.2,4.6-5.4,7.4-7.3c1.5,2.5,1.7,5.6,3.3,8
			c3-1.5,5.9-4.2,8.7-6.1c2-1.3,10.5-4,8.1-4.4c-0.7-0.1,5.2,2.4,7.2,3.3c2.7,1.3,5.7,2.4,8.3,3.6c0.4-1.9-0.2-4.1-0.4-5.8
			c2.9-0.8,14.4,0.7,16.7,1.2c2.6,0.6,5.3,2.2,7.9,2.4c0.4-4.1-3.9-6.3-6.2-8.7c6.2-2,12.8-1.2,19.1-1.2c-2.2-3.1-7.5-4.2-10.8-5.8
			c-4.6-2.2-9-3.9-13.8-5.2c6.1-0.4,12.4-0.1,18.6,0.5c4.7,0.5,9.5,1.7,14.2,1.7c-2-3.3-4.9-5.3-7.8-7.4c3-0.1,6.5,1.5,9.2,2.6
			c-5.5-7.1-14.4-14.2-23.4-15.5c-7.5-1.1-16.1-1.5-23.6-0.7c-10.7,1.2-20.3,5.5-30.5,8.5c-10.4,3.1-20.9,0.4-30.9-2.6
			c-3.1-0.9-6.1-1.1-9.3-1.6c-1.7-0.3-6.1-0.1-7.2-1.4L25.3,24.9L25.3,24.9z"/>
		<path class="st3" d="M132.8,36c5.3-1.4,6-1.3,11.5-0.9c-2.9-2.6-6.6-3.5-9.8-5c7.9-1,15.5,0.4,23,2.2c-0.3-4.5-11.5-8.7-14.9-10.2
			c-8.9-3.9-19.2-6.2-28.8-7.1c-16.3-1.5-32.3,2.4-47.1,9c0.2-0.2,0.5-0.7,0.8-1l0-1.1c-3.2-0.1-6.4-1.3-9.6-1.8
			c-5-0.8-10.3,0.5-15.3-0.4c-7.8-1.4-17.1-2.6-27,2.8c3.1,0.1,10.7,2.8,13.1,5.8c-0.6,1.2-5.1,3-9.5,8.2c-2.5,3-5.5,6-7,9.6
			c8.1-3.9,18.9-6.2,27.8-6.2c-2.5,4.2-4.6,9.1-6.7,13.6c2.5-0.7,5.5-1.8,8-2.8c1.7-0.7,10.7-5.5,12.7-4.3c1.7,1,1.1,9.7,2,12
			c2.8-1.8,4.6-5,7.1-7.2c2.4,2.5,2.5,7,5,9.3c1.6-1.6,2.3-4.1,3.8-5.7c1.6-1.6,0.7-1.5,2.8-1c3.8,0.9,8.1,4.8,11.5,6.9
			c2.5,1.5,4.9,3.5,7.4,4.8c1.6-3.6,0.1-8.9-0.3-12.6c5.3,0,11.5,1.9,16.4,3.9c-1.4-1.8-3.6-3-5-4.9c6.6-0.5,13.4,3.6,19.9,4.1
			c0.1-3-6.3-6-8-8c4.5-0.8,9.4-1.3,14.1-1.5c5.1-0.2,10.6,1.3,15.5,0.8C145.9,44.2,134.9,38.1,132.8,36L132.8,36z"/>
		<path class="st4" d="M43.6,31.3c-1.8,0.8-0.9,3.2,0.2,4.2c1.2,1,2.6,1.5,4.1,1.8c3.4,0.7,6.8,0.5,10-0.7c0.8,5.4,7.1,7.2,11.6,8.1
			c5.6,1.1,11.4,0.8,16.9-0.4c3.3-0.8,6.3-2,8.5-4.5c3,1.7,12.6,1.6,13.4-2.7c1.3-6.8-12.7-3.3-15.5-2.7c-11.3,2.6-22-1-32.6-4.8
			c-3.5-1.3-7.3-2.5-11-2.1c-2.6,0.2-3.9,1.7-5.4,3.8c0.3-0.3,0.2-0.5,0.4-0.9L43.6,31.3L43.6,31.3z"/>
		<path class="st5" d="M43.9,0.7c-4.6,2.3-6.6,11.3-5,20.9c1.3,8,8.4,16.9,18.4,13.2c7.6-2.8,10-9.9,6.6-18.3
			C60.2,7.4,50.9-2.8,43.9,0.7z"/>
		<path class="st6" d="M94.9,35.1c0.7-5.2-5.3-12-13.9-16c-7.1-3.4-18.3-2.3-20.9,8.4c-2,8.1,2.3,14.1,11,16
			C80.4,45.4,93.8,43.1,94.9,35.1L94.9,35.1z"/>
		<path class="st4" d="M42.3,45.7c1-1.1,2.1-2,3.4-2.7c0.6-0.3,0.1-1.2-0.5-0.9c-1.4,0.7-2.6,1.7-3.6,2.9
			C41.2,45.5,41.9,46.2,42.3,45.7L42.3,45.7z"/>
		<path class="st4" d="M51.5,42.8c0.6-1,1.5-1.9,2.4-2.7c0.5-0.4-0.2-1.2-0.7-0.7c-1,0.9-1.8,1.8-2.5,2.9
			C50.2,42.9,51.1,43.4,51.5,42.8L51.5,42.8z"/>
		<path class="st4" d="M48,41.1c0.5-0.6,1.2-1,1.8-1.5c0.2-0.2,0.2-0.6,0-0.7c-0.2-0.2-0.5-0.2-0.7,0c-0.6,0.5-1.2,1-1.8,1.5
			C46.8,40.9,47.6,41.6,48,41.1z"/>
		<path class="st4" d="M20.6,40.6c0.8-0.8,1.6-1.6,2.6-2.2c0.6-0.3,0.1-1.2-0.5-0.9c-1.1,0.6-2,1.4-2.8,2.3
			C19.4,40.3,20.1,41,20.6,40.6L20.6,40.6z"/>
		<path class="st4" d="M27.7,38.6c1-0.6,1.8-1.4,2.7-2.1c0.5-0.4,0-1.3-0.5-0.9c-0.9,0.7-1.7,1.5-2.7,2.1
			C26.6,38,27.1,38.9,27.7,38.6z"/>
		<path class="st4" d="M35.6,36.9c0.8-0.6,1.7-1,2.5-1.6c0.5-0.4,0-1.3-0.5-0.9c-0.9,0.6-1.8,1.1-2.7,1.8
			C34.4,36.6,35.1,37.4,35.6,36.9L35.6,36.9z"/>
		<path class="st4" d="M26.2,34.3c0.9-0.4,1.9-0.7,2.8-1c0.6-0.2,0.4-1.2-0.3-1c-1,0.3-1.9,0.6-2.8,1C25.3,33.5,25.6,34.5,26.2,34.3
			z"/>
		<path class="st4" d="M33.3,30.9c0.7,0,0.7-1,0-1C32.7,29.9,32.7,30.9,33.3,30.9z"/>
		<path class="st4" d="M33.9,30.9c1.2-0.1,2.4-0.3,3.6-0.4c0.6-0.1,0.6-1.1,0-1c-1.2,0.1-2.4,0.3-3.6,0.4C33.2,30,33.2,31,33.9,30.9
			z"/>
		<path class="st4" d="M30.9,24.9c1.1-0.4,2.2-0.3,3.4-0.3c0.7,0,0.7-1,0-1c-1.2,0-2.5-0.1-3.6,0.3C30,24.1,30.3,25.1,30.9,24.9z"/>
		<path class="st4" d="M23.6,22.1c1.2-0.2,2.4-0.5,3.6-0.7c0.6-0.1,0.6-1.1,0-1c-1.2,0.2-2.4,0.5-3.6,0.7C23,21.2,23,22.2,23.6,22.1
			z"/>
		<path class="st4" d="M33.6,21.9h1.6c0.7,0,0.7-1,0-1h-1.6C33,20.8,33,21.9,33.6,21.9z"/>
		<path class="st4" d="M59.5,52.2c0-1.5,0.7-2.9,1.1-4.3c0.2-0.7-0.8-0.9-1-0.3c-0.4,1.5-1.1,3-1.1,4.6
			C58.5,52.9,59.5,52.9,59.5,52.2L59.5,52.2z"/>
		<path class="st4" d="M59,45.4c0.4-0.7,0.7-1.5,1.1-2.2c0.3-0.6-0.5-1.1-0.9-0.5c-0.4,0.7-0.7,1.5-1.1,2.2
			C57.9,45.4,58.7,46,59,45.4z"/>
		<path class="st4" d="M68.1,48.3c0,1.7,0,3.4-0.1,5c0,0.7,1,0.7,1,0c0.1-1.7,0.1-3.4,0.1-5C69.1,47.6,68.1,47.6,68.1,48.3z"/>
		<path class="st4" d="M75.8,49.5c0.9,0.8,1.8,1.7,2.6,2.7c0.4,0.5,1.1-0.2,0.7-0.7c-0.8-1-1.6-1.8-2.6-2.7
			C76,48.3,75.3,49.1,75.8,49.5z"/>
		<path class="st4" d="M83,46.7c0.7,0,0.7-1,0-1C82.4,45.7,82.4,46.7,83,46.7z"/>
		<path class="st4" d="M83.1,46.9c0.9,0.7,1.8,1.5,2.7,2.2c0.5,0.4,1-0.5,0.5-0.9c-0.9-0.7-1.8-1.5-2.7-2.2
			C83,45.6,82.5,46.5,83.1,46.9z"/>
		<path class="st4" d="M87.5,56.5c0.9,1.1,1.9,2.1,2.6,3.2c0.4,0.6,1.2,0,0.9-0.5c-0.8-1.2-1.8-2.3-2.8-3.5
			C87.8,55.3,87.1,56,87.5,56.5L87.5,56.5z"/>
		<path class="st4" d="M90.3,44.6c0.8,0.4,1.6,0.8,2.4,1.3c0.6,0.3,1.1-0.6,0.5-0.9c-0.8-0.4-1.6-0.8-2.4-1.3
			C90.3,43.4,89.8,44.3,90.3,44.6z"/>
		<path class="st4" d="M97.8,50.5c0.6,0.5,1.2,1.1,1.9,1.7c0.5,0.4,1.2-0.3,0.7-0.7c-0.6-0.5-1.2-1.1-1.9-1.7
			C98,49.3,97.3,50.1,97.8,50.5z"/>
		<path class="st4" d="M101.9,45.9c0.7,0,0.7-1,0-1C101.3,44.8,101.3,45.9,101.9,45.9z"/>
		<path class="st4" d="M101.7,45.8c1,0.7,2.1,1.2,3.2,1.6c0.6,0.2,0.9-0.8,0.3-1c-1-0.4-2.1-0.8-3-1.5
			C101.7,44.5,101.2,45.4,101.7,45.8L101.7,45.8z"/>
		<path class="st4" d="M97,45.3c0.5,0.4,1,0.9,1.6,1.3c0.6,0.4,1.1-0.6,0.5-0.9c-0.6-0.4-1.1-0.8-1.6-1.3c-0.2-0.2-0.6,0-0.7,0.2
			C96.6,44.8,96.7,45.1,97,45.3z"/>
		<path class="st4" d="M97.4,42c0.7,0.3,1.5,0.4,2.3,0.6c0.6,0.1,0.9-0.9,0.3-1c-0.8-0.1-1.6-0.3-2.3-0.6C97,40.7,96.7,41.7,97.4,42
			z"/>
		<path class="st4" d="M106.1,43.8c0.7,0,0.7-1,0-1C105.5,42.8,105.5,43.8,106.1,43.8z"/>
		<path class="st4" d="M105.9,43.7c1.4,1,2.8,1.7,4.3,2.4c0.6,0.3,1.1-0.6,0.5-0.9c-1.5-0.7-3-1.4-4.3-2.4
			C105.8,42.4,105.3,43.3,105.9,43.7z"/>
		<path class="st4" d="M114.8,50.8c0.8,0.6,1.5,1.2,2.4,1.6c0.6,0.3,1.1-0.6,0.5-0.9c-0.8-0.4-1.5-0.9-2.2-1.5
			C115,49.6,114.3,50.4,114.8,50.8L114.8,50.8z"/>
		<path class="st4" d="M109.9,40c1.3,0.7,2.7,1.1,4,1.6c0.6,0.2,0.9-0.8,0.3-1c-1.3-0.5-2.6-0.8-3.8-1.5
			C109.9,38.7,109.3,39.6,109.9,40L109.9,40z"/>
		<path class="st4" d="M119.5,44.3c1.3,0.3,2.7,0.6,4,0.7c0.6,0.1,0.6-1,0-1c-1.3-0.1-2.5-0.4-3.8-0.7
			C119.1,43.2,118.9,44.2,119.5,44.3L119.5,44.3z"/>
		<path class="st4" d="M114.2,31.8c1.3,0,2.6-0.3,3.9-0.6c0.6-0.1,0.4-1.2-0.3-1c-1.2,0.3-2.4,0.5-3.6,0.5
			C113.6,30.7,113.6,31.8,114.2,31.8L114.2,31.8z"/>
		<path class="st4" d="M124,32.1c0.7,0,0.7-1,0-1C123.3,31,123.3,32.1,124,32.1z"/>
		<path class="st4" d="M124.5,32.1c0.7,0,1.4-0.1,2.2-0.1c0.7,0,0.7-1.1,0-1c-0.7,0-1.4,0.1-2.2,0.1C123.8,31,123.8,32.1,124.5,32.1
			z"/>
		<path class="st4" d="M133.8,24.8c0.7,0,0.7-1,0-1C133.2,23.7,133.2,24.8,133.8,24.8z"/>
		<path class="st4" d="M133.8,24.8c1.6,0.3,3.2,0.4,4.9,0.7c0.6,0.1,0.9-0.9,0.3-1c-1.6-0.3-3.2-0.4-4.9-0.7
			C133.4,23.7,133.2,24.7,133.8,24.8z"/>
		<path class="st4" d="M144.9,27.2c0.4,0.3,0.9,0.5,1.4,0.8c0.5,0.4,1.1-0.5,0.5-0.9c-0.4-0.3-0.9-0.5-1.4-0.8
			C144.9,26,144.4,26.9,144.9,27.2z"/>
		<path class="st4" d="M108.6,18.6c0.6-0.1,1.2-0.3,1.8-0.3c0.7,0,0.7-1.1,0-1c-0.7,0-1.4,0.1-2,0.3
			C107.7,17.8,107.9,18.8,108.6,18.6z"/>
		<path class="st4" d="M116.7,20c0.5,0,1,0.1,1.5,0.1c0.7,0,0.7-1,0-1c-0.5,0-1-0.1-1.5-0.1C116,19,116,20,116.7,20z"/>
		<path class="st4" d="M100.6,17.4c1.3-0.2,2.6-0.5,3.9-0.7c0.6-0.1,0.6-1.1,0-1c-1.3,0.2-2.6,0.5-3.9,0.7
			C100,16.4,99.9,17.5,100.6,17.4z"/>
		<path class="st7" d="M44.8,2.1c-1.5,0.1-2.4,1.2-3.2,2.4C41.2,5,40.7,6,40.6,6.9c0,0,0,0.1,0,0.1c-0.2,1-0.4,2,0.3,2.9
			c0.5,0.6,1.4,1.1,2.1,0.7c0.8-0.5,0.7-1.8,0.9-2.6c0.3-1.1,0.7-2.1,1.4-2.9C46.4,3.7,47.6,1.9,44.8,2.1z"/>
	</g>
</g>
</svg>
