<?xml version="1.0" encoding="UTF-8"?>
<svg id="OBJECTS" xmlns="http://www.w3.org/2000/svg" viewBox="0 0 230 70">
  <defs>
    <style>
      .cls-1 {
        fill: #4b4331;
        font-family: HanyiSentyRubber, HanyiSentyRubber;
        font-size: 20.83px;
      }

      .cls-2 {
        fill: #ffc93d;
        stroke-width: 0px;
      }
    </style>
  </defs>
  <g>
    <path class="cls-2" d="m196.58,3.34c13.04,1.49,34.75,2.95,32.97,22.76-.09.97-.21,1.89-.36,2.78l-1.4-.22c.73-3.78-.05-7.75-3.04-11.39-5.1-6.21-12.96-7.74-20.3-9.07-11.5-2.07-23.48-1.99-35.2-2.36-13.88-.43-27.71-.69-41.64-.73-25.15-.1-49.69,1.37-75.09,1.81-12.61.22-25.76-.6-38.41,3.66-5.02,1.7-9,4.63-11,8.91l-.55-.24c1.84-3.85,4.87-6.9,9.05-8.98,8.75-4.35,17.69-6.06,27.22-6.52,26.32-1.26,52.67-2.48,79.05-2.68,12.72-.09,25.53.22,38.27.53,13.21.32,27.38.26,40.42,1.74Z"/>
    <path class="cls-2" d="m227.79,28.66l1.4.22c-3.51,21.1-24.02,21.16-40.23,22.78-10.41,1.03-21.73.81-32.35,1.56-16.23,1.15-32.37,2.24-48.79,2.83-14.48.51-29.21,1.06-43.89.86-6.5-.09-13.49-.11-20.11-.26.14-.24.28-.5.41-.76-.52.38-1.04.52-1.6.73.39.01.78.02,1.18.02-1.87,3.39-3.73,6.34-5.22,10.09l-.51-.2c-.49-.92-1-1.82-1.52-2.71,1.48-3.16,3.36-6,4.94-9.33.14-.31.78-.85,1.45-.86,5.57-.02,11.38-.03,17.04-.14,11.32-.22,22.93-.23,34.19-.43,24.68-.45,49.05-1.98,73.68-3.05,9.7-.42,19.44-.33,29.15-1.8,8.75-1.32,17.83-2.55,24.82-9.28,3.01-2.89,5.22-6.49,5.96-10.27Z"/>
    <path class="cls-2" d="m29.4,53.92h-.14c-5.68-.2-17.47-2.14-21.4-8.22-3.47-5.35-5.14-9.65-6.02-17.14-.4-3.5.08-6.52,1.26-9.06,2-4.28,5.98-7.21,11-8.91,12.65-4.26,25.81-3.44,38.41-3.66,25.41-.45,49.94-1.91,75.09-1.81,13.93.04,27.76.3,41.64.73,11.72.37,23.7.29,35.2,2.36,7.34,1.32,15.2,2.86,20.3,9.07,3,3.64,3.78,7.61,3.04,11.39s-2.95,7.38-5.96,10.27c-6.99,6.73-16.07,7.95-24.82,9.28-9.71,1.47-19.45,1.38-29.15,1.8-24.62,1.07-49,2.6-73.68,3.05-11.26.2-22.87.21-34.19.43-5.66.11-11.47.12-17.04.14-.67.01-1.31.55-1.45.86-1.57,3.34-3.46,6.17-4.94,9.33-1.8-3.07-3.72-6-5.21-9.4-.17-.4-1-.55-1.66-.46-.1-.03-.21-.06-.3-.06Z"/>
    <path class="cls-2" d="m44.24,55.9c-.14.26-.28.51-.41.76-.4,0-.79-.01-1.18-.02.55-.21,1.08-.36,1.6-.73Z"/>
    <path class="cls-2" d="m38.09,66.54l.51.2c-.13.33-.26.67-.39,1.01-.24.65-2.18.87-2.58.16-.15-.28-.31-.56-.48-.83l.16-.09c.94-.45,1.78-.56,2.79-.45Z"/>
    <path class="cls-2" d="m38.09,66.54c-1.01-.11-1.85,0-2.79.45.37-1.1.79-2.15,1.27-3.16.52.89,1.02,1.79,1.52,2.71Z"/>
    <path class="cls-2" d="m36.58,63.83c-.48,1.01-.91,2.06-1.27,3.16l-.16.09c-2.11-3.7-4.52-6.9-5.92-11.06.52-.14,1.01-.32,1.5-.52.87-.36-.21-1.3-1.02-1.52.67-.09,1.49.06,1.66.46,1.49,3.4,3.41,6.33,5.21,9.4Z"/>
    <path class="cls-2" d="m29.7,53.97c.82.22,1.89,1.17,1.02,1.52-.49.2-.99.38-1.5.52-.15-.45-.29-.91-.41-1.38-.1-.38.34-.6.9-.67Z"/>
    <path class="cls-2" d="m29.27,53.92h.14c.09,0,.2.02.3.06-.55.07-1,.29-.9.67.13.47.26.93.41,1.38-6.16,1.88-13.62.61-18.75-1.9-5.56-2.73-7.97-5.43-9.28-11.19-1.44-6.33-1.53-10.21-.55-17.18.32-2.36.96-4.53,1.92-6.5l.55.24c-1.18,2.54-1.66,5.55-1.26,9.06.87,7.5,2.55,11.79,6.02,17.14,3.93,6.09,15.72,8.02,21.4,8.22Z"/>
  </g>
  <text class="cls-1" transform="translate(19.63 34.71)"><tspan x="0" y="0">各種雞蛋一次滿足!!</tspan></text>
</svg>