<?xml version="1.0" encoding="utf-8"?>
<!-- Generator: Adobe Illustrator 28.0.0, SVG Export Plug-In . SVG Version: 6.00 Build 0)  -->
<svg version="1.1" id="OBJECTS" xmlns="http://www.w3.org/2000/svg" xmlns:xlink="http://www.w3.org/1999/xlink" x="0px" y="0px"
	 viewBox="0 0 230 70" style="enable-background:new 0 0 230 70;" xml:space="preserve">
<style type="text/css">
	.st0{fill:#FFC93D;}
	.st1{enable-background:new    ;}
	.st2{fill:#4B4331;}
</style>
<g>
	<path class="st0" d="M196.6,3.3c13,1.5,34.8,3,33,22.8c-0.1,1-0.2,1.9-0.4,2.8l-1.4-0.2c0.7-3.8-0.1-7.8-3-11.4
		c-5.1-6.2-13-7.7-20.3-9.1c-11.5-2.1-23.5-2-35.2-2.4c-13.9-0.4-27.7-0.7-41.6-0.7C102.5,5,77.9,6.5,52.5,6.9
		c-12.6,0.2-25.8-0.6-38.4,3.7c-5,1.7-9,4.6-11,8.9l-0.5-0.2c1.8-3.9,4.9-6.9,9.1-9c8.8-4.3,17.7-6.1,27.2-6.5
		c26.3-1.3,52.7-2.5,79.1-2.7c12.7-0.1,25.5,0.2,38.3,0.5C169.4,1.9,183.5,1.9,196.6,3.3L196.6,3.3z"/>
	<path class="st0" d="M227.8,28.7l1.4,0.2C225.7,50,205.2,50,189,51.7c-10.4,1-21.7,0.8-32.4,1.6c-16.2,1.2-32.4,2.2-48.8,2.8
		c-14.5,0.5-29.2,1.1-43.9,0.9c-6.5-0.1-13.5-0.1-20.1-0.3c0.1-0.2,0.3-0.5,0.4-0.8c-0.5,0.4-1,0.5-1.6,0.7c0.4,0,0.8,0,1.2,0
		c-1.9,3.4-3.7,6.3-5.2,10.1l-0.5-0.2c-0.5-0.9-1-1.8-1.5-2.7c1.5-3.2,3.4-6,4.9-9.3c0.1-0.3,0.8-0.8,1.5-0.9c5.6,0,11.4,0,17-0.1
		c11.3-0.2,22.9-0.2,34.2-0.4c24.7-0.5,49-2,73.7-3c9.7-0.4,19.4-0.3,29.1-1.8c8.8-1.3,17.8-2.5,24.8-9.3
		C224.8,36,227,32.4,227.8,28.7L227.8,28.7z"/>
	<path class="st0" d="M29.4,53.9h-0.1c-5.7-0.2-17.5-2.1-21.4-8.2c-3.5-5.3-5.1-9.7-6-17.1c-0.4-3.5,0.1-6.5,1.3-9.1
		c2-4.3,6-7.2,11-8.9c12.6-4.3,25.8-3.4,38.4-3.7c25.4-0.4,49.9-1.9,75.1-1.8c13.9,0,27.8,0.3,41.6,0.7c11.7,0.4,23.7,0.3,35.2,2.4
		c7.3,1.3,15.2,2.9,20.3,9.1c3,3.6,3.8,7.6,3,11.4s-2.9,7.4-6,10.3c-7,6.7-16.1,8-24.8,9.3c-9.7,1.5-19.4,1.4-29.1,1.8
		c-24.6,1.1-49,2.6-73.7,3c-11.3,0.2-22.9,0.2-34.2,0.4c-5.7,0.1-11.5,0.1-17,0.1c-0.7,0-1.3,0.5-1.5,0.9c-1.6,3.3-3.5,6.2-4.9,9.3
		c-1.8-3.1-3.7-6-5.2-9.4c-0.2-0.4-1-0.5-1.7-0.5C29.6,53.9,29.5,53.9,29.4,53.9L29.4,53.9z"/>
	<path class="st0" d="M44.2,55.9c-0.1,0.3-0.3,0.5-0.4,0.8c-0.4,0-0.8,0-1.2,0C43.2,56.4,43.7,56.3,44.2,55.9L44.2,55.9z"/>
	<path class="st0" d="M38.1,66.5l0.5,0.2c-0.1,0.3-0.3,0.7-0.4,1c-0.2,0.7-2.2,0.9-2.6,0.2c-0.2-0.3-0.3-0.6-0.5-0.8l0.2-0.1
		C36.2,66.5,37.1,66.4,38.1,66.5L38.1,66.5z"/>
	<path class="st0" d="M38.1,66.5c-1-0.1-1.8,0-2.8,0.4c0.4-1.1,0.8-2.2,1.3-3.2C37.1,64.7,37.6,65.6,38.1,66.5z"/>
	<path class="st0" d="M36.6,63.8c-0.5,1-0.9,2.1-1.3,3.2l-0.2,0.1c-2.1-3.7-4.5-6.9-5.9-11.1c0.5-0.1,1-0.3,1.5-0.5
		c0.9-0.4-0.2-1.3-1-1.5c0.7-0.1,1.5,0.1,1.7,0.5C32.9,57.8,34.8,60.8,36.6,63.8L36.6,63.8z"/>
	<path class="st0" d="M29.7,54c0.8,0.2,1.9,1.2,1,1.5c-0.5,0.2-1,0.4-1.5,0.5c-0.1-0.5-0.3-0.9-0.4-1.4C28.7,54.2,29.2,54,29.7,54
		L29.7,54z"/>
	<path class="st0" d="M29.3,53.9h0.1c0.1,0,0.2,0,0.3,0.1c-0.5,0.1-1,0.3-0.9,0.7c0.1,0.5,0.3,0.9,0.4,1.4
		c-6.2,1.9-13.6,0.6-18.8-1.9c-5.6-2.7-8-5.4-9.3-11.2c-1.4-6.3-1.5-10.2-0.6-17.2c0.3-2.4,1-4.5,1.9-6.5l0.5,0.2
		C1.9,22,1.4,25,1.8,28.6c0.9,7.5,2.6,11.8,6,17.1C11.8,51.8,23.6,53.7,29.3,53.9z"/>
</g>
<g class="st1">
	<path class="st2" d="M33.3,22.5c0.2,0,0.4,0.3,0.4,0.8v0c-0.1,1-0.9,2.5-2.5,4.6C31.1,28,31,28.1,31,28.3c2.1,0.8,3.9,1.2,5.6,1.2
		h0.5c0,0,0,0,0,0c0.8,0.1,1.1,0.2,1.1,0.5v0.1c0,0.7-0.6,1.1-1.9,1.2c-0.3,0-0.6,0-1,0c-1.3-0.3-2.4-0.6-3.3-0.9
		c-0.3-0.1-0.8-0.3-1.5-0.7c-0.5-0.2-0.7-0.4-0.8-0.4c-1.9,1.3-3.2,1.9-3.9,1.9c-0.1,0-0.5,0-1,0h-0.7c-0.6-0.1-1-0.3-1-0.6
		c0-0.2,0.5-0.5,1.5-0.7c1.2-0.6,2-1.1,2.4-1.3c0.3-0.2,0.6-0.4,0.9-0.6v0c0-0.1-0.6-0.6-1.8-1.7L26,25.9h0.1c0.9,0.5,1.9,1,3,1.5
		c1.3-1.1,2-2,2.2-2.6h0c-0.8,0.1-1.3,0.1-1.4,0.1c-0.9,0-1.4-0.2-1.4-0.5c0-0.3,0.5-0.5,1.6-0.7C31.8,22.9,32.9,22.5,33.3,22.5z
		 M26.7,21.7c0.3,0,0.6,0.3,0.8,0.9l0,0.1c0,0.8-0.4,1.7-1.2,2.7c-0.6,0.6-1,0.9-1.3,1l-0.2,0h-0.4c-0.5,0-0.7-0.2-0.7-0.5
		c0-0.4,0.2-0.8,0.7-1.4c0.4-0.1,1-0.9,1.7-2.5C26.4,21.8,26.7,21.7,26.7,21.7z M24.3,25.5v0.2h0.1c0,0,0.1,0,0.1-0.1
		c0,0,0-0.1-0.1-0.1H24.3z M26,31.8c0.7,0.1,1,0.3,1,0.5l0.2,0.3l0.6-0.2c0,0,0.1,0,0.1,0c0.2,0,0.5,0,0.9,0c1-0.1,1.8-0.1,2.3-0.2
		c0.3-0.1,0.8-0.2,1.6-0.3l0.5-0.2l0.2,0c0.3-0.1,0.5-0.1,0.7-0.1h0c0.4,0,0.6,0.2,0.8,0.5c0.1,0.3,0.1,0.6,0.1,1v0.5
		c-0.2,1.9-0.6,2.9-1.1,2.9c0,0.1-0.3,0.2-0.9,0.3h-0.4c-0.7,0.3-1.4,0.4-2.1,0.4c0,0-0.2,0.1-0.5,0.1c-0.2-0.1-0.4-0.1-0.5-0.1
		h-0.3c0,0-0.2,0-0.5,0.1c-0.9,0-1.5-0.2-2.1-0.6c0,0-0.1,0-0.3,0c-0.3,0-0.5-0.3-0.7-1c0-0.2-0.1-0.4-0.2-0.7c0,0,0-0.1,0-0.2
		c0-0.1,0-0.6-0.1-1.5c0-1.1,0.1-1.6,0.4-1.6C25.8,31.9,25.9,31.8,26,31.8z M25.4,25.4L25.4,25.4L25.4,25.4L25.4,25.4L25.4,25.4z
		 M26.3,36.4L26.3,36.4L26.3,36.4L26.3,36.4L26.3,36.4z M26.5,24L26.5,24c0,0.1,0,0.1,0.1,0.1c0.1,0,0.1,0,0.1-0.1
		C26.6,24.1,26.6,24,26.5,24L26.5,24z M29.6,34.1c-0.8,0-1.5-0.1-2.1-0.4c0,0-0.1,0-0.1,0V34l0.2,1.5c0,0,0,0,0,0c0,0,0,0.2-0.1,0.4
		c0.6,0.1,1,0.2,1.4,0.2h0.2c0.2,0,0.3,0,0.5,0l0.2,0c1.1-0.1,2.1-0.3,2.8-0.4h0.1c0.2-0.6,0.3-1.2,0.3-1.7v-0.3h0
		C31.7,33.9,30.6,34,29.6,34.1z M27.6,36.6L27.6,36.6l0.1,0v0H27.6z M28.8,33.2v0.1h0L28.8,33.2L28.8,33.2z M31.4,29.5L31.4,29.5
		h0.3h0.2v0c0,0,0-0.1-0.1-0.1h-0.1c0,0,0,0,0,0c0,0-0.1,0-0.1,0C31.4,29.4,31.4,29.4,31.4,29.5z M32.3,32.6H32v0.1
		c0.2,0,0.4,0.1,0.4,0.1h0v0l0-0.1c0,0,0.1,0,0.1-0.1c0,0-0.1,0-0.1-0.1L32.3,32.6z M32.6,33C32.6,33.1,32.6,33.1,32.6,33L32.6,33
		L32.6,33z M32.9,32.6L32.9,32.6l0.1,0.1C33,32.7,33,32.6,32.9,32.6L32.9,32.6z M33.5,33.9L33.5,33.9c0.1,0,0.1,0,0.1,0L33.5,33.9
		C33.5,33.8,33.5,33.8,33.5,33.9z M33.5,33.6L33.5,33.6c0,0.1,0,0.1,0.1,0.2h0.1c0,0,0.1,0,0.1-0.1v0L33.5,33.6z M33.6,34.2
		L33.6,34.2l0.1,0.1v-0.1H33.6z M33.9,33.7L33.9,33.7c0,0.1,0.1,0.1,0.2,0.2h0.1c0,0,0,0,0,0c0.1,0,0.2,0.1,0.4,0.1l0-0.1
		c0-0.1,0-0.1-0.1-0.1l-0.1,0c0,0-0.1,0-0.2,0v-0.1l0-0.1h0C34,33.7,33.9,33.7,33.9,33.7z M33.9,34.2L33.9,34.2
		c0.2,0.1,0.3,0.1,0.3,0.1s0.1,0,0.2,0c0,0,0.1,0,0.1,0v-0.1c-0.1,0-0.1-0.1-0.1-0.2h-0.2C34.2,34.2,34,34.2,33.9,34.2z M34.1,33
		c0,0,0,0.1,0.1,0.1h0.1v0c0,0,0-0.1-0.1-0.1H34.1z"/>
	<path class="st2" d="M44.9,29.8c0.1,0,0.2,0.1,0.3,0.4v0.3c0,0.1,0,0.3,0,0.5c-0.3,1.1-0.5,1.7-0.7,1.7c-0.2,0.2-0.3,0.3-0.4,0.3
		c-0.6,0-0.8-0.2-0.8-0.4c0,0-0.1-0.2-0.1-0.4c0-0.3,0.1-0.6,0.4-0.9c0.3-0.5,0.6-1,0.8-1.4C44.7,29.9,44.8,29.8,44.9,29.8z
		 M47.4,23.7c0.4,0,0.6,0.4,0.7,1.1c0,0.5,0.1,0.9,0.1,1c0,0,0.1,0,0.1,0c0.6-0.2,1-0.3,1.1-0.3c0,0,0.1,0.1,0.3,0.2v0.1
		c0,0.5-0.2,0.8-0.6,1.2l-0.8,0.4v0.1c0,0.1,0,0.1,0,0.1c0,0.1,0,0.2,0,0.2c-0.1,1.7-0.1,2.7-0.1,3.2V34c0,2.5-0.2,3.8-0.3,3.8
		c-0.2,0.4-0.5,0.6-1,0.6c-0.5,0-0.8-0.3-0.9-1c0.1-0.6,0.1-1,0.1-1.2v-0.5c0-0.1,0-0.1,0-0.1c0-0.1,0.1-0.3,0.1-0.6v-0.5
		c0-0.4,0-0.8,0-1.2c0.1,0,0.1-1.8,0.2-5.3h-0.1c-0.2,0-0.5,0.1-0.9,0.2C45,28,44.7,28,44.5,28c0,0-0.1,0-0.3,0
		c-0.4,0-0.7-0.3-0.8-1c0-0.3,0.3-0.4,0.9-0.4v0c0.1,0,0.3,0.1,0.5,0.1c1.1-0.1,1.6-0.2,1.6-0.4c0.1-1.7,0.3-2.5,0.6-2.5
		C46.9,23.7,47.1,23.7,47.4,23.7z M44.1,31.9L44.1,31.9c0,0.1,0,0.1,0.1,0.1c0,0,0.1,0,0.1,0v0c0,0,0-0.1-0.1-0.1H44.1z M49.8,21.2
		c0.3,0,0.4,0.2,0.4,0.4c0,0.6-0.4,1-1.3,1.4c-0.1,0-0.6,0.1-1.5,0.3c-0.2-0.1-0.4-0.1-0.5-0.1h-0.1c-0.2,0-0.4,0.1-0.4,0.1
		c-0.5,0-1-0.3-1.6-0.7c-0.1-0.1-0.1-0.2-0.1-0.3c0-0.2,0.1-0.4,0.3-0.4l0.9,0.1h0C47,21.9,48.3,21.7,49.8,21.2L49.8,21.2z
		 M46.3,37.5C46.3,37.6,46.4,37.6,46.3,37.5h0.1H46.3z M46.4,37.3L46.4,37.3l0,0.1c0,0,0,0.1,0.1,0.1h0.1c0,0,0.1,0,0.1-0.1v0
		C46.6,37.3,46.5,37.3,46.4,37.3z M46.7,37.5L46.7,37.5c0,0.1,0,0.1,0.1,0.2h0.5l0.1,0v-0.1c0,0,0-0.1-0.1-0.1h-0.1c0,0,0,0,0,0
		L47,37.5l0-0.1v0H47C46.9,37.4,46.8,37.5,46.7,37.5z M47,37.8c0,0.1-0.1,0.2-0.3,0.2v0c0,0,0.1,0,0.3,0c0.1,0,0.2,0,0.3,0
		c-0.1-0.1-0.1-0.1-0.1-0.2H47z M46.9,36.7c0,0,0,0.1,0.1,0.1h0.1v0c0-0.1,0-0.1-0.1-0.1H46.9z M47.3,29.2L47.3,29.2l0,0.2h0.1
		c0,0,0.1,0,0.1-0.1C47.4,29.2,47.4,29.2,47.3,29.2z M47.4,31.1v0.1c0,0,0,0.1,0.1,0.1h0.1l0-0.1l-0.1-0.1
		C47.5,31.1,47.5,31.1,47.4,31.1z M49.4,29.1c1.2,0.3,1.8,0.5,1.8,0.8c0.1,0,0.1,0.1,0.2,0.4c0,0.2-0.2,0.5-0.6,0.8
		c-0.1,0-0.2-0.1-0.4-0.1c-0.1,0.1-0.2,0.1-0.3,0.1c-0.5-0.3-0.7-0.5-0.7-0.8c-0.2-0.5-0.4-0.9-0.4-1.1
		C49.1,29.1,49.2,29.1,49.4,29.1z M49.7,29.9L49.7,29.9c0,0.1,0,0.1,0.1,0.1l0-0.1v0H49.7z M49.8,29.7L49.8,29.7
		c0,0.1,0.1,0.1,0.3,0.2V30l-0.1,0v0.1h0.2l0.4,0c0,0,0-0.1,0-0.1c-0.3,0-0.4-0.1-0.4-0.3v0h-0.1L49.8,29.7z M50.6,30.6
		C50.6,30.6,50.7,30.6,50.6,30.6c0.2,0,0.2,0,0.3,0v-0.1c0,0,0-0.1-0.1-0.1h0C50.7,30.4,50.6,30.5,50.6,30.6z M56.7,22.6
		c0.4,0,0.7,0.4,0.9,1.1c0,0.3,0,0.5,0,0.7h0c0.2,0,0.4,0,0.5,0c1.1-0.1,1.9-0.3,2.6-0.5c0.3,0,0.9-0.2,1.8-0.7c0.1,0,0.2,0,0.2,0.1
		c0.1,0,0.1-0.1,0.2-0.1c0.2,0,0.3,0.1,0.3,0.3c0,0.5-0.3,0.9-0.8,1.1c-1.1,0.2-2.4,0.5-3.7,0.6h-1.1c0,0.7,0.1,1,0.1,1l0,0.2v0.3
		c0,0,0,0,0,0c0,0,0,0.1,0,0.1c1.4-0.1,2.6-0.2,3.4-0.4c0.3,0,0.4-0.1,0.5-0.1c0.4,0.1,0.6,0.4,0.6,0.9v0c0,0.4-0.2,1.5-0.7,3.4
		c-0.4,0.5-0.7,0.8-1.1,0.8c-0.2,0-0.3-0.1-0.4-0.1c-0.2,0.3-0.5,0.5-0.7,0.5c-0.8,0.3-1.4,0.4-1.9,0.4v0c0,0.2,0,0.4,0,0.5V34
		c0.6,0,1.5-0.2,2.7-0.6c0.3,0,0.5,0.2,0.5,0.5c-0.2,0.9-0.6,1.3-1.3,1.3c-0.9,0.2-1.5,0.3-1.9,0.3v0.1c0,0.8-0.3,1.3-1,1.4h-0.1
		c-0.4,0-0.7-0.2-0.9-0.6c0.1-0.1,0.1-0.2,0.1-0.3c-0.1,0-0.2-0.2-0.2-0.5c0,0,0,0,0,0c0,0,0-0.1,0-0.1h-0.2c-0.5,0.1-0.9,0.2-1,0.2
		c-0.8-0.1-1.3-0.2-1.5-0.4c-0.3-0.3-0.5-0.5-0.5-0.8c0.1-0.3,0.2-0.5,0.4-0.5c1.6,0.2,2.5,0.3,2.8,0.3v-0.4c0-0.8-0.1-1.2-0.2-1.3
		l-0.1,0h0c-0.6-0.1-0.9-0.3-1.1-0.4H54c-0.3,0.3-0.6,0.4-1.1,0.4c-0.4,0-0.7-0.5-0.8-1.4c0-0.2-0.1-0.4-0.1-0.6c0,0,0-0.1,0-0.3
		c-0.1-2.1-0.1-3.2-0.1-3.3c0.2-0.3,0.4-0.5,0.7-0.5c0.6,0.1,1,0.2,1.2,0.4l0.4,0c0.5,0.1,0.9,0.1,1.1,0.1h0.3c0,0,0.1,0,0.1-0.1
		c0-0.6,0-1.1,0-1.5c0,0,0-0.1-0.1-0.1h0c-0.2,0-0.3,0-0.5,0c-0.3,0.1-0.7,0.1-1,0.2c-0.4-0.1-0.7-0.1-0.8-0.1h-0.5
		c-1-0.2-1.5-0.6-1.5-1.1V24c0.1-0.2,0.2-0.3,0.4-0.3c2.4,0.4,3.8,0.6,4.2,0.6v-0.2c0.1-0.9,0.3-1.4,0.4-1.4
		C56.1,22.7,56.3,22.6,56.7,22.6z M61.6,36.5c0.1,0,0.2,0.1,0.2,0.4c0,0.5-0.4,1-1.1,1.4c-0.5,0.1-1.5,0.2-3,0.3
		c-0.4-0.1-0.8-0.1-1.1-0.1h-0.1c-0.6,0.1-0.9,0.1-1.1,0.1c-2.1-0.2-3.1-0.3-3.1-0.6c-0.5-0.3-0.7-0.7-0.7-1.1
		c0-0.2,0.1-0.3,0.3-0.3c1.7,0.5,3,0.7,3.9,0.7c0,0,0.5,0.1,1.5,0.1c1.2-0.1,2.1-0.3,2.8-0.5C60.7,36.7,61.2,36.6,61.6,36.5z
		 M52.3,37.4L52.3,37.4l0,0.1c0,0,0,0.1,0.1,0.1h0.1c0,0,0.1,0,0.1-0.1C52.5,37.5,52.4,37.4,52.3,37.4z M52.3,29.3L52.3,29.3
		c0,0.1,0,0.1,0.1,0.1h0v-0.1C52.4,29.3,52.4,29.3,52.3,29.3L52.3,29.3z M52.4,29.5L52.4,29.5c0.2,0,0.3-0.1,0.3-0.1
		c0,0,0-0.1-0.1-0.1C52.5,29.4,52.4,29.5,52.4,29.5z M52.7,29.8L52.7,29.8L52.7,29.8L52.7,29.8L52.7,29.8z M58.8,20.5
		c0.3,0,0.5,0.2,0.5,0.5c-0.2,0.8-0.6,1.3-1.2,1.3c-0.2,0.1-1,0.2-2.1,0.3c-0.3-0.1-0.5-0.1-0.6-0.1h-0.2c-0.1,0-0.3,0.1-0.6,0.2
		c-1.3-0.2-1.9-0.6-1.9-1.2v0c0-0.2,0.2-0.4,0.5-0.4c0.5,0.1,1.1,0.1,1.8,0.2c0.3,0,0.6-0.1,1-0.1l0.2,0c0.3-0.1,0.5-0.1,0.6-0.1
		h0.3L58.8,20.5z M53.9,28l0,0.2v0.9c0,0,0,0.1,0.1,0.1h0.1l1.4,0.1v0c0-0.3,0-0.5,0-0.7v-0.2C54.8,28.3,54.3,28.1,53.9,28L53.9,28z
		 M53.9,37.7L53.9,37.7c0.1,0,0.2,0,0.2,0L53.9,37.7C53.9,37.6,53.9,37.6,53.9,37.7z M53.9,29.8c0.1,0.7,0.1,1.2,0.1,1.5v0.1h0.4
		c0,0,0,0,0,0c0.1,0,0.2,0.1,0.4,0.1h0.5l0-0.3v-1.2c-0.2,0-0.3-0.1-0.3-0.1h-0.4C54.3,29.9,54,29.8,53.9,29.8z M54.7,21.7
		L54.7,21.7c0,0.1,0,0.1,0.1,0.1c0-0.1,0.1-0.1,0.1-0.1H54.7z M54.8,38.1L54.8,38.1l0.1,0h0c0.1,0,0.2,0.1,0.3,0.2h0.1v-0.3
		c-0.1,0-0.1,0-0.2,0C54.9,38,54.8,38,54.8,38.1z M54.9,21.5v0.1H55c0.1,0,0.2,0.1,0.2,0.1v0.1H55v0.1h0.3c0,0,0.1,0,0.3,0.1v-0.2
		c-0.2,0-0.3-0.1-0.4-0.3H54.9z M56.1,31.9V32c0,0,0.1,0,0.1,0l0-0.1v-0.1H56.1z M56.5,21.4v0.1h0.1v-0.1H56.5z M56.5,38L56.5,38
		l0.1,0.1V38H56.5z M56.7,28.7v0.1h0.1L56.7,28.7L56.7,28.7z M56.8,21.5L56.8,21.5l0.3,0.1l0.3,0c0,0,0.1,0,0.1,0v-0.1
		c-0.1,0-0.1-0.1-0.1-0.2h-0.1C57,21.4,56.9,21.5,56.8,21.5z M56.8,38L56.8,38L57,38l0.3,0c0,0,0.1,0,0.1,0V38c0,0-0.1,0-0.2-0.1
		h-0.1C57,37.9,56.9,38,56.8,38z M58,30l-0.2,0c-0.3,0-0.4,0.1-0.4,0.2v1.3c0.3,0,1.1-0.2,2.5-0.5v-0.1c0-0.2,0.1-0.7,0.3-1.6v-0.1
		h-0.1C59.7,29.5,59,29.8,58,30L58,30z M57.7,28.4h-0.2l0,0.4v0.4h0.4c0.9-0.2,1.3-0.3,1.4-0.4c0.1,0,0.2,0,0.3-0.1c0,0,0.1,0,0.2,0
		c0.3,0,0.5-0.1,0.7-0.1h0.1c0.1-0.2,0.1-0.3,0.1-0.4h0C60.1,28.2,59.2,28.3,57.7,28.4z M57.7,21.5L57.7,21.5L57.7,21.5L57.7,21.5
		L57.7,21.5z M58.8,31.6L58.8,31.6l0.2,0v-0.1L58.8,31.6C58.8,31.6,58.8,31.6,58.8,31.6z M59.5,27.8L59.5,27.8l0.4,0l0-0.1
		C59.6,27.8,59.5,27.8,59.5,27.8z M60.5,30l-0.1,0.1v0l0.3,0h0c0,0,0-0.1,0-0.1C60.7,30,60.6,30,60.5,30z M60.7,30.6
		C60.7,30.6,60.7,30.6,60.7,30.6c0.2,0,0.2,0,0.3,0v-0.1c0,0,0-0.1-0.1-0.1h0C60.8,30.4,60.8,30.4,60.7,30.6z M61.2,29.3L61.2,29.3
		l0.2,0v0H61.2z M61.4,29.1L61.4,29.1l0.1,0v-0.1L61.4,29.1C61.4,29.1,61.4,29.1,61.4,29.1z"/>
	<path class="st2" d="M66.3,23.9L66.3,23.9h0.3c0.3,0,0.6,0.2,0.8,0.4c0.4,0.5,0.5,0.9,0.6,1.1c0,0.2-0.2,0.5-0.5,0.8
		c-0.1-0.1-0.2-0.1-0.4-0.1c-0.1,0.1-0.2,0.1-0.3,0.1c-0.5-0.2-0.8-0.6-0.8-1.1c0,0-0.1-0.2-0.1-0.5C66,24.1,66.2,23.9,66.3,23.9z
		 M69.3,26.5c0.4,0,0.5,0.1,0.5,0.2c0,0,0,0.1,0,0.1c-0.2,0.7-0.3,1.1-0.4,1.3v0.1c0.4,0.1,0.5,0.2,0.5,0.3v0.1
		c0.8-0.7,1.3-1.1,1.6-1.2c0.3,0,0.5,0.2,0.5,0.6c0,0.2-0.3,0.9-0.9,1.9c-0.2,0.1-0.3,0.3-0.3,0.4h0c0.4,0,1.1,0,1.9-0.1
		c0,0.5-0.4,1-1.3,1.4l-1.5,0.4c-0.5,0-0.8-0.1-0.9-0.1c0,0-0.2,0-0.5,0c-0.4,0-0.6-0.4-0.7-1.2v0c0-0.1,0.3-0.5,0.9-1.1v0l-0.2,0
		c-0.3-0.1-0.5-0.2-0.5-0.2c-0.2,0.1-0.4,0.1-0.4,0.1c-0.1,0-0.4-0.2-0.7-0.5c-0.1-0.4-0.2-0.6-0.2-0.6c0-0.4,0.7-1,2.1-1.7
		C68.9,26.6,69.1,26.5,69.3,26.5z M71.3,32.3L71.3,32.3c0.4,0,0.7,0.3,0.7,0.8l0,0.1v0.2h0c0.1,0,0.6-0.2,1.5-0.5h0.1
		c0.1,0,0.2,0.1,0.3,0.3c0,0.5-0.5,1-1.4,1.6c-0.6,0.2-1,0.5-1,0.7c-0.1,0.2-0.1,0.3-0.1,0.4h0c1.4,0.2,2.1,0.4,2.1,0.5
		c0.5,0.1,0.8,0.4,0.8,0.7c0,0.3-0.2,0.6-0.6,1h-0.5c0,0-0.2,0-0.4,0.1c-0.2,0-0.6-0.3-1.1-0.9c0-0.2-0.2-0.5-0.5-0.9h-0.1
		c0,0.2-0.4,0.7-1,1.6C70,37.9,69.8,38,69.6,38h-0.4c-0.4,0-0.6-0.3-0.7-1c0.2-0.5,0.6-1,1-1.4c0,0,0-0.1,0.1-0.4c0,0-0.1,0-0.1,0
		c-0.3,0.1-0.5,0.2-0.6,0.2c-0.9-0.2-1.4-0.4-1.4-0.6c-0.2-0.1-0.3-0.4-0.4-0.7c0.1-0.4,0.2-0.6,0.4-0.6c0.8,0.3,1.6,0.4,2.2,0.4
		h0.1c0.4,0,0.7-0.1,0.7-0.3c0-0.4,0.2-0.8,0.6-1.1C71.1,32.3,71.2,32.3,71.3,32.3z M74.5,21c0.1,0,0.3,0.1,0.3,0.4
		c0,0.8-0.9,1.4-2.7,1.8c-0.1,0-0.6,0.1-1.3,0.2c-0.5-0.1-0.8-0.1-1-0.1c-0.3,0.1-0.6,0.2-0.7,0.2c-0.4-0.1-0.8-0.3-1.1-0.3
		c-0.5-0.3-0.8-0.7-0.8-1c0-0.1,0.1-0.1,0.3-0.2c0.1,0,0.7,0,1.6,0.1h1.1c0.7,0,1.5-0.1,2.5-0.4c0.1-0.1,0.6-0.2,1.4-0.5
		C74.2,21.1,74.3,21,74.5,21z M67.2,25.3v0.1h0.1v0C67.4,25.3,67.4,25.3,67.2,25.3L67.2,25.3z M68.6,34.1L68.6,34.1L68.6,34.1
		L68.6,34.1L68.6,34.1z M69.6,23.8c0.8,0.1,1.2,0.3,1.2,0.6c0,0.3,0.1,0.4,0.1,0.4c0,0.2-0.2,0.5-0.6,0.8c-0.1-0.1-0.2-0.1-0.3-0.1
		c-0.1,0.1-0.2,0.1-0.3,0.1c-0.5-0.2-0.7-0.6-0.7-1.2C69.1,24.1,69.2,23.9,69.6,23.8z M69.2,36.6l-0.1,0.1v0.1c0,0,0.1,0.1,0.3,0.1
		l0.1-0.1L69.2,36.6z M69.2,34.4v0.1h0.1v0C69.3,34.4,69.3,34.4,69.2,34.4L69.2,34.4z M69.5,29.9V30l0.3,0h0.2v-0.1h-0.2L69.5,29.9z
		 M70,29.3C70,29.4,70.1,29.4,70,29.3l0.2,0.1c0,0,0-0.1-0.1-0.1H70z M70.3,34.8L70.3,34.8l0.1,0.2v0.1c-0.1,0-0.1,0-0.1,0v0.1h0.2
		l0.4,0v-0.1c-0.2,0-0.4-0.1-0.4-0.2c0,0,0-0.1,0-0.1l-0.1,0h-0.1C70.4,34.7,70.4,34.8,70.3,34.8z M70.9,35.6
		C70.9,35.6,70.9,35.6,70.9,35.6c0.2,0,0.3-0.1,0.3-0.1c0-0.1,0-0.1-0.1-0.1C71,35.5,70.9,35.5,70.9,35.6z M71,33.3L71,33.3l0.1,0
		v-0.1L71,33.3C71,33.2,71,33.2,71,33.3z M72,34.3L72,34.3c0,0.1,0,0.1,0.1,0.1h0c0,0,0.1,0,0.1-0.1v-0.1
		C72.2,34.3,72.1,34.3,72,34.3z M73.1,23.4c0.7,0,1.1,0.2,1.1,0.5c0,0.3-0.2,0.8-0.5,1.4c0,0-0.1,0-0.1,0c0,0-0.1,0-0.3,0
		c-0.1,0-0.2,0.1-0.2,0.1h0c-0.2,0-0.3-0.5-0.4-1.5C72.7,23.5,72.8,23.4,73.1,23.4z M73,29.1c1.1,0.1,1.6,0.2,1.6,0.4
		c0.3,0.1,0.4,0.3,0.4,0.5c-0.1,0.5-0.2,0.8-0.3,0.8c-0.2,0-0.4,0.1-0.5,0.1c-0.5-0.2-0.8-0.4-0.8-0.5c-0.4-0.4-0.5-0.8-0.5-1.1
		C72.8,29.2,72.9,29.1,73,29.1z M78.4,21.8c0.3,0.1,0.5,0.2,0.5,0.4c-0.1,0.8-0.4,1.3-0.7,1.7l-0.6,1c0.4,0.5,0.6,1.3,0.6,2.6
		c0,0,0.1,0.3,0.1,0.8c0,0.1,0,0.7,0,1.7c0,0.6,0,1.8,0,3.7c0,0.9,0,1.6,0,1.9l0.1,1.2c-0.2,0.8-0.5,1.1-1.1,1.1c-0.5,0-0.9-0.3-1-1
		l0-0.2c0-1.8-0.1-2.9-0.1-3.3c0-0.2,0.1-0.5,0.1-0.9v-5.8c0-0.1,0-0.3,0-0.5l-0.1,0h-0.6c-0.4,0-0.6-0.3-0.6-0.9
		c0.1-0.4,0.4-0.7,0.9-1.1c1.2-1.4,1.9-2.1,2.1-2.1C78.4,21.9,78.4,21.8,78.4,21.8z M75.6,25.1L75.6,25.1L75.6,25.1L75.6,25.1
		L75.6,25.1z M75.7,25L75.7,25L75.7,25C75.8,25,75.7,25,75.7,25z M75.8,25.3L75.8,25.3c0,0.1,0,0.1,0,0.1L75.8,25.3
		C75.8,25.3,75.8,25.3,75.8,25.3z M76.1,25L76.1,25L76.1,25L76.1,25L76.1,25z M76.1,25.6L76.1,25.6L76.1,25.6
		C76.2,25.6,76.2,25.6,76.1,25.6z M77,33.7L77,33.7c0,0.1,0,0.1,0.1,0.1L77,33.7L77,33.7z M77.1,26.1l0.1,0.1h0.2c0,0,0,0,0,0l0.1,0
		h0.3v-0.2h-0.1c0,0,0,0,0,0c0,0-0.1,0-0.2,0V26l0-0.1h0C77.2,26,77.1,26.1,77.1,26.1z M77.1,26.5L77.1,26.5L77.1,26.5
		C77.1,26.6,77.1,26.6,77.1,26.5l0.3,0.1l0.3,0c0,0,0.1,0,0.1,0v-0.1c-0.1,0-0.1-0.1-0.1-0.2h-0.1C77.3,26.5,77.2,26.5,77.1,26.5z
		 M77.2,25.3c0,0,0,0.1,0.1,0.1h0.1v0c0,0,0-0.1-0.1-0.1H77.2z M77.6,34.3v0.2h0.1c0,0,0.1,0,0.1-0.1c0,0,0-0.1-0.1-0.1H77.6z
		 M77.8,36.2v0.1c0,0,0,0.1,0.1,0.1H78c0-0.1,0-0.1,0-0.1l-0.1-0.1C77.9,36.2,77.8,36.2,77.8,36.2z M82.8,25.1
		c0.4,0,0.5,0.2,0.5,0.5c-0.1,0.7-0.4,1.1-0.9,1.1l0,0.1c0.1,0.4,0.2,0.9,0.3,1.6h0.1l0.4-0.1c0.2,0,0.3,0.1,0.4,0.4
		c0,0.3-0.3,0.7-0.8,1.1v1.6h0c0.3-0.1,0.6-0.2,0.7-0.2h0.3c0.2,0,0.3,0.2,0.3,0.5c0,0.5-0.5,0.9-1.4,1.4h-0.1c0,0.3,0,0.6,0,0.7
		v0.8c0,0.3-0.1,0.5-0.3,0.7v0l0.2,0h0.1l1.3-0.2c0.1-0.1,0.3-0.1,0.5-0.1h0.3c0.2,0,0.3,0.1,0.3,0.3c-0.2,0.9-0.6,1.3-1.3,1.3
		l-1.2,0.1h0c-0.3-0.1-0.5-0.1-0.5-0.1H82c-0.3,0.1-0.5,0.1-0.6,0.1c-0.3-0.1-0.6-0.1-1-0.2c-0.7-0.1-1-0.4-1-0.6
		c0,0-0.1-0.1-0.1-0.4c0-0.2,0.2-0.3,0.5-0.3h0.1c0.2,0,0.6,0,1.1,0v-0.1c-0.1-0.1-0.2-0.6-0.4-1.4v-0.6c0,0,0-0.1-0.1-0.1
		c-0.2,0.1-0.4,0.1-0.5,0.1c-0.2,0-0.5-0.2-0.8-0.5c-0.1-0.2-0.2-0.4-0.2-0.6v-0.1c0-0.1,0-0.2,0.1-0.3c0.2,0,0.4,0,0.5,0h0.5
		c0.3,0,0.5,0,0.5-0.1c0-1,0-1.6,0-1.8h-0.1c-0.2,0.1-0.4,0.1-0.5,0.1c-0.5-0.1-0.9-0.3-0.9-0.5c-0.2-0.1-0.3-0.3-0.3-0.4
		c0-0.2,0.1-0.4,0.3-0.5c0.4,0,0.7,0,0.9,0h0.7c0,0,0-0.1,0-0.1c0-0.4,0-0.8,0-1.1v-0.1c0,0,0-0.2,0.1-0.6v-0.1h0l-0.3,0
		c-0.4,0-0.8-0.2-1.2-0.4c-0.2-0.3-0.3-0.5-0.3-0.8v-0.1c0-0.1,0.1-0.2,0.3-0.2h0.1c0.4,0,0.8,0,1.2,0c0.2,0,0.3,0,0.3-0.1
		c0,0,0.1,0,0.1,0c0.1,0,0.2,0,0.3-0.1l0.2,0h0L82.8,25.1z M80,29.2L80,29.2l0.1,0.1h0.1c0.1,0,0.1,0,0.1-0.1L80,29.2z M80,32.9
		L80,32.9l0.1,0v-0.1L80,32.9C80,32.8,80,32.8,80,32.9z M80.9,22.5c1.1,0.1,1.6,0.4,1.6,0.8c0,0,0.1,0.1,0.1,0.2
		c0,0.2-0.2,0.5-0.5,0.8l-0.1,0h-0.2c0,0-0.1,0-0.3,0.1c-0.4-0.2-0.7-0.6-0.9-1.1c-0.1-0.2-0.2-0.3-0.2-0.5
		C80.6,22.6,80.7,22.5,80.9,22.5z M81.1,33.3L81.1,33.3c0.1,0,0.1,0,0.1,0L81.1,33.3C81.1,33.2,81.1,33.2,81.1,33.3z M81.2,33.8
		L81.2,33.8L81.2,33.8L81.2,33.8L81.2,33.8z M81.5,28.7v0.1c0.1,0,0.1,0,0.1,0c0,0,0.1,0,0.1,0v-0.1H81.5z M81.5,34.4L81.5,34.4
		c0.1,0.1,0.2,0,0.3,0v0H81.5z M81.7,34.1c0,0,0,0.1,0.1,0.2H82v-0.2c-0.1,0-0.1,0-0.1,0C81.8,34.1,81.7,34.1,81.7,34.1z M81.8,34.7
		v0.1h0.1c0.1,0,0.1,0,0.1-0.1L81.8,34.7L81.8,34.7z M82.1,34.3c0,0.1,0.1,0.2,0.1,0.2h0.1c0,0,0.1,0,0.1-0.1v-0.2h0
		C82.3,34.3,82.2,34.3,82.1,34.3z M82.1,34.8L82.1,34.8l0.2,0v0H82.1z M82.7,26L82.7,26l0,0.2l0.2,0V26C82.7,26,82.7,26,82.7,26z"/>
	<path class="st2" d="M103.9,19.9c0.5,0,0.7,0.3,0.7,0.8c0,0.9-0.6,1.6-1.9,2h-0.1c-0.2,0-0.3-0.1-0.3-0.3v-0.6
		c-0.2,0-0.9,0.1-1.9,0.3c-0.2,0-0.8,0.1-1.9,0.3h0v0.1c0.1,0,0.2,0.4,0.3,1.2v0.1c-0.1,2.1-0.3,3.3-0.5,3.4l-0.1,0.1v0
		c0.6,0.2,2,0.4,4.4,0.7c0.4,0,1.5-0.2,3.1-0.5c0.4,0.1,0.6,0.2,0.6,0.4c0,0.5-0.6,1-1.9,1.5c-0.3,0-0.4,0-0.4,0.1l-0.2,0h-0.2
		c-0.3,0-0.4,0-0.6,0c-0.4,0-0.8,0.1-1.1,0.1c-1.4-0.2-2.4-0.4-3-0.5l0,0.1c0.1,0.2,0.2,0.8,0.3,1.7h0c1-0.1,2.3-0.3,3.8-0.5h0.1
		c0.4,0,0.6,0.3,0.6,0.9l-0.4,2.2c-0.4,0.5-0.8,0.8-1.3,0.8c-0.1,0-0.2-0.1-0.4-0.2h-0.1c0,0.3-0.3,0.5-0.8,0.8
		c-0.8,0.3-1.5,0.5-2,0.5v0.4c0,0.5-0.2,0.8-0.5,1c-0.1,0.1-0.3,0.1-0.5,0.1c-0.5-0.1-0.7-0.4-0.7-1c0-0.3-0.1-0.5-0.2-0.5
		c-0.3,0.1-0.5,0.1-0.7,0.1c-0.5-0.1-0.9-0.2-1.1-0.3c-0.3-0.3-0.5-0.5-0.5-0.7c0.1-0.1,0.3-0.2,0.4-0.2h0c0.5,0,1.1,0,1.8,0l0.2,0
		c0-0.2,0-0.3,0-0.3c0-0.1,0.1-0.7,0.1-1.8c-0.7-0.1-1.4-0.4-2.3-0.8c-0.2-0.2-0.3-0.4-0.3-0.5v0c0-0.1,0.2-0.1,0.6-0.1l1.4,0.2h0.4
		c0,0,0,0,0,0c0.1,0,0.1-0.1,0.1-0.3c0-0.2,0-0.6,0-1.2c0.1-0.4,0.2-0.7,0.4-0.7v-0.1c-1.9-0.6-3-1.1-3.4-1.5
		c-0.1-0.1-0.3-0.4-0.6-0.8c-0.1,0-0.3,0.5-0.8,1.5c-0.1,0.3-0.6,0.8-1.5,1.5c-0.1,0-0.3,0.1-0.6,0.1c-0.6,0-0.9-0.2-0.9-0.5
		c0,0,0,0,0,0c0-0.3,0.5-1,1.4-1.9l1.8-2.9c0.3-0.3,0.6-0.5,0.7-0.5c0,0,0.1,0,0.2,0h0c0,0.1,0.1,0.3,0.2,0.4c0,0.1,0,0.2,0,0.2
		l-0.3,1.6c0.2,0.2,1.2,0.6,3.2,1.2h0.1c-0.1-0.3-0.2-0.8-0.2-1.2h0c0.1-0.2,0.1-0.6,0.2-1.1c0,0,0.1,0,0.1,0v-0.1
		c0,0,0-0.1-0.1-0.1c0.1-1.3,0.2-1.9,0.3-1.9v0h0c-0.3,0-1.2,0.1-2.7,0.2c-1.3,0-2.2-0.3-2.9-0.8c-0.2-0.3-0.3-0.5-0.3-0.7
		c0-0.3,0.2-0.5,0.4-0.5c0.1,0,0.7,0.1,1.8,0.4h0.1c1.2,0.1,1.9,0.1,2.1,0.1c2.9,0,5.1-0.3,6.7-0.8C103,20.1,103.6,19.9,103.9,19.9z
		 M90.3,28.4c0,0,0.1,0,0.1,0c0.2,0,0.3,0,0.3,0c0,0,0.1,0,0.1,0v-0.1c-0.1,0-0.1,0-0.1-0.1h-0.1L90.3,28.4z M90.6,27.9V28
		c0.1,0,0.2,0,0.4,0.1c0.1,0,0.2-0.1,0.2-0.1c0-0.1,0-0.1-0.1-0.1h0L91,28h0c0-0.1,0-0.1-0.1-0.1h0L90.6,27.9z M91.1,28.4L91.1,28.4
		L91.1,28.4L91.1,28.4L91.1,28.4z M92.4,29.5c0.5,0,0.9,0.3,1.3,0.9c0.1,0.2,0.1,0.4,0.1,0.6v0.1c0,0.4,0,1,0.1,1.9
		c-0.1,0.9-0.2,1.4-0.4,1.4l-0.8,0.2c-0.4,0-0.6-0.5-0.8-1.6c0-0.1,0-0.2,0-0.3c0-1.5-0.1-2.3-0.1-2.7
		C91.9,29.7,92.1,29.5,92.4,29.5z M92.7,30.5v0.1h0.2v0c0,0,0-0.1-0.1-0.1H92.7z M92.7,31.7v0.1l0.3,0h0.2v-0.1H93L92.7,31.7z
		 M101.5,36.5c0.1,0.1,0.2,0.2,0.2,0.4c0,0.6-1,1.1-3,1.5c-0.3,0-0.9,0.1-1.6,0.2c-0.4-0.1-0.8-0.2-1.1-0.2
		c-0.3,0.1-0.6,0.1-0.8,0.1c-1.2-0.2-1.8-0.4-1.8-0.6c-0.3-0.3-0.4-0.5-0.4-0.7c0-0.2,0.1-0.3,0.3-0.4c1.4,0.3,2.5,0.5,3.2,0.5h0.7
		c0.1,0,0.3,0,0.5,0c0,0,0.1,0,0.2,0c0.8-0.1,1.7-0.3,2.6-0.6C100.8,36.6,101.1,36.5,101.5,36.5z M93.1,31L93.1,31l0.1,0.2h0.1v-0.1
		C93.2,31.1,93.2,31.1,93.1,31z M96.8,27.7L96.8,27.7L96.8,27.7L96.8,27.7L96.8,27.7z M97.4,28v0.1h0c0,0,0.1,0,0.1-0.1L97.4,28
		L97.4,28z M97.4,30.2v0.2c0,0,0.1,0,0.2,0.1h0c0,0,0.1-0.1,0.1-0.2L97.4,30.2L97.4,30.2z M97.7,23.6C97.8,23.6,97.8,23.6,97.7,23.6
		H98h0.2v0c0,0,0-0.1-0.1-0.1H98C97.9,23.5,97.8,23.5,97.7,23.6z M97.9,26.5C97.9,26.5,97.9,26.5,97.9,26.5c0.2,0.1,0.3,0,0.3,0v0
		L97.9,26.5C97.9,26.4,97.9,26.4,97.9,26.5z M98.4,28.4L98.4,28.4c0.1,0.1,0.2,0.1,0.4,0.1c0,0,0-0.1,0-0.1v0c0,0-0.1,0-0.1,0
		C98.6,28.3,98.4,28.4,98.4,28.4z M98.8,32.2v1.6c0.3,0,1.1-0.2,2.1-0.6c0.3,0,0.5-0.1,0.5-0.3c0.1-0.4,0.2-0.7,0.2-1
		c-0.1,0-0.3-0.1-0.5-0.1c-0.6,0.1-1.3,0.2-2,0.2C98.9,32.1,98.8,32.1,98.8,32.2z M102.8,23.6c0.2,0,0.3,0.1,0.4,0.4
		c-0.2,0.9-0.5,1.3-1,1.3c-0.1,0-0.4,0.1-0.9,0.2c-0.2-0.1-0.4-0.1-0.5-0.1c-0.1,0.1-0.3,0.1-0.4,0.1c-0.2-0.1-0.4-0.1-0.7-0.2
		c-0.3-0.2-0.5-0.4-0.5-0.5v-0.2c0-0.3,0.3-0.5,0.8-0.5c0.8,0,1.1-0.1,1.1-0.1c0,0,0.1,0,0.1,0C102.2,23.8,102.7,23.6,102.8,23.6z
		 M100,28.3L100,28.3l0.1,0.1v-0.1H100z M100.6,28.2c0,0.1-0.1,0.1-0.4,0.1v0c0.2,0,0.3,0,0.3,0c0,0,0.1,0,0.2,0c0,0,0.1,0,0.1,0
		v-0.1C100.8,28.3,100.7,28.3,100.6,28.2z M101,21.5L101,21.5l0.2,0v0C101.2,21.5,101.2,21.5,101,21.5C101.1,21.5,101,21.5,101,21.5
		z M102.7,35.4h0.2c0.4,0.1,0.9,0.3,1.4,0.7c0.3,0.3,0.5,0.9,0.5,1.7c0,0,0,0.1,0,0.3c-0.2,0.7-0.4,1.1-0.8,1.1
		c-0.2,0-0.4,0.1-0.5,0.1c-0.3,0-0.6-0.4-0.8-1.3c0-0.1,0.1-0.2,0.1-0.3c0-0.3-0.1-1-0.3-2.1h0.2C102.6,35.4,102.6,35.4,102.7,35.4z
		 M102.7,30.5v0.1h0.1c0,0,0.1,0,0.1-0.1L102.7,30.5L102.7,30.5z M102.8,31.7v0.1c0.1,0,0.2,0,0.3,0v-0.1c0,0-0.1,0-0.1,0
		L102.8,31.7z M103.2,36.8v0.1h0.1c0.1,0,0.1,0,0.1-0.1v0H103.2z M103.4,36.6L103.4,36.6l0,0.1l0.1,0h0.1c0,0,0.1,0,0.1,0.1v0.1
		l-0.1,0V37h0.3l0.4,0c0,0,0,0,0,0c0-0.1-0.1-0.1-0.3-0.2l0-0.1c0,0,0-0.1,0-0.1c-0.1,0-0.1-0.1-0.1-0.1
		C103.6,36.6,103.5,36.6,103.4,36.6z M103.6,20.5L103.6,20.5l0.2,0.1l0.4,0v-0.1c0,0-0.1-0.1-0.4-0.2h0
		C103.7,20.4,103.6,20.5,103.6,20.5z"/>
	<path class="st2" d="M128.6,28c0.2,0,0.3,0.2,0.4,0.5c0,0.7-0.4,1.2-1.2,1.5c-1.4,0.4-2.6,0.6-3.7,0.8c-0.3,0-1.4,0.1-3.3,0.3
		c-0.5-0.1-1.2-0.1-2.1-0.1c-0.6,0.1-1.1,0.1-1.6,0.1h-0.2c-1.7-0.1-3-0.2-3.9-0.4c-0.6-0.1-0.9-0.3-1.1-0.6
		c-0.2-0.3-0.3-0.6-0.3-0.8c0-0.3,0.2-0.5,0.5-0.5c0.1,0,0.9,0.2,2.5,0.6c1.9,0.3,3.3,0.5,4.3,0.5c3-0.1,4.5-0.2,4.5-0.4
		c1.1-0.2,2.2-0.5,3.1-0.9C127.6,28.2,128.3,28,128.6,28L128.6,28z M112.3,29.8L112.3,29.8c0,0.1,0,0.1,0.1,0.1h0.1v-0.1L112.3,29.8
		z M117.7,30.5L117.7,30.5l0,0.2h0.1c0,0,0.1,0,0.1-0.1C117.8,30.5,117.8,30.5,117.7,30.5z M119.3,30.7v0.1h0.1v0
		C119.4,30.7,119.4,30.7,119.3,30.7L119.3,30.7z M121.5,30.6L121.5,30.6c0.1,0.1,0.2,0,0.3,0v0H121.5z M121.7,30.4
		c0,0,0.1,0.1,0.2,0.2h0.1v-0.2c-0.1,0-0.1,0-0.2,0C121.8,30.4,121.8,30.4,121.7,30.4z M122.1,30.6h0.3v-0.1l0-0.1
		C122.2,30.5,122.1,30.6,122.1,30.6z"/>
	<path class="st2" d="M139.9,32.2c0.1,0,0.2,0.1,0.3,0.3c0,0.5-0.4,1-1.1,1.6c-0.7,0.7-1.2,1.1-1.6,1.3c-0.4,0.3-0.7,0.5-0.8,0.5
		h-0.2c-0.2,0-0.3,0-0.5,0l-0.2,0c-0.3,0-0.6-0.3-0.8-1c0-0.6,0.3-0.9,1-0.9c0.7-0.4,1.4-0.7,2.3-1
		C139.3,32.4,139.8,32.2,139.9,32.2z M135.8,25.2l2.5,0.8c0.7,0.1,1,0.4,1,0.8c-0.1,0.7-0.4,1-0.7,1c-0.2-0.1-0.4-0.2-0.5-0.2H138
		c0,0-0.2,0.1-0.5,0.2l-1.1-0.3c-0.1,0-0.4-0.2-0.8-0.6c-0.3-0.4-0.5-0.8-0.5-1.1C135.2,25.3,135.4,25.2,135.8,25.2z M143.4,22
		c0.4,0,0.7,0.2,0.7,0.6c0,0.7-0.2,1.5-0.6,2.5c0,0,0,0,0,0c1.2-0.2,2.2-0.3,3-0.3c0.9-0.2,1.8-0.4,2.8-0.5c0.5,0.1,0.8,0.2,0.9,0.4
		c0.2,0.3,0.3,0.7,0.3,1.1c0,1-0.5,2.3-1.6,3.9c-0.2,0.2-0.6,0.4-1.2,0.5h-0.3c0,0,0,0,0,0c-0.3,0-0.4-0.1-0.4-0.2
		c0-0.2,0.3-0.8,0.9-2c0.3-0.5,0.5-1,0.7-1.6c0-0.1,0-0.1-0.1-0.1c-1.4,0.3-2.4,0.5-3,0.5c-0.6,0-1.4-0.2-2.3-0.5
		c-0.1,0-0.3,0.5-0.8,1.5c-0.2,0.2-0.5,0.3-1,0.3c-0.5,0-0.8-0.4-0.8-1.1c0-0.1,0-0.1,0-0.1c0.2-0.8,0.4-1.3,0.6-1.6
		c0.9-2,1.5-3,1.7-3C142.9,22.1,143.1,22,143.4,22z M141.4,27.5c0,0,0,0.1,0.1,0.1h0.1v0c0,0,0-0.1-0.1-0.1H141.4z M145.2,27.4
		c0.5,0,0.8,0.4,0.9,1.1V29c0,0.9-0.2,1.9-0.5,3l-0.1,0.5c0.5,0.2,1.1,0.6,2,1.2c0.8,0.9,1.6,1.3,2.2,1.3c0.5,0.1,0.8,0.3,0.8,0.8
		V36c0,0.7-0.5,1.1-1.4,1.1c-0.1,0-0.2,0-0.3,0c-0.1,0-0.6-0.2-1.3-0.5c-0.5-0.4-1-0.9-1.5-1.6l-0.9-1.1H145c0,0.1-0.2,0.6-0.7,1.5
		c-0.3,0.6-0.8,1-1.4,1h-0.2c-0.6-0.1-0.9-0.4-0.9-0.9c0-0.3,0.3-0.7,0.8-1.4c0-0.1,0.2-0.7,0.7-1.7c0.6-1.8,0.9-3.1,0.9-3.8
		C144.2,27.8,144.6,27.4,145.2,27.4L145.2,27.4z M143.4,22.5v0.1h0.1v-0.1H143.4z M143.8,32.2v0.1l0.3,0h0.2v0c0,0,0-0.1-0.1-0.1
		L143.8,32.2z M143.9,35.1L143.9,35.1c0,0.1,0,0.2,0.1,0.2c0.1,0,0.1,0,0.1-0.1v-0.1H143.9z M144.2,31.5L144.2,31.5l0.2,0.2h0.1v0
		C144.5,31.6,144.4,31.5,144.2,31.5z M145,31.2L145,31.2L145,31.2L145,31.2L145,31.2z M148.5,28.5L148.5,28.5c0.1,0,0.1,0,0.1,0
		L148.5,28.5C148.5,28.4,148.5,28.4,148.5,28.5z M149,26.9C149,27,149,27,149,26.9c0.3,0,0.4,0,0.4,0v-0.1
		C149.1,26.8,149,26.9,149,26.9z M149.5,27.2v0.1l0.2,0l0-0.1v0L149.5,27.2L149.5,27.2z"/>
	<path class="st2" d="M156.8,29.4l0.7,0.1v0l0.1,0h0.3c0,0,0,0,0,0l0.1,0h0.2c0.1,0,0.2,0,0.3,0c0.5,0.1,0.7,0.2,0.7,0.5
		c0,0.3-0.3,0.5-0.8,0.7c-0.2-0.1-0.3-0.1-0.3-0.1c0,0-0.1,0.1-0.3,0.2c-0.6-0.1-0.9-0.2-0.9-0.4c-0.2-0.2-0.3-0.4-0.3-0.6
		C156.5,29.6,156.6,29.5,156.8,29.4z M162.2,29.8c0.5,0,0.9,0.7,1.1,2c0,0.3,0,0.6,0,0.8c0,0.6,0,1.4,0,2.4l0,0.1c0,0,0,0.3-0.1,0.7
		c0.1,0.3,0.1,0.5,0.1,0.5c0,0.5-0.3,0.8-1,0.9c-0.1,0-0.1,0-0.2,0c-0.4,0-0.7-0.4-0.8-1.3c0-0.6-0.1-1-0.1-1.2
		c0-0.1,0.1-0.2,0.1-0.4V34c-0.2,0.4-0.6,0.7-1,1c-0.7,0.7-1.2,1.2-1.7,1.4c-0.2,0.2-0.6,0.4-1.2,0.4c-0.1,0-0.1,0-0.2,0
		c-0.3,0-0.5-0.3-0.7-0.9c0-0.4,0.4-0.7,1.2-0.8c0.1-0.1,0.7-0.4,1.8-1c0.8-0.6,1.3-0.9,1.5-0.9h0.2v-1.5c0-0.7,0.1-1.3,0.4-1.6
		C161.9,29.9,162,29.8,162.2,29.8z M157.8,24.8c1.1,0.1,1.7,0.2,1.7,0.4c0.1,0,0.1,0.2,0.2,0.5c0,0.3-0.2,0.6-0.7,0.8
		c-0.1-0.1-0.2-0.1-0.3-0.1c-0.2,0.1-0.3,0.1-0.3,0.1c-0.6-0.1-0.9-0.3-0.9-0.5c-0.2-0.2-0.3-0.4-0.3-0.7
		C157.2,25,157.4,24.9,157.8,24.8z M169,21.5c0.5,0.1,0.8,0.3,0.8,0.8c0,0.1,0.1,0.3,0.2,0.6c0,0.1,0,0.4-0.1,0.9h0.1
		c0.2,0,0.9-0.3,2.2-0.8l0.2,0c0.1,0,0.2,0.1,0.2,0.3v0.1c0,0.6-0.7,1.2-2.1,1.6c-0.4,0.1-0.6,0.2-0.6,0.3c-0.1,0.9-0.3,1.4-0.6,1.4
		c-0.2,0-0.6,0.3-1.3,0.8c-0.1,0.1-0.2,0.1-0.5,0.2v0.1c0.3,0.2,0.5,0.8,0.5,1.8c0.1,0.5,0.1,0.7,0.1,0.8c0.6,0,2-0.2,4.3-0.6
		c0.1,0,0.2,0,0.5,0c0.6,0,0.9,0.5,0.9,1.4c0,0.6-0.3,2.4-0.8,5.4c-0.4,0.8-0.8,1.3-1.3,1.3c-0.5,0-1-0.4-1.6-1.1v-0.1
		c0-0.2,0.2-0.4,0.5-0.4c0.2,0.1,0.5,0.1,0.7,0.1c0.2-0.9,0.4-1.5,0.4-2.1l-0.1,0c-0.1,0-0.2,0-0.5,0.1c-0.4-0.2-0.7-0.4-0.9-0.5
		H170c-0.3,0.9-0.6,1.5-1,1.7h-0.4c-0.1,0-0.2,0-0.3,0c-0.1,0-0.2-0.1-0.4-0.3h0v1.3c-0.1,0.7-0.4,1-0.8,1h0c-0.5,0-0.8-0.3-0.8-0.8
		c0,0,0-0.2,0-0.5c0-0.4-0.1-0.7-0.1-0.7l0-0.1c0-0.9-0.1-1.4-0.3-1.4c-0.1-0.1-0.2-0.1-0.5-0.1c0,0.7-0.2,1.4-0.7,2.1
		c-0.5,0-0.7,0.1-0.7,0.1c-0.2,0-0.4-0.2-0.5-0.7c0-0.3,0.1-0.7,0.4-1c0.3-1,0.5-1.6,0.5-1.7c-0.1-0.1-0.2-0.2-0.3-0.3v-0.1
		c0-0.2,0.2-0.3,0.5-0.3c0.5,0.1,1,0.3,1.5,0.5v-0.7c0,0-0.5-0.2-1.4-0.4c-0.2,0-0.8-0.4-1.7-1.2c-0.1-0.1-0.1-0.3-0.2-0.5
		c0.1-0.1,0.3-0.1,0.5-0.1c1.8,0.4,2.7,0.6,2.8,0.6v-1.2c0-0.1,0-0.3,0-0.5c0.1-0.5,0.3-0.9,0.5-1.1v0h-0.1c-0.1,0-0.3,0-0.6,0.1
		c-0.4,0-0.7-0.3-1.1-0.9c-0.2-0.8-0.3-1.2-0.3-1.3c-0.5,0-1.3-0.2-2.4-0.6c-0.2-0.2-0.3-0.4-0.3-0.6c0-0.3,0.1-0.4,0.2-0.4
		c1.5,0.3,2.4,0.4,2.6,0.4v-0.9c0-0.8,0.1-1.1,0.4-1.1c0.6,0,1,0.5,1.2,1.6v0.5h0.4c0.2,0,0.3,0,0.5,0c0.1,0,0.2,0,0.3,0
		c0.4,0,0.7-0.1,0.7-0.2C168.2,22.4,168.5,21.5,169,21.5z M162.1,24.2L162.1,24.2C162.2,24.2,162.2,24.2,162.1,24.2L162.1,24.2z
		 M162.9,36.2L162.9,36.2L162.9,36.2L162.9,36.2L162.9,36.2z M163.8,24.5L163.8,24.5l0.1,0.1v-0.1H163.8z M164.2,35.4L164.2,35.4
		c0,0.1,0,0.1,0.1,0.2h0c0,0,0.1,0,0.1-0.1c0,0,0-0.1,0-0.1L164.2,35.4z M166.2,25.3v0.4c0,0.3,0.2,0.4,0.7,0.4h0.5
		c0.2,0,0.4,0,0.6-0.1l0-0.4v-0.2c0,0,0-0.1-0.1-0.1c-0.3,0-0.6,0-0.7,0C166.8,25.3,166.4,25.3,166.2,25.3z M166.6,31.9L166.6,31.9
		l0,0.1L166.6,31.9L166.6,31.9z M166.6,28.4L166.6,28.4c0,0.1,0,0.1,0.1,0.1c0,0,0.1,0,0.1-0.1L166.6,28.4L166.6,28.4z M167,32.4
		h-0.3v0.1c0.2,0,0.3,0.1,0.4,0.1h0v0l0-0.1c0,0,0.1,0,0.1-0.1v0c0,0-0.1,0-0.1,0L167,32.4z M167,34.1c0,0.1,0,0.1-0.1,0.1v0.1h0.2
		c0,0,0,0,0,0c0.2,0.1,0.4,0.1,0.4,0.1v-0.2C167.2,34.2,167.1,34.1,167,34.1L167,34.1z M167.3,32.7L167.3,32.7c0,0.1,0,0.1,0,0.1
		L167.3,32.7C167.4,32.7,167.3,32.7,167.3,32.7z M167.5,34.7L167.5,34.7l0.1,0.1v-0.1H167.5z M167.9,31.7c0,1.4,0.1,2.3,0.1,2.6
		c0.2-0.1,0.6-0.6,1.1-1.5c0-0.1,0-0.2-0.1-0.3l-0.4,0h-0.1c-0.2-0.1-0.3-0.3-0.3-0.5c0-0.1,0.1-0.2,0.4-0.3c0.2,0,0.6,0.1,1.2,0.4
		c0.2-0.1,0.3-0.1,0.4-0.1c0,0.3,0.5,0.5,1.4,0.7c0.1-0.4,0.2-0.9,0.2-1.4v-0.2c-0.3,0-0.7-0.1-1.2-0.1
		C168.9,31.4,168,31.6,167.9,31.7z M168.5,24.7v0.1h0.1L168.5,24.7L168.5,24.7z M168.8,34L168.8,34c0.2,0,0.3,0,0.3,0
		c0,0,0.1,0,0.1,0v-0.1c-0.1,0-0.1-0.1-0.1-0.2h-0.1C168.9,33.8,168.9,33.8,168.8,34z M169.1,33.6L169.1,33.6c0.1,0,0.2,0.1,0.3,0.1
		v-0.1c0,0,0-0.1-0.1-0.1h-0.1C169.1,33.5,169.1,33.5,169.1,33.6z M169.1,25.2v0.2h0.1c0,0,0.1,0,0.1-0.1c0-0.1,0-0.1-0.1-0.1H169.1
		z M169.3,33.6L169.3,33.6c0.2,0,0.3,0,0.3,0c0,0,0-0.1-0.1-0.1h0C169.4,33.6,169.4,33.6,169.3,33.6z M171.2,23.8L171.2,23.8l0,0.1
		c0,0,0.2,0,0.4-0.1v0c0-0.1,0-0.1-0.1-0.1L171.2,23.8z M171.4,37.4L171.4,37.4l0.2,0v-0.1L171.4,37.4
		C171.4,37.3,171.4,37.3,171.4,37.4z M171.6,36.7c0,0,0,0.1,0,0.1h0.1c0,0,0.1,0,0.1-0.1l-0.1,0H171.6z"/>
	<path class="st2" d="M183.5,30.4c0.5,0,0.8,0.3,0.8,0.8c0,0,0.1,0.3,0.1,0.9l-0.2,1c0.5,0.3,1.2,0.8,2.2,1.6c1,0.4,1.6,0.7,1.9,0.8
		c0.9,0.2,1.8,0.4,2.5,0.4c0.3,0,1.1-0.1,2.3-0.3l0.1,0h0.3c0.4,0,0.6,0.2,0.6,0.5c0,0.7-0.8,1.2-2.3,1.5c-0.4-0.1-0.9-0.1-1.5-0.1
		c-0.3,0.1-0.5,0.1-0.7,0.1c-0.3,0-1-0.2-2-0.5c-1-0.5-1.6-0.7-1.6-0.8c-0.6-0.4-1.2-0.9-1.7-1.5c-0.3-0.4-0.5-0.7-0.5-0.7h0
		c0,0.2-0.4,0.9-1.1,2c-0.2,0.1-0.5,0.2-0.8,0.2h-0.2c-0.5,0-0.8-0.4-0.9-1.1c0.4-0.7,0.6-1,0.6-1.1c0.4-0.3,0.7-1.1,1.1-2.3
		c0-0.7,0.2-1.1,0.5-1.3C183.1,30.5,183.3,30.4,183.5,30.4z M191.9,21.4c0.4,0,0.5,0.3,0.5,0.9c0,0.7-0.3,1.7-0.8,3
		c0,0.2,0,0.3,0.1,0.3c-0.1,0.6-0.5,1-0.9,1.3c-1.2,0.6-1.9,0.9-2.3,0.9v0c0.1,0.4,0.2,0.8,0.2,1.1c0,0.7,0,1.3,0,1.8v0.2h0l2.4-0.7
		l1-0.3c0.3,0,0.5,0.2,0.5,0.5c0,0.4-0.2,0.8-0.6,1.1c-0.1,0.1-0.6,0.2-1.5,0.4c-0.2-0.1-0.3-0.1-0.3-0.1H190c0,0-0.2,0-0.5,0.1
		l-0.8-0.1v0c0,1.3-0.2,2-0.4,2c-0.1,0.1-0.4,0.2-0.9,0.3c-0.4,0-0.7-0.4-0.8-1.1c0-0.1-0.1-0.1-0.1-0.1l0-0.2v-0.3
		c0-0.4,0-0.6-0.1-0.6c0.1-0.2,0.1-0.5,0.1-0.9v-0.1c0-0.1,0-0.1,0-0.1l0-0.2v-0.3c0-0.5,0-1.2,0-2c0-0.2-0.1-0.3-0.1-0.3h-0.3
		c-0.5,0.1-0.7,0.1-0.7,0.1h-0.1c-1-0.1-1.4-0.3-1.4-0.5c-0.1,0-0.1-0.1-0.1-0.1l-0.7,0.1c-0.4,0-0.7-0.4-0.9-1.3
		c0-0.3,0-0.5-0.1-0.7c0-0.2,0-0.4,0-0.5L182,22c0-0.3,0.1-0.5,0.4-0.5h0.2c0.1,0,0.5,0.2,1,0.5c0.1,0,0.4,0.5,0.7,1.5
		c0,0.8,0.1,1.5,0.3,2.2c0,0.1-0.2,0.2-0.5,0.3V26c0.1,0.3,0.2,0.5,0.3,0.5h0.1c2.6-0.1,4-0.2,4-0.4c0.8-0.1,1.2-0.3,1.2-0.6
		c0.1,0,0.3-0.5,0.7-1.5c0,0,0.1-0.1,0.1-0.4h0c-0.2,0-1,0.1-2.3,0.2h-0.8c-0.9,0-1.8-0.2-2.5-0.7c-0.1-0.2-0.2-0.4-0.2-0.5
		c0-0.3,0.2-0.4,0.5-0.4c0.1,0,0.3,0,0.4,0l0.6,0c0.1,0,0.4,0,1.1,0c1.4-0.1,2.4-0.2,3-0.4C190.8,21.6,191.5,21.5,191.9,21.4z
		 M182.8,25.4L182.8,25.4l0,0.1c0.1,0.2,0.3,0.3,0.5,0.3l0.1-0.1C183.1,25.4,182.9,25.4,182.8,25.4z M183,23.3L183,23.3
		c0.1,0,0.1,0,0.1,0L183,23.3C183,23.2,183,23.3,183,23.3z M183.2,34v0.1c0,0,0.1,0,0.1,0l0.1-0.1l-0.1,0H183.2z M184.6,34.2
		L184.6,34.2L184.6,34.2L184.6,34.2L184.6,34.2z M185.5,22.9L185.5,22.9c0,0.1,0.1,0.2,0.2,0.2c0-0.1,0.1-0.1,0.1-0.1v0L185.5,22.9z
		 M185.8,23.1L185.8,23.1c0,0.1,0.1,0.2,0.3,0.2h0.3c0,0,0,0,0,0c0,0,0.1,0,0.1,0c0-0.1-0.1-0.2-0.1-0.2l-0.1,0l-0.2-0.1l0-0.1v0h0
		C185.9,23.1,185.8,23.1,185.8,23.1z M186.6,23.3L186.6,23.3c0.1,0,0.2,0,0.2,0c0,0,0-0.1-0.1-0.1h0
		C186.7,23.2,186.7,23.2,186.6,23.3z M187.4,31.2L187.4,31.2L187.4,31.2L187.4,31.2L187.4,31.2z M187.6,33.7L187.6,33.7
		c0,0.1,0.1,0.1,0.1,0l0.2,0l0-0.1c0-0.1,0-0.1-0.1-0.1C187.7,33.6,187.6,33.7,187.6,33.7z M188.4,27v0.1l0.3,0h0.2V27h-0.2
		L188.4,27z M190.5,31.2c0,0,0,0.1,0.1,0.2h0.1v-0.2c-0.1,0-0.1,0-0.2,0C190.5,31.2,190.5,31.2,190.5,31.2z M190.8,22.6v0.1h0
		L190.8,22.6L190.8,22.6z M191,31.3L191,31.3L191,31.3c0.1,0.1,0.1,0,0.1,0H191z M191.2,30.6L191.2,30.6L191.2,30.6L191.2,30.6
		L191.2,30.6z M191.4,23.1L191.4,23.1l0,0.2h0.1c0,0,0.1,0,0.1-0.1C191.6,23.1,191.5,23.1,191.4,23.1z"/>
	<path class="st2" d="M200.5,32.2v0.1l0.2-0.1c0.5,0,0.8,0.3,0.8,1c-0.1,0.6-0.5,0.8-1.1,0.8h-0.4c-0.3-0.1-0.5-0.4-0.5-0.8
		C199.7,32.8,199.9,32.5,200.5,32.2z M201.2,23h0.1c0.6,0,1,0.4,1,1.1v0.2c-0.2,3.4-0.5,5.1-0.8,5.1c-0.2,0-0.2,0.1-0.2,0.2
		c-0.5,0-0.9-0.2-1.1-0.7l0.6-4.7l-0.1-0.2C200.9,23.4,201.1,23,201.2,23z"/>
	<path class="st2" d="M204.5,32.2v0.1l0.2-0.1c0.5,0,0.8,0.3,0.8,1c-0.1,0.6-0.5,0.8-1.1,0.8h-0.4c-0.3-0.1-0.5-0.4-0.5-0.8
		C203.6,32.8,203.9,32.5,204.5,32.2z M205.2,23h0.1c0.6,0,1,0.4,1,1.1v0.2c-0.2,3.4-0.5,5.1-0.8,5.1c-0.2,0-0.2,0.1-0.2,0.2
		c-0.5,0-0.9-0.2-1.1-0.7l0.6-4.7l-0.1-0.2C204.8,23.4,205,23,205.2,23z"/>
</g>
</svg>
