<?xml version="1.0" encoding="utf-8"?>
<!-- Generator: Adobe Illustrator 28.0.0, SVG Export Plug-In . SVG Version: 6.00 Build 0)  -->
<svg version="1.1" id="圖層_1" xmlns="http://www.w3.org/2000/svg" xmlns:xlink="http://www.w3.org/1999/xlink" x="0px" y="0px"
	 viewBox="0 0 500 500" style="enable-background:new 0 0 500 500;" xml:space="preserve">
<style type="text/css">
	.st0{fill:#EF5C3F;}
	.st1{fill:#FFFFFF;}
	.st2{fill:#FFC93D;}
</style>
<g>
	<path class="st0" d="M292,130.5c0,0-15.4-31-75.1-53.7c-56.9-21.6-84-7.4-84-7.4S152.1-1.2,183.8,0c38.4,1.5,36.6,19.1,36.6,19.1
		S233,6,252.9,20.5s18.6,30.7,18.6,30.7s17.8,0.4,28.3,16.8C310.4,84.3,292,130.5,292,130.5L292,130.5z"/>
	<path class="st1" d="M529.7,269.4c-92.6-4.2-173.7,46.8-187.4-0.2c-9.6-42.4-35.8-138.9-82-180.4C221.9,54.2,94,35.7,66.8,142.7
		C47.7,217.4-25.7,529.8,40,636.4c103.9,168.4,292.5,205,429.8,205c218.8-0.1,347.8-172.6,347.8-172.6l-37.8-14.9l40.1-49.2
		l-72.1-15.2l37.4-55.9l-57.9-0.8l37.8-73.9l-48.9-136.3l-44.8-64.9"/>
	<path class="st2" d="M77.8,127.6c0,0,2.2,17.1-2.8,39.9c-4.9,22.7-19,37-19,37S-3.3,159.6,0.1,147C3.5,134.4,77.8,127.6,77.8,127.6
		z"/>
</g>
</svg>
